<svg width="18" height="19" viewBox="0 0 24 25" fill="none" xmlns="http://www.w3.org/2000/svg">
<path d="M18.4595 2.5H18.745L18.7647 2.52954L18.7253 2.58863L18.6367 2.69695L18.5186 2.88405L18.4201 3.05145L18.3315 3.18932L18.2034 3.39611L17.9966 3.72107L17.8785 3.90817L17.7406 4.12482L17.6224 4.31192L17.5535 4.40054L17.5141 4.42024L17.0907 4.43008H14.3925L14.1857 4.42024L14.2251 4.48917L14.294 4.5581L14.3827 4.66642L14.4811 4.77474L14.5895 4.9126L14.6879 5.04062L14.7962 5.20803L14.9243 5.43452L15.003 5.59207L15.1015 5.80872L15.1901 6.04505L15.2492 6.27154L15.2689 6.37986V6.46849L16.8937 6.43895L17.6421 6.4291L18.4299 6.4094L18.7253 6.39956L18.7746 6.4094L18.7549 6.45864L18.6761 6.56696L18.5875 6.68513L18.4792 6.86238L18.361 7.04948L18.2133 7.27597L18.0951 7.46307L18.0163 7.58124L17.8785 7.79788L17.7603 7.98498L17.6224 8.20162L17.5634 8.2804L17.5043 8.30995L16.9627 8.32964L15.2394 8.35918H15.2197L15.2 8.4872L15.0917 8.95987L15.003 9.25529L14.9341 9.45224L14.7864 9.80675L14.6584 10.0529L14.5304 10.2696L14.3531 10.5355L14.2251 10.7029L14.1365 10.8112L14.0085 10.9589L13.9001 11.0771L13.6638 11.3134L13.5653 11.3922L13.4767 11.471L13.3684 11.5596L13.2404 11.6581L13.1222 11.7467L13.0237 11.8156L12.8563 11.9239L12.6495 12.0519L12.4033 12.1898L12.2162 12.2883L12.0587 12.3671L11.714 12.5246L11.33 12.6723L10.9755 12.7905L10.6407 12.889L10.1286 13.017L9.64608 13.1155L9.1931 13.1844L9.04539 13.2041L9.07493 13.273L9.16356 13.3715L9.23249 13.4503L9.3605 13.6078L9.46882 13.7457L9.5673 13.8737L9.67562 14.0116L9.80363 14.1691L9.90211 14.2971L10.0597 14.5039L10.1778 14.6615L10.3059 14.8191L10.4142 14.9569L10.5717 15.1637L10.7687 15.4197L10.8967 15.5773L11.005 15.7152L11.1035 15.8432L11.2315 16.0106L11.33 16.1386L11.4186 16.2469L11.5565 16.4242L11.6549 16.5522L11.783 16.7196L11.8913 16.8575L12.0193 17.015L12.1178 17.143L12.2556 17.3203L12.3443 17.4385L12.4821 17.6157L12.6101 17.7733L12.8071 18.0293L12.8957 18.1475L13.004 18.2853L13.132 18.4429L13.201 18.5315L13.329 18.6989L13.5259 18.9549L13.654 19.1125L13.7524 19.2405L13.8903 19.4178L14.0183 19.5852L14.1168 19.7132L14.2054 19.8215L14.3137 19.9594L14.4516 20.1366L14.6091 20.3434L14.7175 20.4813L14.8455 20.6388L14.944 20.7669L15.0818 20.9441L15.1803 21.0721L15.3969 21.3479L15.5151 21.4956L15.6333 21.6531L15.7317 21.7811L15.8598 21.9387L15.9878 22.1061L16.1158 22.2834L16.234 22.4508L16.2537 22.5H13.0533L13.0139 22.4212L12.9056 22.2834L12.7874 22.1356L12.6988 22.0175L12.5806 21.8698L12.4329 21.6728L12.3246 21.5448L12.2458 21.4463L12.1178 21.2888L12.0094 21.1509L11.8814 20.9934L11.7928 20.8752L11.6648 20.7176L11.5565 20.5798L11.4678 20.4714L11.3398 20.3139L11.2118 20.1465L11.0838 19.9889L11.005 19.8904L10.877 19.7329L10.7687 19.595L10.6505 19.4473L10.552 19.3193L10.424 19.1617L10.3157 19.0239L10.1877 18.8663L10.0794 18.7285L9.9415 18.5512L9.81348 18.3936L9.7347 18.2952L9.62638 18.1573L9.49837 17.9998L9.41959 17.9013L9.32111 17.7733L9.21279 17.6354L9.07493 17.468L8.96661 17.3301L8.83859 17.1726L8.71058 17.0052L8.59241 16.8575L8.48409 16.7196L8.37577 16.5916L8.27729 16.4636L8.06065 16.1878L7.80462 15.8727L7.58798 15.597L7.4895 15.469L7.36149 15.3114L7.25317 15.1736L7.16454 15.0652L7.04637 14.9175L6.91836 14.7501L6.78049 14.5827L6.67217 14.4449L6.54416 14.2873L6.41614 14.1199L6.28812 13.9623L6.20935 13.8639L6.08133 13.7063L5.95331 13.5389L5.88438 13.4306L5.86469 13.3616L5.87454 13.2041L5.89423 12.4852L5.91392 11.6581L5.92377 11.6482H6.04194L6.59339 11.6777L6.93805 11.6876H7.90309L8.41516 11.6581L8.84844 11.6088L9.34081 11.53L9.62638 11.471L9.90211 11.3922L10.1384 11.3134L10.4043 11.2051L10.7096 11.0574L10.9262 10.9293L11.133 10.7915L11.261 10.693L11.4186 10.565L11.6352 10.3484L11.7239 10.24L11.7928 10.1514L11.9011 10.0037L12.0291 9.7969L12.1768 9.50148L12.295 9.22575L12.4427 8.79247L12.5609 8.36903L12.5806 8.30995L10.0695 8.3001L5.83515 8.2804H5.38217L5.35263 8.27056L5.36247 8.21147L5.51018 7.96529L5.66774 7.70926L5.8056 7.48277L5.92377 7.27597L6.0124 7.12826L6.15026 6.89193L6.40629 6.45864L6.47522 6.35032L6.52446 6.29124H6.78049L10.2566 6.34047L10.8179 6.35032L11.8026 6.36017L12.2655 6.37986L12.1768 6.2223L12.039 6.00566L11.9504 5.88749L11.8716 5.78902L11.7534 5.65116L11.6057 5.51329L11.4678 5.40497L11.3201 5.29665L11.0739 5.14894L10.8475 5.03077L10.621 4.9323L10.2862 4.81413L9.9218 4.71566L9.66577 4.65657L9.18325 4.57779L8.78936 4.52856L8.48409 4.49902L7.77508 4.45963L7.46981 4.44978H5.87454L5.36247 4.46947H5.22461L5.2443 4.41039L5.30339 4.31192L5.41171 4.15436L5.51018 4.01649L5.57911 3.91802L5.79576 3.59306L5.86469 3.49458L6.05179 3.20901L6.14041 3.08099L6.20935 2.98252L6.31767 2.80527L6.41614 2.65756L6.48507 2.56893L6.52446 2.52954H6.91836L7.27286 2.53939L10.3354 2.54924H13.654L14.747 2.53939L15.9878 2.51969L17.4846 2.50985L18.4595 2.5Z" fill="#C13B44"/>
</svg>
