<svg width="25" height="25" viewBox="0 0 27 31" fill="none" xmlns="http://www.w3.org/2000/svg">
<path fill-rule="evenodd" clip-rule="evenodd" d="M7.25166 0.5H7.85033L8.54878 0.666297L9.71286 1.06541L10.6441 1.43126L11.5089 1.79712L13.1386 2.49557L13.3381 2.56208L13.8038 2.59534L14.3027 2.49557L15.1674 2.12971L16.9302 1.36475L17.9279 0.965632L18.7927 0.699557L19.5244 0.566519L19.8902 0.533259H20.3226L20.8215 0.633038L21.1541 0.766075L21.4867 1.03215L21.6863 1.33149L21.8193 1.66408L21.8525 1.93016L21.7528 2.49557L21.5532 3.02772L21.2871 3.55987L20.9545 4.09202L20.6552 4.49113L20.2894 4.95676L19.9568 5.32262L19.7239 5.58869L19.092 6.22062L18.7262 6.45344L15.5333 6.4867H10.3448L8.64856 6.45344L8.11641 6.08758L7.68404 5.72173L7.28492 5.32262L6.98559 4.95676L6.65299 4.52439L6.18736 3.82594L5.78825 3.12749L5.62195 2.6286L5.55543 2.22949L5.58869 1.69734L5.75499 1.26497L6.02106 0.965632L6.3204 0.766075L6.71951 0.599778L7.25166 0.5ZM8.6153 9.41353H18.6929L18.959 9.54656L19.4246 9.97894L19.6907 10.2118L20.2228 10.7106L20.5554 11.0432L20.7882 11.3093L21.2539 11.8082L21.5532 12.1741L21.9191 12.6064L22.2517 13.0388L22.7173 13.6707L23.1497 14.3027L23.582 14.9678L24.0477 15.7661L24.3803 16.3647L24.7794 17.1297L25.2118 18.0942L25.5776 19.0255L25.9767 20.2228L26.2428 21.1541L26.4424 21.9856L26.8082 23.9479L26.8747 24.6796V25.245L26.7749 26.0765L26.6086 26.7749L26.3093 27.4734L26.0432 27.939L25.5776 28.5044L25.3115 28.7705L24.6796 29.2361L24.1475 29.5355L23.5155 29.8016L22.7506 30.0344L21.9523 30.2007L21.0211 30.3004L18.2605 30.4335L16.4645 30.5H11.3426L8.48226 30.4002L6.28714 30.3004L5.35588 30.2007L4.59091 30.0344L3.59313 29.7018L2.9612 29.4024L2.46231 29.0698L2.12971 28.8038L1.79712 28.5044L1.5643 28.2384L1.23171 27.7727L1.03215 27.4401L0.766075 26.8082L0.566519 25.9767L0.5 25.4446V24.5466L0.566519 23.9146L0.899113 22.0854L1.16519 20.9545L1.49778 19.8237L1.86364 18.7927L2.26275 17.8282L2.66186 16.9634L2.99446 16.2982L3.46009 15.5L3.75942 14.9678L4.42461 13.9701L4.85698 13.3714L5.28936 12.806L5.75499 12.2406L6.05432 11.8747L6.4867 11.4091L6.71951 11.143L7.61752 10.245L7.88359 10.0122L8.21619 9.71286L8.54878 9.44678L8.6153 9.41353ZM17.4956 13.2051L11.7749 13.3049L10.378 13.3381L10.2118 13.6042L9.94568 14.1031L9.71286 14.5687V14.6353H12.3736L12.8725 14.7683L13.4047 15.0344L13.704 15.2672L13.9368 15.5333L14.1031 15.8326H13.2716L10.4446 15.8991L10.378 15.9324L10.1785 16.2982L9.6796 17.1297V17.1962H12.7062L14.3027 17.163L14.1364 17.8282L13.9035 18.2938L13.6375 18.6264L13.3049 18.9257L12.7395 19.2251L12.0743 19.4246L11.3426 19.5244H10.245L10.2118 19.5909V20.7217L10.2783 20.9213L10.6441 21.3869L11.01 21.8193L11.3758 22.2849L11.8082 22.8171L12.3404 23.4823L12.6397 23.8481L13.0055 24.3137L13.4379 24.8459L13.7373 25.2118L14.1031 25.6774L14.5355 26.2095L14.9013 26.6752L15.0011 26.7749L16.1652 26.7417L17.0632 26.7084L17.0299 26.5754L16.6641 26.143L16.3315 25.7106L15.8991 25.1785L15.633 24.8459L15.2672 24.3803L14.8016 23.8149L14.5687 23.5155L14.1364 22.9834L13.8703 22.6508L13.5044 22.1851L13.0388 21.6197L12.3071 20.6885L12.1741 20.5222L13.0055 20.3226L13.5377 20.1563L14.0698 19.9235L14.5355 19.6574L15.0011 19.2916L15.2672 19.0255L15.5998 18.5599L15.8326 18.061L15.9989 17.4956L16.0322 17.0299H17.3958L17.5288 16.8636L18.0277 15.9656L18.0942 15.8659V15.7661H17.5288L16.4313 15.7993L15.9324 15.8326L15.8326 15.4667L15.5998 14.9013L15.3337 14.469H17.3958L17.4956 14.3692L18.0277 13.3381L18.061 13.2051H17.4956ZM18.4605 7.15186H8.84856L8.649 7.25163L8.41618 7.51771L8.31641 7.75052V7.98334L8.4827 8.31594L8.74878 8.51549L9.01485 8.58201H18.3275L18.5603 8.54875L18.6933 8.48223L18.9262 8.21616L19.0259 7.91682L18.9927 7.61749L18.7931 7.31815L18.4605 7.15186Z" fill="#C13B44"/>
</svg>
