<?xml version="1.0" encoding="UTF-8"?>
<svg width="1200pt" height="1200pt" version="1.1" viewBox="0 0 1200 1200" xmlns="http://www.w3.org/2000/svg">
 <path d="m596.33 80.965c0.26562 0.058594 0.53906 0.12109 0.82812 0.20312 0.92578 0.25391 1.8945 0.61328 2.8203 1.1172v-39.961c0-0.50391-0.097656-0.97266-0.27734-1.3906v1.2109c0 2.1484-1.2109 3.8398-2.7461 3.8398s-2.7461-1.6914-2.7461-3.8398l-0.003906-1.2109c-0.17969 0.43359-0.27734 0.89844-0.27734 1.3906l0.003907 12.277v26.016c0.40625 0.023437 0.94922 0.085937 1.5703 0.19141 0.26562 0.035156 0.53906 0.082031 0.82812 0.15625z"/>
 <path d="m596.95 44.137c0.51562 0 1.1055-0.81641 1.1055-1.9922l-0.003906-2.9648v-27.863c0-1.1758-0.57422-1.9922-1.1055-1.9922-0.51562 0-1.0938 0.81641-1.0938 1.9922v30.832c0.003906 1.1602 0.58203 1.9883 1.0977 1.9883z"/>
 <path d="m597.56 84.277c-0.32422-0.070313-0.625-0.12109-0.92578-0.17969-0.53906-0.097656-1.043-0.16797-1.4531-0.21484l0.023437 6.1562c0.50391-0.046874 0.98438-0.070312 1.3906-0.070312h0.17969c0.28906 0 0.52734 0 0.75781 0.011719 0.51562 0.023437 0.83984 0.070312 0.83984 0.070312l0.085938 0.011719 0.73047 0.097656v4.3438l-0.15625 28.031-0.011718 2.6523-0.070313 13.68 0.64844 0.046874 1.1875 0.085938-0.15625 15.684c1.0195 0.070312 2.1602 0.19141 3.3711 0.34766 0.046875-8.207 0.085938-17.293 0.10938-26.027v-2.7617-2.7461c0.035157-17.52 0.023438-32.387-0.12109-33.551-0.058594-0.61328-0.22656-1.1641-0.44531-1.668-0.23828-0.52734-0.5625-0.98438-0.9375-1.3906-0.27734-0.3125-0.58984-0.61328-0.9375-0.86328-0.94922-0.70703-2.0742-1.1641-3.1914-1.5-0.30469-0.066407-0.61719-0.17578-0.91797-0.24609z"/>
 <path d="m592.25 139.82c0.37109-0.023438 0.74219-0.035157 1.0938-0.046875 0.13281 0 0.25391-0.011719 0.38281-0.011719 0.25391-0.011719 0.48047-0.011719 0.71875-0.011719h0.42188c0.39453 0 0.73047 0 1.0312 0.011719l0.011719-2.6289 0.046875-9.9727v-0.3125l0.003906-0.61328v-1.8594l0.14453-26.305v-2.4336h-0.49219-0.15625c-0.097656 0-0.20312 0.011719-0.28906 0.011719-0.30078 0.011718-0.61328 0.011718-0.94922 0.058594-0.046875 0-0.12109 0.011718-0.17969 0.023437-0.30078 0.035156-0.60156 0.070313-0.91016 0.14453h-0.035156c-0.35938 0.070313-0.70703 0.17969-1.0664 0.28906-0.35938 0.12109-0.73047 0.27734-1.0938 0.44531-0.27734 0.13281-0.55078 0.25391-0.81641 0.42188-0.30078 0.19141-0.5625 0.43359-0.83984 0.66016-1.3555 1.1875-2.4102 3-2.6055 5.8438l-0.058594 0.86328c-0.12109 3.6602-0.097656 19.812-0.035156 36.238 1.9062-0.45703 3.8633-0.69531 5.6719-0.81641z"/>
 <path d="m598.98 160.79-0.19141 19.895c2.2695 0.30078 4.5 1.0547 6.5898 2.0273 0.75781 0.34766 1.5 0.73047 2.1953 1.1289 0.75781 0.43359 1.4883 0.86328 2.207 1.3203 0.40625 0.26562 0.79297 0.52734 1.1875 0.80469 0.023438-11.16-0.023438-19.754-0.15625-21.422l-0.046875-0.23828c-0.097656-0.51563-0.40625-0.99609-0.89844-1.4531-0.53906-0.49219-1.2969-0.91016-2.2188-1.2969-0.66016-0.27734-1.3906-0.52734-2.1953-0.75781-0.39453-0.10938-0.81641-0.21484-1.2461-0.3125-1.6562-0.38281-3.4688-0.64844-5.2188-0.80469z"/>
 <path d="m593.8 181.19c0.011719 0 0.023437-0.011719 0.035156-0.011719v-0.55078h0.097657l0.44531-0.011719 0.19141-18.898 0.011719-0.92578v-1.2383l0.011719-1.2344 0.035156-3.707 0.097656-9.9375h-0.26562c-0.23828 0-0.48047 0-0.71875 0.011719-0.12109 0-0.25391 0.011718-0.38281 0.011718-0.37109 0.011719-0.73047 0.035157-1.1055 0.058594-2.0039 0.13281-3.9727 0.44531-5.6641 0.94922-0.27734 0.085937-0.55078 0.16797-0.81641 0.26562-0.28906 0.097656-0.5625 0.21484-0.82812 0.32422-1.8945 0.85156-3.2148 2.0508-3.4336 3.707l-0.10937 0.83984c-0.17969 3.7305-0.10938 20.328 0.011718 35.258 3.6367-2.1133 8.1602-3.6602 12.387-4.9102z"/>
 <path d="m502.6 1097.2 2.3867-111.79 4.4141-0.67188-2.3984 112.52c4.1758 0.070312 8.1953 0.15625 12.035 0.25391l3.1211-112.99 4.4023 0.30078-3.1094 112.79c0.37109 0.023438 0.75781 0.035156 1.1289 0.035156 0.74219 0.035156 1.4883 0.046875 2.207 0.070313 4.8828 0.13281 9.3242 0.27734 13.188 0.42188l2.6406-112.19 4.4023 0.30078-2.6406 112.03c0.37109 0.011719 0.71875 0.035156 1.0664 0.046875 0.76953 0.035156 1.5 0.058594 2.1953 0.097656 0.79297 0.035156 1.5117 0.058594 2.1953 0.097656 3.707 0.16797 5.8438 0.25391 5.9297 0.25391l2.1016 0.10938v11.543c3.5156-0.63672 7.2227-1.1758 11.172-1.5703 0.55078-0.070312 1.1523-0.10938 1.7266-0.16797 0.070312-19.645 0.22656-63.023 0.43359-120.72l4.4023 0.30078c-0.21484 57.133-0.35938 100.2-0.43359 120.04 2.7344-0.20312 5.5547-0.32422 8.4609-0.42188 0.73047-0.023438 1.4648-0.058594 2.207-0.085938 0.73047-0.023437 1.4766-0.035156 2.207-0.046875 1.5352-0.011719 3.0703-0.046875 4.668-0.046875 2.1484 0 4.2852 0.035156 6.4062 0.070313-0.058593-23.41-0.17969-65.172-0.3125-117.86l0.42188 0.035156 0.19141 0.011718 3.793-0.46875c0.14453 53.281 0.25391 95.328 0.3125 118.41 6.7695 0.23828 13.234 0.67188 19.031 1.1641 0.74219 0.058593 1.4766 0.12109 2.1953 0.19141 0.75781 0.070312 1.5 0.14453 2.2305 0.21484 0.40625 0.046874 0.80469 0.085937 1.2227 0.10937 0.74219 0.085938 1.4883 0.16797 2.207 0.23828 0.75781 0.085937 1.4883 0.16797 2.2188 0.23828 4.3906 0.49219 8.0742 0.96094 10.789 1.332v-12.445l2.0508-0.16797c0.82812-0.070313 1.7148-0.10938 2.5664-0.17969 0.74219-0.046876 1.4531-0.10938 2.207-0.15625 0.73047-0.058594 1.4648-0.097657 2.1953-0.15625 0.68359-0.035157 1.3672-0.070313 2.0391-0.10938l-3.3828-114.55 4.3906-0.52734 3.3945 114.84c5.3398-0.25391 11.039-0.46875 17.102-0.63672 0.74219-0.011718 1.4414-0.035156 2.1953-0.046874 0.73047-0.023438 1.4648-0.035157 2.207-0.046876 1.0547-0.011718 2.1367-0.023437 3.2031-0.046874l-5.5547-116.83 3.2656-0.39453 1.1289 0.046875 5.5781 117.12c2.0273-0.011719 4.0781-0.046875 6.1797-0.058594l-4.4531-116.72 4.4141 0.21484 4.4414 116.5c1.1055-0.011719 2.1719-0.011719 3.2773-0.011719 6.3594 0 12.625 0.046876 18.672 0.13281l-12.742-210.49c-7.8008-1.0781-13.355-1.8359-17.316-2.4609l2.3164 60.395-4.4141-0.10938-2.3281-61.055-0.097656-2.5664-0.10938-2.5195-3.9844-104.52 0.25391 0.011719-1.332-28.766h-0.011719l-2.7461-72.07c-4.1172-0.96094-7.5-1.7539-10.297-2.4375l3.4805 73.246-4.4414-0.60156-3.5039-73.754-0.14453-2.6406-0.12109-2.5664-4.9219-103.48 0.21484 0.070313-1.2969-28.309-0.25391-0.046875-2.9141-61.379-13.598-4.4414 1.8594 62.867-4.4414-0.89844-1.8594-63.422-0.085938-2.5938-0.070312-2.5938-4.9688-168.12-9.4219-5.0039-2.2305-1.1875-2.207-1.1758-6.6016-3.5039c-0.35937-0.023437-0.97266-0.058593-1.7266-0.058593-3.5156 0-7.0547 0.79297-7.0547 2.5664 0 0.26562 0.046876 23.27 0.15625 61.488l-4.4492 3.2227c-0.10938-40.199-0.16797-64.465-0.16797-64.68 0-2.8086 1.4883-7.5 11.473-7.5 1.4766 0 2.5078 0.10938 2.5078 0.10938l0.38281 0.035156 5.3398 2.8438-1.1641-83.027c-0.046876-0.046875-0.10938-0.10938-0.15625-0.15625-0.51563-0.52734-1.2617-1.2617-2.2188-2.1133-0.64844-0.57422-1.3672-1.2109-2.1953-1.8594-0.38281-0.3125-0.78125-0.625-1.1992-0.9375-0.70703-0.51562-1.4297-1.0312-2.207-1.5352-0.70703-0.45703-1.4414-0.91016-2.207-1.3203-2.0898-1.1523-4.3438-2.0508-6.6133-2.4258-0.12109-0.023437-0.25391-0.046875-0.37109-0.070313-0.023438 0-0.046875 0-0.085938-0.011718-0.5625-0.070313-1.1289-0.12109-1.7031-0.12109h-0.12109c-0.085937 0.035156-0.20312 0.070312-0.28906 0.097656-0.023438 0.011719-0.058594 0.023438-0.085938 0.023438-0.35937 0.13281-0.73047 0.25391-1.1523 0.38281-0.20312 0.058594-0.39453 0.12109-0.58984 0.17969-0.13281 0.046875-0.25391 0.085937-0.35938 0.12109-0.023438 0-0.058594 0.011718-0.085938 0.023437-6.4219 1.9688-10.234 3.8398-12.406 5.4961-1.0781 0.82812-1.7773 1.5977-2.1836 2.293-0.3125 0.53906-0.48047 1.043-0.51562 1.5-0.011719 0.44531-0.035156 2.2578-0.058594 5.3047-0.023438 4.043-0.070312 10.285-0.10938 18.48 0 0.79297 0 1.6328-0.011719 2.4727v0.30078l-13.621 8.3398-0.011718 0.50391-0.15625 0.085938-2.9766 126.46-0.097656 0.085938v4.0078l-0.86328 36.816-0.058594 2.5312-0.058594 2.6055-2.9883 126.38-4.4414 1.3906 2.9766-126.21-13.871 4.8672-5.2578 190.48-0.14062 5.0156-3.8633 140.45-4.4297 0.89844 3.8633-140.54-15.129 2.8203-4.4883 209.9-0.058594 2.5078-0.046875 2.5078-2.6641 124.79-4.4141 0.44531 2.6523-124.46-17.785 3.168-8.5781 269.05h0.27734c6.918 0 13.73 0.0625 20.262 0.15625zm75.98-872.22 2.3047-1.4141 10.367 4.4141 0.68359 0.28906 0.69531-0.21484 3.3711-1.043 17.461 15.023v5.5547l-16.164-13.559-1.2617-1.0664-1.3086 1.0078-3.457 2.6875-11.207-5.0156-1.1172-0.50391-0.39453 0.32422-0.57422 0.44531-3.8516 3.0469-7.2852 5.7734 0.27734-8.7461 7.043-4.3086zm19.348 125.64 3.6133-2.6172 9.0977-6.6016 19.43 13.57 0.35938 14.82-17.496-14.184-1.2461-1.0195-1.2734 0.98438-8.8203 6.7812-4.4023 3.3711-0.12109 0.097656-15.312-8.4258-1.2617-0.69531-1.0781 0.98438-1.4023 1.2461-4.4141 3.9727-9.6484 8.6641v-12.73l9.6953-7.8945 4.4141-3.6016 2.6055-2.125 15.395 5.6523 0.99609 0.35938 0.10937-0.070313zm-0.20703 183.38-0.10938-0.023437c-0.16797-63.949-0.3125-121.54-0.43359-165.34l0.046875 0.023438 4.3438-3.3359c0.10938 43.945 0.26562 102.46 0.43359 167.58zm-24.312-131.87c0-0.875 0-1.7539 0.011719-2.6289 0.035156-11.473 0.085937-22.598 0.13281-33.406l4.4297-3.9727c-0.20312 49.715-0.43359 107.29-0.67188 168.06l-4.3906-0.82812c0.15234-44.758 0.32031-87.805 0.48828-127.22zm-8.5898 130.73 8.0625 1.5 4.4023 0.81641 20.34 3.793 0.22656 0.046875 4.1758-1.0547 25.332-6.3477 10.367 2.0898 4.4414 0.89844 10.535 2.125 0.78125 17.352-10.848-3.7188-4.4648-1.5234-9.3359-3.2031-26.762 9.4219-4.4023 1.5469-0.53906 0.19141-19.906-3.7695-4.4023-0.82812-8.2305-1.5586-7.3672 2.1719-13.934 4.1055 0.5625-17.496 9.3477-2.9414 4.4414-1.3906zm7.5938 124.98c0.12109-33.793 0.25391-67.57 0.37109-100.63l4.4023 0.82813c-0.25391 62.855-0.49219 128.27-0.73047 191.35l-4.4023-0.625c0.13281-29.949 0.24219-60.441 0.35938-90.922zm25.777 94.559c-0.17969-64.117-0.33594-129.64-0.50391-190.62l4.4023-1.5469c0.16797 61.152 0.33594 126.93 0.50391 191.26zm-46.594-147.74 0.058594-2.5664 0.058594-2.4609 0.94922-40.355 4.4414-1.2969-1.0195 43.332-0.070312 2.7461-3.3398 142-4.3906-0.61328zm-10.684 144.72 7.2461 1.0195 4.3906 0.61328 19.5 2.7344 4.4023 0.625 21.742 3.0469h0.023438l4.3789-0.89844 41.484-8.4961 4.3789-0.91016 3.9102-0.79297 14.555 1.9336 4.4414 0.60156 5.1484 0.68359 0.86328 18.926-5.1016-0.50391-4.4414-0.45703-14.543-1.4766-4.2617 0.71875-4.3789 0.73047-42.008 7.0195-4.4023 0.74219-0.13281 0.011719-21.719-2.2812-4.4023-0.46875-19.883-2.1016-4.4023-0.46875-8.0039-0.83984-7.2227 1.5469-4.4414 0.94922-9.0703 1.9453v-19.633l9.6133-1.9688 4.4414-0.92578zm62.211 205.73-3.8164 0.53906-0.58984-0.046874c-0.13281-52.391-0.28906-112.75-0.45703-175.38l4.4023-0.73047c0.16016 62.719 0.31641 123.18 0.46094 175.62zm-31.152-177.66 4.4023 0.46875c-0.23828 63.551-0.45703 123.86-0.64844 175.67l-4.4023-0.37109c0.19141-51.855 0.40625-112.18 0.64844-175.77zm-24.383-2.582 4.4023 0.46875-2.6758 113.5-1.4766 62.305-4.4023-0.38281zm102.43 173.66-4.5234-152.91-0.68359-23.207 4.3789-0.71875 5.2188 176.22zm-117.7-172.85-1.2344 44.473-0.070313 2.7344-3.4805 126.49-4.4023-0.38281 3.457-125.47 0.070312-2.5664 0.058594-2.4609 1.1523-41.844zm-16.871 177.59 7.5586 0.66016 4.4023 0.39453 15.926 1.3789 4.4023 0.38281 23.566 2.0625 4.4023 0.38281 23.016 2.0039 0.69531 0.070312 3.7188-0.52734 47.039-6.6016 4.3789-0.63672 21.984-3.0859 3.7188-0.51563 0.67188 0.011719 7.5859 0.17969 4.4141 0.10938 14.004 0.3125 1.6445 26.41-14.668-0.64844-4.4297-0.21484-7.332-0.33594-1.043-0.046875-3.3477 0.40625-22.441 2.7461-4.4023 0.52734-47.723 5.8438-3.8867 0.46875-0.51563-0.035156-23.172-1.6445-4.4023-0.30078-24.086-1.7148-4.4023-0.30078-16.031-1.1406-4.4023-0.30078-7.7773-0.5625h-0.21484l-4.7773 0.70703-4.4297 0.68359-14.676 2.207 0.89844-26.891 14.328-1.4531 4.4141-0.44531zm162.11-74.918 0.10937 2.4844 0.12109 2.5078 2.9023 60.973-0.50391-0.011719h-0.15625l-3.7305 0.51562-2.8555-60-0.13281-2.6289-0.12109-2.5781-5.1016-107.17 4.4297 0.44531zm-31.535-213.73 0.070313 2.6172 0.097656 2.7109 2.1367 72.18-4.3672 0.89844-2.1719-72.898-0.085937-3-3.3477-113.05 4.4531 1.5234zm-72.359-324.76c0.16797-41.734 0.3125-76.754 0.44531-101.88l4.4297-3.5039c-0.13281 26.148-0.30078 64.117-0.49219 109.81l-4.4141 3.6016c0.007813-2.6797 0.019532-5.4023 0.03125-8.0312z"/>
 <path d="m553.46 1111.3v-7.6797c-0.94922-0.046875-2.207-0.097657-3.707-0.17969-0.68359-0.011719-1.4297-0.046875-2.207-0.097656-1.0078-0.035156-2.1016-0.085937-3.2891-0.13281-0.70703-0.023437-1.4414-0.058593-2.1953-0.070312-0.71875-0.023438-1.4414-0.058594-2.207-0.085938-3.8633-0.14453-8.3164-0.28906-13.211-0.42187-1.0938-0.035157-2.207-0.070313-3.3359-0.10938-0.73047-0.011718-1.4648-0.023437-2.207-0.046874-0.73047-0.023438-1.4648-0.046876-2.207-0.058594-2.8906-0.070313-5.9023-0.14453-8.9883-0.20312-0.99609-0.011719-2.0039-0.035157-3.0117-0.058594-0.73047 0-1.4648-0.011719-2.207-0.023437-0.73047-0.011719-1.4648-0.023438-2.207-0.035157-6.4922-0.097656-13.273-0.15625-20.16-0.15625-0.89844 0-1.7539 0-2.6406 0.011719h-2.207c-19.152 0.085938-35.688 0.61328-49.188 1.5859v21.613c6.4062-0.10938 13.031-0.17969 19.906-0.17969 46.691 0 90.168 2.7109 99.742 3.3359l-0.003906-7.9727v-7.7031l1.7148-0.44531c0.94922-0.25391 1.9336-0.45703 2.9141-0.67188 0.3125-0.070312 0.60156-0.15625 0.90234-0.21484z"/>
 <path d="m650.36 1118.2v9.9727c2.1953-0.23828 4.4648-0.44531 6.7812-0.64844 0.12109-0.011719 0.23828-0.023438 0.37109-0.035156 0.73047-0.070313 1.4531-0.13281 2.207-0.19141 18.625-1.5352 40.738-2.3164 65.965-2.3164 16.621 0 32.832 0.34766 47.258 0.81641v-22.199c-6.1094-0.28906-24.898-1.0781-47.746-1.4531-0.71875-0.011719-1.4531-0.023438-2.1953-0.023438-6.8047-0.10938-13.934-0.17969-21.18-0.17969-1.043 0-2.0508 0-3.0977 0.011719h-2.207c-2.832 0.023437-5.6172 0.046874-8.3281 0.070312-0.73047 0.011719-1.4883 0.011719-2.2188 0.023438-0.74219 0.011718-1.4648 0.035156-2.207 0.046874-1.8008 0.023438-3.625 0.058594-5.3633 0.097657-0.75781 0.011719-1.4648 0.023437-2.2188 0.046875-6.0703 0.16797-11.832 0.37109-17.207 0.625-0.74219 0.046875-1.4648 0.085937-2.1953 0.13281-0.74219 0.035156-1.4883 0.070313-2.207 0.12109-1.4648 0.085938-2.8672 0.16797-4.2617 0.26562-0.73047 0.035156-1.4883 0.097656-2.207 0.14453-0.12109 0-0.22656 0.011719-0.33594 0.023438v8.4727c0.42188 0.058594 0.67188 0.097656 0.68359 0.097656l1.8945 0.32422-0.007812 5.7539z"/>
 <path d="m643.39 1116.4c-2.6289-0.37109-6.2773-0.85156-10.738-1.3438-0.70703-0.085937-1.4648-0.15625-2.207-0.23828-0.73047-0.085938-1.4531-0.16797-2.207-0.23828-0.39453-0.035156-0.79297-0.070312-1.1875-0.10937-0.73047-0.070313-1.4648-0.15625-2.2305-0.22656-0.71875-0.058594-1.4531-0.13281-2.207-0.19141-5.8086-0.50391-12.289-0.9375-19.117-1.1758-0.74219-0.035157-1.4648-0.046876-2.207-0.070313-0.73047-0.023437-1.4648-0.046875-2.207-0.058594-2.125-0.046875-4.2617-0.085937-6.4219-0.085937-1.5977 0-3.1562 0.035156-4.7031 0.058594-0.74219 0-1.4648 0.023437-2.1953 0.046874-0.74219 0.011719-1.4766 0.046876-2.207 0.070313-2.9023 0.10938-5.7344 0.23828-8.4609 0.44531-0.58984 0.035156-1.1641 0.097656-1.7383 0.14453-0.16797 0.011719-0.3125 0.023437-0.46875 0.035156-0.57422 0.058594-1.1758 0.085937-1.7383 0.14453-0.15625 0.011719-0.3125 0.023438-0.46875 0.035156-1.0078 0.10938-1.9688 0.22656-2.9531 0.33594-3.4805 0.39453-6.793 0.875-9.9258 1.4531-0.46875 0.097656-0.94922 0.15625-1.4023 0.25391-0.26563 0.046875-0.51563 0.12109-0.79297 0.17969-0.74219 0.15625-1.4883 0.30078-2.207 0.46875-0.16797 0.046875-0.33594 0.070312-0.49219 0.12109-0.20312 0.035157-0.42188 0.070313-0.61328 0.13281v73.277h93.227v-61.145l0.37109-0.046876v-7.5391l-0.003906-2.4531v-1.9062c-0.10938-0.023437-0.25391-0.046875-0.37109-0.058594-0.53906-0.10156-1.2852-0.20703-2.125-0.31641z"/>
 <path d="m777.35 1130.9c-0.73047-0.023437-1.4531-0.046875-2.1953-0.070312-14.965-0.50391-31.992-0.88672-49.465-0.88672-25.234 0-47.281 0.79297-65.855 2.3398-3.2539 0.25391-6.4336 0.53906-9.4688 0.86328-0.12109 0.011719-0.25391 0.023438-0.37109 0.035156v56.676h175.09v-56.578c-5.9141-0.41016-24.07-1.5273-47.734-2.3789z"/>
 <path d="m448.21 1129.9c-7.668 0-15.035 0.085937-22.117 0.22656-0.74219 0.023437-1.4648 0.046874-2.207 0.058593-19.523 0.44531-36.77 1.4297-51.383 2.9648v56.676h175.08v-56.582c-2.9023-0.20312-8.7852-0.57422-16.801-0.99609-18.969-1.0156-49.977-2.3477-82.57-2.3477z"/>
</svg>
