<svg xmlns="http://www.w3.org/2000/svg" xmlns:xlink="http://www.w3.org/1999/xlink" version="1.1" x="0px" y="0px" viewBox="0 0 100 100" enable-background="new 0 0 100 100" xml:space="preserve"><g><path d="M85.415,32.75h-7.563v-5.5H75.02v-5.833h-3.75V10.749H60.526c-2.381-3.446-6.214-5.5-10.423-5.5   c-4.21,0-8.043,2.054-10.425,5.5H28.935v10.667h-3.75v5.833h-2.833v5.5H14.79V37h0.003c0,0.228,0.059,0.455,0.183,0.656   l7.376,11.971v12.749H21v2.5h1.352v8.5H21v2.5h1.352v18.042h19.25v-30.5c0-4.687,3.813-8.5,8.5-8.5c4.688,0,8.501,3.813,8.501,8.5   v30.5h19.249V75.875h1.522v-2.5h-1.522v-8.5h1.522v-2.5h-1.522V49.091l7.363-11.413c0.133-0.206,0.194-0.441,0.194-0.678h0.005   V32.75z M50.103,7.749c2.755,0,5.314,1.097,7.206,3H42.896C44.788,8.846,47.347,7.749,50.103,7.749z M31.435,13.249H68.77v8.167   H31.435V13.249z M27.685,23.917H72.52v3.333H27.685V23.917z M24.852,29.75h50.5v3h-50.5V29.75z M82.915,35.25v0.5H17.29v-0.5   H82.915z M24.852,64.875h1.773v8.5h-1.773V64.875z M31.125,62.375h-2v-3.5h2V62.375z M31.125,64.875v8.5h-2v-8.5H31.125z    M33.625,75.875h1.665v15.542h-1.665V75.875z M31.125,91.417h-2V75.875h2V91.417z M35.29,73.375h-1.665v-8.5h1.665V73.375z    M24.852,75.875h1.773v15.542h-1.773V75.875z M39.102,63.417v28H37.79V48h7.991l1.251,4.861   C42.457,54.194,39.102,58.418,39.102,63.417z M49.507,52.447L48.362,48h3.609l-1.259,4.448c-0.204-0.012-0.404-0.031-0.61-0.031   C49.901,52.417,49.705,52.437,49.507,52.447z M53.192,52.866L54.57,48h7.845v43.417h-1.312v-28   C61.104,58.425,57.758,54.206,53.192,52.866z M64.915,64.875H66.5v8.5h-1.585V64.875z M71,62.375h-2v-3.5h2V62.375z M71,64.875v8.5   h-2v-8.5H71z M71,75.875v15.542h-2V75.875H71z M64.915,75.875H66.5v15.542h-1.585V75.875z M75.353,91.417H73.5V75.875h1.853V91.417   z M75.353,73.375H73.5v-8.5h1.853V73.375z M73.5,62.375v-6h-7v6h-1.585V45.5H35.29v16.875h-1.665v-6h-7v6h-1.773V49.729   c0.065-0.22,0.062-0.449,0-0.676v-5.636h50.5v18.958H73.5z M77.853,44.478v-3.561h-55.5v3.945l-4.074-6.612h6.472v1.125h2.5V38.25   h3.5v1.125h2.5V38.25h3.5v1.125h2.5V38.25h3.5v1.125h2.5V38.25h3.5v1.125h2.5V38.25h3.5v1.125h2.5V38.25h3.5v1.125h2.5V38.25h3.5   v1.125h2.5V38.25h6.621L77.853,44.478z"/><path d="M40.362,20.583h19.481v-6.5H40.362V20.583z M42.862,16.583h14.481v1.5H42.862V16.583z"/><path d="M37,14.082c-1.792,0-3.251,1.458-3.251,3.251s1.458,3.25,3.251,3.25s3.251-1.458,3.251-3.25S38.792,14.082,37,14.082z    M37,18.083c-0.414,0-0.751-0.336-0.751-0.75s0.337-0.751,0.751-0.751s0.751,0.337,0.751,0.751S37.414,18.083,37,18.083z"/><path d="M63.33,14.082c-1.793,0-3.252,1.458-3.252,3.251s1.459,3.25,3.252,3.25c1.792,0,3.25-1.458,3.25-3.25   S65.122,14.082,63.33,14.082z M63.33,18.083c-0.415,0-0.752-0.336-0.752-0.75s0.337-0.751,0.752-0.751   c0.413,0,0.75,0.337,0.75,0.751S63.743,18.083,63.33,18.083z"/><path d="M29.875,48.5c-1.792,0-3.25,1.458-3.25,3.25S28.083,55,29.875,55s3.25-1.458,3.25-3.25S31.667,48.5,29.875,48.5z    M29.875,52.5c-0.414,0-0.75-0.337-0.75-0.75S29.461,51,29.875,51s0.75,0.337,0.75,0.75S30.289,52.5,29.875,52.5z"/><path d="M70,48.542c-1.792,0-3.25,1.458-3.25,3.25s1.458,3.25,3.25,3.25s3.25-1.458,3.25-3.25S71.792,48.542,70,48.542z M70,52.542   c-0.413,0-0.75-0.337-0.75-0.75s0.337-0.75,0.75-0.75s0.75,0.337,0.75,0.75S70.413,52.542,70,52.542z"/></g></svg>