<svg width="30" height="30" viewBox="0 0 32 32" fill="red" xmlns="http://www.w3.org/2000/svg">
<path d="M4.28709 27.7131C4.67509 28.1011 5.30409 28.1011 5.69109 27.7131L26.0041 7.40009V14.9961C26.0041 15.5481 26.4521 15.9961 27.0041 15.9961C27.5561 15.9961 28.0041 15.5481 28.0041 14.9961V4.99609C28.0041 4.73109 27.9011 4.47509 27.7131 4.28709C27.5251 4.09909 27.2691 3.99609 27.0041 3.99609H17.0041C16.4521 3.99609 16.0041 4.44409 16.0041 4.99609C16.0041 5.54809 16.4521 5.99609 17.0041 5.99609H24.6001L4.28709 26.3091C3.89909 26.6971 3.89909 27.3261 4.28709 27.7131Z" fill="white"/>
</svg>
