<?xml version="1.0" encoding="utf-8"?><!-- Uploaded to: SVG Repo, www.svgrepo.com, Generator: SVG Repo Mixer Tools -->
<svg fill="#000000" width="40px" height="40px" viewBox="0 0 1024 1024" xmlns="http://www.w3.org/2000/svg"><path d="M485.107 292.522c5.657 0 10.24-4.583 10.24-10.24v-139.09c0-5.657-4.583-10.24-10.24-10.24h-193.71a10.238 10.238 0 00-10.24 10.24v139.09c0 5.657 4.583 10.24 10.24 10.24h193.71zm0 40.96h-193.71c-28.278 0-51.2-22.922-51.2-51.2v-139.09c0-28.278 22.922-51.2 51.2-51.2h193.71c28.278 0 51.2 22.922 51.2 51.2v139.09c0 28.278-22.922 51.2-51.2 51.2zm102.23-200.021h87.89c11.311 0 20.48-9.169 20.48-20.48s-9.169-20.48-20.48-20.48h-87.89c-11.311 0-20.48 9.169-20.48 20.48s9.169 20.48 20.48 20.48z"/><path d="M184.35 496.768V51.205c0-5.657 4.583-10.24 10.24-10.24h545.915c5.657 0 10.24 4.583 10.24 10.24v428.8c0 11.311 9.169 20.48 20.48 20.48s20.48-9.169 20.48-20.48v-428.8c0-28.278-22.922-51.2-51.2-51.2H194.59c-28.278 0-51.2 22.922-51.2 51.2v445.563c0 11.311 9.169 20.48 20.48 20.48s20.48-9.169 20.48-20.48zm654.763 77.425v398.52c0 5.649-4.588 10.237-10.252 10.24l-549.367.082c-5.654 0-10.237-4.583-10.237-10.24V602.967c0-11.311-9.169-20.48-20.48-20.48s-20.48 9.169-20.48 20.48v369.828c0 28.278 22.922 51.2 51.2 51.2l549.379-.082c28.28-.017 51.197-22.934 51.197-51.2v-398.52c0-11.311-9.169-20.48-20.48-20.48s-20.48 9.169-20.48 20.48z"/><path d="M184.241 500.216l.365.395c-.197-.107-.23-.249-.365-.395zm654.792 76.619l-.311-.34c.18.098.205.223.311.34zm-69.1-75.464c-.277-.3-.938-.582-1.747-.582H185.97c-.801 0-1.166-.07-1.364-.178l69.29 75.126c.277.3.938.582 1.747.582h581.704c.82 0 1.184.072 1.375.175l-68.788-75.124zm67.413 115.908H255.642c-12.107 0-23.716-4.957-31.848-13.763l-69.664-75.531c-24.785-26.876-4.285-68.156 31.839-68.156h582.216c12.107 0 23.716 4.957 31.898 13.817l69.112 75.477c24.787 26.878 4.272 68.156-31.849 68.156z"/></svg>