<svg width="54" height="50" viewBox="0 0 87 82" fill="none" xmlns="http://www.w3.org/2000/svg">
<g filter="url(#filter0_d_648_65872)">
<rect x="10.1826" y="6" width="65.9901" height="62" rx="8" fill="white"/>
<path d="M43.6074 11.9141L43.7598 12.0664L44.1152 13.4375L44.8262 15.9766L45.791 19.4805L45.8926 19.9375H53.3066L53.2559 20.0898L52.6973 20.4453L51.8848 21.0039L50.8691 21.7148L50.0566 22.2734L49.041 22.9844L48.2285 23.543L47.3652 24.1523L47.1621 24.2539L47.3145 24.7109L48.4824 27.4531L50.3105 31.7188V31.8203L50.0566 31.7188L49.041 31.0078L48.2285 30.5L46.502 29.332L46.0957 29.0781L46.1973 30.5L46.4004 31.6172L46.7559 32.6836L47.3145 33.8516L47.9746 34.8164L48.4316 35.3242L48.7871 35.7305L49.2949 36.1875L50.0566 36.7461L51.123 37.3555L52.4434 38.0156L52.5957 38.168V42.6875H53.6621L54.627 42.8398L55.4395 43.1953L55.998 43.6016L56.3027 43.8555L56.7598 44.4141L57.0645 44.9727L57.3184 45.582L57.4199 46.0391L57.4707 46.9023V55.6367L60.4668 55.6875L60.6699 56.1445L62.5996 61.9336V62.1367L62.498 62.1875H24.666L24.7168 61.9336L25.377 59.9023L26.0371 57.9727L26.6465 56.1445L26.8496 55.6875L29.7949 55.6367V50.3047L29.8457 46.2422L30.0488 45.3789L30.4551 44.5664L30.9629 43.9062L31.4707 43.4492L32.1816 43.043L32.8926 42.7891L33.502 42.6875L34.6699 42.6367L34.7207 38.1172L35.6855 37.6094L36.752 37.0508L37.4629 36.5938L38.1738 36.0352L38.7832 35.4766L39.2402 34.918L39.6973 34.3086L40.2559 33.3438L40.6621 32.3789L40.9668 31.3125L41.1191 30.2969L41.2207 29.0781L40.6621 29.4336L37.7676 31.3633L37.1074 31.8203H37.0059L37.0566 31.5664L37.6152 30.2969L38.1738 28.9766L39.6973 25.4219L40.1035 24.457V24.2539L37.9199 22.7305L36.9551 22.0703L35.7871 21.2578L34.7715 20.5469L34.0605 20.0898L33.959 19.9375L41.373 19.8867L41.7285 18.7188L42.6426 15.3672L43.5059 12.2695L43.6074 11.9141ZM43.5566 27.4531L42.9473 27.8594L42.8457 27.9609L42.7949 29.6875L42.6934 30.957L42.4395 32.125L42.0332 33.3438L41.4238 34.6133L40.916 35.375L40.459 35.9844L40.002 36.4922V36.5938L39.8496 36.6445L39.2402 37.2539L38.6816 37.7109V37.8125H48.6348L48.584 37.6602L48.1777 37.3555L47.416 36.6445L46.9082 36.0859L46.2988 35.2734L45.8418 34.5117L45.4355 33.6992L45.0293 32.6836L44.7246 31.5664L44.5723 30.6016L44.5215 30.0938L44.4707 27.9609L44.0137 27.6055L43.8105 27.4531H43.5566ZM36.3457 39.4375V42.6875H50.9199L50.9707 42.6367V39.4375H36.3457ZM33.5527 44.3125L32.8926 44.5156L32.3848 44.8203L31.9277 45.2773L31.5723 45.9883L31.4707 46.4453L31.4199 55.2812L31.4707 55.6875H34.6699L34.7207 55.6367L34.7715 47.207L35.127 46.5469L35.4824 46.2422L35.8887 46.0391L36.041 45.9883H51.123L51.5801 46.0898L51.9863 46.3438L52.3418 46.75L52.4941 47.1055L52.5449 47.4609L52.5957 55.6875H55.7949L55.8457 55.6367V46.6484L55.7441 46.0391L55.541 45.5312L55.1855 45.0742L54.7285 44.668L54.1699 44.4141L53.6621 44.3125H33.5527ZM27.9668 57.3125L27.3574 59.1406L26.9004 60.4609V60.5625H60.3652L60.3145 60.2578L59.6035 58.0742L59.3496 57.3633L59.2988 57.3125H27.9668Z" fill="#323233"/>
<path d="M36.041 45.9375H51.123L51.5801 46.0391L51.9863 46.293L52.3926 46.75L52.5449 47.1055L52.5957 47.4609V55.6367L52.5449 55.6875H34.6699L34.7207 47.207L35.0762 46.5469L35.4824 46.1914L35.8887 45.9883L36.041 45.9375Z" fill="#C13B44"/>
<path d="M43.6074 11.9141L43.7598 12.0664L44.1152 13.4375L44.8262 15.9766L45.791 19.4805L45.8926 19.9375H53.3066L53.2559 20.0898L52.6973 20.4453L51.8848 21.0039L50.8691 21.7148L50.0566 22.2734L49.041 22.9844L48.2285 23.543L47.3652 24.1523L47.1621 24.2539L47.3145 24.7109L48.4824 27.4531L50.3105 31.7188V31.8203L50.0566 31.7188L49.041 31.0078L48.2285 30.5L46.502 29.332L46.1973 29.1289H46.0449V28.9766L45.791 28.875L44.7246 28.1641L43.8613 27.5547L43.8105 27.5039L43.4551 27.5547L42.8965 27.9609L41.5762 28.8242L41.3223 29.0273L41.2207 29.1289L40.9668 29.2305L37.7676 31.3633L37.1074 31.8203H37.0059L37.0566 31.5664L37.6152 30.2969L38.1738 28.9766L39.6973 25.4219L40.1035 24.457V24.2539L37.9199 22.7305L36.9551 22.0703L35.7871 21.2578L34.7715 20.5469L34.0605 20.0898L33.959 19.9375L41.373 19.8867L41.7285 18.7188L42.6426 15.3672L43.5059 12.2695L43.6074 11.9141Z" fill="#C13B44"/>
<path d="M38.0215 49.1367L49.3457 49.1875V50.8125H37.9707L37.9199 50.7617V49.4922L38.0215 49.1367Z" fill="#323233"/>
<path d="M41.2207 52.3867H49.3457V54.0625H41.2207L41.1699 54.0117V52.4375L41.2207 52.3867Z" fill="#323233"/>
<path d="M23.3965 22.375H24.9707V24.8125H23.3457V22.4258L23.3965 22.375Z" fill="#323233"/>
<path d="M23.3457 29.6875H24.9707V32.0742L24.8691 32.125H23.3965L23.3457 32.0742V29.6875Z" fill="#323233"/>
<path d="M61.5332 41.0625H63.1582V43.4492L62.9043 43.5H61.5332V41.0625Z" fill="#323233"/>
<path d="M64.7832 37.8125H67.2207V39.3867L66.9668 39.4375H64.7832V37.8125Z" fill="#323233"/>
<path d="M57.5215 37.8125H59.9082V39.3867L59.7051 39.4375H57.4707V37.8633L57.5215 37.8125Z" fill="#323233"/>
<path d="M60.0098 39.793L60.2637 39.9453L61.127 40.8086L61.1777 40.9609L59.502 42.6367L59.3496 42.5859L58.9941 42.1797L58.334 41.5195L58.6387 41.1641L60.0098 39.793Z" fill="#323233"/>
<path d="M61.584 33.75H63.1582V36.1875H61.5332V33.8008L61.584 33.75Z" fill="#323233"/>
<path d="M26.5957 26.4375H28.9824L29.0332 26.4883V28.0117L28.9316 28.0625H26.5957V26.4375Z" fill="#323233"/>
<path d="M19.334 26.4375H21.7207V28.0117L21.4668 28.0625H19.2832V26.4883L19.334 26.4375Z" fill="#323233"/>
<path d="M26.3926 28.418L26.6465 28.5703L28.1191 30.043L28.0684 30.2461L27.1035 31.2109L26.9004 31.1602L25.377 29.6367L25.3262 29.4844L26.3926 28.418Z" fill="#323233"/>
<path d="M21.8223 28.418L22.0762 28.5703L22.9395 29.4336L22.8887 29.6875L21.416 31.1602L21.1621 31.2109L20.8066 30.8047L20.1465 30.1445L20.4512 29.7891L21.8223 28.418Z" fill="#323233"/>
<path d="M64.5293 39.8438L64.7832 39.8945L66.3066 41.418L66.2559 41.6211L65.291 42.5859L65.0879 42.5352L63.5645 41.0117L63.5137 40.8594L64.5293 39.8438Z" fill="#323233"/>
<path d="M21.2637 23.2383L21.6191 23.543L22.9395 24.8633V25.0664L22.5332 25.4219L22.0762 25.8789L21.9746 26.0312L21.7207 25.9805L20.1973 24.457L20.248 24.2031L20.7559 23.7461L20.9082 23.543H21.0098L21.1113 23.3398L21.2637 23.2383Z" fill="#323233"/>
<path d="M59.4512 34.6133L59.8066 34.918L61.127 36.2383L61.0762 36.4922L60.6699 36.8477L60.0605 37.457L59.7051 37.1523L58.3848 35.832V35.6289H58.4863V35.5273L58.8926 35.1719L59.2988 34.7656L59.4512 34.6133Z" fill="#323233"/>
<path d="M65.1895 34.6133L65.5449 34.918L66.1035 35.4766L66.3066 35.6289L66.2559 35.832L65.6973 36.4414L64.7324 37.4062L64.4785 37.3555L64.0215 36.8477L63.5645 36.3906L63.6152 36.1875L63.8691 35.9336L65.1895 34.6133Z" fill="#323233"/>
<path d="M27.002 23.2383L27.1543 23.2891L27.5098 23.6953L28.1191 24.3047L28.0176 24.5078L27.459 25.1172L26.5449 26.0312L26.291 25.9805L25.834 25.4727L25.377 25.0156L25.4277 24.8125L25.6816 24.5586L27.002 23.2383Z" fill="#323233"/>
<path d="M38.0215 52.3867H39.5449L39.5957 52.4375V54.0625H37.9707L37.9199 54.0117V52.7422L38.0215 52.3867Z" fill="#323233"/>
<path d="M23.3965 11.8125H24.9707V13.4375H23.3457V11.8633L23.3965 11.8125Z" fill="#323233"/>
<path d="M23.3965 50H24.9707V51.5742L24.9199 51.625H23.3457V50.0508L23.3965 50Z" fill="#323233"/>
<path d="M62.3965 49.1875H63.9707V50.7617L63.9199 50.8125H62.3457V49.2383L62.3965 49.1875Z" fill="#323233"/>
<path d="M64.0215 47.5625H65.5957V49.1875H64.0215L63.9707 49.1367V47.6133L64.0215 47.5625Z" fill="#323233"/>
<path d="M18.5215 41.875H20.0957V43.4492L20.0449 43.5H18.4707V41.9258L18.5215 41.875Z" fill="#323233"/>
<path d="M20.1465 40.25H21.7207V41.8242L21.6699 41.875H20.0957V40.3008L20.1465 40.25Z" fill="#323233"/>
<path d="M25.0215 48.375H26.5957V49.9492L26.5449 50H25.0215L24.9707 49.9492V48.4258L25.0215 48.375Z" fill="#323233"/>
<path d="M65.6465 24.8125H67.1699L67.2207 24.8633V26.4375H65.6465L65.5957 26.3867V24.8633L65.6465 24.8125Z" fill="#323233"/>
<path d="M56.709 16.6875H58.2832V18.2617L58.2324 18.3125H56.709L56.6582 18.2617V16.7383L56.709 16.6875Z" fill="#323233"/>
<path d="M25.0215 13.4375H26.5957V15.0117L26.4941 15.0625H24.9707V13.4883L25.0215 13.4375Z" fill="#323233"/>
<path d="M64.0215 26.4375H65.5957V28.0117L65.5449 28.0625H63.9707V26.5898L64.0215 26.4375Z" fill="#323233"/>
<path d="M58.334 15.0625H59.8574L59.9082 15.1133V16.6367L59.8574 16.6875H58.334L58.2832 16.6367V15.1133L58.334 15.0625Z" fill="#323233"/>
<path d="M21.7715 13.4375H23.3457V15.0117L23.2949 15.0625H21.7207V13.5898L21.7715 13.4375Z" fill="#323233"/>
<path d="M64.0215 50.8125H65.5449L65.5957 50.8633V52.3867L65.4941 52.4375H64.0215L63.9707 52.3867V50.8633L64.0215 50.8125Z" fill="#323233"/>
<path d="M65.6465 49.1875H67.1699L67.2207 49.2383V50.7109L67.1191 50.8125H65.5957V49.2891L65.6465 49.1875Z" fill="#323233"/>
<path d="M21.7715 41.875H23.3457V43.3984L23.1426 43.5H21.7207V41.9258L21.7715 41.875Z" fill="#323233"/>
<path d="M59.959 16.6875H61.4824L61.5332 16.7383V18.2109L61.3809 18.3125H59.9082V16.7383L59.959 16.6875Z" fill="#323233"/>
<path d="M23.3965 15.0625H24.9707V16.6367L24.7168 16.6875H23.3965L23.3457 16.6367V15.1133L23.3965 15.0625Z" fill="#323233"/>
<path d="M26.6465 50H28.1699L28.2207 50.0508V51.5234L28.1191 51.625H26.5957V50.0508L26.6465 50Z" fill="#323233"/>
<path d="M65.5957 28.0625H67.1699L67.2207 28.1133V29.6367L66.7637 29.6875H65.6465L65.5957 29.6367V28.0625Z" fill="#323233"/>
<path d="M25.0215 51.625H26.5449L26.5957 51.6758V53.1992L26.0371 53.25H24.9707V51.6758L25.0215 51.625Z" fill="#323233"/>
<path d="M67.2715 26.4375H68.7949L68.8457 26.4883V27.9609L68.5918 28.0625H67.2715L67.2207 28.0117V26.4883L67.2715 26.4375Z" fill="#323233"/>
<path d="M20.1465 43.5H21.7207V45.0742L21.0098 45.125H20.0957V43.5508L20.1465 43.5Z" fill="#323233"/>
<path d="M58.334 18.3125H59.8574L59.9082 18.3633V19.8867L59.1465 19.9375H58.334L58.2832 19.8867V18.3633L58.334 18.3125Z" fill="#323233"/>
</g>
<defs>
<filter id="filter0_d_648_65872" x="0.182617" y="0" width="85.9902" height="82" filterUnits="userSpaceOnUse" color-interpolation-filters="sRGB">
<feFlood flood-opacity="0" result="BackgroundImageFix"/>
<feColorMatrix in="SourceAlpha" type="matrix" values="0 0 0 0 0 0 0 0 0 0 0 0 0 0 0 0 0 0 127 0" result="hardAlpha"/>
<feOffset dy="4"/>
<feGaussianBlur stdDeviation="5"/>
<feComposite in2="hardAlpha" operator="out"/>
<feColorMatrix type="matrix" values="0 0 0 0 0 0 0 0 0 0 0 0 0 0 0 0 0 0 0.15 0"/>
<feBlend mode="normal" in2="BackgroundImageFix" result="effect1_dropShadow_648_65872"/>
<feBlend mode="normal" in="SourceGraphic" in2="effect1_dropShadow_648_65872" result="shape"/>
</filter>
</defs>
</svg>
