<svg width="48" height="48" viewBox="0 0 66 66" fill="none" xmlns="http://www.w3.org/2000/svg">
<rect width="66" height="66" rx="8" fill="white" fill-opacity="0.2"/>
<path d="M21.5234 8.625H22.8945L23.6055 8.77734L24.3164 9.13281L24.8242 9.53906L25.2305 9.99609L25.6367 10.7578L25.8398 11.5703V14.3633H35.6914L40.1094 14.3125L40.1602 11.5195L40.3633 10.707L40.7695 9.99609L41.3281 9.38672L41.8867 8.98047L42.5469 8.72656L43.0547 8.625H44.375L45.0859 8.77734L45.7969 9.13281L46.3555 9.58984L46.7109 9.99609L47.0156 10.5039L47.2695 11.2656L47.3203 11.5703V14.3633H50.3164L51.3828 14.5156L52.3984 14.8203L53.2109 15.2266L53.9219 15.6836L54.4805 16.1406L54.9883 16.6484L55.4961 17.3086L55.9531 18.0703L56.2578 18.7812L56.5117 19.5938L56.6641 20.5078V51.2305L56.4609 52.3477L56.207 53.1094L55.8008 53.9219L55.4961 54.4297L55.1406 54.8867L54.6836 55.3945L54.2773 55.8008L53.4141 56.4102L52.6016 56.8164L51.7891 57.1211L50.7734 57.3242L50.2148 57.375H15.7852L14.8203 57.2734L13.8555 57.0195L12.9414 56.6133L12.2812 56.207L11.8242 55.8516L11.3164 55.3945L10.9609 55.0391L10.4531 54.3789L10.0469 53.668L9.64062 52.7539L9.38672 51.6875L9.33594 51.332L9.28516 50.0625V21.1172L9.38672 20.0508L9.58984 19.1875L9.89453 18.375L10.3516 17.5117L10.8086 16.9023L11.3672 16.293L11.9766 15.7344L12.9414 15.125L13.8555 14.7188L14.6172 14.5156L15.582 14.3633L18.6289 14.3125L18.6797 11.4688L18.8828 10.707L19.2383 10.0469L19.8477 9.38672L20.3555 9.03125L20.9141 8.77734L21.5234 8.625ZM18.6289 17.6641L18.375 18.2734L18.2734 18.6797L18.2227 19.1367V19.6445L18.375 20.457L18.6797 21.2188L19.0859 21.8281L19.4922 22.2852L20.1016 22.7422L20.9141 23.1484L21.4727 23.3008L21.8789 23.3516H22.7422L23.5547 23.1484L24.1641 22.8945L24.7227 22.5391L25.2812 22.0312L25.7383 21.3711L25.9922 20.8633L26.1953 20.2031L26.2969 19.2383L26.1953 18.4766L25.9922 17.8164L25.8398 17.6641L25.7383 18.3242L25.5352 18.9844L25.2305 19.543L24.8242 20.0508L24.3164 20.457L23.6562 20.7617L23.1484 20.9141L22.6914 20.9648H21.7266L21.1172 20.8633L20.3555 20.5586L19.6953 20.0508L19.1367 19.3398L18.8828 18.7305L18.7305 18.1719L18.6797 17.6641H18.6289ZM40.1094 17.6641L39.957 17.918L39.7539 18.6797L39.7031 19.1367V19.6445L39.8555 20.457L40.1602 21.2188L40.6172 21.8789L40.9727 22.2852L41.582 22.7422L42.3945 23.1484L43.0039 23.3008L43.5625 23.3516H44.0195L44.6797 23.25L45.3906 22.9961L45.9492 22.6914L46.457 22.2852L46.8633 21.8789L47.3203 21.168L47.625 20.4062L47.7266 19.8984V18.7812L47.5234 17.9688L47.3711 17.6641H47.2695L47.2188 18.3242L47.0156 18.9844L46.7109 19.543L46.2539 20.1016L45.6953 20.5078L45.1367 20.7617L44.5781 20.9141L44.1211 20.9648H43.1562L42.4453 20.8125L41.8359 20.5586L41.2266 20.1016L40.8711 19.6953L40.5156 19.1367L40.2617 18.4258L40.1602 17.6641H40.1094ZM12.8906 27.1094V48.8438L13.0938 49.5547L13.3477 50.0117L13.7539 50.5195L14.2109 50.9258L14.8203 51.2812L15.4297 51.4844L15.7344 51.5352L20.9648 51.5859H35.5898L39.2969 51.5352L40.7695 51.0781L42.1406 50.5703L43.4102 50.0117L44.9336 49.25L46.3047 48.4375L46.8125 48.082L47.5234 47.5742L48.3359 46.9141L48.8438 46.457L49.25 46.1016L50.0625 45.2891L50.5195 44.7305L51.0781 44.0195L51.5859 43.2578L52.043 42.4961L52.4492 41.6836L52.7539 40.9727L53.0586 40.0078L53.1094 39.7539V27.1094H12.8906ZM53.0078 45.0352L52.3984 45.8477L51.8398 46.5078L51.4844 46.9141L50.9258 47.4727V47.5742L50.7227 47.6758L50.1641 48.2344L49.6055 48.6914L48.9961 49.1992L48.2852 49.707L47.2188 50.418L46 51.1289L45.4414 51.4336L45.3906 51.5352H50.1641L50.875 51.3828L51.332 51.1797L51.8398 50.875L52.3477 50.418L52.7031 49.9102L52.957 49.3516L53.1094 48.6406V45.0352H53.0078Z" fill="white"/>
<path d="M27.3633 31.5273H39.1445L39.1953 31.5781V34.7773L38.4336 36.1992L37.7734 37.3672L36.9609 38.8398L35.6914 41.125L35.0312 42.293L34.2188 43.7656L33.5586 44.9336L32.7461 46.4062L32.4414 46.9141L32.3906 46.9648H27.668L27.9727 46.4062L30.4102 42.1406L31.1719 40.8203L31.7812 39.7539L32.543 38.4336L33.2031 37.2656L34.4219 35.1328H27.3633L27.3125 35.082V31.5781L27.3633 31.5273Z" fill="white"/>
</svg>
