<svg width="75" height="70" viewBox="0 0 75 70" fill="none" xmlns="http://www.w3.org/2000/svg">
<g filter="url(#filter0_d_911_1225)">
<rect x="4.67969" y="2" width="65.9901" height="62" rx="8" fill="white"/>
<path d="M46.3633 7.8125H46.8203L49.7148 8.625L52.5078 9.4375L53.0156 9.58984L53.1172 9.69141V11.8242L54.6914 11.875L54.7422 11.9258V25.6875H56.5703L57.1289 25.7891L57.7383 26.0938L58.2461 26.5508L58.6523 27.2617L58.7539 27.6172L58.8047 28.125V53.3125H62.8672V55.4961L62.8164 56.4102L62.6641 56.918L62.3086 57.4766L61.8008 57.8828L61.293 58.0859L61.0898 58.1367L60.3789 58.1875H14.6758L14.0156 58.0859L13.6094 57.9336L13.1523 57.5781L12.7969 57.1211L12.5938 56.7148L12.4922 56.3086V53.3633L12.543 53.3125H16.5547L16.5039 52.043V49.0977L16.5547 27.8203L16.707 27.2617L16.9102 26.8555L17.3164 26.3477L17.875 25.9414L18.4336 25.7383L18.7383 25.6875H20.6172V21.0156L21.0234 20.8633L36.7148 16.4961L36.8672 16.5469V25.6875L38.4414 25.6367L38.4922 11.9258L38.543 11.875L40.0664 11.8242L40.1172 9.64062L40.5742 9.48828L42.6562 8.87891L46.2109 7.86328L46.3633 7.8125ZM46.4141 9.48828L43.7734 10.25L41.793 10.8086L41.7422 10.8594L41.6914 11.5195L41.793 11.875H51.3906L51.4922 11.6719V10.8594L51.0859 10.707L48.5977 9.99609L46.7695 9.48828H46.4141ZM35.0898 18.6289L32.7539 19.2891L25.7969 21.2188L22.293 22.1836L22.2422 22.2344V50.0625H35.2422V18.6289H35.0898ZM18.7891 27.3125L18.4844 27.4648L18.2305 27.7695L18.1797 27.9219V53.3125H57.1289L57.1797 53.2617V28.0234L57.0273 27.668L56.7734 27.4141L56.5195 27.3125H54.7422V50.0625L55.5547 50.1133L55.5039 51.4336L55.5547 51.6367L19.8047 51.6875V50.0625H20.6172V27.3125H18.7891ZM36.8672 27.3125L36.8164 49.6562L36.8672 50.0625H38.4414L38.4922 50.0117V27.3125H36.8672ZM14.1172 54.9375V56.0039L14.2188 56.3594L14.3711 56.5117L14.5234 56.5625H60.7344L61.0391 56.4609L61.1914 56.1562L61.2422 55.9023V54.9375H14.1172Z" fill="#C13B44"/>
<path d="M36.7148 16.4961L36.8672 16.5469V25.6875H38.4922V27.3125H36.8672V50.0625H55.4531L55.5547 50.1133V51.6367L55.4531 51.6875H19.8047V50.0625H20.6172V27.3125L18.7891 27.3633L18.4844 27.5156L18.2812 27.7695L18.2305 27.9219L18.1797 53.3125L57.1289 53.2617V28.0234L56.9766 27.668L56.7227 27.4141L56.5195 27.3633L54.7422 27.3125V25.6875H56.5703L57.1289 25.7891L57.7383 26.0938L58.2461 26.5508L58.6523 27.2617L58.7539 27.6172L58.8047 28.125V53.3125H62.8672V55.4961L62.8164 56.4102L62.6641 56.918L62.3086 57.4766L61.8008 57.8828L61.293 58.0859L61.0898 58.1367L60.3789 58.1875H14.6758L14.0156 58.0859L13.6094 57.9336L13.1523 57.5781L12.7969 57.1211L12.5938 56.7148L12.4922 56.3086V53.3633L12.543 53.3125H16.5547L16.5039 52.043V49.0977L16.5547 27.8203L16.707 27.2617L16.9102 26.8555L17.3164 26.3477L17.875 25.9414L18.4336 25.7383L18.7383 25.6875H20.6172V21.0156L21.0234 20.8633L35.0898 16.9531L36.7148 16.4961ZM35.0898 18.6289L32.7539 19.2891L25.7969 21.2188L22.293 22.1836L22.2422 22.2344V50.0625H35.2422V18.6289H35.0898ZM14.1172 54.9375V56.0039L14.2188 56.3594L14.3711 56.5117L14.5234 56.5625H60.7344L61.0391 56.4609L61.1914 56.1562L61.2422 55.9023V54.9375H14.1172Z" fill="#323233"/>
<path d="M46.3633 7.8125H46.8203L49.7148 8.625L52.5078 9.4375L53.0156 9.58984L53.1172 9.69141V11.875H51.4414V10.8594L46.9727 9.58984L46.7695 9.53906H46.4141L43.7734 10.3008L41.793 10.8594L41.7422 11.5195V11.875H40.1172V9.64062L40.5742 9.48828L42.6562 8.87891L46.2109 7.86328L46.3633 7.8125Z" fill="#323233"/>
<path d="M24.6797 37.875H26.3047V39.4492L26.1016 39.5H24.6797L24.6289 39.2461L24.6797 37.875Z" fill="#323233"/>
<path d="M27.9297 41.125H29.5547V42.6992L29.5039 42.75H27.9297V41.125Z" fill="#323233"/>
<path d="M27.9297 34.625H29.5547V36.1992L29.3008 36.25H27.9297L27.8789 35.5898L27.9297 34.625Z" fill="#323233"/>
<path d="M27.9297 24.875H29.5547V26.4492L29.5039 26.5H27.9297V24.875Z" fill="#323233"/>
<path d="M27.9297 44.375H29.5547V45.9492L29.4531 46H27.9297V44.375Z" fill="#323233"/>
<path d="M31.1797 37.875H32.8047V39.4492L32.7031 39.5H31.1797V37.875Z" fill="#323233"/>
<path d="M24.6797 28.125H26.3047V29.6992L26.2031 29.75H24.6797V28.125Z" fill="#323233"/>
<path d="M24.6797 41.125H26.3047V42.6992L26.1523 42.75H24.6797V41.125Z" fill="#323233"/>
<path d="M27.9297 37.875H29.5547V39.4492L29.4023 39.5H27.9297V37.875Z" fill="#323233"/>
<path d="M24.6797 31.375H26.3047V32.9492L26.1523 33H24.6797V31.375Z" fill="#323233"/>
<path d="M27.9297 28.125H29.5039L29.5547 28.1758V29.6992L29.4531 29.75H27.9297V28.125Z" fill="#323233"/>
<path d="M31.2305 21.625H32.8047V23.1992L32.7031 23.25H31.1797V21.6758L31.2305 21.625Z" fill="#323233"/>
<path d="M24.6797 44.375H26.3047V45.9492L26.1016 46H24.6797V44.375Z" fill="#323233"/>
<path d="M31.1797 41.125H32.7539L32.8047 41.1758V42.6992L32.6523 42.75H31.1797V41.125Z" fill="#323233"/>
<path d="M31.1797 34.625H32.8047V36.1992L32.6016 36.25H31.1797V34.625Z" fill="#323233"/>
<path d="M31.1797 31.375H32.7539L32.8047 31.4258V32.9492L32.5508 33H31.1797L31.1289 32.3906L31.1797 31.375Z" fill="#323233"/>
<path d="M31.1797 24.875H32.7539L32.8047 24.9258V26.4492L32.6016 26.5H31.1797V24.875Z" fill="#323233"/>
<path d="M24.7305 24.875H26.3047V26.4492L26.1016 26.5H24.6797V24.9258L24.7305 24.875Z" fill="#323233"/>
<path d="M27.9805 21.625H29.5547V23.1992L29.3516 23.25H27.9297V21.6758L27.9805 21.625Z" fill="#323233"/>
<path d="M27.9297 31.375H29.5039L29.5547 31.4258V32.9492L29.3008 33H27.9297V31.375Z" fill="#323233"/>
<path d="M31.1797 44.375H32.7539L32.8047 44.4258V45.9492L32.5 46H31.1797V44.375Z" fill="#323233"/>
<path d="M42.6055 15.125H44.1289L44.1797 15.1758V16.6992L43.9258 16.75H42.5547V15.1758L42.6055 15.125Z" fill="#323233"/>
<path d="M31.1797 28.125H32.7539L32.8047 28.1758V29.6992L32.4492 29.75H31.1797V28.125Z" fill="#323233"/>
<path d="M24.6797 34.625H26.2539L26.3047 34.6758V36.1992L25.8984 36.25H24.6797V34.625Z" fill="#323233"/>
<path d="M45.8555 15.125H47.3789L47.4297 15.2773V16.6992L46.8711 16.75H45.8555L45.8047 16.6992V15.1758L45.8555 15.125Z" fill="#323233"/>
<path d="M49.1055 15.125H50.6289L50.6797 15.5312V16.6992L50.1211 16.75H49.1055L49.0547 16.6992V15.1758L49.1055 15.125Z" fill="#323233"/>
<path d="M42.6055 18.375H44.1289L44.1797 18.7812V19.9492L44.0273 20H42.6055L42.5547 19.9492V18.4258L42.6055 18.375Z" fill="#323233"/>
<path d="M42.6055 34.625H44.1289L44.1797 35.2852V36.1992L44.0273 36.25H42.6055L42.5547 36.1992V34.6758L42.6055 34.625Z" fill="#323233"/>
<path d="M45.8047 44.375H47.3789L47.4297 45.0352L47.3789 45.9492L47.125 46H45.8047V44.375Z" fill="#323233"/>
<path d="M42.6055 31.375H44.1289L44.1797 32.0352V32.9492L43.9258 33H42.5547V31.4258L42.6055 31.375Z" fill="#323233"/>
<path d="M42.6055 37.875H44.1289L44.1797 39.4492L44.1289 39.5H42.6055L42.5547 39.4492V37.9258L42.6055 37.875Z" fill="#323233"/>
<path d="M42.6055 21.625H44.1289L44.1797 23.1992L44.1289 23.25H42.6055L42.5547 23.1992V21.6758L42.6055 21.625Z" fill="#323233"/>
<path d="M42.6055 44.375H44.1289V45.9492L43.9766 46H42.5547V44.4258L42.6055 44.375Z" fill="#323233"/>
<path d="M42.5547 41.125H44.1289L44.1797 42.6992L43.9258 42.75H42.6055L42.5547 42.6992V41.125Z" fill="#323233"/>
<path d="M42.5547 28.125H44.1289L44.1797 29.6992L43.9258 29.75H42.6055L42.5547 29.6992V28.125Z" fill="#323233"/>
<path d="M49.0547 44.375H50.6289V45.9492L50.375 46H49.0547V44.375Z" fill="#323233"/>
<path d="M42.5547 24.875H44.1289L44.1797 26.4492L43.875 26.5H42.6055L42.5547 26.4492V24.875Z" fill="#323233"/>
<path d="M49.0547 28.125H50.6289L50.6797 29.6992L50.0195 29.75H49.0547V28.125Z" fill="#323233"/>
<path d="M45.8047 31.375H47.3789L47.4297 32.9492L46.8711 33H45.8047V31.375Z" fill="#323233"/>
<path d="M45.8047 28.125H47.3789L47.4297 28.7852V29.6992L46.7188 29.75H45.8555L45.8047 29.6992V28.125Z" fill="#323233"/>
<path d="M45.8047 18.375H47.3789L47.4297 19.9492L46.8203 20H45.8555L45.8047 19.9492V18.375Z" fill="#323233"/>
<path d="M45.8047 34.625H47.3789L47.4297 36.1992L46.7695 36.25H45.8555L45.8047 36.1992V34.625Z" fill="#323233"/>
<path d="M49.0547 18.375H50.6289L50.6797 19.9492L49.5117 20H49.1055L49.0547 19.9492V18.375Z" fill="#323233"/>
<path d="M49.0547 41.125H50.6289L50.6797 42.6992L49.2578 42.75L49.0547 42.6992V41.125Z" fill="#323233"/>
<path d="M49.0547 34.625H50.6289L50.6797 36.1992L49.5117 36.25H49.1055L49.0547 36.1992V34.625Z" fill="#323233"/>
<path d="M49.0547 31.375H50.6289L50.6797 32.9492L49.5117 33H49.1055L49.0547 32.9492V31.375Z" fill="#323233"/>
<path d="M49.0547 24.875H50.6289L50.6797 26.4492L49.5117 26.5H49.1055L49.0547 26.4492V24.875Z" fill="#323233"/>
<path d="M45.8047 41.125H47.3789L47.4297 42.6992L46.2617 42.75H45.8555L45.8047 42.6992V41.125Z" fill="#323233"/>
<path d="M45.8047 37.875H47.3789L47.4297 39.4492L46.2617 39.5H45.8555L45.8047 39.4492V37.875Z" fill="#323233"/>
<path d="M45.8047 24.875H47.3789L47.4297 26.4492L46.2617 26.5H45.8555L45.8047 26.4492V24.875Z" fill="#323233"/>
<path d="M45.8047 21.625H47.3789L47.4297 23.1992L46.2617 23.25H45.8555L45.8047 23.1992V21.625Z" fill="#323233"/>
<path d="M49.0547 37.875H50.6289L50.6797 39.4492L49.207 39.5L49.0547 39.4492V37.875Z" fill="#323233"/>
<path d="M49.0547 21.625H50.6289L50.6797 23.1992L49.207 23.25L49.0547 23.1992V21.625Z" fill="#323233"/>
<path d="M43.0625 15.5312H43.6719L43.7734 15.6836V16.0391L43.6719 16.2422L43.418 16.3945L43.0625 16.3438L42.7578 15.9883L42.8086 15.7852L42.9609 15.6328H43.0625V15.5312Z" fill="#323233"/>
<path d="M43.0625 44.7812H43.5703L43.7734 44.9844L43.7227 45.3906L43.4688 45.5938L43.0117 45.4922V45.3398L42.8594 45.2891V44.9844H42.9609V44.8828H43.0625V44.7812Z" fill="#323233"/>
<path d="M50.4258 31.375H50.6289L50.6797 32.9492L50.4258 32.8984L50.4766 32.0859L50.4258 31.6289L50.2227 31.5781L49.7656 31.5273L49.3086 31.6289L49.2578 31.7305H49.1562V32.4922H49.1055V31.4258L50.4258 31.375Z" fill="#323233"/>
<path d="M49.6641 44.7812H49.918L50.1719 44.832L50.2734 44.9844L50.2227 45.3398L50.0703 45.4922H49.6641L49.4102 45.2383V44.9844L49.6641 44.7812Z" fill="#323233"/>
<path d="M49.1055 34.6758H50.5781L50.6289 34.7266L50.6797 36.1992L50.375 36.1484L50.4258 35.5898V34.8789L50.2227 34.8281L49.8164 34.7773L49.3086 34.8789L49.207 35.0312L49.1562 35.4883H49.1055V34.6758Z" fill="#323233"/>
<path d="M46.6172 15.5312L46.9219 15.6328V15.7344H47.0234L46.9727 16.0391L46.8711 16.1914L46.7188 16.2422H46.3633L46.1602 16.0391L46.1094 15.7852H46.2109V15.6836L46.3633 15.582L46.6172 15.5312Z" fill="#323233"/>
<path d="M46.6172 44.7812L46.9219 44.8828L47.0234 45.2383L46.8203 45.4922L46.4648 45.543L46.2109 45.2891L46.1602 45.0352L46.3633 44.832L46.6172 44.7812Z" fill="#323233"/>
<path d="M49.8164 15.5312L50.2734 15.6836V15.9883L50.0703 16.0898V16.1914L49.7148 16.2422L49.4609 16.0898V15.9883L49.3594 15.9375V15.7852L49.6133 15.582L49.8164 15.5312Z" fill="#323233"/>
<path d="M50.4258 37.875H50.6289V39.3984H50.375L50.4766 38.5859L50.4258 38.0781L50.1719 38.0273H49.7148L49.3086 38.1289L49.207 38.2305L49.1562 38.7383H49.1055V37.9258L50.4258 37.875Z" fill="#323233"/>
<path d="M50.4258 41.125H50.6289L50.6797 42.5977L50.375 42.6484L50.4766 42.1406L50.4258 41.3281L49.7148 41.2773L49.3086 41.3789L49.207 41.4805L49.1562 41.8359H49.1055V41.1758L50.4258 41.125Z" fill="#323233"/>
<path d="M50.4258 28.125H50.6289L50.6797 29.6992L50.4766 29.5977L50.4258 29.4961L50.4766 29.1406V28.7344L50.4258 28.3789L50.1211 28.2773H49.7148L49.3086 28.3789L49.207 28.4805L49.1562 28.8359H49.1055V28.1758L50.4258 28.125Z" fill="#323233"/>
<path d="M50.4258 24.875H50.6289V26.3984L50.4258 26.3477L50.4766 25.6875L50.4258 25.1289L50.2227 25.0273H49.7148L49.3086 25.1289L49.207 25.2305L49.1562 25.5859H49.1055V24.9258L50.4258 24.875Z" fill="#323233"/>
<path d="M45.8555 34.6758H47.3281V36.1484L47.2266 36.0977L47.1758 35.8438L47.2266 35.3359L47.1758 34.9805L46.8711 34.7773H46.4648L46.2109 34.8789L46.0078 34.9297L45.957 35.0312L45.9062 35.793H45.8555V34.6758Z" fill="#323233"/>
<path d="M43.2148 18.832L43.6211 18.8828L43.7227 19.0859L43.6211 19.3398L43.418 19.4922L43.0625 19.4414L42.9102 19.1367L43.0117 18.9336L43.2148 18.832Z" fill="#323233"/>
<path d="M45.8555 37.9258H47.3281V39.3984L47.125 39.3477L47.1758 39.1953L47.2266 38.4844L47.125 38.1289L46.8203 38.0273H46.4648L46.0078 38.0781L45.957 38.2812L45.9062 38.9922H45.8555V37.9258Z" fill="#323233"/>
<path d="M42.5547 34.6758H44.0781V35.8945H44.0273L43.9766 35.5898V35.1328L43.9258 34.8281L43.7227 34.7773H43.2148L42.7578 34.8281V34.9297H42.6562L42.707 36.1992H42.5547V34.6758Z" fill="#323233"/>
<path d="M50.4258 21.625H50.6289V23.0977H50.4258L50.4766 22.4375L50.4258 21.8281L50.2227 21.7773H49.6641L49.2578 21.8281L49.1562 22.1328H49.1055V21.6758H50.3242L50.4258 21.625Z" fill="#323233"/>
<path d="M45.8555 31.4258H47.3281V32.8477L47.2266 32.7969V31.9844L47.125 31.6289L46.9727 31.5781V31.4766L46.4141 31.5273L46.2109 31.6289L46.0078 31.6797L45.957 31.7812L45.9062 32.4922H45.8555V31.4258Z" fill="#323233"/>
<path d="M45.8555 21.6758H47.3281V23.1484H47.2266L47.1758 22.9453L47.2266 22.2344L47.1758 21.8281L46.9727 21.7773H46.4648L46.2109 21.8789L46.0078 21.8281L45.957 21.9805L45.9062 22.7422H45.8555V21.6758Z" fill="#323233"/>
<path d="M47.1758 24.875L47.3281 24.9258V26.3984H47.2266V25.4844L47.125 25.1289L46.9727 25.0273H46.4648L46.0078 25.0781L45.957 25.2305L45.9062 25.9922H45.8555V24.9258L47.1758 24.875Z" fill="#323233"/>
<path d="M47.2266 41.125L47.3281 41.1758V42.6484L47.2266 42.5977V41.7344L47.1758 41.3281L46.9727 41.2773H46.4141L46.0078 41.3281L45.957 41.4805L45.9062 42.1914H45.8555V41.1758L47.2266 41.125Z" fill="#323233"/>
<path d="M43.1641 31.832L43.5703 31.8828L43.7227 32.1367L43.418 32.4414H43.1133L42.9609 32.1875L43.0117 31.9336L43.1641 31.832Z" fill="#323233"/>
<path d="M45.8555 28.1758H47.3281V29.5977L47.2266 29.4961V28.6836L47.1758 28.3281L46.9219 28.2773H46.4648L46.0586 28.3789L45.957 28.5312L45.9062 28.9883H45.8555V28.1758Z" fill="#323233"/>
<path d="M45.8555 18.4258H47.3281V19.8477H47.2266V18.9844L47.1758 18.5781L46.9727 18.5273H46.4141L46.0078 18.5781L45.9062 19.2383H45.8555V18.4258Z" fill="#323233"/>
<path d="M49.1055 15.125H50.6289V16.0898L50.5273 16.1406V15.6836L50.4258 15.3281L50.2227 15.2773H49.1562V15.7344H49.1055V15.125Z" fill="#323233"/>
<path d="M43.3164 41.582L43.6211 41.6836L43.7227 41.9375H43.6211V42.0391L43.3164 42.1914H43.1133L42.9609 41.9375L43.0625 41.6836L43.3164 41.582Z" fill="#323233"/>
<path d="M43.3164 35.082L43.6211 35.1836L43.7227 35.3867L43.4688 35.6406L43.1641 35.6914L43.0117 35.5391L42.9609 35.2852L43.1133 35.1328L43.3164 35.082Z" fill="#323233"/>
<path d="M43.3164 28.582L43.6211 28.6836L43.7227 28.9375L43.4688 29.1406L43.2148 29.1914L43.0625 29.1406L42.9609 28.7344L43.3164 28.582Z" fill="#323233"/>
<path d="M42.6055 24.9258H44.0781V26.3477L43.9766 26.2461V25.4336L43.9258 25.0781L43.7227 25.0273H43.2148L42.7578 25.1289L42.707 25.2305L42.6562 25.9922H42.6055V24.9258Z" fill="#323233"/>
<path d="M42.6055 37.9258H44.0781V39.3477L43.9766 39.1445V38.4336L43.9258 38.0781L43.7227 38.0273H43.2148L42.7578 38.0781L42.707 38.1797L42.6562 38.9922H42.6055V37.9258Z" fill="#323233"/>
<path d="M49.1055 18.4258H50.5781L50.6289 19.8477L50.4766 19.8984L50.4258 19.7461L50.4766 19.1875L50.4258 18.6289L50.1211 18.5273H49.6641L49.207 18.6289L49.1562 18.8828H49.1055V18.4258Z" fill="#323233"/>
<path d="M43.3672 22.082L43.6211 22.1836L43.7227 22.4375L43.4688 22.6406L43.1641 22.6914L43.0117 22.5391L42.9609 22.2344L43.3672 22.082Z" fill="#323233"/>
<path d="M42.6055 41.1758H44.0781V42.5977L43.9766 42.4961V41.6836L43.9258 41.3281L43.5195 41.2773L42.9102 41.3281L42.707 41.4297L42.6562 41.8359H42.6055V41.1758Z" fill="#323233"/>
<path d="M43.3672 38.332L43.6211 38.4336L43.6719 38.6875L43.4688 38.8906L43.1641 38.9414L43.1133 38.7891H43.0117L42.9609 38.5352L43.1641 38.3828L43.3672 38.332Z" fill="#323233"/>
<path d="M42.6055 21.6758H44.0781V23.0977L43.9766 22.8945V22.1836L43.9258 21.8281L43.7227 21.7773H43.2148L42.7578 21.8281L42.6562 22.3359H42.6055V21.6758Z" fill="#323233"/>
<path d="M43.3164 25.332L43.5703 25.4336L43.6719 25.6875L43.4688 25.8906L43.2148 25.9414L43.0117 25.7891V25.4844L43.3164 25.332Z" fill="#323233"/>
<path d="M42.6055 15.125H44.1289L44.0781 15.6328L43.9766 15.4297V15.2773H42.6562V16.1914H42.6055V15.125Z" fill="#323233"/>
<path d="M42.6055 28.1758H44.0781V29.5977H44.0273L43.9766 29.0898V28.6836L43.9258 28.3281L43.7227 28.2773H43.2148L42.707 28.3789L42.6562 28.7852H42.6055V28.1758Z" fill="#323233"/>
<path d="M42.6055 31.4258H44.0781V32.6445H44.0273L43.9766 31.5273H43.2148L42.7578 31.5781L42.6562 32.0859H42.6055V31.4258Z" fill="#323233"/>
<path d="M49.6133 18.8828H49.918L50.1719 19.0352V19.1875L49.7656 19.3398H49.5625L49.5117 19.0859L49.6133 18.8828Z" fill="#323233"/>
<path d="M50.4258 44.375H50.6289V45.9492L50.4766 45.8984V44.7305L50.375 44.5781L50.2734 44.4766L50.4258 44.375Z" fill="#323233"/>
<path d="M49.6641 22.1328L50.0195 22.1836L50.1719 22.3359L49.918 22.5391H49.5625L49.5117 22.3359L49.6641 22.1328Z" fill="#323233"/>
<path d="M49.1055 31.4258H50.0703L49.8672 31.5273L49.4102 31.5781L49.2578 31.7305H49.1562V32.4922H49.1055V31.4258Z" fill="#323233"/>
<path d="M49.8672 25.3828L50.1211 25.4844L50.0703 25.6875L49.8164 25.7891L49.5625 25.7383L49.5117 25.6367L49.6641 25.4336L49.8672 25.3828Z" fill="#323233"/>
<path d="M46.4648 41.6836L46.8203 41.7344V41.9883L46.4141 42.0898L46.2617 41.9375L46.4648 41.6836Z" fill="#323233"/>
<path d="M49.1055 37.9258H50.1719V37.9766L49.4102 38.0781L49.207 38.2305L49.1562 38.7383H49.1055V37.9258Z" fill="#323233"/>
<path d="M49.1055 34.6758H50.0703L49.8672 34.7773L49.4102 34.8281L49.207 35.0312L49.1562 35.4883H49.1055V34.6758Z" fill="#323233"/>
<path d="M46.4648 28.6836H46.7188L46.8203 28.7852L46.7695 28.9883L46.668 29.0391H46.3125V28.7852L46.4648 28.6836Z" fill="#323233"/>
<path d="M49.8672 41.6328L50.1211 41.7344L50.0703 41.9375L49.6133 42.0391L49.5117 41.9883L49.6133 41.7344L49.8672 41.6328Z" fill="#323233"/>
<path d="M49.1055 28.1758H50.2227L50.0703 28.2773H49.7148L49.3086 28.3789L49.207 28.4805L49.1562 28.8359H49.1055V28.1758Z" fill="#323233"/>
<path d="M49.8672 28.6328L50.1211 28.7852V28.8867L49.6133 29.0391L49.5117 28.9883L49.5625 28.7852L49.6641 28.6836L49.8672 28.6328Z" fill="#323233"/>
<path d="M49.1055 24.9258H50.2227V24.9766L49.4102 25.0781L49.207 25.2305L49.1562 25.5859H49.1055V24.9258Z" fill="#323233"/>
<path d="M49.1055 41.1758H50.0703L49.8672 41.2773L49.4102 41.3281L49.207 41.4805L49.1562 41.8359H49.1055V41.1758Z" fill="#323233"/>
<path d="M49.8672 38.3828L50.0703 38.4844L50.1211 38.6367L49.6133 38.7891L49.5117 38.6875L49.6641 38.4336L49.8672 38.3828Z" fill="#323233"/>
<path d="M42.6055 18.4258H43.7734V18.4766L42.9102 18.5781L42.707 18.6289L42.6562 19.0859H42.6055V18.4258Z" fill="#323233"/>
<path d="M50.2227 15.1758H50.5781L50.6289 15.2266V16.0898L50.5273 16.1406V15.6836L50.4258 15.3281L50.2227 15.2773V15.1758Z" fill="#323233"/>
<path d="M45.8555 15.1758H47.0234V15.2266L45.957 15.3281L45.9062 16.1914H45.8555V15.1758Z" fill="#323233"/>
<path d="M46.4648 18.9844H46.7695L46.8203 19.1875L46.4648 19.3398L46.3125 19.2383V19.0352L46.4648 18.9844Z" fill="#323233"/>
<path d="M46.4648 25.4844H46.7695L46.8203 25.6875L46.4141 25.8398L46.3125 25.7383V25.5352L46.4648 25.4844Z" fill="#323233"/>
<path d="M49.1055 21.6758H50.2227V21.7266L49.2578 21.8281L49.1562 22.1328H49.1055V21.6758Z" fill="#323233"/>
<path d="M49.8672 35.1328L50.0703 35.3359L49.8672 35.4375H49.7148V35.5391L49.5117 35.4375L49.5625 35.2852H49.6641V35.1836L49.8672 35.1328Z" fill="#323233"/>
<path d="M43.7227 34.6758H44.0781V35.8945H44.0273L43.9766 35.5898V35.1328L43.9258 34.8281L43.7227 34.7773V34.6758Z" fill="#323233"/>
<path d="M46.4648 22.2344H46.7188L46.8203 22.4375L46.6172 22.5391H46.3633L46.3125 22.3359L46.4648 22.2344Z" fill="#323233"/>
<path d="M42.6055 44.4258H43.7227V44.4766L42.707 44.5781L42.6562 45.0859H42.6055V44.4258Z" fill="#323233"/>
<path d="M50.5273 28.9375L50.6289 28.9883L50.6797 29.6992L50.4766 29.5977L50.4258 29.4961L50.4766 29.1406L50.5273 28.9375Z" fill="#323233"/>
<path d="M50.5273 32.1367H50.5781L50.6289 32.7969L50.6797 32.9492L50.4258 32.8984L50.4766 32.1875L50.5273 32.1367Z" fill="#323233"/>
<path d="M49.1055 44.4258H50.2734V44.4766L49.5625 44.5273L49.207 44.6289L49.1055 44.4258Z" fill="#323233"/>
<path d="M50.5273 38.6875H50.5781L50.6289 39.3984H50.375L50.4766 38.7383L50.5273 38.6875Z" fill="#323233"/>
<path d="M46.4141 31.9844L46.7188 32.0352L46.7695 32.1875L46.6172 32.2891L46.3633 32.2383L46.4141 31.9844Z" fill="#323233"/>
<path d="M50.5273 45.2383H50.6289V45.9492L50.4766 45.8984L50.5273 45.2383Z" fill="#323233"/>
<path d="M45.8555 44.4258H46.3125L46.2617 44.5273L45.957 44.6289L45.9062 45.0352H45.8555V44.4258Z" fill="#323233"/>
<path d="M49.8672 31.9336L50.0195 31.9844V32.1367L49.6133 32.2383L49.5625 32.0859H49.6641V31.9844L49.8672 31.9336Z" fill="#323233"/>
<path d="M46.3633 38.5352H46.7188L46.7695 38.6875L46.6172 38.7891H46.4141L46.3633 38.5352Z" fill="#323233"/>
<path d="M47.0742 44.4258H47.3281V45.0859H47.2773L47.2266 44.5273H47.0742V44.4258Z" fill="#323233"/>
</g>
<defs>
<filter id="filter0_d_911_1225" x="0.679688" y="0" width="73.9883" height="70" filterUnits="userSpaceOnUse" color-interpolation-filters="sRGB">
<feFlood flood-opacity="0" result="BackgroundImageFix"/>
<feColorMatrix in="SourceAlpha" type="matrix" values="0 0 0 0 0 0 0 0 0 0 0 0 0 0 0 0 0 0 127 0" result="hardAlpha"/>
<feOffset dy="2"/>
<feGaussianBlur stdDeviation="2"/>
<feComposite in2="hardAlpha" operator="out"/>
<feColorMatrix type="matrix" values="0 0 0 0 0 0 0 0 0 0 0 0 0 0 0 0 0 0 0.15 0"/>
<feBlend mode="normal" in2="BackgroundImageFix" result="effect1_dropShadow_911_1225"/>
<feBlend mode="normal" in="SourceGraphic" in2="effect1_dropShadow_911_1225" result="shape"/>
</filter>
</defs>
</svg>
