<svg width="54" height="50" viewBox="0 0 74 70" fill="none" xmlns="http://www.w3.org/2000/svg">
<g filter="url(#filter0_d_648_65695)">
<rect x="4" y="2" width="65.9901" height="62" rx="8" fill="white"/>
<g clip-path="url(#clip0_648_65695)">
<path d="M45.6836 7.8125H46.1406L49.0352 8.625L51.8281 9.4375L52.3359 9.58984L52.4375 9.69141V11.8242L54.0117 11.875L54.0625 11.9258V25.6875H55.8906L56.4492 25.7891L57.0586 26.0938L57.5664 26.5508L57.9727 27.2617L58.0742 27.6172L58.125 28.125V53.3125H62.1875V55.4961L62.1367 56.4102L61.9844 56.918L61.6289 57.4766L61.1211 57.8828L60.6133 58.0859L60.4102 58.1367L59.6992 58.1875H13.9961L13.3359 58.0859L12.9297 57.9336L12.4727 57.5781L12.1172 57.1211L11.9141 56.7148L11.8125 56.3086V53.3633L11.8633 53.3125H15.875L15.8242 52.043V49.0977L15.875 27.8203L16.0273 27.2617L16.2305 26.8555L16.6367 26.3477L17.1953 25.9414L17.7539 25.7383L18.0586 25.6875H19.9375V21.0156L20.3438 20.8633L36.0352 16.4961L36.1875 16.5469V25.6875L37.7617 25.6367L37.8125 11.9258L37.8633 11.875L39.3867 11.8242L39.4375 9.64062L39.8945 9.48828L41.9766 8.87891L45.5312 7.86328L45.6836 7.8125ZM45.7344 9.48828L43.0938 10.25L41.1133 10.8086L41.0625 10.8594L41.0117 11.5195L41.1133 11.875H50.7109L50.8125 11.6719V10.8594L50.4062 10.707L47.918 9.99609L46.0898 9.48828H45.7344ZM34.4102 18.6289L32.0742 19.2891L25.1172 21.2188L21.6133 22.1836L21.5625 22.2344V50.0625H34.5625V18.6289H34.4102ZM18.1094 27.3125L17.8047 27.4648L17.5508 27.7695L17.5 27.9219V53.3125H56.4492L56.5 53.2617V28.0234L56.3477 27.668L56.0938 27.4141L55.8398 27.3125H54.0625V50.0625L54.875 50.1133L54.8242 51.4336L54.875 51.6367L19.125 51.6875V50.0625H19.9375V27.3125H18.1094ZM36.1875 27.3125L36.1367 49.6562L36.1875 50.0625H37.7617L37.8125 50.0117V27.3125H36.1875ZM13.4375 54.9375V56.0039L13.5391 56.3594L13.6914 56.5117L13.8438 56.5625H60.0547L60.3594 56.4609L60.5117 56.1562L60.5625 55.9023V54.9375H13.4375Z" fill="#C13B44"/>
<path d="M36.0352 16.4961L36.1875 16.5469V25.6875H37.8125V27.3125H36.1875V50.0625H54.7734L54.875 50.1133V51.6367L54.7734 51.6875H19.125V50.0625H19.9375V27.3125L18.1094 27.3633L17.8047 27.5156L17.6016 27.7695L17.5508 27.9219L17.5 53.3125L56.4492 53.2617V28.0234L56.2969 27.668L56.043 27.4141L55.8398 27.3633L54.0625 27.3125V25.6875H55.8906L56.4492 25.7891L57.0586 26.0938L57.5664 26.5508L57.9727 27.2617L58.0742 27.6172L58.125 28.125V53.3125H62.1875V55.4961L62.1367 56.4102L61.9844 56.918L61.6289 57.4766L61.1211 57.8828L60.6133 58.0859L60.4102 58.1367L59.6992 58.1875H13.9961L13.3359 58.0859L12.9297 57.9336L12.4727 57.5781L12.1172 57.1211L11.9141 56.7148L11.8125 56.3086V53.3633L11.8633 53.3125H15.875L15.8242 52.043V49.0977L15.875 27.8203L16.0273 27.2617L16.2305 26.8555L16.6367 26.3477L17.1953 25.9414L17.7539 25.7383L18.0586 25.6875H19.9375V21.0156L20.3438 20.8633L34.4102 16.9531L36.0352 16.4961ZM34.4102 18.6289L32.0742 19.2891L25.1172 21.2188L21.6133 22.1836L21.5625 22.2344V50.0625H34.5625V18.6289H34.4102ZM13.4375 54.9375V56.0039L13.5391 56.3594L13.6914 56.5117L13.8438 56.5625H60.0547L60.3594 56.4609L60.5117 56.1562L60.5625 55.9023V54.9375H13.4375Z" fill="#323233"/>
<path d="M45.6836 7.8125H46.1406L49.0352 8.625L51.8281 9.4375L52.3359 9.58984L52.4375 9.69141V11.875H50.7617V10.8594L46.293 9.58984L46.0898 9.53906H45.7344L43.0938 10.3008L41.1133 10.8594L41.0625 11.5195V11.875H39.4375V9.64062L39.8945 9.48828L41.9766 8.87891L45.5312 7.86328L45.6836 7.8125Z" fill="#323233"/>
<path d="M24 37.875H25.625V39.4492L25.4219 39.5H24L23.9492 39.2461L24 37.875Z" fill="#323233"/>
<path d="M27.25 41.125H28.875V42.6992L28.8242 42.75H27.25V41.125Z" fill="#323233"/>
<path d="M27.25 34.625H28.875V36.1992L28.6211 36.25H27.25L27.1992 35.5898L27.25 34.625Z" fill="#323233"/>
<path d="M27.25 24.875H28.875V26.4492L28.8242 26.5H27.25V24.875Z" fill="#323233"/>
<path d="M27.25 44.375H28.875V45.9492L28.7734 46H27.25V44.375Z" fill="#323233"/>
<path d="M30.5 37.875H32.125V39.4492L32.0234 39.5H30.5V37.875Z" fill="#323233"/>
<path d="M24 28.125H25.625V29.6992L25.5234 29.75H24V28.125Z" fill="#323233"/>
<path d="M24 41.125H25.625V42.6992L25.4727 42.75H24V41.125Z" fill="#323233"/>
<path d="M27.25 37.875H28.875V39.4492L28.7227 39.5H27.25V37.875Z" fill="#323233"/>
<path d="M24 31.375H25.625V32.9492L25.4727 33H24V31.375Z" fill="#323233"/>
<path d="M27.25 28.125H28.8242L28.875 28.1758V29.6992L28.7734 29.75H27.25V28.125Z" fill="#323233"/>
<path d="M30.5508 21.625H32.125V23.1992L32.0234 23.25H30.5V21.6758L30.5508 21.625Z" fill="#323233"/>
<path d="M24 44.375H25.625V45.9492L25.4219 46H24V44.375Z" fill="#323233"/>
<path d="M30.5 41.125H32.0742L32.125 41.1758V42.6992L31.9727 42.75H30.5V41.125Z" fill="#323233"/>
<path d="M30.5 34.625H32.125V36.1992L31.9219 36.25H30.5V34.625Z" fill="#323233"/>
<path d="M30.5 31.375H32.0742L32.125 31.4258V32.9492L31.8711 33H30.5L30.4492 32.3906L30.5 31.375Z" fill="#323233"/>
<path d="M30.5 24.875H32.0742L32.125 24.9258V26.4492L31.9219 26.5H30.5V24.875Z" fill="#323233"/>
<path d="M24.0508 24.875H25.625V26.4492L25.4219 26.5H24V24.9258L24.0508 24.875Z" fill="#323233"/>
<path d="M27.3008 21.625H28.875V23.1992L28.6719 23.25H27.25V21.6758L27.3008 21.625Z" fill="#323233"/>
<path d="M27.25 31.375H28.8242L28.875 31.4258V32.9492L28.6211 33H27.25V31.375Z" fill="#323233"/>
<path d="M30.5 44.375H32.0742L32.125 44.4258V45.9492L31.8203 46H30.5V44.375Z" fill="#323233"/>
<path d="M41.9258 15.125H43.4492L43.5 15.1758V16.6992L43.2461 16.75H41.875V15.1758L41.9258 15.125Z" fill="#323233"/>
<path d="M30.5 28.125H32.0742L32.125 28.1758V29.6992L31.7695 29.75H30.5V28.125Z" fill="#323233"/>
<path d="M24 34.625H25.5742L25.625 34.6758V36.1992L25.2188 36.25H24V34.625Z" fill="#323233"/>
<path d="M45.1758 15.125H46.6992L46.75 15.2773V16.6992L46.1914 16.75H45.1758L45.125 16.6992V15.1758L45.1758 15.125Z" fill="#323233"/>
<path d="M48.4258 15.125H49.9492L50 15.5312V16.6992L49.4414 16.75H48.4258L48.375 16.6992V15.1758L48.4258 15.125Z" fill="#323233"/>
<path d="M41.9258 18.375H43.4492L43.5 18.7812V19.9492L43.3477 20H41.9258L41.875 19.9492V18.4258L41.9258 18.375Z" fill="#323233"/>
<path d="M41.9258 34.625H43.4492L43.5 35.2852V36.1992L43.3477 36.25H41.9258L41.875 36.1992V34.6758L41.9258 34.625Z" fill="#323233"/>
<path d="M45.125 44.375H46.6992L46.75 45.0352L46.6992 45.9492L46.4453 46H45.125V44.375Z" fill="#323233"/>
<path d="M41.9258 31.375H43.4492L43.5 32.0352V32.9492L43.2461 33H41.875V31.4258L41.9258 31.375Z" fill="#323233"/>
<path d="M41.9258 37.875H43.4492L43.5 39.4492L43.4492 39.5H41.9258L41.875 39.4492V37.9258L41.9258 37.875Z" fill="#323233"/>
<path d="M41.9258 21.625H43.4492L43.5 23.1992L43.4492 23.25H41.9258L41.875 23.1992V21.6758L41.9258 21.625Z" fill="#323233"/>
<path d="M41.9258 44.375H43.4492V45.9492L43.2969 46H41.875V44.4258L41.9258 44.375Z" fill="#323233"/>
<path d="M41.875 41.125H43.4492L43.5 42.6992L43.2461 42.75H41.9258L41.875 42.6992V41.125Z" fill="#323233"/>
<path d="M41.875 28.125H43.4492L43.5 29.6992L43.2461 29.75H41.9258L41.875 29.6992V28.125Z" fill="#323233"/>
<path d="M48.375 44.375H49.9492V45.9492L49.6953 46H48.375V44.375Z" fill="#323233"/>
<path d="M41.875 24.875H43.4492L43.5 26.4492L43.1953 26.5H41.9258L41.875 26.4492V24.875Z" fill="#323233"/>
<path d="M48.375 28.125H49.9492L50 29.6992L49.3398 29.75H48.375V28.125Z" fill="#323233"/>
<path d="M45.125 31.375H46.6992L46.75 32.9492L46.1914 33H45.125V31.375Z" fill="#323233"/>
<path d="M45.125 28.125H46.6992L46.75 28.7852V29.6992L46.0391 29.75H45.1758L45.125 29.6992V28.125Z" fill="#323233"/>
<path d="M45.125 18.375H46.6992L46.75 19.9492L46.1406 20H45.1758L45.125 19.9492V18.375Z" fill="#323233"/>
<path d="M45.125 34.625H46.6992L46.75 36.1992L46.0898 36.25H45.1758L45.125 36.1992V34.625Z" fill="#323233"/>
<path d="M48.375 18.375H49.9492L50 19.9492L48.832 20H48.4258L48.375 19.9492V18.375Z" fill="#323233"/>
<path d="M48.375 41.125H49.9492L50 42.6992L48.5781 42.75L48.375 42.6992V41.125Z" fill="#323233"/>
<path d="M48.375 34.625H49.9492L50 36.1992L48.832 36.25H48.4258L48.375 36.1992V34.625Z" fill="#323233"/>
<path d="M48.375 31.375H49.9492L50 32.9492L48.832 33H48.4258L48.375 32.9492V31.375Z" fill="#323233"/>
<path d="M48.375 24.875H49.9492L50 26.4492L48.832 26.5H48.4258L48.375 26.4492V24.875Z" fill="#323233"/>
<path d="M45.125 41.125H46.6992L46.75 42.6992L45.582 42.75H45.1758L45.125 42.6992V41.125Z" fill="#323233"/>
<path d="M45.125 37.875H46.6992L46.75 39.4492L45.582 39.5H45.1758L45.125 39.4492V37.875Z" fill="#323233"/>
<path d="M45.125 24.875H46.6992L46.75 26.4492L45.582 26.5H45.1758L45.125 26.4492V24.875Z" fill="#323233"/>
<path d="M45.125 21.625H46.6992L46.75 23.1992L45.582 23.25H45.1758L45.125 23.1992V21.625Z" fill="#323233"/>
<path d="M48.375 37.875H49.9492L50 39.4492L48.5273 39.5L48.375 39.4492V37.875Z" fill="#323233"/>
<path d="M48.375 21.625H49.9492L50 23.1992L48.5273 23.25L48.375 23.1992V21.625Z" fill="#323233"/>
<path d="M42.3828 15.5312H42.9922L43.0938 15.6836V16.0391L42.9922 16.2422L42.7383 16.3945L42.3828 16.3438L42.0781 15.9883L42.1289 15.7852L42.2812 15.6328H42.3828V15.5312Z" fill="#323233"/>
<path d="M42.3828 44.7812H42.8906L43.0938 44.9844L43.043 45.3906L42.7891 45.5938L42.332 45.4922V45.3398L42.1797 45.2891V44.9844H42.2812V44.8828H42.3828V44.7812Z" fill="#323233"/>
<path d="M49.7461 31.375H49.9492L50 32.9492L49.7461 32.8984L49.7969 32.0859L49.7461 31.6289L49.543 31.5781L49.0859 31.5273L48.6289 31.6289L48.5781 31.7305H48.4766V32.4922H48.4258V31.4258L49.7461 31.375Z" fill="#323233"/>
<path d="M48.9844 44.7812H49.2383L49.4922 44.832L49.5938 44.9844L49.543 45.3398L49.3906 45.4922H48.9844L48.7305 45.2383V44.9844L48.9844 44.7812Z" fill="#323233"/>
<path d="M48.4258 34.6758H49.8984L49.9492 34.7266L50 36.1992L49.6953 36.1484L49.7461 35.5898V34.8789L49.543 34.8281L49.1367 34.7773L48.6289 34.8789L48.5273 35.0312L48.4766 35.4883H48.4258V34.6758Z" fill="#323233"/>
<path d="M45.9375 15.5312L46.2422 15.6328V15.7344H46.3438L46.293 16.0391L46.1914 16.1914L46.0391 16.2422H45.6836L45.4805 16.0391L45.4297 15.7852H45.5312V15.6836L45.6836 15.582L45.9375 15.5312Z" fill="#323233"/>
<path d="M45.9375 44.7812L46.2422 44.8828L46.3438 45.2383L46.1406 45.4922L45.7852 45.543L45.5312 45.2891L45.4805 45.0352L45.6836 44.832L45.9375 44.7812Z" fill="#323233"/>
<path d="M49.1367 15.5312L49.5938 15.6836V15.9883L49.3906 16.0898V16.1914L49.0352 16.2422L48.7812 16.0898V15.9883L48.6797 15.9375V15.7852L48.9336 15.582L49.1367 15.5312Z" fill="#323233"/>
<path d="M49.7461 37.875H49.9492V39.3984H49.6953L49.7969 38.5859L49.7461 38.0781L49.4922 38.0273H49.0352L48.6289 38.1289L48.5273 38.2305L48.4766 38.7383H48.4258V37.9258L49.7461 37.875Z" fill="#323233"/>
<path d="M49.7461 41.125H49.9492L50 42.5977L49.6953 42.6484L49.7969 42.1406L49.7461 41.3281L49.0352 41.2773L48.6289 41.3789L48.5273 41.4805L48.4766 41.8359H48.4258V41.1758L49.7461 41.125Z" fill="#323233"/>
<path d="M49.7461 28.125H49.9492L50 29.6992L49.7969 29.5977L49.7461 29.4961L49.7969 29.1406V28.7344L49.7461 28.3789L49.4414 28.2773H49.0352L48.6289 28.3789L48.5273 28.4805L48.4766 28.8359H48.4258V28.1758L49.7461 28.125Z" fill="#323233"/>
<path d="M49.7461 24.875H49.9492V26.3984L49.7461 26.3477L49.7969 25.6875L49.7461 25.1289L49.543 25.0273H49.0352L48.6289 25.1289L48.5273 25.2305L48.4766 25.5859H48.4258V24.9258L49.7461 24.875Z" fill="#323233"/>
<path d="M45.1758 34.6758H46.6484V36.1484L46.5469 36.0977L46.4961 35.8438L46.5469 35.3359L46.4961 34.9805L46.1914 34.7773H45.7852L45.5312 34.8789L45.3281 34.9297L45.2773 35.0312L45.2266 35.793H45.1758V34.6758Z" fill="#323233"/>
<path d="M42.5352 18.832L42.9414 18.8828L43.043 19.0859L42.9414 19.3398L42.7383 19.4922L42.3828 19.4414L42.2305 19.1367L42.332 18.9336L42.5352 18.832Z" fill="#323233"/>
<path d="M45.1758 37.9258H46.6484V39.3984L46.4453 39.3477L46.4961 39.1953L46.5469 38.4844L46.4453 38.1289L46.1406 38.0273H45.7852L45.3281 38.0781L45.2773 38.2812L45.2266 38.9922H45.1758V37.9258Z" fill="#323233"/>
<path d="M41.875 34.6758H43.3984V35.8945H43.3477L43.2969 35.5898V35.1328L43.2461 34.8281L43.043 34.7773H42.5352L42.0781 34.8281V34.9297H41.9766L42.0273 36.1992H41.875V34.6758Z" fill="#323233"/>
<path d="M49.7461 21.625H49.9492V23.0977H49.7461L49.7969 22.4375L49.7461 21.8281L49.543 21.7773H48.9844L48.5781 21.8281L48.4766 22.1328H48.4258V21.6758H49.6445L49.7461 21.625Z" fill="#323233"/>
<path d="M45.1758 31.4258H46.6484V32.8477L46.5469 32.7969V31.9844L46.4453 31.6289L46.293 31.5781V31.4766L45.7344 31.5273L45.5312 31.6289L45.3281 31.6797L45.2773 31.7812L45.2266 32.4922H45.1758V31.4258Z" fill="#323233"/>
<path d="M45.1758 21.6758H46.6484V23.1484H46.5469L46.4961 22.9453L46.5469 22.2344L46.4961 21.8281L46.293 21.7773H45.7852L45.5312 21.8789L45.3281 21.8281L45.2773 21.9805L45.2266 22.7422H45.1758V21.6758Z" fill="#323233"/>
<path d="M46.4961 24.875L46.6484 24.9258V26.3984H46.5469V25.4844L46.4453 25.1289L46.293 25.0273H45.7852L45.3281 25.0781L45.2773 25.2305L45.2266 25.9922H45.1758V24.9258L46.4961 24.875Z" fill="#323233"/>
<path d="M46.5469 41.125L46.6484 41.1758V42.6484L46.5469 42.5977V41.7344L46.4961 41.3281L46.293 41.2773H45.7344L45.3281 41.3281L45.2773 41.4805L45.2266 42.1914H45.1758V41.1758L46.5469 41.125Z" fill="#323233"/>
<path d="M42.4844 31.832L42.8906 31.8828L43.043 32.1367L42.7383 32.4414H42.4336L42.2812 32.1875L42.332 31.9336L42.4844 31.832Z" fill="#323233"/>
<path d="M45.1758 28.1758H46.6484V29.5977L46.5469 29.4961V28.6836L46.4961 28.3281L46.2422 28.2773H45.7852L45.3789 28.3789L45.2773 28.5312L45.2266 28.9883H45.1758V28.1758Z" fill="#323233"/>
<path d="M45.1758 18.4258H46.6484V19.8477H46.5469V18.9844L46.4961 18.5781L46.293 18.5273H45.7344L45.3281 18.5781L45.2266 19.2383H45.1758V18.4258Z" fill="#323233"/>
<path d="M48.4258 15.125H49.9492V16.0898L49.8477 16.1406V15.6836L49.7461 15.3281L49.543 15.2773H48.4766V15.7344H48.4258V15.125Z" fill="#323233"/>
<path d="M42.6367 41.582L42.9414 41.6836L43.043 41.9375H42.9414V42.0391L42.6367 42.1914H42.4336L42.2812 41.9375L42.3828 41.6836L42.6367 41.582Z" fill="#323233"/>
<path d="M42.6367 35.082L42.9414 35.1836L43.043 35.3867L42.7891 35.6406L42.4844 35.6914L42.332 35.5391L42.2812 35.2852L42.4336 35.1328L42.6367 35.082Z" fill="#323233"/>
<path d="M42.6367 28.582L42.9414 28.6836L43.043 28.9375L42.7891 29.1406L42.5352 29.1914L42.3828 29.1406L42.2812 28.7344L42.6367 28.582Z" fill="#323233"/>
<path d="M41.9258 24.9258H43.3984V26.3477L43.2969 26.2461V25.4336L43.2461 25.0781L43.043 25.0273H42.5352L42.0781 25.1289L42.0273 25.2305L41.9766 25.9922H41.9258V24.9258Z" fill="#323233"/>
<path d="M41.9258 37.9258H43.3984V39.3477L43.2969 39.1445V38.4336L43.2461 38.0781L43.043 38.0273H42.5352L42.0781 38.0781L42.0273 38.1797L41.9766 38.9922H41.9258V37.9258Z" fill="#323233"/>
<path d="M48.4258 18.4258H49.8984L49.9492 19.8477L49.7969 19.8984L49.7461 19.7461L49.7969 19.1875L49.7461 18.6289L49.4414 18.5273H48.9844L48.5273 18.6289L48.4766 18.8828H48.4258V18.4258Z" fill="#323233"/>
<path d="M42.6875 22.082L42.9414 22.1836L43.043 22.4375L42.7891 22.6406L42.4844 22.6914L42.332 22.5391L42.2812 22.2344L42.6875 22.082Z" fill="#323233"/>
<path d="M41.9258 41.1758H43.3984V42.5977L43.2969 42.4961V41.6836L43.2461 41.3281L42.8398 41.2773L42.2305 41.3281L42.0273 41.4297L41.9766 41.8359H41.9258V41.1758Z" fill="#323233"/>
<path d="M42.6875 38.332L42.9414 38.4336L42.9922 38.6875L42.7891 38.8906L42.4844 38.9414L42.4336 38.7891H42.332L42.2812 38.5352L42.4844 38.3828L42.6875 38.332Z" fill="#323233"/>
<path d="M41.9258 21.6758H43.3984V23.0977L43.2969 22.8945V22.1836L43.2461 21.8281L43.043 21.7773H42.5352L42.0781 21.8281L41.9766 22.3359H41.9258V21.6758Z" fill="#323233"/>
<path d="M42.6367 25.332L42.8906 25.4336L42.9922 25.6875L42.7891 25.8906L42.5352 25.9414L42.332 25.7891V25.4844L42.6367 25.332Z" fill="#323233"/>
<path d="M41.9258 15.125H43.4492L43.3984 15.6328L43.2969 15.4297V15.2773H41.9766V16.1914H41.9258V15.125Z" fill="#323233"/>
<path d="M41.9258 28.1758H43.3984V29.5977H43.3477L43.2969 29.0898V28.6836L43.2461 28.3281L43.043 28.2773H42.5352L42.0273 28.3789L41.9766 28.7852H41.9258V28.1758Z" fill="#323233"/>
<path d="M41.9258 31.4258H43.3984V32.6445H43.3477L43.2969 31.5273H42.5352L42.0781 31.5781L41.9766 32.0859H41.9258V31.4258Z" fill="#323233"/>
<path d="M48.9336 18.8828H49.2383L49.4922 19.0352V19.1875L49.0859 19.3398H48.8828L48.832 19.0859L48.9336 18.8828Z" fill="#323233"/>
<path d="M49.7461 44.375H49.9492V45.9492L49.7969 45.8984V44.7305L49.6953 44.5781L49.5938 44.4766L49.7461 44.375Z" fill="#323233"/>
<path d="M48.9844 22.1328L49.3398 22.1836L49.4922 22.3359L49.2383 22.5391H48.8828L48.832 22.3359L48.9844 22.1328Z" fill="#323233"/>
<path d="M48.4258 31.4258H49.3906L49.1875 31.5273L48.7305 31.5781L48.5781 31.7305H48.4766V32.4922H48.4258V31.4258Z" fill="#323233"/>
<path d="M49.1875 25.3828L49.4414 25.4844L49.3906 25.6875L49.1367 25.7891L48.8828 25.7383L48.832 25.6367L48.9844 25.4336L49.1875 25.3828Z" fill="#323233"/>
<path d="M45.7852 41.6836L46.1406 41.7344V41.9883L45.7344 42.0898L45.582 41.9375L45.7852 41.6836Z" fill="#323233"/>
<path d="M48.4258 37.9258H49.4922V37.9766L48.7305 38.0781L48.5273 38.2305L48.4766 38.7383H48.4258V37.9258Z" fill="#323233"/>
<path d="M48.4258 34.6758H49.3906L49.1875 34.7773L48.7305 34.8281L48.5273 35.0312L48.4766 35.4883H48.4258V34.6758Z" fill="#323233"/>
<path d="M45.7852 28.6836H46.0391L46.1406 28.7852L46.0898 28.9883L45.9883 29.0391H45.6328V28.7852L45.7852 28.6836Z" fill="#323233"/>
<path d="M49.1875 41.6328L49.4414 41.7344L49.3906 41.9375L48.9336 42.0391L48.832 41.9883L48.9336 41.7344L49.1875 41.6328Z" fill="#323233"/>
<path d="M48.4258 28.1758H49.543L49.3906 28.2773H49.0352L48.6289 28.3789L48.5273 28.4805L48.4766 28.8359H48.4258V28.1758Z" fill="#323233"/>
<path d="M49.1875 28.6328L49.4414 28.7852V28.8867L48.9336 29.0391L48.832 28.9883L48.8828 28.7852L48.9844 28.6836L49.1875 28.6328Z" fill="#323233"/>
<path d="M48.4258 24.9258H49.543V24.9766L48.7305 25.0781L48.5273 25.2305L48.4766 25.5859H48.4258V24.9258Z" fill="#323233"/>
<path d="M48.4258 41.1758H49.3906L49.1875 41.2773L48.7305 41.3281L48.5273 41.4805L48.4766 41.8359H48.4258V41.1758Z" fill="#323233"/>
<path d="M49.1875 38.3828L49.3906 38.4844L49.4414 38.6367L48.9336 38.7891L48.832 38.6875L48.9844 38.4336L49.1875 38.3828Z" fill="#323233"/>
<path d="M41.9258 18.4258H43.0938V18.4766L42.2305 18.5781L42.0273 18.6289L41.9766 19.0859H41.9258V18.4258Z" fill="#323233"/>
<path d="M49.543 15.1758H49.8984L49.9492 15.2266V16.0898L49.8477 16.1406V15.6836L49.7461 15.3281L49.543 15.2773V15.1758Z" fill="#323233"/>
<path d="M45.1758 15.1758H46.3438V15.2266L45.2773 15.3281L45.2266 16.1914H45.1758V15.1758Z" fill="#323233"/>
<path d="M45.7852 18.9844H46.0898L46.1406 19.1875L45.7852 19.3398L45.6328 19.2383V19.0352L45.7852 18.9844Z" fill="#323233"/>
<path d="M45.7852 25.4844H46.0898L46.1406 25.6875L45.7344 25.8398L45.6328 25.7383V25.5352L45.7852 25.4844Z" fill="#323233"/>
<path d="M48.4258 21.6758H49.543V21.7266L48.5781 21.8281L48.4766 22.1328H48.4258V21.6758Z" fill="#323233"/>
<path d="M49.1875 35.1328L49.3906 35.3359L49.1875 35.4375H49.0352V35.5391L48.832 35.4375L48.8828 35.2852H48.9844V35.1836L49.1875 35.1328Z" fill="#323233"/>
<path d="M43.043 34.6758H43.3984V35.8945H43.3477L43.2969 35.5898V35.1328L43.2461 34.8281L43.043 34.7773V34.6758Z" fill="#323233"/>
<path d="M45.7852 22.2344H46.0391L46.1406 22.4375L45.9375 22.5391H45.6836L45.6328 22.3359L45.7852 22.2344Z" fill="#323233"/>
<path d="M41.9258 44.4258H43.043V44.4766L42.0273 44.5781L41.9766 45.0859H41.9258V44.4258Z" fill="#323233"/>
<path d="M49.8477 28.9375L49.9492 28.9883L50 29.6992L49.7969 29.5977L49.7461 29.4961L49.7969 29.1406L49.8477 28.9375Z" fill="#323233"/>
<path d="M49.8477 32.1367H49.8984L49.9492 32.7969L50 32.9492L49.7461 32.8984L49.7969 32.1875L49.8477 32.1367Z" fill="#323233"/>
<path d="M48.4258 44.4258H49.5938V44.4766L48.8828 44.5273L48.5273 44.6289L48.4258 44.4258Z" fill="#323233"/>
<path d="M49.8477 38.6875H49.8984L49.9492 39.3984H49.6953L49.7969 38.7383L49.8477 38.6875Z" fill="#323233"/>
<path d="M45.7344 31.9844L46.0391 32.0352L46.0898 32.1875L45.9375 32.2891L45.6836 32.2383L45.7344 31.9844Z" fill="#323233"/>
<path d="M49.8477 45.2383H49.9492V45.9492L49.7969 45.8984L49.8477 45.2383Z" fill="#323233"/>
<path d="M45.1758 44.4258H45.6328L45.582 44.5273L45.2773 44.6289L45.2266 45.0352H45.1758V44.4258Z" fill="#323233"/>
<path d="M49.1875 31.9336L49.3398 31.9844V32.1367L48.9336 32.2383L48.8828 32.0859H48.9844V31.9844L49.1875 31.9336Z" fill="#323233"/>
<path d="M45.6836 38.5352H46.0391L46.0898 38.6875L45.9375 38.7891H45.7344L45.6836 38.5352Z" fill="#323233"/>
<path d="M46.3945 44.4258H46.6484V45.0859H46.5977L46.5469 44.5273H46.3945V44.4258Z" fill="#323233"/>
</g>
</g>
<defs>
<filter id="filter0_d_648_65695" x="0" y="0" width="73.9902" height="70" filterUnits="userSpaceOnUse" color-interpolation-filters="sRGB">
<feFlood flood-opacity="0" result="BackgroundImageFix"/>
<feColorMatrix in="SourceAlpha" type="matrix" values="0 0 0 0 0 0 0 0 0 0 0 0 0 0 0 0 0 0 127 0" result="hardAlpha"/>
<feOffset dy="2"/>
<feGaussianBlur stdDeviation="2"/>
<feComposite in2="hardAlpha" operator="out"/>
<feColorMatrix type="matrix" values="0 0 0 0 0 0 0 0 0 0 0 0 0 0 0 0 0 0 0.15 0"/>
<feBlend mode="normal" in2="BackgroundImageFix" result="effect1_dropShadow_648_65695"/>
<feBlend mode="normal" in="SourceGraphic" in2="effect1_dropShadow_648_65695" result="shape"/>
</filter>
<clipPath id="clip0_648_65695">
<rect width="52" height="52" fill="white" transform="translate(11 7)"/>
</clipPath>
</defs>
</svg>
