<svg width="484" height="484" viewBox="0 0 484 484" fill="none" xmlns="http://www.w3.org/2000/svg">
<path d="M484 370.16H0V370.402H484V370.16Z" fill="#EBEBEB"/>
<path d="M82.8414 379.375H50.7812V379.617H82.8414V379.375Z" fill="#EBEBEB"/>
<path d="M174.075 376.754H165.663V376.996H174.075V376.754Z" fill="#EBEBEB"/>
<path d="M102.385 388.367H83.8096V388.609H102.385V388.367Z" fill="#EBEBEB"/>
<path d="M435.503 386.742H393.695V386.984H435.503V386.742Z" fill="#EBEBEB"/>
<path d="M385.071 386.742H378.943V386.984H385.071V386.742Z" fill="#EBEBEB"/>
<path d="M359.021 382.656H268.339V382.898H359.021V382.656Z" fill="#EBEBEB"/>
<path d="M229.416 326.989H42.5146C41.0487 326.989 39.6428 326.406 38.6062 325.37C37.5696 324.333 36.9873 322.927 36.9873 321.461V58.7172C37.0001 57.2596 37.588 55.8662 38.6232 54.84C39.6584 53.8139 41.057 53.2382 42.5146 53.2383H229.416C230.882 53.2383 232.288 53.8206 233.324 54.8572C234.361 55.8938 234.943 57.2996 234.943 58.7656V321.461C234.943 322.927 234.361 324.333 233.324 325.37C232.288 326.406 230.882 326.989 229.416 326.989ZM42.5146 53.4319C41.1136 53.4344 39.7708 53.9921 38.7802 54.9827C37.7895 55.9734 37.2319 57.3162 37.2293 58.7172V321.461C37.2319 322.862 37.7895 324.205 38.7802 325.196C39.7708 326.186 41.1136 326.744 42.5146 326.747H229.416C230.817 326.744 232.16 326.186 233.15 325.196C234.141 324.205 234.699 322.862 234.701 321.461V58.7172C234.699 57.3162 234.141 55.9734 233.15 54.9827C232.16 53.9921 230.817 53.4344 229.416 53.4319H42.5146Z" fill="#EBEBEB"/>
<path d="M438.805 326.989H251.884C250.419 326.986 249.014 326.403 247.978 325.367C246.942 324.331 246.359 322.927 246.356 321.461V58.7172C246.372 57.2604 246.961 55.8684 247.995 54.8428C249.03 53.8173 250.427 53.2407 251.884 53.2383H438.805C440.259 53.2433 441.652 53.8213 442.683 54.8468C443.714 55.8724 444.3 57.263 444.312 58.7172V321.461C444.312 322.924 443.733 324.327 442.7 325.363C441.668 326.399 440.267 326.984 438.805 326.989ZM251.884 53.4319C250.483 53.4344 249.14 53.9921 248.149 54.9827C247.159 55.9734 246.601 57.3162 246.598 58.7172V321.461C246.601 322.862 247.159 324.205 248.149 325.196C249.14 326.186 250.483 326.744 251.884 326.747H438.805C440.205 326.744 441.548 326.186 442.539 325.196C443.53 324.205 444.087 322.862 444.09 321.461V58.7172C444.087 57.3162 443.53 55.9734 442.539 54.9827C441.548 53.9921 440.205 53.4344 438.805 53.4319H251.884Z" fill="#EBEBEB"/>
<path d="M246.134 71.3203H59.4258V279.431H246.134V71.3203Z" fill="#EBEBEB"/>
<path d="M252.193 71.3203H62.252V279.431H252.193V71.3203Z" fill="#F5F5F5"/>
<path d="M246.134 279.43H59.4258V290.707H246.134V279.43Z" fill="#EBEBEB"/>
<path d="M281.02 279.43H91.0791V290.707H281.02V279.43Z" fill="#F0F0F0"/>
<path d="M243.704 270.931V79.8086L70.7515 79.8086V270.931H243.704Z" fill="#FAFAFA"/>
<path d="M77.7783 270.931L127.65 79.8086H151.191L101.32 270.931H77.7783Z" fill="white"/>
<path d="M74.6909 189.727C74.5292 189.727 74.374 189.663 74.2597 189.548C74.1453 189.434 74.0811 189.279 74.0811 189.117V85.3379C74.0997 85.1906 74.1715 85.0552 74.2829 84.957C74.3942 84.8588 74.5376 84.8047 74.6861 84.8047C74.8345 84.8047 74.9779 84.8588 75.0893 84.957C75.2006 85.0552 75.2724 85.1906 75.2911 85.3379V189.078C75.2963 189.161 75.2847 189.244 75.2571 189.321C75.2294 189.399 75.1862 189.471 75.13 189.531C75.0739 189.592 75.0061 189.641 74.9306 189.674C74.8551 189.708 74.7735 189.726 74.6909 189.727Z" fill="#F1F1F1"/>
<path d="M106.373 270.931L156.244 79.8086H165.421L115.559 270.931H106.373Z" fill="white"/>
<path d="M243.713 270.942V79.8203H242.638V270.942H243.713Z" fill="#EBEBEB"/>
<path d="M254.207 88.9851H67.4989L66.7148 83.1094H253.432L254.207 88.9851Z" fill="#EBEBEB"/>
<path d="M254.207 93.2937H67.4989L66.7148 87.418H253.432L254.207 93.2937Z" fill="#EBEBEB"/>
<path d="M254.207 98.4539H67.4989L66.7148 92.5781H253.432L254.207 98.4539Z" fill="#EBEBEB"/>
<path d="M254.207 104.196H67.4989L66.7148 98.3203H253.432L254.207 104.196Z" fill="#EBEBEB"/>
<path d="M254.207 111.075H67.4989L66.7148 105.199H253.432L254.207 111.075Z" fill="#EBEBEB"/>
<path d="M254.207 118.821H67.4989L66.7148 112.945H253.432L254.207 118.821Z" fill="#EBEBEB"/>
<path d="M75.1846 266.43H96.0547V268.492H94.7285L93.6443 279.43H77.5852L76.5011 268.492H75.1846V266.43Z" fill="#EBEBEB"/>
<path d="M73.6453 247.272C73.3743 246.362 73.1323 245.443 72.8999 244.523C71.5351 246.294 70.2089 246.74 69.2215 246.74H68.9021C66.9661 246.546 65.0301 244.649 63.8782 241.658C63.8517 241.603 63.8379 241.544 63.8379 241.483C63.8379 241.423 63.8517 241.363 63.8782 241.309C63.9038 241.255 63.9417 241.208 63.9887 241.171C64.0357 241.134 64.0907 241.108 64.1492 241.096C65.5534 240.739 67.0173 240.682 68.4451 240.928C69.873 241.175 71.2326 241.721 72.4353 242.529C72.2514 241.658 72.1062 240.786 71.9803 239.915C71.6614 239.978 71.3373 240.01 71.0123 240.012C67.8179 240.012 65.4657 237.156 65.3592 237.021C65.3183 236.969 65.2901 236.908 65.2767 236.844C65.2633 236.779 65.2651 236.712 65.282 236.648C65.2989 236.584 65.3304 236.525 65.3741 236.476C65.4177 236.426 65.4723 236.388 65.5335 236.363C66.2788 235.984 67.097 235.771 67.9323 235.737C68.7676 235.704 69.6003 235.851 70.3735 236.169C71.2105 236.589 71.8896 237.268 72.3095 238.105C72.9101 236.272 74.0036 234.639 75.4703 233.386C76.9369 232.133 78.7201 231.307 80.6246 231C80.6838 230.985 80.7456 230.984 80.8052 230.997C80.8649 231.01 80.921 231.035 80.9693 231.073C81.0177 231.11 81.057 231.157 81.0845 231.212C81.1119 231.266 81.1268 231.326 81.1279 231.387C81.2925 234.291 81.2054 237.844 79.0274 239.538C78.1212 240.205 77.0158 240.546 75.8911 240.506C74.8813 240.481 73.879 240.325 72.9096 240.041C73.2209 242.136 73.6671 244.209 74.2455 246.246C76.3728 243.353 79.3882 241.235 82.8316 240.215C82.9394 240.189 83.0533 240.205 83.1491 240.261C83.245 240.317 83.3151 240.408 83.3447 240.515C84.0029 243.013 83.6641 245.046 82.3767 246.382C81.7237 246.971 80.9586 247.424 80.127 247.711C79.2955 247.999 78.4145 248.116 77.5367 248.056C76.5904 248.045 75.6473 247.944 74.7198 247.756C75.2522 249.469 75.8523 251.144 76.4912 252.741C77.798 251.589 81.6313 248.656 85.8034 249.886C85.8608 249.901 85.9142 249.929 85.9594 249.967C86.0046 250.006 86.0406 250.054 86.0648 250.108C86.0885 250.162 86.1008 250.219 86.1008 250.278C86.1008 250.336 86.0885 250.394 86.0648 250.447C84.9322 253.216 83.6448 254.745 82.0185 255.287C81.5866 255.424 81.1358 255.493 80.6827 255.49C79.4541 255.431 78.2569 255.083 77.1882 254.474C78.0981 256.584 79.0371 258.569 79.947 260.33C80.915 259.275 83.606 257.088 88.3589 258.104C88.4588 258.125 88.5476 258.182 88.6082 258.264C88.6689 258.346 88.6973 258.448 88.688 258.549C88.5826 259.436 88.2465 260.28 87.7132 260.997C87.1798 261.714 86.468 262.278 85.6485 262.634C85.0369 262.897 84.3781 263.032 83.7125 263.031C82.7741 263.016 81.8524 262.78 81.0215 262.344C83.1317 266.216 84.816 268.694 84.8935 268.752C84.9383 268.844 84.9486 268.949 84.9223 269.048C84.896 269.147 84.8349 269.233 84.7503 269.291C84.6656 269.348 84.5631 269.374 84.4614 269.362C84.3597 269.35 84.2656 269.302 84.1965 269.226C82.5188 266.687 80.9775 264.06 79.5791 261.356C79.5493 261.319 79.5264 261.276 79.5114 261.231C79.2307 260.698 78.9596 260.156 78.6789 259.595C78.2002 260.316 77.5559 260.912 76.7997 261.333C76.0436 261.754 75.1976 261.988 74.3326 262.015C74.1553 262.024 73.9775 262.024 73.8002 262.015C72.844 261.905 71.9367 261.533 71.1783 260.94C70.42 260.348 69.84 259.557 69.5023 258.656C69.4675 258.563 69.4679 258.46 69.5036 258.367C69.5393 258.275 69.6077 258.198 69.6959 258.152C70.9254 257.459 72.3025 257.068 73.7132 257.012C75.1238 256.957 76.5274 257.238 77.8077 257.833C77.2075 256.545 76.5977 255.181 76.0169 253.758C75.9844 253.704 75.9615 253.645 75.9491 253.583C75.7846 253.177 75.62 252.77 75.4651 252.364C74.0712 254.126 72.6773 254.987 71.235 254.987C69.4732 254.987 67.7018 253.69 65.8045 251.028C65.7393 250.939 65.7118 250.828 65.7282 250.72C65.7445 250.611 65.8033 250.513 65.8916 250.447C68.8731 248.211 72.9677 249.74 74.8263 250.631C74.4488 249.586 74.0906 248.511 73.7615 247.417L73.6453 247.272Z" fill="#EBEBEB"/>
<path d="M95.5121 258.534C94.8474 258.74 94.156 258.847 93.46 258.853C92.6054 258.864 91.7599 258.677 90.9889 258.308C90.218 257.939 89.5424 257.398 89.0144 256.726C88.4865 256.054 88.1204 255.269 87.9446 254.433C87.7687 253.596 87.7879 252.731 88.0005 251.903C88.0236 251.806 88.0822 251.722 88.1647 251.666C88.2471 251.61 88.3474 251.588 88.4457 251.603C90.0753 251.764 91.6424 252.314 93.0152 253.207C94.388 254.1 95.5265 255.309 96.3349 256.733C97.3029 254.623 98.1838 252.387 98.9776 250.064C97.9626 250.643 96.8249 250.975 95.6573 251.032C95.1964 251.032 94.7386 250.957 94.3021 250.809C91.9983 250.025 90.6141 247.208 89.4621 244.275C89.4382 244.22 89.4258 244.161 89.4258 244.101C89.4258 244.041 89.4382 243.981 89.4621 243.926C89.4868 243.874 89.5232 243.827 89.5684 243.79C89.6137 243.753 89.6667 243.727 89.7235 243.713C94.457 242.397 98.2903 246.918 99.4809 248.553C100.107 246.605 100.627 244.624 101.039 242.62C100.053 242.806 99.052 242.903 98.0483 242.91C97.0481 242.981 96.0441 242.845 95.0984 242.512C94.1527 242.179 93.2853 241.656 92.5501 240.974C91.1368 239.474 90.798 237.228 91.5821 234.479C91.5956 234.425 91.6196 234.375 91.6529 234.33C91.6861 234.286 91.7278 234.249 91.7756 234.221C91.8234 234.193 91.8762 234.175 91.9311 234.168C91.9859 234.16 92.0417 234.164 92.0951 234.179C95.8457 235.364 99.1057 237.744 101.378 240.955L101.552 239.88C101.565 239.789 101.605 239.705 101.669 239.638C101.859 238.955 102.188 238.319 102.634 237.767C103.08 237.216 103.634 236.763 104.263 236.434C105.666 235.766 107.438 235.863 109.519 236.715C109.581 236.74 109.636 236.78 109.68 236.831C109.724 236.882 109.755 236.942 109.771 237.007C109.787 237.072 109.788 237.14 109.772 237.205C109.757 237.271 109.727 237.331 109.684 237.383C109.558 237.528 106.983 240.577 103.508 240.577C103.137 240.571 102.768 240.532 102.404 240.461C102.249 241.429 102.066 242.455 101.843 243.442C103.18 242.56 104.69 241.971 106.272 241.716C107.854 241.461 109.472 241.544 111.02 241.961C111.077 241.977 111.131 242.006 111.178 242.044C111.224 242.082 111.261 242.13 111.288 242.184C111.315 242.238 111.329 242.297 111.331 242.357C111.334 242.417 111.323 242.477 111.3 242.533C109.945 245.804 107.864 247.857 105.705 248.04H105.415C104.321 248.04 102.85 247.537 101.349 245.524C100.748 247.817 100.03 250.079 99.2002 252.3C101.233 251.332 105.802 249.676 109.064 252.203C109.149 252.271 109.204 252.37 109.219 252.478C109.233 252.586 109.205 252.695 109.142 252.784C107.041 255.688 105.086 257.053 103.179 257.053C101.591 257.053 100.071 256.085 98.5613 254.081C97.6901 256.249 96.7609 258.311 95.8316 260.218C97.8547 258.959 100.091 259.153 102.724 260.818C102.781 260.855 102.828 260.905 102.862 260.964C102.895 261.023 102.914 261.089 102.917 261.157C102.919 261.226 102.904 261.295 102.874 261.357C102.843 261.419 102.799 261.473 102.743 261.515C101.154 262.592 99.298 263.208 97.3804 263.296C96.3846 263.313 95.4091 263.014 94.5925 262.444C92.7966 265.93 90.7925 269.305 88.5909 272.55C88.5474 272.613 88.4896 272.664 88.4222 272.699C88.3548 272.735 88.2799 272.753 88.2037 272.753C88.1096 272.753 88.0181 272.722 87.9424 272.666C87.892 272.632 87.8491 272.587 87.816 272.536C87.7829 272.484 87.7603 272.426 87.7495 272.366C87.7387 272.306 87.7399 272.244 87.7531 272.184C87.7662 272.125 87.7911 272.068 87.8262 272.018C90.7325 267.728 93.3022 263.22 95.5121 258.534Z" fill="#EBEBEB"/>
<path d="M413.742 145.777H369.94V193.877H413.742V145.777Z" fill="#EBEBEB"/>
<path d="M409.193 148.846C409.152 148.858 409.108 148.858 409.067 148.846C408.951 148.778 397.267 141.828 393.579 141.828C389.891 141.828 378.71 148.778 378.604 148.846C378.548 148.879 378.482 148.889 378.419 148.875C378.356 148.86 378.301 148.822 378.265 148.768C378.248 148.742 378.236 148.712 378.23 148.681C378.225 148.65 378.225 148.618 378.233 148.587C378.24 148.556 378.253 148.527 378.272 148.502C378.291 148.476 378.315 148.455 378.342 148.439C378.807 148.149 389.726 141.344 393.579 141.344C397.431 141.344 408.864 148.12 409.348 148.43C409.402 148.465 409.44 148.52 409.454 148.583C409.469 148.646 409.458 148.713 409.425 148.768C409.397 148.802 409.361 148.826 409.32 148.84C409.279 148.854 409.235 148.856 409.193 148.846Z" fill="#EBEBEB"/>
<path d="M418.486 145.777H373.241V193.877H418.486V145.777Z" fill="#F5F5F5"/>
<path d="M414.701 190.095V149.574H377.036V190.095H414.701Z" fill="white"/>
<path d="M396.88 174.723C396.274 174.726 395.671 174.794 395.08 174.926C395.231 174.407 395.309 173.869 395.312 173.329C395.313 172.018 394.85 170.749 394.005 169.747C394.428 169.882 394.868 169.954 395.312 169.96C396.365 169.971 397.39 169.625 398.221 168.978C399.053 168.332 399.641 167.424 399.891 166.401C400.14 165.378 400.037 164.301 399.597 163.344C399.156 162.388 398.406 161.608 397.466 161.132C396.527 160.657 395.455 160.513 394.423 160.724C393.391 160.935 392.462 161.488 391.785 162.295C391.108 163.101 390.723 164.113 390.694 165.165C390.665 166.218 390.993 167.249 391.624 168.092C390.862 167.814 390.049 167.705 389.241 167.774C388.433 167.842 387.649 168.086 386.945 168.488C386.241 168.891 385.633 169.442 385.164 170.103C384.695 170.765 384.375 171.521 384.228 172.318C384.081 173.116 384.11 173.936 384.312 174.721C384.515 175.506 384.886 176.238 385.4 176.865C385.914 177.492 386.559 178 387.29 178.352C388.02 178.704 388.819 178.893 389.63 178.905C388.88 180.181 388.485 181.635 388.487 183.115C388.487 184.775 388.98 186.398 389.902 187.778C390.824 189.158 392.135 190.234 393.668 190.869C395.202 191.504 396.889 191.67 398.517 191.347C400.145 191.023 401.641 190.223 402.814 189.05C403.988 187.876 404.787 186.381 405.111 184.753C405.435 183.125 405.269 181.437 404.634 179.904C403.999 178.37 402.923 177.059 401.543 176.137C400.163 175.215 398.54 174.723 396.88 174.723Z" fill="#F5F5F5"/>
<path d="M388.768 156.737C388.77 157.65 388.501 158.544 387.994 159.304C387.488 160.065 386.768 160.658 385.924 161.009C385.081 161.36 384.152 161.453 383.256 161.276C382.359 161.099 381.536 160.66 380.889 160.015C380.242 159.369 379.802 158.547 379.623 157.651C379.444 156.755 379.535 155.826 379.884 154.982C380.233 154.137 380.825 153.416 381.584 152.908C382.344 152.4 383.237 152.129 384.151 152.129C385.373 152.131 386.544 152.617 387.409 153.481C388.274 154.344 388.763 155.514 388.768 156.737Z" fill="#F5F5F5"/>
<path d="M354.414 100.148H304.91V154.502H354.414V100.148Z" fill="#EBEBEB"/>
<path d="M348.306 102.375C348.265 102.385 348.222 102.385 348.18 102.375C348.064 102.298 336.371 95.3473 332.692 95.3473C329.014 95.3473 317.834 102.298 317.727 102.365C317.7 102.383 317.669 102.395 317.637 102.401C317.606 102.406 317.573 102.406 317.541 102.398C317.51 102.391 317.48 102.378 317.454 102.359C317.427 102.34 317.405 102.316 317.388 102.288C317.356 102.234 317.345 102.169 317.36 102.108C317.374 102.046 317.412 101.993 317.466 101.959C317.93 101.668 328.84 94.8633 332.692 94.8633C336.545 94.8633 347.987 101.639 348.471 101.959C348.498 101.975 348.522 101.996 348.541 102.021C348.56 102.047 348.573 102.076 348.58 102.107C348.588 102.137 348.589 102.169 348.583 102.201C348.577 102.232 348.566 102.261 348.548 102.288C348.521 102.325 348.483 102.352 348.44 102.368C348.397 102.383 348.351 102.386 348.306 102.375Z" fill="#EBEBEB"/>
<path d="M359.766 100.148H308.637V154.502H359.766V100.148Z" fill="#F5F5F5"/>
<path d="M355.488 150.212V104.426H312.925V150.212H355.488Z" fill="white"/>
<path d="M319.014 109.48H318.269C317.419 109.48 316.729 110.17 316.729 111.02V151.463C316.729 152.313 317.419 153.002 318.269 153.002H319.014C319.864 153.002 320.553 152.313 320.553 151.463V111.02C320.553 110.17 319.864 109.48 319.014 109.48Z" fill="#F5F5F5"/>
<path d="M331.394 131.239H328.694H328.423V122.75C328.423 122.342 328.26 121.95 327.972 121.662C327.683 121.373 327.292 121.211 326.883 121.211H324.192C323.784 121.211 323.393 121.373 323.104 121.662C322.815 121.95 322.653 122.342 322.653 122.75V151.432C322.653 151.84 322.815 152.232 323.104 152.52C323.393 152.809 323.784 152.971 324.192 152.971H326.883C327.211 152.972 327.531 152.867 327.793 152.671C328.052 152.868 328.369 152.974 328.694 152.971H331.394C331.803 152.971 332.194 152.809 332.483 152.52C332.771 152.232 332.933 151.84 332.933 151.432V132.779C332.933 132.576 332.894 132.376 332.816 132.19C332.739 132.003 332.626 131.833 332.483 131.69C332.34 131.547 332.17 131.434 331.983 131.357C331.797 131.279 331.596 131.239 331.394 131.239Z" fill="#F5F5F5"/>
<path d="M346.186 119.691H336.216C335.366 119.691 334.677 120.38 334.677 121.231V151.451C334.677 152.302 335.366 152.991 336.216 152.991H346.186C347.036 152.991 347.725 152.302 347.725 151.451V121.231C347.725 120.38 347.036 119.691 346.186 119.691Z" fill="#F5F5F5"/>
<path d="M348.576 116.053C351.18 116.053 353.291 113.943 353.291 111.339C353.291 108.736 351.18 106.625 348.576 106.625C345.973 106.625 343.862 108.736 343.862 111.339C343.862 113.943 345.973 116.053 348.576 116.053Z" fill="#F5F5F5"/>
<path d="M177.279 266.363C177.279 273.575 185.081 279.431 194.703 279.431C204.325 279.431 212.127 273.575 212.127 266.363H177.279Z" fill="#EBEBEB"/>
<path d="M242 413.876C345.656 413.876 429.686 408.97 429.686 402.919C429.686 396.867 345.656 391.961 242 391.961C138.344 391.961 54.3145 396.867 54.3145 402.919C54.3145 408.97 138.344 413.876 242 413.876Z" fill="#F5F5F5"/>
<path d="M331.666 403.993C341.326 403.993 349.157 403.512 349.157 402.918C349.157 402.325 341.326 401.844 331.666 401.844C322.005 401.844 314.174 402.325 314.174 402.918C314.174 403.512 322.005 403.993 331.666 403.993Z" fill="#E6E6E6"/>
<path d="M212.844 377.508H365.759C380.642 377.508 392.708 365.442 392.708 350.559V264.136C392.708 249.252 380.642 237.187 365.759 237.187L212.844 237.187C197.96 237.187 185.895 249.252 185.895 264.136V350.559C185.895 365.442 197.96 377.508 212.844 377.508Z" fill="#263238"/>
<path d="M339.09 402.919H324.619L295.211 333.242H317.359L339.09 402.919Z" fill="#263238"/>
<path d="M397.064 300.242H396.096V307.347H397.064V300.242Z" fill="#C13B44"/>
<path opacity="0.2" d="M397.064 300.242H396.096V307.347H397.064V300.242Z" fill="black"/>
<path d="M397.064 269.953H396.096V295.392H397.064V269.953Z" fill="#C13B44"/>
<path opacity="0.2" d="M397.064 269.953H396.096V295.392H397.064V269.953Z" fill="black"/>
<path d="M274.079 232.832H260.953V233.8H274.079V232.832Z" fill="#C13B44"/>
<path opacity="0.2" d="M274.079 232.832H260.953V233.8H274.079V232.832Z" fill="black"/>
<path d="M378.914 333.242L339.061 402.919L309.653 333.242H378.914Z" fill="#C13B44"/>
<path opacity="0.2" d="M378.924 333.242L339.071 402.919L309.663 333.242H378.924Z" fill="black"/>
<path d="M225.012 377.508H365.759C380.642 377.508 392.708 365.442 392.708 350.559V264.136C392.708 249.252 380.642 237.187 365.759 237.187L225.012 237.187C210.128 237.187 198.063 249.252 198.063 264.136V350.559C198.063 365.442 210.128 377.508 225.012 377.508Z" fill="#C13B44"/>
<path opacity="0.2" d="M225.012 377.508H365.759C380.642 377.508 392.708 365.442 392.708 350.559V264.136C392.708 249.252 380.642 237.187 365.759 237.187L225.012 237.187C210.128 237.187 198.063 249.252 198.063 264.136V350.559C198.063 365.442 210.128 377.508 225.012 377.508Z" fill="black"/>
<path opacity="0.7" d="M273.702 377.509H247.953L275.193 237.188H300.951L273.702 377.509Z" fill="#C13B44"/>
<path opacity="0.7" d="M296.963 377.509H282.317L309.567 237.188H324.203L296.963 377.509Z" fill="#C13B44"/>
<path d="M357.792 282.461H286.237C284.303 282.391 282.471 281.574 281.128 280.181C279.784 278.788 279.033 276.928 279.033 274.992C279.033 273.057 279.784 271.197 281.128 269.804C282.471 268.411 284.303 267.594 286.237 267.524H357.792C358.795 267.488 359.796 267.655 360.733 268.014C361.671 268.373 362.526 268.917 363.249 269.614C363.972 270.311 364.546 271.147 364.939 272.071C365.331 272.995 365.534 273.988 365.534 274.992C365.534 275.996 365.331 276.99 364.939 277.914C364.546 278.838 363.972 279.674 363.249 280.371C362.526 281.068 361.671 281.612 360.733 281.971C359.796 282.33 358.795 282.497 357.792 282.461Z" fill="white"/>
<path d="M261.718 282.461H229.31C227.375 282.391 225.544 281.574 224.2 280.181C222.856 278.788 222.105 276.928 222.105 274.992C222.105 273.057 222.856 271.197 224.2 269.804C225.544 268.411 227.375 267.594 229.31 267.524H261.718C262.722 267.488 263.722 267.655 264.659 268.014C265.597 268.373 266.453 268.917 267.175 269.614C267.898 270.311 268.473 271.147 268.865 272.071C269.258 272.995 269.46 273.988 269.46 274.992C269.46 275.996 269.258 276.99 268.865 277.914C268.473 278.838 267.898 279.674 267.175 280.371C266.453 281.068 265.597 281.612 264.659 281.971C263.722 282.33 262.722 282.497 261.718 282.461Z" fill="white"/>
<path d="M357.792 313.941H236.908C234.974 313.871 233.142 313.054 231.799 311.661C230.455 310.268 229.704 308.408 229.704 306.473C229.704 304.538 230.455 302.678 231.799 301.285C233.142 299.892 234.974 299.074 236.908 299.005H357.792C358.795 298.969 359.796 299.135 360.733 299.494C361.671 299.853 362.527 300.397 363.249 301.095C363.972 301.792 364.546 302.627 364.939 303.551C365.332 304.475 365.534 305.469 365.534 306.473C365.534 307.477 365.332 308.471 364.939 309.395C364.546 310.319 363.972 311.154 363.249 311.851C362.527 312.548 361.671 313.093 360.733 313.452C359.796 313.811 358.795 313.977 357.792 313.941Z" fill="white"/>
<path d="M357.792 345.41H301.793C299.859 345.34 298.027 344.523 296.683 343.13C295.34 341.737 294.589 339.877 294.589 337.942C294.589 336.006 295.34 334.146 296.683 332.753C298.027 331.361 299.859 330.543 301.793 330.474H357.792C358.795 330.437 359.795 330.604 360.733 330.963C361.671 331.322 362.526 331.866 363.249 332.563C363.971 333.26 364.546 334.096 364.939 335.02C365.331 335.944 365.534 336.938 365.534 337.942C365.534 338.946 365.331 339.939 364.939 340.863C364.546 341.788 363.971 342.623 363.249 343.32C362.526 344.017 361.671 344.561 360.733 344.921C359.795 345.28 358.795 345.446 357.792 345.41Z" fill="white"/>
<path opacity="0.1" d="M233.017 237.158C233.017 237.158 222.311 295.044 222.311 319.496C222.311 344.577 231.158 377.479 231.158 377.479H202.883L201.015 345.719C199.254 316.017 202.194 286.223 209.727 257.437L215.031 237.109L233.017 237.158Z" fill="black"/>
<path d="M218.275 402.923C218.275 404.065 202.4 404.995 182.817 404.995C163.235 404.995 147.359 404.027 147.359 402.923C147.359 401.82 163.235 400.852 182.817 400.852C202.4 400.852 218.275 401.781 218.275 402.923Z" fill="#E6E6E6"/>
<path d="M206.117 162.362C203.116 162.836 200.309 163.078 197.405 163.33C194.501 163.582 191.597 163.572 188.693 163.553C182.78 163.552 176.885 162.903 171.114 161.617C169.28 161.117 167.565 160.254 166.071 159.08C164.814 158.113 163.63 157.056 162.528 155.915C160.494 153.772 158.618 151.484 156.914 149.071C153.575 144.402 150.601 139.483 148.018 134.358L151.648 132.18C153.274 134.377 154.948 136.613 156.672 138.752C158.395 140.892 160.108 143.041 161.928 145.064C163.67 147.062 165.532 148.953 167.503 150.727C168.414 151.544 169.384 152.292 170.407 152.963C171.151 153.489 171.984 153.876 172.866 154.105C175.449 154.538 178.054 154.832 180.668 154.986C183.33 155.102 186.012 155.17 188.712 155.131C191.413 155.092 194.123 154.947 196.824 154.753C199.525 154.56 202.284 154.279 204.829 153.969L206.117 162.362Z" fill="#FF8B7B"/>
<path d="M214.829 154.502C207.462 150.04 197.473 153.283 197.473 153.283L202.526 170.707C202.526 170.707 210.502 168.461 213.629 165.063C216.9 161.549 219.272 157.184 214.829 154.502Z" fill="#263238"/>
<path d="M152.266 133.99L154.047 127.988L145.616 129.034C146.165 131.416 147.21 133.656 148.685 135.606L152.266 133.99Z" fill="#FF8B7B"/>
<path d="M153.438 120.992L146.42 122.251L145.616 129.036L154.047 127.991L153.438 120.992Z" fill="#FF8B7B"/>
<path d="M249.221 99.4623C256.675 99.6172 254.584 105.841 254.584 105.841C254.584 105.841 262.706 100.711 265.29 106.703C267.875 112.695 262.047 114.592 258.64 115.492C260.779 116.722 260.895 120.71 257.895 122.017C254.894 123.324 249.87 119.732 246.075 119.781L242.339 115.357C247.411 112.066 241.758 99.3075 249.221 99.4623Z" fill="#263238"/>
<path d="M248.06 122.859C251.312 123.43 253.674 123.023 253.035 119.432C252.629 117.438 251.725 115.579 250.409 114.028C249.092 112.476 247.405 111.282 245.504 110.555C241.4 109.045 240.48 115.821 240.48 115.821L248.06 122.859Z" fill="#C13B44"/>
<path d="M152.944 373.717L144.639 372.759L146.294 353.477L154.599 354.425L152.944 373.717Z" fill="#FF8B7B"/>
<path d="M207.956 396.319L199.612 395.941L197.812 376.484L206.165 376.872L207.956 396.319Z" fill="#FF8B7B"/>
<path d="M199.293 393.414H208.682C208.844 393.412 209.001 393.469 209.123 393.574C209.246 393.679 209.327 393.825 209.35 393.985L210.415 401.419C210.435 401.607 210.416 401.796 210.358 401.975C210.3 402.155 210.205 402.32 210.079 402.459C209.953 402.599 209.799 402.711 209.626 402.787C209.454 402.863 209.268 402.902 209.079 402.9C205.807 402.842 204.239 402.658 200.096 402.658C197.56 402.658 193.843 402.92 190.339 402.92C186.835 402.92 186.651 399.454 188.103 399.135C194.656 397.731 195.692 395.786 197.899 393.937C198.286 393.602 198.781 393.417 199.293 393.414Z" fill="#263238"/>
<path d="M144.358 369.719L153.68 368.615C153.842 368.594 154.006 368.632 154.141 368.723C154.277 368.814 154.374 368.951 154.416 369.109L156.352 376.359C156.392 376.543 156.394 376.734 156.356 376.918C156.318 377.103 156.242 377.278 156.132 377.431C156.023 377.584 155.882 377.713 155.72 377.808C155.558 377.904 155.377 377.964 155.19 377.986C151.938 378.315 150.35 378.315 146.246 378.799C143.729 379.099 138.502 379.98 135.056 380.386C131.61 380.793 130.98 377.376 132.394 376.892C138.734 374.723 141.057 372.497 143.042 370.397C143.389 370.025 143.854 369.786 144.358 369.719Z" fill="#263238"/>
<path d="M146.304 353.477L145.442 363.418L153.748 364.376L154.609 354.435L146.304 353.477Z" fill="#C13B44"/>
<path d="M206.165 376.87L197.812 376.492L198.741 386.521L207.095 386.898L206.165 376.87Z" fill="#C13B44"/>
<path d="M206.737 152.285C206.737 152.285 202.526 152.547 196.824 201.895L229.475 211.149C232.698 197.704 235.002 189.505 249.087 164.037C244.783 161.78 240.322 159.839 235.738 158.229C230.9 156.478 225.945 155.074 220.908 154.028C214.374 152.856 206.737 152.285 206.737 152.285Z" fill="#263238"/>
<path d="M239 141.172C236.716 145.673 233.298 154.153 235.738 158.276C235.738 158.276 233.056 162.749 224.199 160.212C214.452 157.454 220.908 154.056 220.908 154.056C226.59 154.298 227.568 150.31 227.684 146.312L239 141.172Z" fill="#FF8B7B"/>
<path d="M211.779 152.77C214.451 153.06 217.81 153.496 220.907 154.076C225.945 155.121 230.901 156.525 235.737 158.277C238.515 159.245 241.206 160.31 243.423 161.307C242.968 162.924 239.764 171.336 220.704 166.496C202.97 161.927 209.756 154.415 211.779 152.77Z" fill="#FF8B7B"/>
<path d="M234.391 143.266L227.703 146.334C227.686 147.264 227.589 148.19 227.412 149.103C229.522 149.383 233.104 148.435 233.927 146.363C234.262 145.366 234.419 144.317 234.391 143.266Z" fill="#C13B44"/>
<path d="M243.249 130.573C241.246 138.617 240.578 142.072 235.699 145.49C228.362 150.639 218.904 146.458 218.459 137.949C218.052 130.311 221.363 118.434 229.949 116.653C231.836 116.252 233.794 116.341 235.637 116.91C237.48 117.479 239.147 118.51 240.48 119.905C241.813 121.299 242.766 123.012 243.251 124.879C243.736 126.746 243.735 128.706 243.249 130.573Z" fill="#FF8B7B"/>
<path d="M240.636 138.339C238.206 137.08 236.26 133.499 239.765 130.169C239.765 130.169 234.925 127.41 237.354 123.606C239.784 119.801 249.493 116.636 251.013 121.747C252.532 126.858 247.809 128.959 247.809 128.959C247.809 128.959 251.681 134.883 244.721 136.838C244.721 136.838 244.121 145.386 239.126 141.581L240.636 138.339Z" fill="#263238"/>
<path d="M243.162 138.153C242.701 139.684 241.658 140.973 240.258 141.744C238.38 142.712 236.986 141.173 237.121 139.169C237.247 137.359 238.38 134.658 240.442 134.494C240.894 134.465 241.345 134.551 241.756 134.741C242.167 134.932 242.524 135.222 242.794 135.586C243.064 135.949 243.239 136.374 243.303 136.822C243.368 137.271 243.319 137.728 243.162 138.153Z" fill="#FF8B7B"/>
<path d="M196.824 201.898C196.824 201.898 158.898 246.63 152.48 271.294C145.801 296.946 142.8 360.35 142.8 360.35L155.848 362.035C155.848 362.035 164.56 304.022 175.528 280.384C187.202 255.216 220.782 208.694 220.782 208.694L196.824 201.898Z" fill="#C13B44"/>
<path d="M157.591 362.245L140.99 360.077L140.699 355.527L158.965 359.235L157.591 362.245Z" fill="#C13B44"/>
<path opacity="0.3" d="M157.591 362.245L140.99 360.077L140.699 355.527L158.965 359.235L157.591 362.245Z" fill="black"/>
<path opacity="0.2" d="M196.175 222.234C193.073 233.223 190.737 244.414 189.187 255.727C192.652 250.113 196.301 244.431 199.835 239.049C201.122 236.203 202.438 233.386 203.707 230.637C203.707 230.637 203.707 230.579 203.707 230.54L196.175 222.234Z" fill="black"/>
<path d="M205.449 204.336C205.449 204.336 194.471 260.838 190.503 293.305C187.289 319.538 197.405 383.164 197.405 383.164L208.285 383.832C208.285 383.832 205.991 327.011 211.044 301.601C223.841 237.316 235.805 228.691 229.436 211.151L205.449 204.336Z" fill="#C13B44"/>
<path d="M209.63 383.908L195.546 383.047L194.888 379.039L210.143 380.627L209.63 383.908Z" fill="#C13B44"/>
<path opacity="0.3" d="M209.63 383.908L195.546 383.047L194.888 379.039L210.143 380.627L209.63 383.908Z" fill="black"/>
<path d="M230.51 209.368L231.149 212.707C231.197 212.969 230.868 213.123 230.491 213.017L196.253 203.337C195.952 203.26 195.749 203.047 195.788 202.853L196.32 199.852C196.32 199.639 196.659 199.542 196.979 199.63L230.045 209C230.146 209.021 230.241 209.065 230.322 209.128C230.402 209.192 230.467 209.274 230.51 209.368Z" fill="#C13B44"/>
<path opacity="0.4" d="M230.51 209.368L231.149 212.707C231.197 212.969 230.868 213.123 230.491 213.017L196.253 203.337C195.952 203.26 195.749 203.047 195.788 202.853L196.32 199.852C196.32 199.639 196.659 199.542 196.979 199.63L230.045 209C230.146 209.021 230.241 209.065 230.322 209.128C230.402 209.192 230.467 209.274 230.51 209.368Z" fill="black"/>
<path d="M225.022 211.807L225.903 212.059C226.077 212.107 226.241 212.059 226.261 211.942L226.919 208.07C226.919 207.954 226.813 207.819 226.638 207.77L225.748 207.519C225.573 207.47 225.419 207.519 225.399 207.635L224.731 211.507C224.712 211.623 224.847 211.758 225.022 211.807Z" fill="#C13B44"/>
<path d="M198.644 204.337L199.534 204.588C199.708 204.637 199.873 204.588 199.892 204.472L200.55 200.6C200.55 200.494 200.444 200.358 200.26 200.31L199.379 200.058C199.205 200 199.04 200.058 199.021 200.174L198.363 204.046C198.343 204.153 198.44 204.249 198.644 204.337Z" fill="#C13B44"/>
<path d="M211.837 208.12L212.718 208.371C212.892 208.371 213.057 208.371 213.076 208.255L213.735 204.383C213.735 204.267 213.628 204.131 213.454 204.083L212.563 203.831C212.389 203.773 212.224 203.831 212.205 203.948L211.547 207.82C211.528 207.887 211.653 208.023 211.837 208.12Z" fill="#C13B44"/>
<path d="M230.481 130.582C230.355 131.24 229.91 131.715 229.513 131.637C229.116 131.56 228.826 130.95 228.952 130.292C229.077 129.634 229.523 129.15 229.92 129.237C230.316 129.324 230.597 129.914 230.481 130.582Z" fill="#263238"/>
<path d="M222.989 129.197C222.863 129.865 222.418 130.34 222.021 130.253C221.624 130.165 221.334 129.575 221.459 128.917C221.585 128.258 222.031 127.774 222.427 127.852C222.824 127.929 223.105 128.539 222.989 129.197Z" fill="#263238"/>
<path d="M222.64 127.931L221.14 127.176C221.14 127.176 221.672 128.57 222.64 127.931Z" fill="#263238"/>
<path d="M224.76 130.68C223.889 132.081 222.83 133.358 221.614 134.474C221.909 134.777 222.266 135.012 222.66 135.162C223.055 135.312 223.478 135.375 223.899 135.345L224.76 130.68Z" fill="#C13B44"/>
<path d="M226.919 138.529C226.526 138.526 226.133 138.487 225.747 138.412C225.698 138.403 225.653 138.374 225.625 138.333C225.596 138.291 225.584 138.24 225.593 138.19C225.602 138.137 225.632 138.091 225.675 138.06C225.719 138.029 225.772 138.017 225.825 138.025C226.646 138.194 227.495 138.167 228.304 137.947C229.113 137.726 229.859 137.319 230.481 136.757C230.52 136.725 230.568 136.709 230.618 136.711C230.668 136.713 230.715 136.733 230.751 136.768C230.787 136.803 230.809 136.849 230.813 136.899C230.816 136.949 230.802 136.998 230.771 137.038C229.726 138.011 228.347 138.545 226.919 138.529Z" fill="#263238"/>
<path d="M233.288 128.581C233.216 128.581 233.145 128.562 233.083 128.524C233.022 128.487 232.972 128.432 232.939 128.368C232.728 127.918 232.414 127.524 232.022 127.218C231.63 126.912 231.172 126.702 230.684 126.606C230.628 126.606 230.573 126.594 230.522 126.572C230.471 126.549 230.425 126.516 230.388 126.474C230.351 126.432 230.323 126.384 230.306 126.33C230.289 126.277 230.283 126.221 230.29 126.166C230.296 126.11 230.313 126.057 230.342 126.008C230.37 125.96 230.408 125.919 230.454 125.886C230.499 125.854 230.551 125.831 230.606 125.82C230.66 125.809 230.717 125.81 230.771 125.822C231.396 125.926 231.986 126.179 232.491 126.56C232.997 126.941 233.403 127.438 233.675 128.01C233.722 128.104 233.731 128.212 233.698 128.312C233.665 128.412 233.594 128.495 233.501 128.542C233.435 128.574 233.361 128.587 233.288 128.581Z" fill="#263238"/>
<path d="M220.288 125.134C220.237 125.134 220.187 125.123 220.141 125.103C220.094 125.084 220.052 125.054 220.017 125.018C219.979 124.982 219.949 124.938 219.928 124.89C219.907 124.842 219.896 124.79 219.896 124.737C219.896 124.685 219.907 124.633 219.928 124.584C219.949 124.536 219.979 124.493 220.017 124.456C220.445 123.997 220.977 123.645 221.567 123.432C222.158 123.218 222.791 123.148 223.415 123.227C223.516 123.25 223.604 123.311 223.662 123.398C223.72 123.484 223.742 123.589 223.724 123.692C223.715 123.743 223.696 123.792 223.667 123.836C223.639 123.879 223.601 123.917 223.558 123.946C223.515 123.974 223.466 123.994 223.415 124.004C223.363 124.014 223.311 124.013 223.26 124.001C222.77 123.942 222.273 123.998 221.808 124.167C221.344 124.335 220.926 124.61 220.588 124.969C220.554 125.018 220.509 125.057 220.457 125.086C220.405 125.114 220.347 125.131 220.288 125.134Z" fill="#263238"/>
<path d="M250.102 173.203C250.761 176.165 251.177 178.953 251.564 181.838C251.951 184.722 252.154 187.646 252.319 190.492C252.661 196.395 252.36 202.319 251.419 208.158C251.034 210.019 250.276 211.784 249.192 213.346C248.316 214.657 247.346 215.903 246.288 217.073C244.274 219.242 242.11 221.267 239.812 223.133C235.348 226.749 230.61 230.014 225.641 232.9L223.25 229.415C225.341 227.653 227.47 225.843 229.503 224.004C231.536 222.165 233.579 220.306 235.476 218.37C237.369 216.508 239.147 214.533 240.8 212.456C241.558 211.501 242.244 210.492 242.852 209.435C243.326 208.659 243.654 207.803 243.82 206.909C244.1 204.305 244.235 201.687 244.227 199.068C244.227 196.396 244.081 193.715 243.878 191.024C243.675 188.333 243.365 185.642 243.007 182.951C242.649 180.26 242.203 177.53 241.739 175.013L250.102 173.203Z" fill="#FF8B7B"/>
<path d="M249.086 164.04C252.067 165.976 252.813 178.337 252.813 178.337L237.547 183.816C237.547 183.816 235.611 173.1 238.157 169.296C240.839 165.26 245.669 161.843 249.086 164.04Z" fill="#263238"/>
<path d="M196.426 394.876C195.862 394.926 195.299 394.772 194.839 394.441C194.699 394.309 194.596 394.144 194.538 393.961C194.481 393.778 194.471 393.583 194.51 393.395C194.52 393.275 194.562 393.159 194.632 393.061C194.702 392.962 194.796 392.884 194.907 392.834C195.875 392.389 198.411 394.034 198.701 394.218C198.733 394.241 198.758 394.272 198.773 394.308C198.789 394.343 198.794 394.383 198.788 394.421C198.779 394.459 198.76 394.493 198.732 394.52C198.705 394.548 198.671 394.567 198.633 394.576C197.912 394.76 197.171 394.861 196.426 394.876ZM195.323 393.153C195.24 393.136 195.154 393.136 195.071 393.153C195.022 393.174 194.98 393.21 194.951 393.254C194.922 393.299 194.906 393.352 194.907 393.405C194.875 393.53 194.877 393.66 194.911 393.784C194.945 393.908 195.01 394.021 195.1 394.112C195.526 394.499 196.62 394.547 198.082 394.257C197.246 393.706 196.308 393.331 195.323 393.153Z" fill="#C13B44"/>
<path d="M198.595 394.588C198.563 394.597 198.53 394.597 198.498 394.588C197.695 394.133 196.175 392.332 196.368 391.393C196.396 391.237 196.478 391.095 196.601 390.994C196.723 390.893 196.878 390.839 197.036 390.841C197.186 390.821 197.338 390.834 197.482 390.879C197.626 390.924 197.758 391.001 197.869 391.103C198.779 391.906 198.837 394.316 198.837 394.413C198.837 394.448 198.828 394.483 198.811 394.513C198.794 394.544 198.77 394.569 198.74 394.588C198.717 394.597 198.692 394.602 198.667 394.602C198.642 394.602 198.618 394.597 198.595 394.588ZM197.172 391.2H197.075C196.823 391.2 196.775 391.335 196.756 391.432C196.639 392.003 197.588 393.368 198.382 393.997C198.402 393.06 198.132 392.141 197.607 391.364C197.488 391.256 197.333 391.198 197.172 391.2Z" fill="#C13B44"/>
<path d="M140.68 371.589C140.213 371.618 139.747 371.507 139.344 371.269C139.198 371.167 139.08 371.031 138.999 370.872C138.918 370.713 138.877 370.538 138.879 370.359C138.872 370.249 138.893 370.139 138.941 370.039C138.988 369.939 139.06 369.853 139.15 369.788C140.118 369.111 143.603 370.408 143.99 370.563C144.029 370.577 144.063 370.604 144.085 370.639C144.108 370.674 144.119 370.715 144.116 370.756C144.116 370.797 144.103 370.837 144.078 370.87C144.054 370.903 144.02 370.928 143.981 370.94C142.916 371.311 141.805 371.529 140.68 371.589ZM139.983 369.992C139.772 369.975 139.56 370.019 139.373 370.117C139.338 370.142 139.31 370.176 139.293 370.215C139.276 370.254 139.27 370.298 139.276 370.34C139.272 370.459 139.297 370.576 139.349 370.683C139.402 370.789 139.48 370.881 139.576 370.95C140.128 371.337 141.512 371.26 143.303 370.737C142.236 370.335 141.119 370.084 139.983 369.992Z" fill="#C13B44"/>
<path d="M143.932 370.95H143.874C142.829 370.621 140.66 369.062 140.709 368.104C140.709 367.872 140.835 367.581 141.377 367.456C141.57 367.414 141.77 367.411 141.965 367.447C142.159 367.484 142.344 367.559 142.509 367.669C143.652 368.414 144.106 370.621 144.126 370.718C144.132 370.751 144.13 370.785 144.12 370.817C144.11 370.849 144.092 370.878 144.068 370.902C144.03 370.935 143.982 370.952 143.932 370.95ZM141.706 367.804C141.625 367.795 141.544 367.795 141.464 367.804C141.106 367.881 141.106 368.027 141.096 368.075C141.096 368.656 142.567 369.905 143.652 370.398C143.46 369.463 142.983 368.611 142.287 367.959C142.108 367.867 141.906 367.827 141.706 367.843V367.804Z" fill="#C13B44"/>
<path opacity="0.6" d="M179.584 126.304C168.319 123.683 156.558 124.137 145.529 127.619C134.5 131.101 124.61 137.483 116.892 146.097C109.175 154.711 103.914 165.24 101.66 176.584C99.4061 187.927 100.242 199.668 104.08 210.578L85.2715 230.596L113.721 228.389C120.01 236.623 128.187 243.222 137.564 247.629C146.94 252.037 157.239 254.123 167.592 253.711C177.944 253.299 188.045 250.401 197.042 245.263C206.038 240.125 213.666 232.897 219.28 224.189C224.895 215.482 228.331 205.551 229.299 195.236C230.267 184.921 228.738 174.524 224.841 164.924C220.944 155.325 214.794 146.804 206.91 140.082C199.026 133.36 189.64 128.634 179.545 126.304H179.584Z" fill="#C13B44"/>
<path opacity="0.1" d="M179.584 126.304C168.319 123.683 156.558 124.137 145.529 127.619C134.5 131.101 124.61 137.483 116.892 146.097C109.175 154.711 103.914 165.24 101.66 176.584C99.4061 187.927 100.242 199.668 104.08 210.578L85.2715 230.596L113.721 228.389C120.01 236.623 128.187 243.222 137.564 247.629C146.94 252.037 157.239 254.123 167.592 253.711C177.944 253.299 188.045 250.401 197.042 245.263C206.038 240.125 213.666 232.897 219.28 224.189C224.895 215.482 228.331 205.551 229.299 195.236C230.267 184.921 228.738 174.524 224.841 164.924C220.944 155.325 214.794 146.804 206.91 140.082C199.026 133.36 189.64 128.634 179.545 126.304H179.584Z" fill="black"/>
<path d="M165.084 250.626C155.635 250.624 146.313 248.449 137.84 244.267C129.366 240.086 121.969 234.011 116.219 226.513L115.193 225.119L93.4903 226.804C93.4632 226.802 93.4369 226.794 93.4133 226.781C93.3898 226.768 93.3697 226.749 93.3547 226.726C93.3411 226.703 93.334 226.676 93.334 226.649C93.334 226.622 93.3411 226.595 93.3547 226.571L107.691 211.345L107.062 209.535C103.809 200.278 102.821 190.377 104.182 180.661C105.543 170.945 109.213 161.696 114.883 153.689C120.554 145.683 128.061 139.152 136.775 134.644C145.489 130.135 155.156 127.781 164.967 127.777C174.214 127.773 183.342 129.856 191.671 133.87C200.001 137.885 207.317 143.728 213.074 150.963C218.831 158.199 222.88 166.64 224.92 175.659C226.961 184.677 226.939 194.04 224.858 203.049C221.782 216.591 214.187 228.682 203.322 237.33C192.457 245.978 178.97 250.667 165.084 250.626ZM115.251 224.839C115.272 224.839 115.293 224.845 115.311 224.855C115.329 224.865 115.345 224.88 115.357 224.897L116.442 226.32C122.159 233.792 129.521 239.847 137.957 244.016C146.392 248.184 155.674 250.353 165.084 250.355C180.092 250.337 194.57 244.799 205.76 234.797C216.949 224.795 224.07 211.027 225.766 196.115C227.461 181.203 223.613 166.187 214.955 153.929C206.296 141.67 193.431 133.023 178.81 129.636C174.271 128.584 169.627 128.051 164.967 128.048C155.202 128.057 145.581 130.405 136.91 134.896C128.238 139.387 120.769 145.89 115.128 153.861C109.486 161.832 105.836 171.038 104.483 180.709C103.13 190.38 104.114 200.235 107.352 209.448L108.01 211.335C108.024 211.355 108.032 211.379 108.032 211.403C108.032 211.427 108.024 211.451 108.01 211.471L93.8291 226.513L115.241 224.848L115.251 224.839Z" fill="white"/>
<path d="M187.424 178.207C187.576 177.857 187.606 177.466 187.512 177.097C187.417 176.727 187.203 176.399 186.902 176.165C183.561 173.731 179.75 172.02 175.712 171.141C168.794 169.546 161.527 170.762 155.505 174.52C149.484 178.279 145.199 184.274 143.593 191.188C141.367 200.8 146.643 207.325 153.002 208.796C155.63 209.459 158.378 209.493 161.021 208.896C163.665 208.299 166.131 207.088 168.219 205.36C168.273 207.423 169.029 209.405 170.364 210.979C171.698 212.553 173.53 213.624 175.557 214.014C185.498 216.317 197.646 209.648 201.625 192.456C205.913 173.948 195.885 158.005 177.251 153.736C154.871 148.558 133.884 162.371 128.444 185.874C123.914 205.466 134.455 222.881 153.506 227.295C161.066 229.047 167.271 229.076 173.621 227.401C174.023 227.294 174.372 227.045 174.604 226.699C174.835 226.354 174.933 225.936 174.879 225.523L174.26 220.683C174.226 220.439 174.14 220.204 174.008 219.996C173.876 219.787 173.701 219.609 173.495 219.473C173.29 219.335 173.057 219.244 172.812 219.207C172.568 219.171 172.318 219.189 172.082 219.26C166.999 220.549 161.676 220.549 156.594 219.26C141.764 215.824 134.223 203.017 137.843 187.374C142.199 168.527 157.658 157.695 174.627 161.616C188.973 164.936 195.759 176.136 192.342 190.975C190.841 197.451 187.753 202.523 183.862 204.905C182.433 205.899 180.668 206.285 178.954 205.979C178.698 205.938 178.455 205.834 178.247 205.677C178.04 205.52 177.874 205.315 177.764 205.079C177.347 204.227 177.047 201.914 179.7 196.077L187.424 178.207ZM172.44 179.65C173.522 179.897 174.579 180.247 175.595 180.695L171.375 190.375C168.994 195.97 162.421 201.604 157.533 200.471C153.07 199.445 153.302 195.428 153.835 193.134C155.945 183.977 164.473 177.81 172.44 179.65Z" fill="white"/>
<path d="M225.06 228.682L217.723 224.52L219.281 232.873C219.281 232.873 224.373 234.558 226.89 232.157L225.06 228.682Z" fill="#FF8B7B"/>
<path d="M210.772 225.555L212.457 232.476L219.281 232.873L217.723 224.52L210.772 225.555Z" fill="#FF8B7B"/>
<path d="M230.104 129.306L228.594 128.551C228.594 128.551 229.184 129.945 230.104 129.306Z" fill="#263238"/>
<path d="M240.481 125.483C236.338 125.221 233.298 123.402 232.892 121.011C232.892 121.011 223.386 124.96 219.543 119.075C219.543 119.075 215.206 119.791 214.132 116.771C213.057 113.751 217.568 112.899 219.698 114.254C219.698 114.254 213.096 108.446 219.872 106.829C226.648 105.213 228.1 110.701 228.1 110.701C228.1 110.701 230.772 102.686 236.812 106.249C242.852 109.811 239.096 113.257 239.096 113.257C239.096 113.257 253.442 114.37 248.099 120.033C242.755 125.696 240.481 125.483 240.481 125.483Z" fill="#263238"/>
<path d="M235.292 153.302C236.105 153.379 235.747 156.206 235.379 156.399C234.537 156.854 224.392 154.773 224.731 153.205C225.081 152.451 225.567 151.769 226.164 151.191C226.609 150.862 228.158 152.711 235.292 153.302Z" fill="#263238"/>
<path d="M288.271 175.469C284.165 175.456 280.208 177.003 277.199 179.797C274.191 182.591 272.356 186.423 272.066 190.519C271.776 194.614 273.052 198.667 275.636 201.857C278.22 205.047 281.92 207.137 285.986 207.703C286.067 211.793 284.633 215.768 281.959 218.864C281.959 218.864 304.475 213.26 304.475 191.673C304.475 187.375 302.768 183.254 299.729 180.215C296.69 177.176 292.568 175.469 288.271 175.469Z" fill="#C13B44"/>
<path d="M324.736 175.469C320.63 175.456 316.673 177.003 313.664 179.797C310.656 182.591 308.821 186.423 308.531 190.519C308.241 194.614 309.517 198.667 312.101 201.857C314.685 205.047 318.385 207.137 322.451 207.703C322.546 211.787 321.129 215.761 318.473 218.864C318.473 218.864 340.988 213.26 340.988 191.673C340.99 189.541 340.57 187.429 339.753 185.459C338.936 183.49 337.738 181.701 336.228 180.195C334.718 178.689 332.925 177.497 330.953 176.686C328.981 175.875 326.868 175.461 324.736 175.469Z" fill="#C13B44"/>
</svg>
