<svg width="28" height="17" viewBox="0 0 28 17" fill="none" xmlns="http://www.w3.org/2000/svg">
<path d="M27.9356 8.51429C24.6999 4.78572 20.2284 0.5 14.2856 0.5C11.8856 0.5 9.68558 1.17857 7.36415 2.62857C5.407 3.85714 3.39986 5.58571 0.642718 8.42857L0.571289 8.5L1.04986 8.99286C4.98557 13.0214 8.38558 16.5 14.2856 16.5C16.8927 16.5 19.4213 15.65 22.0141 13.9C24.2213 12.4071 26.0999 10.5143 27.607 8.98571L27.9999 8.59286L27.9356 8.51429ZM14.2856 14.2143C11.1356 14.2143 8.57129 11.65 8.57129 8.5C8.57129 5.35 11.1356 2.78571 14.2856 2.78571C17.4356 2.78571 19.9999 5.35 19.9999 8.5C19.9999 11.65 17.4356 14.2143 14.2856 14.2143Z" fill="#C13B44"/>
<path d="M13.886 6.41512C13.886 5.92227 14.0288 5.45798 14.2788 5.07227C12.386 5.07227 10.8574 6.61512 10.8574 8.51512C10.8574 10.4151 12.3931 11.9508 14.2788 11.9508C16.1646 11.9508 17.7074 10.4151 17.7074 8.51512C17.3217 8.76512 16.8574 8.90798 16.3646 8.90798C15.0003 8.90084 13.886 7.78655 13.886 6.41512Z" fill="#C13B44"/>
</svg>
