<svg width="30" height="30" viewBox="0 0 53 53" fill="none" xmlns="http://www.w3.org/2000/svg">
<rect x="0.75" y="0.75" width="51.5" height="51.5" rx="7.75" stroke="white" stroke-width="0.5"/>
<path d="M30.9 19.5C32.9 19.5 34.5 21.1 34.5 23.1C34.5 25.1 30.6 29.5 26.5 32.9C22.4 29.4 18.5 25 18.5 23.1C18.5 21.1 20.1 19.5 22.1 19.5C24.5 19.5 26.5 22.5 26.5 22.5C26.5 22.5 28.4 19.5 30.9 19.5ZM30.9 17.5C29.1 17.5 27.5 18.4 26.5 19.8C25.5 18.4 23.9 17.5 22.1 17.5C19 17.5 16.5 20 16.5 23.1C16.5 27.5 26.5 35.5 26.5 35.5C26.5 35.5 36.5 27.5 36.5 23.1C36.5 20 34 17.5 30.9 17.5Z" fill="white"/>
</svg>
