<svg width="42" height="42" viewBox="0 0 42 42" fill="none" xmlns="http://www.w3.org/2000/svg">
<g clip-path="url(#clip0_648_66119)">
<path d="M21 0C9.40275 0 0 9.40144 0 21C0 32.5973 9.40275 42 21 42C32.5973 42 42 32.5973 42 21C42 9.40144 32.5973 0 21 0ZM15.5452 29.2386H11.2612V16.3498H15.5452V29.2386ZM13.4032 14.5898H13.3757C11.9372 14.5898 11.0079 13.5988 11.0079 12.3624C11.0079 11.0985 11.9661 10.1364 13.4308 10.1364C14.8956 10.1364 15.7986 11.0985 15.8261 12.3624C15.8261 13.6001 14.8956 14.5898 13.4032 14.5898ZM30.9921 29.2386H26.7081V22.3427C26.7081 20.6102 26.0886 19.4289 24.5372 19.4289C23.3546 19.4289 22.6498 20.2256 22.3401 20.9961C22.2272 21.2717 22.1983 21.6562 22.1983 22.0408V29.2386H17.9156C17.9156 29.2386 17.9721 17.5599 17.9156 16.3498H22.1996V18.1755C22.7679 17.2974 23.7864 16.0466 26.061 16.0466C28.8789 16.0466 30.9921 17.8894 30.9921 21.8479V29.2386Z" fill="white"/>
</g>
<defs>
<clipPath id="clip0_648_66119">
<rect width="42" height="42" fill="white"/>
</clipPath>
</defs>
</svg>
