<svg width="10" height="18" viewBox="0 0 10 18" fill="none" xmlns="http://www.w3.org/2000/svg">
<path d="M6.55502 12.5842C7.51394 12.7281 8.32706 13.001 8.91165 13.3626C9.5247 13.7418 9.90463 14.2315 9.90454 14.7852L6.55502 12.5842ZM6.55502 12.5842L9.15903 8.39706M6.55502 12.5842L9.15903 8.39706M9.15903 8.39706C9.15907 8.39698 9.15912 8.39691 9.15916 8.39684C9.1695 8.38036 9.17852 8.36298 9.186 8.34481C9.65632 7.57481 9.90472 6.69571 9.90472 5.79812C9.90472 3.09721 7.70751 0.9 5.0066 0.9C2.3057 0.9 0.108306 3.0972 0.108306 5.79812C0.108306 6.69624 0.357263 7.57602 0.828263 8.34674L9.15903 8.39706ZM1.48455 8.00591L1.48454 8.00589C1.06641 7.34039 0.845609 6.57703 0.845609 5.79812C0.845609 3.5039 2.7122 1.6373 5.0066 1.6373C7.30082 1.6373 9.16742 3.5039 9.16742 5.79812C9.16742 6.5774 8.94661 7.34075 8.52867 8.00589L8.52854 8.00609C8.51797 8.023 8.50904 8.04043 8.50159 8.05831L5.66982 12.6111C5.63408 12.666 5.62144 12.6868 5.58885 12.7405C5.58215 12.7515 5.57461 12.7639 5.56586 12.7783C5.56577 12.7784 5.56568 12.7786 5.56559 12.7787L4.93631 13.7906L1.51393 8.06322C1.50589 8.04346 1.49605 8.02422 1.48455 8.00591ZM4.6136 14.6879L4.61366 14.688C4.67966 14.7981 4.7981 14.8663 4.92685 14.8673H4.92762H4.92763H4.92764H4.92765H4.92765H4.92766H4.92767H4.92768H4.92769H4.9277H4.92771H4.92771H4.92772H4.92773H4.92774H4.92775H4.92776H4.92777H4.92777H4.92778H4.92779H4.9278H4.92781H4.92782H4.92783H4.92783H4.92784H4.92785H4.92786H4.92787H4.92788H4.92789H4.9279H4.92791H4.92791H4.92792H4.92793H4.92794H4.92795H4.92796H4.92797H4.92798H4.92799H4.92799H4.928H4.92801H4.92802H4.92803H4.92804H4.92805H4.92806H4.92807H4.92808H4.92809H4.92809H4.9281H4.92811H4.92812H4.92813H4.92814H4.92815H4.92816H4.92817H4.92818H4.92819H4.92819H4.9282H4.92821H4.92822H4.92823H4.92824H4.92825H4.92826H4.92827H4.92828H4.92829H4.9283H4.92831H4.92832H4.92832H4.92833H4.92834H4.92835H4.92836H4.92837H4.92838H4.92839H4.9284H4.92841H4.92842H4.92843H4.92844H4.92845H4.92845H4.92846H4.92847H4.92848H4.92849H4.9285H4.92851H4.92852H4.92853H4.92854H4.92855H4.92856H4.92857H4.92858H4.92859H4.9286H4.92861H4.92861H4.92862H4.92863H4.92864H4.92865H4.92866H4.92867H4.92868H4.92869H4.9287H4.92871H4.92872H4.92873H4.92874H4.92875H4.92876H4.92877H4.92878H4.92878H4.92879H4.9288H4.92881H4.92882H4.92883H4.92884H4.92885H4.92886H4.92887H4.92888H4.92889H4.9289H4.92891H4.92892H4.92893H4.92894H4.92895H4.92895H4.92896H4.92897H4.92898H4.92899H4.929H4.92901H4.92902H4.92903H4.92904H4.92905H4.92906H4.92907H4.92908H4.92909H4.9291H4.9291H4.92911H4.92912H4.92913H4.92914H4.92915H4.92916H4.92917H4.92918H4.92919H4.9292H4.92921H4.92922H4.92923H4.92924H4.92924H4.92925H4.92926H4.92927H4.92928H4.92929H4.9293H4.92931H4.92932H4.92933H4.92934H4.92935H4.92936H4.92937H4.92937H4.92938H4.92939H4.9294H4.92941H4.92942H4.92943H4.92944H4.92945H4.92946H4.92947H4.92947H4.92948H4.92949H4.9295H4.92951H4.92952H4.92953H4.92954H4.92955H4.92956H4.92957H4.92957H4.92958H4.92959H4.9296H4.92961H4.92962H4.92963H4.92964H4.92965H4.92965H4.92966H4.92967H4.92968H4.92969H4.9297H4.92971H4.92972H4.92973H4.92973H4.92974H4.92975H4.92976H4.92977H4.92978H4.92979H4.9298H4.9298H4.92981H4.92982H4.92983H4.92984H4.92985H4.92986H4.92986H4.92987H4.92988H4.92989H4.9299H4.92991H4.92991H4.92992H4.92993H4.92994H4.92995C5.05732 14.8673 5.17571 14.8015 5.24301 14.6934L5.24304 14.6933L6.12671 13.2726C6.99412 13.3727 7.75632 13.5892 8.30248 13.8652C8.58225 14.0066 8.80115 14.1615 8.94882 14.3206C9.0965 14.4798 9.16724 14.6366 9.16724 14.7852V14.7853C9.16728 14.9456 9.07829 15.1252 8.88512 15.3097C8.69294 15.4933 8.40676 15.6724 8.03752 15.8295C7.29965 16.1434 6.24646 16.3627 4.99962 16.3627C3.75278 16.3627 2.69959 16.1434 1.9617 15.8294C1.59245 15.6723 1.30625 15.4932 1.11404 15.3097C0.920832 15.1252 0.831818 14.9455 0.831818 14.7852C0.831818 14.6374 0.899377 14.4828 1.0401 14.3266C1.18097 14.1703 1.39039 14.0181 1.65973 13.8786C2.18498 13.6065 2.92252 13.3909 3.77475 13.2839L4.6136 14.6879ZM0.850933 8.39115C0.850942 8.39116 0.850952 8.39118 0.850961 8.39119L3.36319 12.5955C2.41513 12.7445 1.62087 13.0161 1.05293 13.3749C0.457078 13.7513 0.0943359 14.2353 0.0943359 14.7852C0.0943359 15.4679 0.671349 16.0467 1.54463 16.4492C2.42532 16.8551 3.64162 17.1 4.99944 17.1C6.35726 17.1 7.57357 16.8551 8.45425 16.4491C9.32752 16.0466 9.90453 15.4678 9.90454 14.7853L0.850933 8.39115Z" fill="#C13B44" stroke="#C13B44" stroke-width="0.2"/>
<path d="M6.84413 5.79931C6.84413 4.78213 6.01669 3.95469 4.99951 3.95469C3.98233 3.95469 3.15488 4.78213 3.15488 5.79931C3.15488 6.81649 3.98233 7.64394 4.99951 7.64394C6.01669 7.64394 6.84413 6.81649 6.84413 5.79931ZM3.89219 5.79931C3.89219 5.18882 4.38902 4.69199 4.99951 4.69199C5.61 4.69199 6.10683 5.18882 6.10683 5.79931C6.10683 6.40981 5.61017 6.90663 4.99951 6.90663C4.38885 6.90663 3.89219 6.40981 3.89219 5.79931Z" fill="#C13B44" stroke="#C13B44" stroke-width="0.2"/>
</svg>
