<svg width="20" height="26" viewBox="0 0 24 28" fill="none" xmlns="http://www.w3.org/2000/svg">
<path d="M14.4316 20.4079L19.1308 12.8518C19.1462 12.8273 19.1591 12.8016 19.1691 12.775C19.9805 11.4517 20.409 9.94002 20.409 8.39671C20.409 3.76677 16.6422 0 12.0123 0C7.38235 0 3.61527 3.76677 3.61527 8.39671C3.61527 9.94034 4.04435 11.4526 4.85644 12.7769C4.86584 12.8 4.87681 12.8226 4.88998 12.8446L9.42056 20.4267C5.9036 20.9238 3.59082 22.3699 3.59082 24.1242C3.59082 26.2978 7.28456 28 11.9998 28C16.7149 28 20.4087 26.2975 20.4087 24.1242C20.409 22.3618 17.9884 20.8833 14.4316 20.4079ZM5.7005 12.3534C4.95141 11.1611 4.55555 9.79303 4.55555 8.39671C4.55555 4.28517 7.90044 0.940281 12.0123 0.940281C16.1238 0.940281 19.4687 4.28517 19.4687 8.39671C19.4687 9.79365 19.0729 11.1618 18.3241 12.3534C18.3084 12.3785 18.2956 12.4045 18.2852 12.4315L13.3205 20.4135C13.2588 20.5082 13.2381 20.5423 13.181 20.6362C13.1692 20.6558 13.1557 20.6779 13.14 20.7037L11.8863 22.7197L5.7425 12.438C5.73153 12.4089 5.71742 12.3804 5.7005 12.3534ZM12.0001 27.0597C7.59861 27.0597 4.53141 25.5123 4.53141 24.1242C4.53141 22.8642 6.84137 21.6769 9.94837 21.3093L11.4748 23.864C11.5591 24.0047 11.7101 24.0916 11.8741 24.0928H11.8781C12.0405 24.0928 12.1916 24.0088 12.2774 23.8709L13.8822 21.2908C17.0387 21.6327 19.4684 22.8501 19.4684 24.1242C19.4687 25.5126 16.4015 27.0597 12.0001 27.0597Z" fill="#C13B44"/>
<path d="M14.4316 20.4079L19.1308 12.8518C19.1462 12.8273 19.1591 12.8016 19.1691 12.775C19.9805 11.4517 20.409 9.94002 20.409 8.39671C20.409 3.76677 16.6422 0 12.0123 0C7.38235 0 3.61527 3.76677 3.61527 8.39671C3.61527 9.94034 4.04435 11.4526 4.85644 12.7769C4.86584 12.8 4.87681 12.8226 4.88998 12.8446L9.42056 20.4267C5.9036 20.9238 3.59082 22.3699 3.59082 24.1242C3.59082 26.2978 7.28456 28 11.9998 28C16.7149 28 20.4087 26.2975 20.4087 24.1242C20.409 22.3618 17.9884 20.8833 14.4316 20.4079ZM5.7005 12.3534C4.95141 11.1611 4.55555 9.79303 4.55555 8.39671C4.55555 4.28517 7.90044 0.940281 12.0123 0.940281C16.1238 0.940281 19.4687 4.28517 19.4687 8.39671C19.4687 9.79365 19.0729 11.1618 18.3241 12.3534C18.3084 12.3785 18.2956 12.4045 18.2852 12.4315L13.3205 20.4135C13.2588 20.5082 13.2381 20.5423 13.181 20.6362C13.1692 20.6558 13.1557 20.6779 13.14 20.7037L11.8863 22.7197L5.7425 12.438C5.73153 12.4089 5.71742 12.3804 5.7005 12.3534ZM12.0001 27.0597C7.59861 27.0597 4.53141 25.5123 4.53141 24.1242C4.53141 22.8642 6.84137 21.6769 9.94837 21.3093L11.4748 23.864C11.5591 24.0047 11.7101 24.0916 11.8741 24.0928H11.8781C12.0405 24.0928 12.1916 24.0088 12.2774 23.8709L13.8822 21.2908C17.0387 21.6327 19.4684 22.8501 19.4684 24.1242C19.4687 25.5126 16.4015 27.0597 12.0001 27.0597Z" stroke="#C13B44"/>
<path d="M15.0535 8.39684C15.0535 6.71343 13.6838 5.34375 12.0004 5.34375C10.3169 5.34375 8.94727 6.71343 8.94727 8.39684C8.94727 10.0803 10.3169 11.4499 12.0004 11.4499C13.6838 11.4499 15.0535 10.0803 15.0535 8.39684ZM9.88755 8.39684C9.88755 7.23183 10.8354 6.28403 12.0004 6.28403C13.1654 6.28403 14.1132 7.23183 14.1132 8.39684C14.1132 9.56185 13.1657 10.5097 12.0004 10.5097C10.835 10.5097 9.88755 9.56185 9.88755 8.39684Z" fill="#C13B44"/>
<path d="M15.0535 8.39684C15.0535 6.71343 13.6838 5.34375 12.0004 5.34375C10.3169 5.34375 8.94727 6.71343 8.94727 8.39684C8.94727 10.0803 10.3169 11.4499 12.0004 11.4499C13.6838 11.4499 15.0535 10.0803 15.0535 8.39684ZM9.88755 8.39684C9.88755 7.23183 10.8354 6.28403 12.0004 6.28403C13.1654 6.28403 14.1132 7.23183 14.1132 8.39684C14.1132 9.56185 13.1657 10.5097 12.0004 10.5097C10.835 10.5097 9.88755 9.56185 9.88755 8.39684Z" stroke="#C13B44"/>
</svg>
