<svg width="75" height="70" viewBox="0 0 75 70" fill="none" xmlns="http://www.w3.org/2000/svg">
<g filter="url(#filter0_d_911_1387)">
<rect x="4.86719" y="2" width="65.9901" height="62" rx="8" fill="white"/>
<g clip-path="url(#clip0_911_1387)">
<path d="M28.7578 7.8125H60.9531L61.6641 7.96484L62.1719 8.26953L62.6797 8.72656L62.9844 9.23438L63.1367 9.74219L63.1875 10.1484V18.1211L63.1367 18.8828L62.9336 19.4414L62.5781 20L62.1211 20.4062L61.5625 20.6602L61.207 20.7617L60.6992 20.8125H34.1914L34.0898 21.0156L32.6172 22.4883L34.3438 22.793L35.7656 23.1484L37.1367 23.6055L38.4062 24.1641L39.4219 24.6719L40.3359 25.2305L41.1992 25.8398L41.8594 26.3477L42.5703 26.957L43.0781 27.4141L43.8906 28.2266L44.2461 28.6328L44.9062 29.4453L45.5664 30.3594L46.1758 31.375L46.6836 32.2891L47.2422 33.5078L47.75 34.9297L48.1562 36.4531L48.3594 37.5703L48.5117 38.8398L48.5625 39.6523V40.8711L48.4609 42.293L48.207 43.918L47.9023 45.1875L47.3945 46.7109L46.9375 47.7773L46.5312 48.5898L45.8711 49.7578L45.4648 50.3672L44.957 51.0781L44.3984 51.7891L43.8906 52.3477L43.5352 52.7539L42.9766 53.3125L42.5703 53.668L41.8594 54.2773L41.0469 54.8867L39.8789 55.6484L38.7617 56.2578L37.5938 56.8164L36.0703 57.375L34.75 57.7305L33.3281 57.9844L32.0586 58.1367L31.1445 58.1875H30.2305L28.707 58.0859L27.3359 57.8828L26.0156 57.5781L24.543 57.1211L23.3242 56.6133L22.5117 56.207L21.5469 55.6992L20.6836 55.1406L19.7695 54.4805L19.1094 53.9219L18.5508 53.4648L17.4844 52.3984L17.0273 51.8398L16.4688 51.1797L15.8594 50.3164L15.25 49.3516L14.6406 48.2344L14.1328 47.1172L13.625 45.7461L13.3203 44.6797L13.0156 43.207L12.8633 41.9883L12.8125 41.4297V39.0938L12.9648 37.8242L13.168 36.6562L13.4727 35.3867L13.9297 34.0156L14.3359 33L14.7422 32.1875L15.3008 31.1719L15.9609 30.1562L16.3672 29.5977L16.9258 28.8867L17.5352 28.1758L18.8047 26.9062L19.3633 26.4492L20.2773 25.7383L21.0391 25.2305L21.8008 24.7734L22.5117 24.3672L23.832 23.7578L25.2539 23.25L26.5234 22.8945L26.5742 22.8438L26.625 9.94531L26.7266 9.48828L27.0312 8.87891L27.4883 8.37109L28.0469 8.01562L28.5039 7.86328L28.7578 7.8125ZM33.3789 24.2656L33.4805 24.4688L34.4453 25.4336L34.8008 25.8398L35.4609 26.6016L36.1211 27.4648L36.7812 28.3789L37.4414 29.4453L38.0508 30.5625L38.6094 31.6797L38.8633 31.6289L39.7773 31.2227L40.7422 30.6641L41.4531 30.1562L42.1133 29.5977L42.4688 29.293L42.418 29.0898L41.6055 28.2773L41.0469 27.8203L40.4375 27.3125L39.4727 26.6523L38.7109 26.1953L37.543 25.5859L36.6289 25.1797L35.1055 24.6719L33.4297 24.2656H33.3789ZM26.5234 24.5703L24.6953 25.1797L23.5273 25.6875L22.4102 26.2969L21.6992 26.7539L20.8359 27.3633L20.125 27.9727L19.6172 28.4297L19.2617 28.7344L19.0586 28.9375V29.0391L18.9062 29.0898V29.293L19.3125 29.6484L19.8203 30.1055L20.5312 30.6133L21.4961 31.1719L22.5117 31.6289L22.7148 31.7305L23.0195 31.1719L23.4766 30.3086L23.7812 29.75L24.2383 28.9375L24.7969 28.125L25.3047 27.4141L25.7109 26.9062L26.625 25.7891V24.5703H26.5234ZM31.5 24.9258V33L33.125 32.8984L34.9023 32.6953L36.4766 32.3906L37.0352 32.2383L36.9336 31.9336L36.375 30.8164L35.8672 29.9531L35.1562 28.8867L34.4453 27.9219L33.8359 27.2109L32.9219 26.1953L32.2109 25.4844L31.8047 25.1289L31.6016 24.9258H31.5ZM29.7227 25.2812L29.3672 25.6875L26.7266 28.3281L26.4727 28.4805L25.8633 29.3438L25.1016 30.6133L24.7461 31.2227L24.3398 32.0352V32.2383L25.3047 32.4922L26.8281 32.7461L28.8594 32.9492H29.875V25.2812H29.7227ZM17.7383 30.4609L16.9258 31.6797L16.418 32.543L16.0117 33.3047L15.4023 34.7773L14.9961 36.0469L14.7422 37.1133L14.5391 38.3828L14.4375 39.5H20.8867L20.9375 39.4492L21.1406 37.5703L21.3438 36.25L21.75 34.5234L22.1055 33.4062V33.2031L20.8359 32.6445L19.9219 32.1367L19.1094 31.5781L18.6016 31.1719L18.0938 30.7148L17.8398 30.4609H17.7383ZM43.5352 30.4609L43.2812 30.7148L42.7734 31.1719L41.9102 31.832L41.1484 32.2891L39.9805 32.8984L39.2695 33.2031L39.2188 33.3047L39.5234 34.2188L39.9297 35.8438L40.1328 36.9102L40.2852 38.1289L40.3867 39.5H46.8867L46.8359 38.5859L46.582 36.9609L46.2266 35.5898L45.7695 34.2695L45.3125 33.2539L44.7031 32.0859L44.043 31.0703L43.6367 30.5117L43.5352 30.4609ZM23.6289 33.7617L23.1211 35.5391L22.918 36.4023L22.7148 37.6211L22.5625 39.1953V39.5H29.8242L29.875 39.4492V34.625L29.8242 34.5742L28.0977 34.4727L26.2695 34.2695L24.6953 33.9648L23.832 33.7617H23.6289ZM37.543 33.7617L35.9688 34.1172L34.2422 34.3711L32.4141 34.5234L31.5508 34.5742L31.5 34.625V39.5H38.7109L38.7617 39.4492V38.8398L38.5586 37.1641L38.3047 35.8438L37.8984 34.3203L37.7461 33.8125L37.543 33.7617ZM20.7852 41.0742L14.4883 41.125V41.6836L14.6914 43.207L14.9961 44.5781L15.5547 46.2539L16.1133 47.5234L16.6719 48.5391L17.2305 49.4023L17.7383 50.1133L17.9414 50.0625L18.5 49.5039L19.2109 48.9453L19.9219 48.4883L20.7344 48.0312L21.4453 47.6758L22.1055 47.4219L22.0547 47.0664L21.6992 45.8984L21.3438 44.375L21.1406 43.1055L20.9883 41.4297L20.8867 41.0742H20.7852ZM22.5625 41.125L22.6641 42.5469L22.918 44.1719L23.375 46L23.6289 46.8125L23.7812 46.8633L25.2539 46.5078L26.8789 46.2539L28.6055 46.1016L29.5703 46.0508L29.875 46V41.125H22.5625ZM38.6602 41.0742L31.5 41.125V46L31.8555 46.0508L33.9883 46.2031L35.7656 46.457L37.2383 46.7617L37.6953 46.8633L38.1016 45.543L38.4062 44.3242L38.6602 42.75L38.7617 41.7852V41.0742H38.6602ZM40.3867 41.125L40.2344 42.8516L40.0312 44.2734L39.7266 45.6445L39.3711 46.8633L39.2695 47.168L39.3203 47.4219L40.5391 47.9805L41.3008 48.3867L42.0625 48.8945L42.7227 49.4023L43.2305 49.8594L43.5859 50.1641L44.1445 49.4023L44.7539 48.4375L45.4648 47.0664L46.0234 45.6445L46.3789 44.4766L46.6328 43.3594L46.8359 41.9883L46.8867 41.125H40.3867ZM31.5 47.625V55.6484L31.7031 55.5977L32.5664 54.7344L32.8711 54.4805L33.2266 54.0742L33.6328 53.668L34.5469 52.5508L35.2578 51.5859L35.918 50.5703L36.375 49.8086L36.7812 48.9961L37.0352 48.4375L36.9844 48.3359L35.6133 48.0312L34.293 47.8281L32.668 47.6758L31.5 47.625ZM29.6211 47.625L27.4375 47.7773L25.7109 48.0312L24.3906 48.3359L24.3398 48.4883L24.7969 49.4531L25.5078 50.6719L26.2188 51.7383L26.8281 52.5508L27.4883 53.3633L28.0469 53.9727L28.4023 54.3789L28.9102 54.8867L29.3164 55.2422L29.7227 55.6484L29.875 55.6992V47.625H29.6211ZM38.6602 48.8945L38.5078 49.1484L37.7969 50.5703L37.2891 51.4336L36.4766 52.6523L35.9688 53.3633L35.2578 54.2266L34.8008 54.7344L34.4453 55.1406L33.3281 56.2578L33.5312 56.3086L35.0547 55.9531L36.5781 55.4453L37.8477 54.8867L38.8125 54.3789L39.8281 53.7188L40.7422 53.0586L41.5039 52.3984L42.1133 51.8398L42.4688 51.4844L42.418 51.2812L41.9102 50.8242L41.3008 50.3164L40.5391 49.8086L39.7266 49.3516L38.6602 48.8945ZM22.6641 48.8945L21.3438 49.5039L20.4805 50.0117L19.8711 50.4688L19.2617 50.9766V51.0781L19.0586 51.1797L18.9062 51.332L18.957 51.5352L19.7695 52.3477L20.8867 53.2617L21.9023 53.9727L23.1211 54.6836L24.2891 55.2422L25.457 55.6992L26.8789 56.1055L27.793 56.3086L27.9961 56.2578L27.0312 55.293L26.6758 54.8867L26.1172 54.2773L25.5586 53.5664L25.1016 52.957L24.4414 51.9922L23.9336 51.1797L23.4258 50.2656L22.7656 48.9453L22.6641 48.8945Z" fill="#C13B44"/>
<path d="M32.6172 22.5391L33.2773 22.5898L34.8008 22.8945L36.1211 23.25L37.3906 23.707L38.6094 24.2656L39.6758 24.8242L40.4883 25.332L41.1992 25.8398L41.8594 26.3477L42.5703 26.957L43.0781 27.4141L43.8906 28.2266L44.2461 28.6328L44.9062 29.4453L45.5664 30.3594L46.1758 31.375L46.6836 32.2891L47.2422 33.5078L47.75 34.9297L48.1562 36.4531L48.3594 37.5703L48.5117 38.8398L48.5625 39.6523V40.8711L48.4609 42.293L48.207 43.918L47.9023 45.1875L47.3945 46.7109L46.9375 47.7773L46.5312 48.5898L45.8711 49.7578L45.4648 50.3672L44.957 51.0781L44.3984 51.7891L43.8906 52.3477L43.5352 52.7539L42.9766 53.3125L42.5703 53.668L41.8594 54.2773L41.0469 54.8867L39.8789 55.6484L38.7617 56.2578L37.5938 56.8164L36.0703 57.375L34.75 57.7305L33.3281 57.9844L32.0586 58.1367L31.1445 58.1875H30.2305L28.707 58.0859L27.3359 57.8828L26.0156 57.5781L24.543 57.1211L23.3242 56.6133L22.5117 56.207L21.5469 55.6992L20.6836 55.1406L19.7695 54.4805L19.1094 53.9219L18.5508 53.4648L17.4844 52.3984L17.0273 51.8398L16.4688 51.1797L15.8594 50.3164L15.25 49.3516L14.6406 48.2344L14.1328 47.1172L13.625 45.7461L13.3203 44.6797L13.0156 43.207L12.8633 41.9883L12.8125 41.4297V39.0938L12.9648 37.8242L13.168 36.6562L13.4727 35.3867L13.9297 34.0156L14.3359 33L14.7422 32.1875L15.3008 31.1719L15.9609 30.1562L16.3672 29.5977L16.9258 28.8867L17.5352 28.1758L18.8047 26.9062L19.3633 26.4492L20.2773 25.7383L21.0391 25.2305L21.8008 24.7734L22.5117 24.3672L23.832 23.7578L25.2539 23.25L26.5234 22.8945H26.625V24.5703L24.6953 25.2305L23.5273 25.7383L22.4102 26.3477L21.6992 26.8047L20.8359 27.4141L20.125 28.0234L19.6172 28.4805L19.3125 28.7344L19.1602 28.9375H19.0586V29.0391L18.957 29.0898L18.9062 29.293L19.1094 29.3945L19.5664 29.8516L20.2266 30.3594L21.293 31.0195L22.3594 31.5273L22.7148 31.6797L23.1211 30.8672L23.6797 29.8008L24.2891 28.7852L25.1016 27.6172L25.6094 26.957L26.168 26.2969L26.5234 25.8398H26.625V28.4297L26.4219 28.6328L25.9141 29.3438L25.1523 30.6133L24.7969 31.2227L24.3906 32.0352L24.3398 32.2383L24.8984 32.3398L26.168 32.5938L27.6914 32.7969L28.8594 32.8984L29.875 32.9492V25.2305L30.2305 24.8242L32.2617 22.793H32.3633V22.6914L32.6172 22.5391ZM33.3789 24.2656L33.4805 24.4688L34.4453 25.4336L34.8008 25.8398L35.4609 26.6016L36.1211 27.4648L36.7812 28.3789L37.4414 29.4453L38.0508 30.5625L38.6094 31.6797L38.8633 31.6289L39.7773 31.2227L40.7422 30.6641L41.4531 30.1562L42.1133 29.5977L42.4688 29.293L42.418 29.0898L41.6055 28.2773L41.0469 27.8203L40.4375 27.3125L39.4727 26.6523L38.7109 26.1953L37.543 25.5859L36.6289 25.1797L35.1055 24.6719L33.4297 24.2656H33.3789ZM31.5 24.9258V33L33.125 32.8984L34.9023 32.6953L36.4766 32.3906L37.0352 32.2383L36.9336 31.9336L36.375 30.8164L35.8672 29.9531L35.1562 28.8867L34.4453 27.9219L33.8359 27.2109L32.9219 26.1953L32.2109 25.4844L31.8047 25.1289L31.6016 24.9258H31.5ZM17.7383 30.4609L16.9258 31.6797L16.418 32.543L16.0117 33.3047L15.4023 34.7773L14.9961 36.0469L14.7422 37.1133L14.5391 38.3828L14.4375 39.5H20.8867L20.9375 39.4492L21.1406 37.5703L21.3438 36.25L21.75 34.5234L22.1055 33.4062V33.2031L20.8359 32.6445L19.9219 32.1367L19.1094 31.5781L18.6016 31.1719L18.0938 30.7148L17.8398 30.4609H17.7383ZM43.5352 30.4609L43.2812 30.7148L42.7734 31.1719L41.9102 31.832L41.1484 32.2891L39.9805 32.8984L39.2695 33.2031L39.2188 33.3047L39.5234 34.2188L39.9297 35.8438L40.1328 36.9102L40.2852 38.1289L40.3867 39.5H46.8867L46.8359 38.5859L46.582 36.9609L46.2266 35.5898L45.7695 34.2695L45.3125 33.2539L44.7031 32.0859L44.043 31.0703L43.6367 30.5117L43.5352 30.4609ZM23.6289 33.7617L23.1211 35.5391L22.918 36.4023L22.7148 37.6211L22.5625 39.1953V39.5H29.8242L29.875 39.4492V34.625L29.8242 34.5742L28.0977 34.4727L26.2695 34.2695L24.6953 33.9648L23.832 33.7617H23.6289ZM37.543 33.7617L35.9688 34.1172L34.2422 34.3711L32.4141 34.5234L31.5508 34.5742L31.5 34.625V39.5H38.7109L38.7617 39.4492V38.8398L38.5586 37.1641L38.3047 35.8438L37.8984 34.3203L37.7461 33.8125L37.543 33.7617ZM20.7852 41.0742L14.4883 41.125V41.6836L14.6914 43.207L14.9961 44.5781L15.5547 46.2539L16.1133 47.5234L16.6719 48.5391L17.2305 49.4023L17.7383 50.1133L17.9414 50.0625L18.5 49.5039L19.2109 48.9453L19.9219 48.4883L20.7344 48.0312L21.4453 47.6758L22.1055 47.4219L22.0547 47.0664L21.6992 45.8984L21.3438 44.375L21.1406 43.1055L20.9883 41.4297L20.8867 41.0742H20.7852ZM22.5625 41.125L22.6641 42.5469L22.918 44.1719L23.375 46L23.6289 46.8125L23.7812 46.8633L25.2539 46.5078L26.8789 46.2539L28.6055 46.1016L29.5703 46.0508L29.875 46V41.125H22.5625ZM38.6602 41.0742L31.5 41.125V46L31.8555 46.0508L33.9883 46.2031L35.7656 46.457L37.2383 46.7617L37.6953 46.8633L38.1016 45.543L38.4062 44.3242L38.6602 42.75L38.7617 41.7852V41.0742H38.6602ZM40.3867 41.125L40.2344 42.8516L40.0312 44.2734L39.7266 45.6445L39.3711 46.8633L39.2695 47.168L39.3203 47.4219L40.5391 47.9805L41.3008 48.3867L42.0625 48.8945L42.7227 49.4023L43.2305 49.8594L43.5859 50.1641L44.1445 49.4023L44.7539 48.4375L45.4648 47.0664L46.0234 45.6445L46.3789 44.4766L46.6328 43.3594L46.8359 41.9883L46.8867 41.125H40.3867ZM31.5 47.625V55.6484L31.7031 55.5977L32.5664 54.7344L32.8711 54.4805L33.2266 54.0742L33.6328 53.668L34.5469 52.5508L35.2578 51.5859L35.918 50.5703L36.375 49.8086L36.7812 48.9961L37.0352 48.4375L36.9844 48.3359L35.6133 48.0312L34.293 47.8281L32.668 47.6758L31.5 47.625ZM29.6211 47.625L27.4375 47.7773L25.7109 48.0312L24.3906 48.3359L24.3398 48.4883L24.7969 49.4531L25.5078 50.6719L26.2188 51.7383L26.8281 52.5508L27.4883 53.3633L28.0469 53.9727L28.4023 54.3789L28.9102 54.8867L29.3164 55.2422L29.7227 55.6484L29.875 55.6992V47.625H29.6211ZM38.6602 48.8945L38.5078 49.1484L37.7969 50.5703L37.2891 51.4336L36.4766 52.6523L35.9688 53.3633L35.2578 54.2266L34.8008 54.7344L34.4453 55.1406L33.3281 56.2578L33.5312 56.3086L35.0547 55.9531L36.5781 55.4453L37.8477 54.8867L38.8125 54.3789L39.8281 53.7188L40.7422 53.0586L41.5039 52.3984L42.1133 51.8398L42.4688 51.4844L42.418 51.2812L41.9102 50.8242L41.3008 50.3164L40.5391 49.8086L39.7266 49.3516L38.6602 48.8945ZM22.6641 48.8945L21.3438 49.5039L20.4805 50.0117L19.8711 50.4688L19.2617 50.9766V51.0781L19.0586 51.1797L18.9062 51.332L18.957 51.5352L19.7695 52.3477L20.8867 53.2617L21.9023 53.9727L23.1211 54.6836L24.2891 55.2422L25.457 55.6992L26.8789 56.1055L27.793 56.3086L27.9961 56.2578L27.0312 55.293L26.6758 54.8867L26.1172 54.2773L25.5586 53.5664L25.1016 52.957L24.4414 51.9922L23.9336 51.1797L23.4258 50.2656L22.7656 48.9453L22.6641 48.8945Z" fill="#323233"/>
<path d="M29.9258 11.0625H31.4492L31.5 11.1133L31.6016 11.9258L32.3125 14.1094L32.6172 14.9219L32.8711 13.6523L33.2266 11.9766L33.3281 11.875H35.4102L35.5117 12.1797L35.9688 14.5156L36.0703 14.9727L36.7812 12.8906L37.0859 11.9258L37.1875 11.1133L37.2383 11.0625H38.8125V11.9258L38.5586 12.8906L37.8477 14.9727L37.0859 17.2578L36.9844 17.5117L36.8828 17.5625H34.9023L34.75 17.0547L34.3945 15.2266L34.3438 15.0742L33.8359 17.4102L33.7344 17.5625H31.7539L31.6016 17.3086L30.8906 15.125L30.1797 13.043L29.875 12.0273V11.1133L29.9258 11.0625Z" fill="#323233"/>
<path d="M51 11.0625H52.5742L52.625 11.1133L52.7266 11.9258L53.4375 14.1094L53.7422 14.9219L53.793 14.8711L54.0977 13.1445L54.3516 11.9766L54.5039 11.875H56.5352L56.6367 12.2305L56.9922 14.0078L57.1445 14.7188V14.9727H57.2461L57.3984 14.3633L58.1094 12.2812L58.2617 11.6719L58.3125 11.1133L58.3633 11.0625H59.9375V11.9258L59.7344 12.6875L58.1602 17.4102L58.0078 17.5625H56.0273L55.9258 17.3086L55.5195 15.2266L55.4688 15.0742L55.0117 17.207L54.9102 17.5117L54.8594 17.5625H52.8789L52.7266 17.3086L52.1172 15.4805L51.4062 13.2969L51.0508 12.2305L51 12.0273V11.0625Z" fill="#323233"/>
<path d="M40.4375 11.0625H42.0117L42.0625 11.1133L42.1641 11.9258L42.875 14.1094L43.1797 14.9219L43.2305 14.8711L43.4844 13.4492L43.7891 11.9766L43.8906 11.875H45.9727L46.0742 12.2305L46.4297 14.0078L46.6328 14.9727L47.3438 12.8906L47.6484 11.9258L47.75 11.1133L47.8008 11.0625H49.375V11.9766L49.0703 12.9922L47.6484 17.2578L47.5469 17.5117L47.4453 17.5625H45.4648L45.3633 17.3086L44.957 15.2266L44.9062 15.0742L44.4492 17.207L44.3477 17.5117L44.2969 17.5625H42.2656L41.6562 15.7344L40.9453 13.6523L40.4883 12.2305L40.4375 12.0273V11.0625Z" fill="#323233"/>
<path d="M33.1758 36.25H34.75V37.8242L34.6484 37.875H33.125V36.3008L33.1758 36.25Z" fill="#323233"/>
<path d="M26.6758 42.75H28.1992L28.25 42.8008V44.3242L28.1484 44.375H26.625V42.8008L26.6758 42.75Z" fill="#323233"/>
</g>
</g>
<defs>
<filter id="filter0_d_911_1387" x="0.867188" y="0" width="73.9883" height="70" filterUnits="userSpaceOnUse" color-interpolation-filters="sRGB">
<feFlood flood-opacity="0" result="BackgroundImageFix"/>
<feColorMatrix in="SourceAlpha" type="matrix" values="0 0 0 0 0 0 0 0 0 0 0 0 0 0 0 0 0 0 127 0" result="hardAlpha"/>
<feOffset dy="2"/>
<feGaussianBlur stdDeviation="2"/>
<feComposite in2="hardAlpha" operator="out"/>
<feColorMatrix type="matrix" values="0 0 0 0 0 0 0 0 0 0 0 0 0 0 0 0 0 0 0.15 0"/>
<feBlend mode="normal" in2="BackgroundImageFix" result="effect1_dropShadow_911_1387"/>
<feBlend mode="normal" in="SourceGraphic" in2="effect1_dropShadow_911_1387" result="shape"/>
</filter>
<clipPath id="clip0_911_1387">
<rect width="52" height="52" fill="white" transform="translate(12 7)"/>
</clipPath>
</defs>
</svg>
