<svg width="17" height="16" viewBox="0 0 17 16" fill="none" xmlns="http://www.w3.org/2000/svg">
<path fill-rule="evenodd" clip-rule="evenodd" d="M16.1114 7.57801H14.4272C14.4272 4.16247 11.9447 1.68419 8.5241 1.68419V0C12.8499 0 16.1114 3.25806 16.1114 7.57801ZM11.0588 7.57905C11.0588 5.80813 10.3034 5.05277 8.53251 5.05277V3.36858C11.2483 3.36858 12.743 4.8633 12.743 7.57905H11.0588ZM10.8212 9.41754C11.0397 9.41078 11.2523 9.48922 11.4142 9.63629L14.8364 12.7487C14.9985 12.8961 15.0968 13.1009 15.1103 13.3197C15.1238 13.5384 15.0516 13.7537 14.9089 13.92L13.3426 15.7482C13.1971 15.8945 13.0028 15.9817 12.7969 15.9933C12.7691 15.9949 12.6647 16 12.4946 16C11.3308 16 7.10516 15.7533 3.73173 12.3807C-0.135168 8.51209 0.105671 3.52521 0.118302 3.31469C0.130024 3.10875 0.216921 2.91428 0.36251 2.76817L2.18986 1.20103C2.35625 1.05843 2.57168 0.986307 2.7904 0.999986C3.00911 1.01367 3.21388 1.11207 3.36121 1.27429L6.47275 4.69572C6.62002 4.85744 6.69859 5.07011 6.69183 5.28873C6.68507 5.50735 6.59352 5.71476 6.43654 5.86707L4.36583 7.88305C4.45593 8.36473 4.75993 9.3424 5.76371 10.347C6.76748 11.3483 7.74263 11.6523 8.22767 11.7449L10.2428 9.6725C10.3952 9.51572 10.6026 9.4243 10.8212 9.41754Z" fill="white"/>
</svg>
