<svg width="75" height="70" viewBox="0 0 75 70" fill="none" xmlns="http://www.w3.org/2000/svg">
<g filter="url(#filter0_d_911_1363)">
<rect x="4.68359" y="2" width="65.9901" height="62" rx="8" fill="white"/>
<g clip-path="url(#clip0_911_1363)">
<path d="M41.8984 7H63.6836V59H31.8438L31.793 58.7461V43.8672L25.1406 43.918L25.0898 47.2695H28.4414V59H11.6836V40.5664L18.3867 40.5156L18.3359 37.2148L11.6836 37.1641V12.0273H31.793V17.0547H41.8477V7.10156L41.8984 7ZM43.5742 8.67578L43.5234 8.77734V17.0547L51.75 17.1055L51.9531 17.0547V12.0273H45.25L45.1992 8.67578H43.5742ZM46.9258 8.67578L46.875 8.82812V10.3008L46.9258 10.3516H51.9023L51.9531 9.48828V8.72656L51.9023 8.67578H46.9258ZM53.6289 8.67578L53.5781 17.0547H61.957L62.0078 15.0742V12.0273H55.3047V8.72656L55.2539 8.67578H53.6289ZM56.9805 8.67578V10.3516H61.957L62.0078 10.25V8.72656L61.957 8.67578H56.9805ZM13.3594 13.7031V17.0547H20.875L20.9258 14.0586L20.875 13.7031H13.3594ZM22.5508 13.7031V16.9531L22.6016 17.0547H30.1172V13.7031H22.5508ZM13.3594 18.7305V22.082L18.3359 22.1328V32.0859L13.3594 32.1367V35.5391H20.0625V42.1914H15.2383L13.3594 42.2422L13.3086 57.2734L13.3594 57.3242H26.7656V48.9453L24.8359 48.8945H23.4648V42.293L33.4688 42.2422V48.9453H61.957V45.543H35.1953V22.1836L61.9062 22.1328L61.957 22.082L62.0078 18.7812L61.957 18.7305H13.3594ZM13.3594 23.7578V30.4609H16.7109V23.7578H13.3594ZM36.8711 23.7578L36.8203 23.8086V43.8672L36.8711 43.918H50.2266L50.2773 35.4883V33.8633H61.1445L61.957 33.8125L62.0078 23.8594L61.957 23.7578H36.8711ZM52.8672 35.4883L51.9531 35.5391L51.9023 38.6367V43.8672L51.9531 43.918H61.9062L61.957 43.8672V35.4883H52.8672ZM33.5195 50.5703L33.4688 50.6211V57.3242H35.1445V52.2969H40.1719V57.3242H41.8477L41.8984 50.6211L41.8477 50.5703H33.5195ZM43.625 50.5703L43.5234 50.6211V57.3242H45.1992L45.25 52.2969H50.2266V57.2734L50.2773 57.3242H51.9023L51.9531 57.2227V50.6211L51.9023 50.5703H43.625ZM61.9062 50.5703L53.6289 50.6211L53.5781 57.2734L53.6289 57.3242H55.2539L55.3047 57.2227V52.3477L60.2812 52.2969L60.332 57.3242H61.957L62.0078 57.2734V50.6211L61.9062 50.5703ZM36.8203 53.9727V57.3242H38.4961V53.9727H36.8203ZM46.875 53.9727V57.2734L46.9258 57.3242H48.5508L48.6016 57.2227V53.9727H46.875ZM56.9805 53.9727V57.3242H58.6055L58.6562 57.2734V53.9727H56.9805Z" fill="#323233"/>
<path d="M38.5469 25.4336H48.5508L48.6016 25.5352V35.4375L48.5508 35.4883H38.5469L38.4961 35.3867V25.7891L38.5469 25.4336Z" fill="#C13B44"/>
<path d="M16.7109 50.6211H25.0898V55.5977L25.0391 55.6484H16.7109L16.6602 55.293V50.6719L16.7109 50.6211Z" fill="#C13B44"/>
<path d="M15.0352 43.918H21.6875L21.7383 43.9688V48.8945L21.4336 48.9453H15.1367L14.9844 48.8945V44.0195L15.0352 43.918Z" fill="#C13B44"/>
</g>
</g>
<defs>
<filter id="filter0_d_911_1363" x="0.683594" y="0" width="73.9883" height="70" filterUnits="userSpaceOnUse" color-interpolation-filters="sRGB">
<feFlood flood-opacity="0" result="BackgroundImageFix"/>
<feColorMatrix in="SourceAlpha" type="matrix" values="0 0 0 0 0 0 0 0 0 0 0 0 0 0 0 0 0 0 127 0" result="hardAlpha"/>
<feOffset dy="2"/>
<feGaussianBlur stdDeviation="2"/>
<feComposite in2="hardAlpha" operator="out"/>
<feColorMatrix type="matrix" values="0 0 0 0 0 0 0 0 0 0 0 0 0 0 0 0 0 0 0.15 0"/>
<feBlend mode="normal" in2="BackgroundImageFix" result="effect1_dropShadow_911_1363"/>
<feBlend mode="normal" in="SourceGraphic" in2="effect1_dropShadow_911_1363" result="shape"/>
</filter>
<clipPath id="clip0_911_1363">
<rect width="52" height="52" fill="white" transform="translate(11.6836 7)"/>
</clipPath>
</defs>
</svg>
