<svg width="48" height="48" viewBox="0 0 66 66" fill="none" xmlns="http://www.w3.org/2000/svg">
<rect width="66" height="66" rx="8" fill="white" fill-opacity="0.2"/>
<path fill-rule="evenodd" clip-rule="evenodd" d="M22.8465 8.625H23.8193L24.9543 8.89523L26.8459 9.54379L28.3592 10.1383L29.7644 10.7328L32.4127 11.8678L32.737 11.9759L33.4936 12.0299L34.3043 11.8678L35.7095 11.2733L38.574 10.0302L40.1954 9.38165L41.6006 8.94928L42.7896 8.73309L43.3841 8.67905H44.0868L44.8974 8.84119L45.4379 9.05737L45.9784 9.48975L46.3027 9.97616L46.5188 10.5166L46.5729 10.949L46.4108 11.8678L46.0865 12.7325L45.6541 13.5973L45.1136 14.462L44.6272 15.1106L44.0327 15.8672L43.4922 16.4618L43.1139 16.8941L42.087 17.921L41.4925 18.2993L36.304 18.3534H27.8728L25.1164 18.2993L24.2517 17.7048L23.5491 17.1103L22.9005 16.4618L22.4141 15.8672L21.8736 15.1646L21.117 14.0297L20.4684 12.8947L20.1982 12.084L20.0901 11.4354L20.1441 10.5707L20.4144 9.86807L20.8467 9.38165L21.3331 9.05737L21.9817 8.78714L22.8465 8.625ZM25.0624 23.1095H41.4385L41.8708 23.3257L42.6275 24.0283L43.0599 24.4066L43.9246 25.2173L44.4651 25.7578L44.8434 26.1901L45.6001 27.0008L46.0865 27.5953L46.681 28.2979L47.2215 29.0006L47.9781 30.0274L48.6807 31.0543L49.3833 32.1353L50.14 33.4324L50.6804 34.4052L51.329 35.6483L52.0316 37.2156L52.6261 38.7289L53.2747 40.6746L53.707 42.1879L54.0313 43.5391L54.6258 46.7278L54.7339 47.9169V48.8356L54.5718 50.1868L54.3016 51.3218L53.8151 52.4568L53.3828 53.2134L52.6261 54.1322L52.1937 54.5646L51.1669 55.3212L50.3021 55.8077L49.2752 56.24L48.0322 56.6183L46.735 56.8886L45.2217 57.0507L40.7359 57.2669L37.8174 57.375H29.4942L24.8462 57.2129L21.2791 57.0507L19.7658 56.8886L18.5227 56.6183L16.9013 56.0779L15.8744 55.5915L15.0637 55.051L14.5233 54.6186L13.9828 54.1322L13.6045 53.6998L13.064 52.9432L12.7397 52.4027L12.3074 51.3758L11.9831 50.0247L11.875 49.1599V47.7007L11.9831 46.6738L12.5236 43.7012L12.9559 41.8636L13.4964 40.0261L14.0909 38.3506L14.7395 36.7833L15.388 35.378L15.9285 34.2971L16.6851 33L17.1716 32.1353L18.2525 30.5139L18.9551 29.541L19.6577 28.6222L20.4144 27.7034L20.9008 27.1089L21.6034 26.3523L21.9817 25.9199L23.441 24.4606L23.8733 24.0823L24.4138 23.5959L24.9543 23.1635L25.0624 23.1095ZM39.4928 29.2708L30.1968 29.4329L27.9268 29.487L27.6566 29.9193L27.2242 30.73L26.8459 31.4867V31.5948H31.1696L31.9803 31.811L32.8451 32.2433L33.3315 32.6217L33.7098 33.054L33.98 33.5405H32.6289L28.0349 33.6486L27.9268 33.7026L27.6026 34.2971L26.7919 35.6483V35.7564H31.7101L34.3043 35.7023L34.0341 36.7833L33.6558 37.5399L33.2234 38.0804L32.6829 38.5668L31.7641 39.0532L30.6832 39.3775L29.4942 39.5396H27.7106L27.6566 39.6477V41.4853L27.7647 41.8096L28.3592 42.5662L28.9537 43.2688L29.5482 44.0255L30.2508 44.8902L31.1156 45.9712L31.602 46.5657L32.1965 47.3223L32.8991 48.1871L33.3855 48.7816L33.98 49.5382L34.6826 50.403L35.2772 51.1596L35.4393 51.3218L37.3309 51.2677L38.7902 51.2137L38.7361 50.9975L38.1416 50.2949L37.6012 49.5923L36.8986 48.7276L36.4662 48.1871L35.8717 47.4304L35.115 46.5116L34.7367 46.0252L34.0341 45.1605L33.6017 44.62L33.0072 43.8634L32.2506 42.9446L31.0615 41.4313L30.8453 41.161L32.1965 40.8368L33.0613 40.5665L33.926 40.1882L34.6826 39.7558L35.4393 39.1613L35.8717 38.7289L36.4121 37.9723L36.7905 37.1616L37.0607 36.2428L37.1147 35.4861H39.3307L39.5468 35.2159L40.3575 33.7567L40.4656 33.5945V33.4324H39.5468L37.7633 33.4864L36.9526 33.5405L36.7905 32.946L36.4121 32.0272L35.9798 31.3246H39.3307L39.4928 31.1624L40.3575 29.487L40.4116 29.2708H39.4928ZM41.0604 19.4341H25.4409L25.1166 19.5962L24.7383 20.0286L24.5762 20.4069V20.7852L24.8464 21.3257L25.2788 21.65L25.7112 21.7581H40.8442L41.2225 21.704L41.4387 21.5959L41.817 21.1636L41.9792 20.6772L41.9251 20.1907L41.6008 19.7043L41.0604 19.4341Z" fill="white"/>
</svg>
