<svg width="18" height="18" viewBox="0 0 24 24" fill="none" xmlns="http://www.w3.org/2000/svg">
<path d="M13.7366 16.577L17.0932 11.1798C17.1042 11.1624 17.1133 11.144 17.1205 11.125C17.7001 10.1798 18.0061 9.10002 18.0061 7.99765C18.0061 4.69055 15.3156 2 12.0085 2C8.7014 2 6.01063 4.69055 6.01063 7.99765C6.01063 9.10024 6.31711 10.1804 6.89718 11.1263C6.90389 11.1429 6.91173 11.159 6.92113 11.1747L10.1573 16.5905C7.64515 16.9455 5.99316 17.9785 5.99316 19.2315C5.99316 20.7841 8.63155 22 11.9995 22C15.3675 22 18.0059 20.7839 18.0059 19.2315C18.0062 17.9727 16.2772 16.9167 13.7366 16.577ZM7.50008 10.8239C6.96501 9.97224 6.68226 8.99502 6.68226 7.99765C6.68226 5.06084 9.07147 2.67163 12.0085 2.67163C14.9453 2.67163 17.3345 5.06084 17.3345 7.99765C17.3345 8.99547 17.0518 9.97269 16.5169 10.8239C16.5057 10.8418 16.4966 10.8604 16.4892 10.8796L12.943 16.5811C12.8989 16.6487 12.8841 16.6731 12.8433 16.7401C12.8348 16.7541 12.8252 16.7699 12.814 16.7884L11.9185 18.2284L7.53008 10.8843C7.52224 10.8635 7.51217 10.8431 7.50008 10.8239ZM11.9998 21.3284C8.85587 21.3284 6.66502 20.2231 6.66502 19.2315C6.66502 18.3316 8.31499 17.4835 10.5343 17.2209L11.6246 19.0457C11.6848 19.1462 11.7927 19.2083 11.9098 19.2092H11.9127C12.0286 19.2092 12.1366 19.1492 12.1979 19.0507L13.3441 17.2077C15.5988 17.452 17.3343 18.3215 17.3343 19.2315C17.3345 20.2233 15.1437 21.3284 11.9998 21.3284Z" fill="#C13B44"/>
<path d="M13.7366 16.577L17.0932 11.1798C17.1042 11.1624 17.1133 11.144 17.1205 11.125C17.7001 10.1798 18.0061 9.10002 18.0061 7.99765C18.0061 4.69055 15.3156 2 12.0085 2C8.7014 2 6.01063 4.69055 6.01063 7.99765C6.01063 9.10024 6.31711 10.1804 6.89718 11.1263C6.90389 11.1429 6.91173 11.159 6.92113 11.1747L10.1573 16.5905C7.64515 16.9455 5.99316 17.9785 5.99316 19.2315C5.99316 20.7841 8.63155 22 11.9995 22C15.3675 22 18.0059 20.7839 18.0059 19.2315C18.0062 17.9727 16.2772 16.9167 13.7366 16.577ZM7.50008 10.8239C6.96501 9.97224 6.68226 8.99502 6.68226 7.99765C6.68226 5.06084 9.07147 2.67163 12.0085 2.67163C14.9453 2.67163 17.3345 5.06084 17.3345 7.99765C17.3345 8.99547 17.0518 9.97269 16.5169 10.8239C16.5057 10.8418 16.4966 10.8604 16.4892 10.8796L12.943 16.5811C12.8989 16.6487 12.8841 16.6731 12.8433 16.7401C12.8348 16.7541 12.8252 16.7699 12.814 16.7884L11.9185 18.2284L7.53008 10.8843C7.52224 10.8635 7.51217 10.8431 7.50008 10.8239ZM11.9998 21.3284C8.85587 21.3284 6.66502 20.2231 6.66502 19.2315C6.66502 18.3316 8.31499 17.4835 10.5343 17.2209L11.6246 19.0457C11.6848 19.1462 11.7927 19.2083 11.9098 19.2092H11.9127C12.0286 19.2092 12.1366 19.1492 12.1979 19.0507L13.3441 17.2077C15.5988 17.452 17.3343 18.3215 17.3343 19.2315C17.3345 20.2233 15.1437 21.3284 11.9998 21.3284Z" stroke="#C13B44"/>
<path d="M14.1809 7.99719C14.1809 6.79475 13.2026 5.81641 12.0001 5.81641C10.7977 5.81641 9.81934 6.79475 9.81934 7.99719C9.81934 9.19963 10.7977 10.178 12.0001 10.178C13.2026 10.178 14.1809 9.19963 14.1809 7.99719ZM10.491 7.99719C10.491 7.16504 11.168 6.48804 12.0001 6.48804C12.8323 6.48804 13.5093 7.16504 13.5093 7.99719C13.5093 8.82933 12.8325 9.50634 12.0001 9.50634C11.1677 9.50634 10.491 8.82933 10.491 7.99719Z" fill="#C13B44"/>
<path d="M14.1809 7.99719C14.1809 6.79475 13.2026 5.81641 12.0001 5.81641C10.7977 5.81641 9.81934 6.79475 9.81934 7.99719C9.81934 9.19963 10.7977 10.178 12.0001 10.178C13.2026 10.178 14.1809 9.19963 14.1809 7.99719ZM10.491 7.99719C10.491 7.16504 11.168 6.48804 12.0001 6.48804C12.8323 6.48804 13.5093 7.16504 13.5093 7.99719C13.5093 8.82933 12.8325 9.50634 12.0001 9.50634C11.1677 9.50634 10.491 8.82933 10.491 7.99719Z" stroke="#C13B44"/>
</svg>
