<svg width="54" height="50" viewBox="0 0 75 70" fill="none" xmlns="http://www.w3.org/2000/svg">
<g filter="url(#filter0_d_648_65833)">
<rect x="4.18262" y="2" width="65.9901" height="62" rx="8" fill="white"/>
<path d="M27.1094 7.8125H27.9219L28.7852 7.96484L29.5977 8.32031L30.1562 8.72656L30.7656 9.33594L31.1211 9.89453L31.4258 10.5547L31.5781 11.1641L31.6289 11.5703V12.0781L31.5273 12.7891L31.2734 13.5508L30.918 14.1602L30.7656 14.3633H30.6641V14.4648L31.1719 14.5664L32.0352 14.9219L32.7461 15.3281L33.7109 16.0391L34.5742 16.6992L35.2852 17.1055L35.9453 17.3594L36.8594 17.5117H37.7227L38.6367 17.3594L39.4492 17.0547L40.1094 16.6484L41.1758 15.8359L42.0898 15.1758L42.9023 14.7695L43.4102 14.5664L44.3242 14.3633L44.7305 14.3125H46.1016L47.0664 14.4648L47.8789 14.7188L48.6914 15.125L49.3516 15.582L50.0117 16.0898L50.8242 16.6992L51.5352 17.1055L52.1953 17.3594L53.1602 17.5117L54.3281 17.5625L54.3789 17.6133V32.1367L54.3281 32.1875H53.3125L52.2969 32.0859L51.4844 31.8828L50.7227 31.5781L50.0117 31.1719L49.1992 30.5625L48.8438 30.3086V30.207H48.7422V36.0977L48.8945 36.7578L49.3516 37.4688L49.8086 37.8242L50.3164 38.0781L50.9766 38.2305L52.6016 38.4336L53.4141 38.6367L54.2266 39.043L54.6836 39.3984L54.9883 39.6523L55.4453 40.2617L55.8516 41.0742L56.4102 42.5469L57.0195 44.1211L57.3242 44.6289L57.6797 44.9844L58.2383 45.2891L58.8984 45.4922L59.8633 45.6953L60.4727 45.9492L61.0312 46.3047L61.5391 46.7617L61.9961 47.3711L62.25 47.9297L62.4531 48.5898L62.5039 48.9453V49.6055L62.3516 50.418L62.0469 51.1289L61.6406 51.6875L61.2852 52.0938L60.5234 52.6523L58.2891 54.125L57.1719 54.8867L56.9688 54.9375L49.5547 54.9883L49.0469 55.2422L45.5938 56.7656L44.1211 57.4258L43.0547 57.832L41.9883 58.0859L41.0234 58.1875H40.4141L39.3477 58.0859L38.332 57.832L37.3164 57.4258L36.5039 56.9688L35.793 56.4609L35.082 55.8516L34.5742 55.3945L34.0156 54.9375L33.4062 54.3789L33 54.0234L32.4414 53.3633L31.9336 52.6016L31.5273 51.7891L31.2227 51.0273L30.8164 49.5039L30.5625 48.4883L30.207 47.7773L29.9531 47.5234V47.4219L29.75 47.3203L29.0898 46.9648L28.582 46.8633L21.3711 46.8125L20.4062 46.6602L19.5938 46.3047L18.9336 45.8477L15.3281 42.2422L14.668 41.3789L14.2109 40.5156L13.9062 39.6016L13.7539 38.6875V37.5195L13.9062 36.6562L14.2109 35.7422L14.6172 34.9297L15.2266 34.0664L15.8867 33.4062L16.75 32.7461L17.8164 31.9336L18.7812 31.2227L20.2031 30.1562L20.2539 28.4805L20.4062 27.7188L20.7617 26.9062L21.168 26.3477L21.5742 25.8906L22.1328 25.4844L22.9453 25.0781L23.5039 24.9258L23.8594 24.875L25.0781 24.8242V15.125L24.418 14.4648L23.9609 13.7539L23.707 13.2461L23.5039 12.332V11.3672L23.707 10.5039L24.1133 9.69141L24.6211 9.03125L25.0781 8.625L25.6367 8.26953L26.1953 8.01562L26.7031 7.86328L27.1094 7.8125ZM27.2109 9.4375L26.6523 9.58984L26.0938 9.89453L25.5859 10.4023L25.2305 11.1133L25.1289 11.5703V12.1797L25.2812 12.7891L25.6367 13.3984L26.043 13.8047L26.6016 14.1094L27.0078 14.2617L27.3125 14.3125H27.7695L28.4297 14.1602L28.9883 13.8555L29.4453 13.4492L29.8008 12.8906L29.9531 12.332L30.0039 11.7227L29.9023 11.1133L29.5977 10.5039L29.1406 9.99609L28.6836 9.69141L28.1758 9.48828L27.9219 9.4375H27.2109ZM26.7539 15.8359V45.1875H28.3281L28.3789 45.1367V15.8867L28.2266 15.8359L27.4141 15.8867L26.7539 15.8359ZM24.0117 26.5L23.4023 26.6523L22.8438 26.957L22.5391 27.2109L22.1328 27.7695L21.9297 28.3789L21.8789 28.6836L21.8281 30.918L21.5742 31.1719L20.9648 31.6289L20 32.3398L18.9336 33.1523L17.9688 33.8633L17.1055 34.5234L16.5977 34.9805L16.1406 35.5391L15.6836 36.4023L15.4805 37.0117L15.3789 37.6719V38.6875L15.582 39.5508L15.8359 40.1602L16.293 40.8711L16.9023 41.5312L19.8984 44.5273L20.4062 44.8828L21.0156 45.1367L21.3711 45.1875H25.0781L25.1289 45.1367V26.5H24.0117ZM44.7305 28.9375L43.8164 29.1406L43.0039 29.5469L42.4453 29.9023L41.8867 30.3594L41.0742 30.9688L40.4141 31.375L39.6523 31.7305L38.7891 31.9844L38.1797 32.0859L37.5195 32.1367H36.9609L35.9961 32.0352L35.1836 31.832L34.2695 31.4258L33.5586 30.9688L32.4922 30.1562L31.6289 29.5469L30.8672 29.1914L30.207 28.9883H30.0039V45.5938L30.6641 46L31.1719 46.457L31.5781 46.9141L31.9844 47.6758L32.2383 48.4883L32.6953 50.2656L32.9492 51.0273L33.457 51.9922L33.9141 52.6016L34.3203 53.0586L34.7266 53.4141L35.4375 54.0234L36.1992 54.6836L36.7578 55.1406L37.4688 55.6484L38.2305 56.0547L39.1445 56.3594L40.0078 56.5117L40.7188 56.5625L41.5312 56.5117L42.4961 56.3086L43.5117 55.9023L45.1367 55.1914L47.168 54.2773L48.793 53.5664L49.3008 53.3633L56.5117 53.3125L57.0703 53.0078L57.5781 52.6523L59.5586 51.332L60.1172 50.9258L60.3711 50.6719L60.6758 50.2656L60.8281 49.8086L60.8789 49.5039V49.0977L60.7266 48.4883L60.5234 48.082L60.1172 47.625L59.6094 47.3203L58.7969 47.1172L57.7305 46.8633L57.0195 46.5078L56.5117 46.1016L56.0547 45.6445L55.6992 45.0859L55.293 44.2227L54.3789 41.7344L53.9727 40.9727L53.5156 40.5156L53.1094 40.2617L52.5 40.0586L50.5703 39.8047L49.7578 39.6016L49.25 39.3984L48.6406 38.9922L48.1328 38.5352L47.6758 37.9258L47.3203 37.1641L47.1172 36.3008L47.0664 29.1914L46.6602 29.0391L46 28.9375H44.7305Z" fill="#C13B44"/>
<path d="M27.1094 7.8125H27.9219L28.7852 7.96484L29.5977 8.32031L30.1562 8.72656L30.7656 9.33594L31.1211 9.89453L31.4258 10.5547L31.5781 11.1641L31.6289 11.5703V12.0781L31.5273 12.7891L31.2734 13.5508L30.918 14.1602L30.7656 14.3633H30.6641V14.4648L30.7656 14.5156L30.5117 14.668L30.3086 14.9219L30.0547 15.0234V45.5938L30.6641 45.9492L31.1719 46.4062L31.5273 46.7617L31.9336 47.4727L32.1875 48.082L32.7461 50.2656L33 51.0273L33.5078 51.9922L33.9648 52.6016L34.3203 53.0078L34.7266 53.3633L35.4375 53.9727L36.1992 54.6328L36.7578 55.0898L37.4688 55.5977L38.2305 56.0039L39.1445 56.3086L40.0078 56.4609L40.7188 56.5117L41.5312 56.4609L42.4961 56.2578L43.5117 55.8516L45.1367 55.1406L47.168 54.2266L48.793 53.5156L49.3008 53.3125L56.5117 53.2617L57.0703 52.957L57.5781 52.6016L59.5586 51.2812L60.1172 50.875L60.3711 50.6211L60.625 50.2656L60.7773 49.8086L60.8281 49.5039V49.0977L60.6758 48.4883L60.4727 48.082L60.1172 47.6758L59.6094 47.3711L58.7969 47.168L57.7305 46.9141L57.0195 46.5586L56.5117 46.1523L56.0039 45.6445L55.6484 45.0859L55.2422 44.2227L54.3281 41.7344L53.9219 40.9727L53.5156 40.5664L53.1094 40.3125L52.5 40.1094L50.5703 39.8555L49.7578 39.6523L49.25 39.4492L48.6406 39.043L48.1328 38.5859L47.7266 38.0781L47.3203 37.3164L47.1172 36.6055L47.0664 36.3008V29.293L47.1172 29.1914L47.3711 29.293L48.082 29.6484V29.75L48.2852 29.8008L48.6914 30.1562L48.7422 36.0977L48.8945 36.7578L49.3516 37.4688L49.8086 37.8242L50.3164 38.0781L50.9766 38.2305L52.6016 38.4336L53.4141 38.6367L54.2266 39.043L54.6836 39.3984L54.9883 39.6523L55.4453 40.2617L55.8516 41.0742L56.4102 42.5469L57.0195 44.1211L57.3242 44.6289L57.6797 44.9844L58.2383 45.2891L58.8984 45.4922L59.8633 45.6953L60.4727 45.9492L61.0312 46.3047L61.5391 46.7617L61.9961 47.3711L62.25 47.9297L62.4531 48.5898L62.5039 48.9453V49.6055L62.3516 50.418L62.0469 51.1289L61.6406 51.6875L61.2852 52.0938L60.5234 52.6523L58.2891 54.125L57.1719 54.8867L56.9688 54.9375L49.5547 54.9883L49.0469 55.2422L45.5938 56.7656L44.1211 57.4258L43.0547 57.832L41.9883 58.0859L41.0234 58.1875H40.4141L39.3477 58.0859L38.332 57.832L37.3164 57.4258L36.5039 56.9688L35.793 56.4609L35.082 55.8516L34.5742 55.3945L34.0156 54.9375L33.4062 54.3789L33 54.0234L32.4414 53.3633L31.9336 52.6016L31.5273 51.7891L31.2227 51.0273L30.8164 49.5039L30.5625 48.4883L30.207 47.7773L29.9531 47.5234V47.4219L29.75 47.3203L29.0898 46.9648L28.582 46.8633L21.3711 46.8125L20.4062 46.6602L19.5938 46.3047L18.9336 45.8477L15.3281 42.2422L14.668 41.3789L14.2109 40.5156L13.9062 39.6016L13.7539 38.6875V37.5195L13.9062 36.6562L14.2109 35.7422L14.6172 34.9297L15.2266 34.0664L15.8867 33.4062L16.75 32.7461L17.8164 31.9336L18.7812 31.2227L20.2031 30.1562L20.2539 28.4805L20.4062 27.7188L20.7617 26.9062L21.168 26.3477L21.5742 25.8906L22.1328 25.4844L22.9453 25.0781L23.5039 24.9258L23.8594 24.875L25.0781 24.8242V15.125L24.418 14.4648L23.9609 13.7539L23.707 13.2461L23.5039 12.332V11.3672L23.707 10.5039L24.1133 9.69141L24.6211 9.03125L25.0781 8.625L25.6367 8.26953L26.1953 8.01562L26.7031 7.86328L27.1094 7.8125ZM27.2109 9.4375L26.6523 9.58984L26.0938 9.89453L25.5859 10.4023L25.2305 11.1133L25.1289 11.5703V12.1797L25.2812 12.7891L25.6367 13.3984L26.043 13.8047L26.6016 14.1094L27.0078 14.2617L27.3125 14.3125H27.7695L28.4297 14.1602L28.9883 13.8555L29.4453 13.4492L29.8008 12.8906L29.9531 12.332L30.0039 11.7227L29.9023 11.1133L29.5977 10.5039L29.1406 9.99609L28.6836 9.69141L28.1758 9.48828L27.9219 9.4375H27.2109ZM26.7539 15.8359V45.1875H28.3281L28.3789 45.1367V15.8867L28.2266 15.8359L27.4141 15.8867L26.7539 15.8359ZM24.0117 26.5L23.4023 26.6523L22.8438 26.957L22.5391 27.2109L22.1328 27.7695L21.9297 28.3789L21.8789 28.6836L21.8281 30.918L21.5742 31.1719L20.9648 31.6289L20 32.3398L18.9336 33.1523L17.9688 33.8633L17.1055 34.5234L16.5977 34.9805L16.1406 35.5391L15.6836 36.4023L15.4805 37.0117L15.3789 37.6719V38.6875L15.582 39.5508L15.8359 40.1602L16.293 40.8711L16.9023 41.5312L19.8984 44.5273L20.4062 44.8828L21.0156 45.1367L21.3711 45.1875H25.0781L25.1289 45.1367V26.5H24.0117Z" fill="#323233"/>
<path d="M18.1719 48.4375H19.3398L20.4062 48.5898L21.2695 48.8438L22.1836 49.25L22.9453 49.707L23.6055 50.2656L24.0117 50.6211L24.3672 51.0273L25.0781 51.8906L25.4336 52.3477L25.5859 52.5L26.0938 52.6016L27.8203 52.8555L28.6328 53.0586L29.4453 53.4648L30.0039 53.8711L30.6641 54.5312L31.0195 55.0898L31.3242 55.6992L31.5273 56.3594L31.6289 57.1719V58.1367L31.375 58.1875H16.293L15.4297 58.0859L14.668 57.832L13.957 57.4258L13.2969 56.8672L12.7891 56.207L12.3828 55.3945L12.1797 54.6836L12.1289 54.3789V53.3633L12.332 52.4492L12.5859 51.8398L12.8906 51.2812L13.2969 50.7734L13.9062 50.1641L14.668 49.6562L15.582 49.1484L16.293 48.8438L17.3594 48.5391L18.1719 48.4375ZM18.2227 50.0625L17.3594 50.2148L16.4961 50.5195L15.5312 51.0273L14.8711 51.4844L14.5156 51.7891L14.1602 52.2969L13.9062 52.8555L13.7539 53.4648V54.2773L13.957 54.9375L14.2617 55.4961L14.8203 56.0547L15.6328 56.4609L16.1914 56.5625H29.8516L29.8008 56.2578L29.3945 55.5469L28.8867 55.0391L28.1758 54.6328L27.4648 54.4297L25.2812 54.125L24.7734 54.1758L21.168 54.8867L20.7109 54.8359L18.4258 54.0742L18.4766 53.8203L18.8828 52.6016L19.1367 52.6523L20.9648 53.2617H21.3711L23.6055 52.8047L23.5039 52.5508L23.0469 51.9922L22.3359 51.2812L21.5742 50.7734L20.7109 50.3672L19.7461 50.1133L19.3906 50.0625H18.2227Z" fill="#323233"/>
</g>
<defs>
<filter id="filter0_d_648_65833" x="0.182617" y="0" width="73.9902" height="70" filterUnits="userSpaceOnUse" color-interpolation-filters="sRGB">
<feFlood flood-opacity="0" result="BackgroundImageFix"/>
<feColorMatrix in="SourceAlpha" type="matrix" values="0 0 0 0 0 0 0 0 0 0 0 0 0 0 0 0 0 0 127 0" result="hardAlpha"/>
<feOffset dy="2"/>
<feGaussianBlur stdDeviation="2"/>
<feComposite in2="hardAlpha" operator="out"/>
<feColorMatrix type="matrix" values="0 0 0 0 0 0 0 0 0 0 0 0 0 0 0 0 0 0 0.15 0"/>
<feBlend mode="normal" in2="BackgroundImageFix" result="effect1_dropShadow_648_65833"/>
<feBlend mode="normal" in="SourceGraphic" in2="effect1_dropShadow_648_65833" result="shape"/>
</filter>
</defs>
</svg>
