<svg width="32" height="32" viewBox="0 0 42 42" fill="none" xmlns="http://www.w3.org/2000/svg">
<path d="M23.9105 36.9098C23.6798 36.9096 23.4538 36.8446 23.2583 36.7222C23.0628 36.5998 22.9056 36.4249 22.8047 36.2174L17.0215 24.3286L5.13273 18.5462C4.91857 18.4419 4.73931 18.2775 4.61674 18.0732C4.49416 17.8689 4.43354 17.6334 4.44222 17.3953C4.45091 17.1572 4.52854 16.9268 4.66567 16.7319C4.80281 16.5371 4.99356 16.3863 5.21477 16.2978L35.723 4.02672C35.9469 3.93649 36.1923 3.91409 36.4288 3.9623C36.6653 4.01052 36.8824 4.12723 37.0531 4.2979C37.2237 4.46857 37.3405 4.68566 37.3887 4.92215C37.4369 5.15865 37.4145 5.40411 37.3243 5.62797L25.0524 36.1387C24.9634 36.3597 24.8122 36.5502 24.6171 36.6869C24.4219 36.8236 24.1913 36.9008 23.9532 36.9089L23.9105 36.9098ZM8.70355 17.5504L18.48 22.3082C18.7278 22.4287 18.928 22.6289 19.0485 22.8767L23.8063 32.6532L33.961 7.38344L8.70355 17.5504Z" fill="#C13B44"/>
<path d="M17.9421 24.6382C17.6987 24.6381 17.4609 24.5659 17.2585 24.4307C17.0562 24.2954 16.8985 24.1032 16.8055 23.8783C16.7124 23.6534 16.6881 23.406 16.7356 23.1673C16.7832 22.9286 16.9004 22.7094 17.0726 22.5374L35.3122 4.29772C35.4265 4.18348 35.5622 4.09287 35.7115 4.03106C35.8608 3.96925 36.0209 3.93746 36.1825 3.9375C36.3441 3.93754 36.5041 3.96941 36.6534 4.03128C36.8027 4.09316 36.9383 4.18384 37.0525 4.29813C37.1668 4.41243 37.2574 4.54811 37.3192 4.69742C37.381 4.84674 37.4128 5.00676 37.4128 5.16836C37.4127 5.32996 37.3808 5.48998 37.319 5.63926C37.2571 5.78855 37.1664 5.92418 37.0521 6.03842L18.8125 24.2814C18.5811 24.5109 18.268 24.6392 17.9421 24.6382Z" fill="#C13B44"/>
</svg>
