<svg width="30" height="30" viewBox="0 0 53 53" fill="none" xmlns="http://www.w3.org/2000/svg">
<rect x="0.75" y="0.75" width="51.5" height="51.5" rx="7.75" stroke="white" stroke-width="0.5"/>
<path d="M34.2143 29.4599V32.9286C34.2143 33.9911 33.8371 34.8996 33.0826 35.6541C32.3282 36.4086 31.4197 36.7858 30.3572 36.7858H19.2143C18.1518 36.7858 17.2433 36.4086 16.4889 35.6541C15.7344 34.8996 15.3572 33.9911 15.3572 32.9286V21.7858C15.3572 20.7233 15.7344 19.8148 16.4889 19.0603C17.2433 18.3059 18.1518 17.9286 19.2143 17.9286H22.6295C22.7456 17.9286 22.846 17.9711 22.9308 18.0559C23.0157 18.1407 23.0581 18.2411 23.0581 18.3572C23.0581 18.5983 22.942 18.7411 22.7099 18.7858C22.0224 19.0179 21.4286 19.2858 20.9286 19.5894C20.8393 19.6251 20.7679 19.6429 20.7143 19.6429H19.2143C18.625 19.6429 18.1206 19.8527 17.7009 20.2724C17.2813 20.692 17.0715 21.1965 17.0715 21.7858V32.9286C17.0715 33.5179 17.2813 34.0224 17.7009 34.442C18.1206 34.8617 18.625 35.0715 19.2143 35.0715H30.3572C30.9465 35.0715 31.4509 34.8617 31.8706 34.442C32.2902 34.0224 32.5 33.5179 32.5 32.9286V30.0626C32.5 29.8929 32.5804 29.7635 32.7411 29.6742C32.9911 29.5581 33.2322 29.3929 33.4643 29.1786C33.6072 29.0358 33.7634 29.0001 33.9331 29.0715C34.1206 29.1519 34.2143 29.2813 34.2143 29.4599ZM37.3884 22.817L32.2456 27.9599C32.0849 28.1295 31.884 28.2144 31.6429 28.2144C31.5357 28.2144 31.4241 28.192 31.3081 28.1474C30.9599 27.9956 30.7857 27.7322 30.7857 27.3572V24.7858H28.6429C25.759 24.7858 23.8036 25.3706 22.7768 26.5402C21.7143 27.7635 21.384 29.8751 21.7857 32.8751C21.8125 33.0804 21.7232 33.2322 21.5179 33.3304C21.4465 33.3483 21.3929 33.3572 21.3572 33.3572C21.2143 33.3572 21.0982 33.2992 21.009 33.1831C20.9197 33.0581 20.8259 32.9197 20.7277 32.7679C20.6295 32.6161 20.4532 32.3103 20.1987 31.8505C19.9442 31.3907 19.7232 30.9465 19.5357 30.5179C19.3482 30.0894 19.1764 29.5804 19.0201 28.9911C18.8639 28.4019 18.7857 27.8572 18.7857 27.3572C18.7857 26.9197 18.8014 26.5135 18.8326 26.1385C18.8639 25.7635 18.9264 25.3617 19.0201 24.9331C19.1139 24.5045 19.2389 24.1117 19.3951 23.7545C19.5514 23.3974 19.7612 23.0336 20.0246 22.663C20.288 22.2925 20.5938 21.9621 20.942 21.6719C21.2902 21.3818 21.7121 21.1072 22.2076 20.8483C22.7032 20.5894 23.259 20.3728 23.875 20.1987C24.4911 20.0246 25.2032 19.8885 26.0112 19.7902C26.8192 19.692 27.6965 19.6429 28.6429 19.6429H30.7857V17.0715C30.7857 16.6965 30.9599 16.4331 31.3081 16.2813C31.4241 16.2367 31.5357 16.2144 31.6429 16.2144C31.875 16.2144 32.0759 16.2992 32.2456 16.4688L37.3884 21.6117C37.5581 21.7813 37.6429 21.9822 37.6429 22.2144C37.6429 22.4465 37.5581 22.6474 37.3884 22.817Z" fill="white"/>
</svg>
