<svg width="24" height="24" viewBox="0 0 38 38" fill="none" xmlns="http://www.w3.org/2000/svg">
<rect width="38" height="38" rx="19" fill="black" fill-opacity="0.5"/>
<path d="M26.7141 21.9604V25.4291C26.7141 26.4916 26.3368 27.4001 25.5824 28.1546C24.8279 28.909 23.9194 29.2863 22.8569 29.2863H11.7141C10.6516 29.2863 9.74309 28.909 8.98863 28.1546C8.23417 27.4001 7.85693 26.4916 7.85693 25.4291V14.2863C7.85693 13.2238 8.23417 12.3153 8.98863 11.5608C9.74309 10.8064 10.6516 10.4291 11.7141 10.4291H15.1293C15.2453 10.4291 15.3458 10.4715 15.4306 10.5564C15.5154 10.6412 15.5578 10.7416 15.5578 10.8577C15.5578 11.0988 15.4418 11.2416 15.2096 11.2863C14.5221 11.5184 13.9284 11.7863 13.4284 12.0898C13.3391 12.1256 13.2676 12.1434 13.2141 12.1434H11.7141C11.1248 12.1434 10.6203 12.3532 10.2007 12.7729C9.78104 13.1925 9.57122 13.697 9.57122 14.2863V25.4291C9.57122 26.0184 9.78104 26.5229 10.2007 26.9425C10.6203 27.3622 11.1248 27.572 11.7141 27.572H22.8569C23.4462 27.572 23.9507 27.3622 24.3703 26.9425C24.79 26.5229 24.9998 26.0184 24.9998 25.4291V22.5631C24.9998 22.3934 25.0801 22.264 25.2409 22.1747C25.4909 22.0586 25.7319 21.8934 25.9641 21.6791C26.1069 21.5363 26.2632 21.5006 26.4328 21.572C26.6203 21.6523 26.7141 21.7818 26.7141 21.9604ZM29.8882 15.3175L24.7453 20.4604C24.5846 20.63 24.3837 20.7148 24.1426 20.7148C24.0355 20.7148 23.9239 20.6925 23.8078 20.6479C23.4596 20.4961 23.2855 20.2327 23.2855 19.8577V17.2863H21.1426C18.2587 17.2863 16.3034 17.8711 15.2766 19.0407C14.2141 20.264 13.8837 22.3756 14.2855 25.3756C14.3123 25.5809 14.223 25.7327 14.0176 25.8309C13.9462 25.8488 13.8926 25.8577 13.8569 25.8577C13.7141 25.8577 13.598 25.7997 13.5087 25.6836C13.4194 25.5586 13.3257 25.4202 13.2275 25.2684C13.1293 25.1166 12.9529 24.8108 12.6985 24.351C12.444 23.8912 12.223 23.447 12.0355 23.0184C11.848 22.5898 11.6761 22.0809 11.5199 21.4916C11.3636 20.9023 11.2855 20.3577 11.2855 19.8577C11.2855 19.4202 11.3011 19.014 11.3324 18.639C11.3636 18.264 11.4261 17.8622 11.5199 17.4336C11.6136 17.005 11.7386 16.6122 11.8949 16.255C12.0511 15.8979 12.261 15.534 12.5243 15.1635C12.7877 14.793 13.0935 14.4626 13.4418 14.1724C13.79 13.8823 14.2118 13.6077 14.7074 13.3488C15.2029 13.0898 15.7587 12.8733 16.3748 12.6992C16.9909 12.5251 17.7029 12.389 18.511 12.2907C19.319 12.1925 20.1962 12.1434 21.1426 12.1434H23.2855V9.57199C23.2855 9.19699 23.4596 8.93359 23.8078 8.78181C23.9239 8.73717 24.0355 8.71484 24.1426 8.71484C24.3748 8.71484 24.5757 8.79967 24.7453 8.96931L29.8882 14.1122C30.0578 14.2818 30.1426 14.4827 30.1426 14.7148C30.1426 14.947 30.0578 15.1479 29.8882 15.3175Z" fill="white"/>
</svg>
