<svg width="25" height="25" viewBox="0 0 33 33" fill="none" xmlns="http://www.w3.org/2000/svg">
<path d="M15.9375 1.5H17.0312L17.6875 1.5625L18.4375 1.6875L19.25 1.90625L19.9375 2.15625L20.5 2.40625L21.125 2.75L21.7812 3.1875L22.0938 3.4375L22.5 3.78125L22.9688 4.21875L23.3438 4.625L23.6875 5.0625L24 5.5L24.375 6.125L24.6875 6.71875L25 7.5L25.2188 8.21875L25.375 8.9375L25.4688 9.65625L25.5 10.0938V10.7812L25.4375 11.5938L25.2812 12.5L25.0938 13.2812L24.8125 14.1875L24.5312 14.9375L24.125 15.9062L23.5312 17.125L23.1562 17.8125L22.75 18.5312L22.3125 19.25L21.8125 20.0312L21.3438 20.7188L20.9688 21.25L20.7188 21.5938L20.2812 22.1875L19.9375 22.625L19.5312 23.125L19.1875 23.5625L18.7812 24.0312L18.5 24.3438L18.2812 24.5938L18.0312 24.8438L17.625 25.1562L17.125 25.4062L16.9062 25.4688L16.6562 25.5H16.3125L15.9375 25.4375L15.5625 25.2812L15.25 25.0625L14.9375 24.7812L14.6875 24.5625L14.4688 24.3125L14.0938 23.9062L13.8125 23.5625L13.4062 23.0625L13.1562 22.75L12.7188 22.1875L12.3438 21.6875L11.9375 21.125L11.5 20.5L10.8438 19.5L10.4375 18.8438L9.90625 17.9375L9.46875 17.125L8.9375 16.0625L8.5625 15.1875L8.1875 14.2188L7.9375 13.4375L7.71875 12.5625L7.5625 11.625L7.5 11.0938V9.875L7.59375 9.09375L7.75 8.3125L7.9375 7.65625L8.1875 7L8.40625 6.53125L8.75 5.875L9.125 5.3125L9.5 4.8125L9.8125 4.46875L10.0312 4.21875L10.4688 3.78125L10.8125 3.5L11.3438 3.09375L11.875 2.75L12.5625 2.375L13.375 2.03125L14.0625 1.8125L14.7188 1.65625L15.5312 1.53125L15.9375 1.5ZM16.125 7.5L15.6562 7.59375L15.25 7.75L14.75 8.03125L14.3438 8.40625L14.0625 8.71875L13.8125 9.125L13.625 9.59375L13.5312 10L13.5 10.1875V10.8125L13.5938 11.3125L13.7812 11.8125L14.0312 12.2188L14.2812 12.5312L14.5312 12.7812L14.9375 13.0625L15.4375 13.3125L15.875 13.4375L16.2812 13.5H16.7188L17.25 13.4062L17.7188 13.25L18.2188 12.9688L18.625 12.625L18.9062 12.3125L19.1875 11.8438L19.375 11.375L19.4688 10.9688L19.5 10.7188V10.25L19.4062 9.71875L19.25 9.28125L19 8.8125L18.7188 8.46875L18.4062 8.15625L17.9375 7.84375L17.5938 7.6875L17.2188 7.5625L16.8125 7.5H16.125Z" fill="#C13B44"/>
<path d="M7.25 19.5H8.5L8.625 19.6562L9.03125 20.3125L9.40625 20.9062L10.1875 22.0625L10.5938 22.625L11.0312 23.2188L11.6562 24.0312L12.0625 24.5312L12.625 25.2188L12.9062 25.5312L13.125 25.7812L13.6875 26.3438L14.125 26.6875L14.7188 27.0625L15.25 27.2812L15.7188 27.4062L16.2812 27.4688H16.7188L17.4062 27.375L17.9062 27.2188L18.25 27.0625L18.6875 26.8125L19.0625 26.5312L19.4688 26.1875L19.9688 25.6875L20.25 25.3438L20.5938 24.9688L20.8438 24.6562L21.25 24.1562L21.875 23.3438L22.25 22.8438L23 21.7812L23.8125 20.5625L24.1875 19.9375L24.4062 19.5938L24.5 19.5H25.7188L26.1875 19.5938L26.5625 19.7812L26.9062 20.0625L27.1875 20.4062L27.5 20.9375L31.2188 28.375L31.4375 28.9688L31.5 29.25V29.6875L31.4062 30.125L31.2812 30.4375L31.0312 30.7812L30.7188 31.0938L30.3438 31.3125L29.8438 31.4688L29.5 31.5H3.46875L2.96875 31.4375L2.59375 31.2812L2.25 31.0625L2 30.8438L1.71875 30.4375L1.5625 30.0625L1.5 29.8125V29.2188L1.625 28.75L1.875 28.1875L5.625 20.6875L5.90625 20.2812L6.1875 19.9688L6.4375 19.7812L6.8125 19.5938L7.25 19.5Z" fill="#C13B44"/>
</svg>
