<svg width="25" height="25" viewBox="0 0 33 33" fill="none" xmlns="http://www.w3.org/2000/svg">
<path fill-rule="evenodd" clip-rule="evenodd" d="M4.51653 1.58264L4.10331 1.5L3.89669 1.54132L3.64876 1.66529L1.74793 3.56612L1.58264 3.81405L1.5 4.18595L1.62397 4.59917L1.8719 4.88843L2.2438 5.05372H2.53306L2.78099 4.97107L3.23554 4.6405V27.9463H2.53306L2.03719 28.0289L1.78926 28.1942L1.62397 28.4008L1.5 28.814L1.58264 29.1859L1.74793 29.4339L2.07851 29.6818L2.45041 29.7645L3.27686 29.7231V30.7562L3.40083 31.0455L3.60744 31.2934L3.85537 31.4587L4.26859 31.5L4.55785 31.4174L4.84711 31.1694L5.05372 30.7562L5.09504 29.7645L28.4421 29.7231L28.3595 29.8471L28.0702 30.1777L27.9463 30.5496L27.9876 30.8388L28.1529 31.1694L28.4008 31.376L28.7314 31.5L29.1446 31.4587L29.4339 31.2934L31.2521 29.4752L31.5 29.062V28.6901L31.4587 28.5248L31.3347 28.3182L31.0455 28.0289L30.7562 27.6983L30.5083 27.4917L29.3926 26.376L29.062 26.2107H28.6488L28.3595 26.3347L28.0289 26.7066L27.9463 27.1198L28.0702 27.5331L28.4008 27.9463H5.05372L5.09504 4.59917H5.17769L5.26033 4.76446L5.63223 5.0124L6.04545 5.05372L6.33471 4.97107L6.58264 4.76446L6.78926 4.43388L6.83058 4.02066L6.66529 3.64876L6.25207 3.19421L5.17769 2.11983L4.76446 1.74793L4.51653 1.58264ZM18.6906 3.64844H17.8641L17.5335 3.73108L17.0377 3.93769L16.6244 4.18563L14.8063 5.38397L13.0294 6.58232L11.9137 7.32612L10.0955 8.52447L8.31866 9.72282L7.32692 10.384L6.99634 10.6732L6.83105 11.0038V11.3344L6.9137 11.5823L7.16163 11.9129L7.49221 12.0782H7.86411L8.0294 12.0369L8.56659 11.7476V22.4088L8.60791 22.698L8.7732 23.1939L9.10378 23.6898L9.517 24.0617L10.0129 24.3096L10.5087 24.4336H25.9633L26.4178 24.3509L26.7897 24.1856L27.2443 23.8964L27.4922 23.6071L27.7815 23.1526L27.9468 22.6154L27.9881 21.2517V12.4914L28.0294 11.7476L28.0707 11.7889L28.5666 12.0782L28.9798 12.1195L29.2691 12.0369L29.5583 11.7889L29.7236 11.4584L29.7649 11.1278L29.641 10.7972L29.4344 10.5493L28.9798 10.2187L21.6658 5.34265L19.8889 4.14431L19.1864 3.7724L18.6906 3.64844Z" fill="#C13B44"/>
</svg>
