<svg width="14" height="18" viewBox="0 0 16 25" fill="#FFFFFF" xmlns="http://www.w3.org/2000/svg">
<path d="M5.83428 17.9313C4.38416 18.1516 3.17355 18.562 2.3146 19.1046C1.42794 19.6647 0.9 20.3773 0.9 21.1779C0.9 22.1711 1.74085 23.0267 3.04637 23.6284C4.3593 24.2335 6.17624 24.6 8.20766 24.6C10.2391 24.6 12.056 24.2335 13.3689 23.6283C14.6745 23.0266 15.5153 22.1709 15.5153 21.1779C15.5155 20.3723 14.9626 19.6512 14.0497 19.0865C13.165 18.5392 11.925 18.1267 10.4583 17.9146L14.4047 11.569C14.4048 11.5689 14.4048 11.5688 14.4049 11.5687L14.4049 11.5686L14.32 11.5158M5.83428 17.9313L2.08482 11.4516C1.38874 10.3165 1.02095 9.02029 1.02095 7.69718C1.02095 3.72866 4.24988 0.5 8.2184 0.5C12.1869 0.5 15.4156 3.72866 15.4156 7.69718C15.4156 9.02002 15.0483 10.3157 14.3528 11.45M5.83428 17.9313L2.02781 11.5611L5.83428 17.9313ZM14.32 11.5158C14.3332 11.4948 14.3442 11.4728 14.3528 11.45M14.32 11.5158L10.35 17.8994L14.32 11.5158ZM14.3528 11.45L14.438 11.5022C14.4396 11.4997 14.4412 11.4972 14.4427 11.4946M14.3528 11.45L14.4464 11.4852C14.4452 11.4884 14.444 11.4915 14.4427 11.4946M14.4427 11.4946C15.1448 10.3466 15.5156 9.03564 15.5156 7.69718C15.5156 3.67343 12.2422 0.4 8.2184 0.4C4.19466 0.4 0.920955 3.67342 0.920955 7.69718C0.920955 9.03629 1.29248 10.3481 1.99544 11.4971M14.4427 11.4946L1.99544 11.4971M1.99544 11.4971C2.00448 11.5185 2.01507 11.5398 2.02772 11.5609L1.99544 11.4971ZM2.89298 11.0355L2.89297 11.0354C2.26082 10.0293 1.92691 8.87504 1.92691 7.69718C1.92691 4.22824 4.74919 1.40596 8.2184 1.40596C11.6873 1.40596 14.5096 4.22823 14.5096 7.69718C14.5096 8.87558 14.1757 10.0298 13.5438 11.0354L13.5437 11.0356C13.5286 11.0598 13.516 11.0847 13.5055 11.1104L9.25599 17.9427C9.25578 17.943 9.25558 17.9433 9.25538 17.9436C9.20203 18.0254 9.18346 18.056 9.1346 18.1365C9.12451 18.1531 9.11313 18.1718 9.09989 18.1936C9.09979 18.1937 9.09969 18.1939 9.0996 18.1941L8.11211 19.7819L2.93447 11.1171C2.92326 11.089 2.90935 11.0615 2.89298 11.0355ZM7.67182 21.0062L7.67188 21.0063C7.76197 21.1566 7.92358 21.2496 8.09916 21.251H8.09993H8.09995H8.09996H8.09998H8.1H8.10002H8.10004H8.10006H8.10008H8.1001H8.10012H8.10014H8.10016H8.10018H8.1002H8.10022H8.10024H8.10026H8.10028H8.1003H8.10032H8.10033H8.10035H8.10037H8.10039H8.10041H8.10043H8.10045H8.10048H8.1005H8.10052H8.10054H8.10056H8.10058H8.1006H8.10062H8.10064H8.10066H8.10068H8.1007H8.10072H8.10074H8.10076H8.10078H8.1008H8.10082H8.10084H8.10086H8.10089H8.10091H8.10093H8.10095H8.10097H8.10099H8.10101H8.10102H8.10105H8.10107H8.10109H8.10111H8.10113H8.10115H8.10117H8.10119H8.10121H8.10123H8.10124H8.10126H8.10128H8.1013H8.10132H8.10133H8.10135H8.10137H8.10139H8.1014H8.10142H8.10144H8.10145H8.10147H8.10149H8.1015H8.10152H8.10154H8.10156H8.10157H8.10159H8.10161H8.10162H8.10164H8.10166H8.10167H8.10169H8.10171H8.10172H8.10174H8.10176H8.10177H8.10179H8.10181H8.10182H8.10184H8.10186H8.10187H8.10189H8.10191H8.10192H8.10194H8.10196H8.10198H8.10199H8.10201H8.10203H8.10205H8.10206H8.10208H8.1021H8.10212H8.10214H8.10215H8.10217H8.1022H8.10222H8.10223H8.10225H8.10227H8.10229H8.10231H8.10234H8.10236H8.10237H8.10239H8.10241H8.10243H8.10245H8.10247H8.10249H8.10251H8.10253H8.10255H8.10257H8.10259H8.10261H8.10263H8.10265H8.10267H8.10269H8.10272H8.10274H8.10276H8.10278H8.1028H8.10282H8.10284H8.10286H8.10288H8.1029H8.10292H8.10294H8.10296H8.10298H8.103H8.10302H8.10304H8.10306H8.10308H8.1031H8.10312H8.10314H8.10316H8.10318H8.1032H8.10321H8.10323H8.10325H8.10327H8.10329H8.10331H8.10333H8.10335H8.10337H8.10339H8.10341C8.27718 21.251 8.43873 21.1611 8.53057 21.0136L8.5306 21.0136L9.87281 18.8556C11.1912 19.0046 12.3524 19.3326 13.1848 19.7532C13.6077 19.9669 13.9415 20.2024 14.1684 20.4469C14.3952 20.6914 14.5094 20.9382 14.5094 21.1779C14.5094 21.4374 14.3657 21.719 14.0707 22.0008C13.7767 22.2816 13.3417 22.5531 12.7843 22.7902C11.6702 23.2643 10.0835 23.594 8.20792 23.594C6.3323 23.594 4.74564 23.2642 3.63147 22.7901C3.07408 22.553 2.63904 22.2814 2.34502 22.0007C2.05001 21.7189 1.90622 21.4373 1.90622 21.1779C1.90622 20.94 2.01503 20.6967 2.2315 20.4565C2.44812 20.2161 2.76778 19.9844 3.17509 19.7734C3.97625 19.3585 5.10065 19.0317 6.39681 18.8722L7.67182 21.0062Z" fill="white" stroke="red" stroke-width="0.2"/>
<path d="M10.9247 7.69701C10.9247 6.19886 9.70591 4.98008 8.20776 4.98008C6.7096 4.98008 5.49082 6.19886 5.49082 7.69701C5.49082 9.19517 6.7096 10.4139 8.20776 10.4139C9.70591 10.4139 10.9247 9.19517 10.9247 7.69701ZM6.49678 7.69701C6.49678 6.75366 7.26441 5.98603 8.20776 5.98603C9.15111 5.98603 9.91874 6.75366 9.91874 7.69701C9.91874 8.64037 9.15137 9.408 8.20776 9.408C7.26415 9.408 6.49678 8.64037 6.49678 7.69701Z" fill="red" stroke="red" stroke-width="0.2"/>
</svg>
