<svg width="48" height="48" viewBox="0 0 66 66" fill="none" xmlns="http://www.w3.org/2000/svg">
<rect width="66" height="66" rx="8" fill="white" fill-opacity="0.2"/>
<path fill-rule="evenodd" clip-rule="evenodd" d="M13.5269 8.7593L12.8554 8.625L12.5196 8.69215L12.1167 8.8936L9.02789 11.9824L8.7593 12.3853L8.625 12.9897L8.82645 13.6612L9.22934 14.1312L9.83368 14.3998H10.3037L10.7066 14.2655L11.4452 13.7283V51.6002H10.3037L9.49793 51.7345L9.09504 52.0031L8.82645 52.3388L8.625 53.0103L8.7593 53.6147L9.02789 54.0176L9.56508 54.4205L10.1694 54.5548L11.5124 54.4876V56.1663L11.7138 56.6364L12.0496 57.0393L12.4525 57.3078L13.124 57.375L13.594 57.2407L14.064 56.8378L14.3998 56.1663L14.4669 54.5548L52.406 54.4876L52.2717 54.689L51.8017 55.2262L51.6002 55.8306L51.6674 56.3006L51.936 56.8378L52.3388 57.1736L52.876 57.375L53.5475 57.3078L54.0176 57.0393L56.9721 54.0847L57.375 53.4132V52.8089L57.3078 52.5403L57.1064 52.2045L56.6364 51.7345L56.1663 51.1973L55.7634 50.8616L53.9504 49.0486L53.4132 48.78H52.7417L52.2717 48.9814L51.7345 49.5857L51.6002 50.2572L51.8017 50.9287L52.3388 51.6002H14.3998L14.4669 13.6612H14.6012L14.7355 13.9298L15.3399 14.3326L16.0114 14.3998L16.4814 14.2655L16.8843 13.9298L17.22 13.3926L17.2872 12.7211L17.0186 12.1167L16.3471 11.3781L14.6012 9.63223L13.9298 9.02789L13.5269 8.7593ZM36.5589 12.1167H35.2159L34.6787 12.251L33.8729 12.5868L33.2014 12.9897L30.2469 14.937L27.3595 16.8843L25.5465 18.093L22.5919 20.0403L19.7045 21.9876L18.093 23.062L17.5558 23.532L17.2872 24.0692V24.6064L17.4215 25.0093L17.8244 25.5465L18.3616 25.8151H18.9659L19.2345 25.7479L20.1074 25.2779V42.6023L20.1746 43.0723L20.4432 43.8781L20.9804 44.6839L21.6519 45.2882L22.4576 45.6911L23.2634 45.8926H48.3771L49.1157 45.7583L49.72 45.4897L50.4587 45.0196L50.8616 44.5496L51.3316 43.811L51.6002 42.938L51.6674 40.7221V26.4866L51.7345 25.2779L51.8017 25.345L52.6074 25.8151L53.2789 25.8822L53.749 25.7479L54.219 25.345L54.4876 24.8079L54.5548 24.2707L54.3533 23.7335L54.0176 23.3306L53.2789 22.7934L41.3936 14.8698L38.5062 12.9225L37.3647 12.3182L36.5589 12.1167Z" fill="white"/>
</svg>
