<svg width="42" height="42" viewBox="0 0 42 42" fill="none" xmlns="http://www.w3.org/2000/svg">
<path fill-rule="evenodd" clip-rule="evenodd" d="M21 0C32.5902 0 42 9.40981 42 21C42 32.5902 32.5902 42 21 42C9.40981 42 0 32.5902 0 21C0 9.40981 9.40981 0 21 0ZM33.5766 14.6818C33.2747 13.5523 32.3854 12.663 31.256 12.3611C29.2086 11.8125 21 11.8125 21 11.8125C21 11.8125 12.7914 11.8125 10.744 12.3611C9.61488 12.663 8.72525 13.5523 8.42338 14.6818C7.875 16.7289 7.875 21.0002 7.875 21.0002C7.875 21.0002 7.875 25.2713 8.42338 27.3182C8.72525 28.4477 9.61488 29.3373 10.744 29.6391C12.7914 30.1875 21 30.1875 21 30.1875C21 30.1875 29.2086 30.1875 31.256 29.6391C32.3854 29.3373 33.2747 28.4477 33.5766 27.3182C34.125 25.2713 34.125 21.0002 34.125 21.0002C34.125 21.0002 34.125 16.7289 33.5766 14.6818ZM18.3749 24.9377V17.0626L25.1947 21.0002L18.3749 24.9377Z" fill="white"/>
</svg>
