<svg width="20" height="20" viewBox="0 0 24 24" fill="none" xmlns="http://www.w3.org/2000/svg">
<path fill-rule="evenodd" clip-rule="evenodd" d="M16.4531 2H7.54688L7.41016 2.11719L7.33203 2.23438V19.7344L7.37109 19.8125L7.50781 19.9688L7.64453 20.0078L7.82031 19.9688L7.9375 19.8516L7.99609 19.7148V2.66406H15.9844V19.3438L16.0039 19.7539L16.0234 19.8125L16.1016 19.9102L16.2383 19.9883H16.4141L16.4727 19.9688L16.6289 19.832L16.668 19.6562V2.25391L16.6289 2.15625L16.4531 2ZM21.7461 6.00391H17.5664L17.5273 6.02344L17.4102 6.12109L17.332 6.23828V6.41406L17.3711 6.49219L17.4688 6.60938L17.6055 6.66797H21.3359V20.0469L21.0234 19.9883H20.8281L20.6523 19.7539L20.457 19.5781L20.2227 19.4414L19.9883 19.3633L19.6562 19.3242L19.4219 19.3438L19.2656 19.3828L19.0703 19.4609L18.8164 19.6172L18.6797 19.7539L18.5039 19.9883H18.4062L18.1328 20.0078L17.8594 20.1055L17.6641 20.2422L17.5078 20.418L17.3906 20.6328L17.332 20.8672V21.1406L17.3516 21.2383L17.4297 21.4336L17.5469 21.6289L17.6836 21.7656L17.8984 21.9023L18.1914 22H21.1406L21.4336 21.9023L21.6484 21.7656L21.8047 21.5898L21.9219 21.3945L22 21.1602V6.21875L21.8828 6.08203L21.7461 6.00391ZM19.3438 20.0664L19.5977 19.9883L19.832 20.0078L19.9297 20.0469L20.125 20.1641V20.2031H20.1641L20.2227 20.2812L20.3594 20.5938L20.4375 20.6914L20.5547 20.75H20.7109L20.9062 20.6719H21.082L21.1602 20.7109L21.2578 20.7891L21.3164 20.9062L21.3359 21.043L21.2969 21.1602L21.1992 21.2773L21.043 21.3359H18.2891L18.1719 21.2969L18.0742 21.2188L17.9961 21.0625V20.9258L18.0742 20.7695L18.2109 20.6719H18.4258L18.6016 20.75H18.7773L18.875 20.7109L18.9727 20.5938L19.0508 20.3984L19.168 20.2031L19.3438 20.0664ZM3.62109 13.9922L3.93359 14.0312L4.20703 14.168L4.42188 14.3633L4.59766 14.6172L4.75391 14.9297L4.91016 15.3203L5.04688 15.8086L5.16406 16.375L5.26172 17.1172L5.32031 17.8203V18.582L5.24219 18.8945L5.08594 19.207L4.94922 19.4023L4.71484 19.6367L4.44141 19.8125L4.14844 19.9297L3.99219 19.9688V21.7656L3.91406 21.8828L3.77734 22H3.54297L3.36719 21.8438L3.32812 21.7461V19.9688L3.15234 19.9297L2.78125 19.7539L2.58594 19.5977L2.33203 19.3438L2.19531 19.1289L2.07812 18.875L2 18.6016V17.7031L2.11719 16.6875L2.21484 16.1016L2.33203 15.5938L2.48828 15.125L2.66406 14.7344L2.83984 14.4609L3.01562 14.2656L3.15234 14.1484L3.38672 14.0312L3.62109 13.9922ZM3.58203 14.6758L3.42578 14.7734L3.28906 14.9688L3.15234 15.2422L2.97656 15.7695L2.82031 16.4727L2.74219 17L2.68359 17.5664L2.66406 17.9766V18.4648L2.72266 18.6797L2.82031 18.875L2.99609 19.0703L3.17188 19.207L3.40625 19.3047L3.48438 19.3242H3.83594L4.07031 19.2461L4.30469 19.1094L4.44141 18.9727L4.57812 18.7578L4.63672 18.582L4.65625 18.4844V17.8203L4.59766 17.1172L4.5 16.4336L4.38281 15.8867L4.24609 15.418L4.08984 15.0469L3.95312 14.832L3.79688 14.6953L3.75781 14.6758H3.58203ZM15.0859 16.0039H8.89453L8.85547 16.0234L8.75781 16.1016L8.66016 16.2578V16.3945L8.67969 16.4531L8.77734 16.5898L8.93359 16.668H9.98828V19.6367L10.0078 19.7539L10.0469 19.8516L10.1836 19.9688L10.3594 20.0078L10.5352 19.9297L10.6523 19.7734L10.6719 17.3516V16.668H13.3086L13.3281 19.7148L13.3672 19.8125L13.4844 19.9492L13.6406 20.0078L13.8164 19.9688L13.9141 19.8906L13.9922 19.7539V16.668H15.0078L15.125 16.6484L15.2812 16.5117L15.3398 16.3555L15.3203 16.2188L15.2227 16.082L15.0859 16.0039ZM2.23438 6.00391H6.41406L6.55078 6.08203L6.64844 6.19922L6.66797 6.25781V6.39453L6.58984 6.53125L6.45312 6.64844L6.33594 6.66797H2.66406V13.0742L2.58594 13.2109L2.46875 13.3086L2.27344 13.3281L2.11719 13.2695L2 13.1133V6.19922L2.13672 6.0625L2.23438 6.00391ZM16.5508 20.75L16.4336 20.6719H6.90234L6.74609 20.7891L6.66797 20.9062V21.7461L6.70703 21.8438L6.88281 22H7.11719L7.25391 21.8633L7.33203 21.7461V21.3359H16.3164L16.4531 21.3164L16.5117 21.2773L16.6094 21.1797L16.668 21.0625V20.9258L16.6484 20.8672L16.5508 20.75ZM9.61719 3.99219H11.043L11.1797 4.05078L11.2773 4.14844L11.3359 4.28516V6.25781L11.3164 6.45312L11.2188 6.58984L11.1211 6.64844L11.0234 6.66797H9.59766L9.48047 6.60938L9.34375 6.45312L9.32422 6.33594V4.26562L9.38281 4.14844L9.48047 4.05078L9.61719 3.99219ZM10.0078 4.65625L9.98828 4.71484V5.98438L10.0078 6.00391H10.6523L10.6719 4.67578L10.6523 4.65625H10.0078ZM11.043 7.99609H9.63672L9.53906 8.01562L9.38281 8.15234L9.32422 8.26953V10.3594L9.34375 10.4375L9.40234 10.5156L9.55859 10.6523L9.79297 10.6719H10.7891L11.1211 10.6523L11.2773 10.5156L11.3359 10.3398V8.28906L11.2773 8.15234L11.1797 8.05469L11.043 7.99609ZM9.98828 8.67969L10.0078 8.66016H10.6523V10.0078H10.0078L9.98828 9.98828V8.67969ZM9.57812 12H11.0625L11.2188 12.0781L11.2969 12.1758L11.3359 12.2734V14.2656L11.3164 14.4414L11.2383 14.5586L11.1211 14.6562H9.53906L9.42188 14.5586L9.34375 14.4414L9.32422 14.3242V12.2734L9.38281 12.1562L9.51953 12.0195L9.57812 12ZM9.98828 13.9922L10.6328 14.0117L10.6523 13.9922L10.6719 12.6836L10.6523 12.6641H9.98828V13.9922ZM5.71094 7.99609H4.26562L4.20703 8.01562L4.07031 8.11328L3.99219 8.26953V10.3594L4.03125 10.4766L4.12891 10.5938L4.22656 10.6523L5.39844 10.6719L5.78906 10.6523L5.84766 10.6133L5.98438 10.457L6.00391 10.0859V8.34766L5.96484 8.17188L5.86719 8.05469L5.71094 7.99609ZM4.65625 8.75781L4.67578 8.66016H5.32031L5.33984 8.67969V9.92969L5.32031 10.0078H4.75391L4.65625 9.98828V8.75781ZM18.2305 16.0039H19.7734L19.8906 16.082L19.9688 16.1797L20.0078 16.4336V17.3906L19.9883 18.4258L19.9102 18.5625L19.8125 18.6406L19.7539 18.6602H18.2305L18.1328 18.6016L18.0156 18.4648L17.9961 18.3867V16.2383L18.0742 16.1211L18.1914 16.0234L18.2305 16.0039ZM18.6602 16.668V17.9961H19.3242V16.668H18.6602ZM19.7148 7.99609H18.2695L18.1914 8.01562L18.0938 8.09375L17.9961 8.25V10.3789L18.0547 10.5156L18.2109 10.6523L18.8945 10.6719H19.2656L19.793 10.6523L19.9102 10.5547L19.9883 10.4375L20.0078 9.53906V8.36719L19.9883 8.23047L19.9492 8.15234L19.8516 8.05469L19.7148 7.99609ZM18.6602 9.98828V8.66016H19.3242V10.0078H18.6797L18.6602 9.98828ZM12.9961 3.99219H14.3633L14.5195 4.05078L14.6367 4.1875L14.6562 4.24609V6.43359L14.5781 6.55078L14.4609 6.64844L14.4023 6.66797H12.9375L12.8008 6.60938L12.6836 6.45312L12.6641 6.39453V4.24609L12.7422 4.10938L12.8398 4.03125L12.9961 3.99219ZM13.3477 4.65625L13.3281 4.67578V6.00391H13.9922V4.65625H13.3477ZM19.7344 12H18.2695L18.2109 12.0195L18.1328 12.0781L17.9961 12.2344V14.4023L18.1133 14.5781L18.2305 14.6562H19.7539L19.8125 14.6367L19.9102 14.5586L19.9883 14.4219L20.0078 13.0352V12.4297L19.9688 12.1758L19.8516 12.0586L19.7344 12ZM19.2852 14.0117L18.6602 13.9922V12.6641H19.3242V13.9922L19.2852 14.0117ZM12.918 12H14.4219L14.5391 12.0781L14.6367 12.1953L14.6562 12.2344V14.4219L14.5977 14.5195L14.5195 14.6172L14.4219 14.6562L13.3281 14.6758H13.0742L12.8789 14.6562L12.7227 14.5195L12.6641 14.4023V12.2539L12.7422 12.1367L12.8789 12.0195L12.918 12ZM13.3281 13.9922H13.9922V12.6641H13.3281V13.9922ZM14.3828 7.99609H12.957L12.8789 8.01562L12.7422 8.13281L12.6641 8.25V10.3789L12.6836 10.457L12.7812 10.5742L12.8984 10.6523L13.3867 10.6719H14.168L14.4609 10.6523L14.5781 10.5547L14.6562 10.418V8.23047L14.6367 8.17188L14.5195 8.05469L14.3828 7.99609ZM13.3281 9.98828V8.66016H13.9922V10.0078H13.4258L13.3281 9.98828ZM4.24609 12H5.75L5.86719 12.0781L5.98438 12.2148L6.00391 12.3125V14.3242L5.96484 14.4805L5.84766 14.6172L5.75 14.6562H5.57422L5.45703 14.5977L5.35938 14.4805L5.33984 14.4219L5.32031 14.1484V13.0938L5.33984 12.6641H4.65625L4.67578 12.7812L4.65625 13.0938L4.57812 13.2109L4.46094 13.3086L4.38281 13.3281H4.24609L4.08984 13.2305L4.01172 13.1133L3.99219 13.0156V12.2539L4.07031 12.1367L4.20703 12.0195L4.24609 12ZM12.1172 18.0156H11.8633L11.7266 18.1328L11.668 18.25V18.4258L11.7656 18.582L11.9023 18.6602H12.0781L12.1367 18.6406L12.2539 18.543L12.332 18.3867V18.25L12.3125 18.1914L12.2344 18.0938L12.1172 18.0156Z" fill="#C13B44"/>
</svg>
