<svg width="48" height="48" viewBox="0 0 66 66" fill="none" xmlns="http://www.w3.org/2000/svg">
<rect width="66" height="66" rx="8" fill="white" fill-opacity="0.2"/>
<path d="M19.543 10.0469H21.8789L23.3516 10.1484L23.7578 10.1992L23.8086 10.25L23.8594 13.043L23.9609 15.0742L24.1133 16.5977L24.3672 18.2227L24.6719 19.4922L24.9766 20.5586L25.3828 21.625L25.7891 22.5391L26.2969 23.4531L26.8555 24.2656L27.2617 24.7734L27.7188 25.2812L27.9727 25.5859L28.125 25.6875V25.7891L28.3281 25.8906L28.8867 26.3984L29.8516 27.1094L31.0703 27.8711L32.3906 28.582L33.6094 29.2422L35.2344 30.0547L36.3516 30.6641L37.3164 31.2227L38.5859 32.0352L39.5508 32.7461L40.4141 33.457L40.8203 33.8125L41.2773 34.2695L41.8359 34.9805L42.3438 35.7422L43.0039 37.0117L43.4102 37.9766L44.2227 40.1602L44.832 41.6328L45.3906 42.75L45.8984 43.5117L46.457 44.2227L47.0156 44.7812L47.7266 45.3398L48.4883 45.8477L49.5547 46.457L50.7227 47.0664L51.9414 47.5742L52.957 47.9297L54.0742 48.2344L55.293 48.4375L55.9023 48.4883L59 48.5391V51.7383L58.6445 52.3477H58.543V52.4492L58.0352 52.7539L56.918 53.3125L55.4453 53.9219L54.5312 54.2773L52.957 54.7852L51.4336 55.1914L49.6055 55.5469L48.1836 55.75L47.2188 55.8516L46.4062 55.9023H43.918L42.1914 55.75L40.8203 55.5469L39.2461 55.2422L37.5195 54.7852L35.6914 54.1758L34.2695 53.6172L32.7969 52.957L30.9688 52.0938L29.3945 51.4336L29.293 51.332L29.0391 48.9961L28.7344 47.3711L28.2773 45.543L27.668 43.7656L27.1094 42.4961L26.3984 41.125L25.3828 39.6016L24.7227 38.7891L24.2656 38.2305L23.25 37.2148L22.6914 36.7578L21.7773 36.0469L21.0156 35.5391L20.1016 34.9805L18.9844 34.3711L17.8164 33.8125L16.3438 33.2539L14.7695 32.7969L13.043 32.4414L11.8242 32.2891L10.6055 32.1875H8.52344L7 32.2891V14.2109L7.30469 13.7031L7.55859 13.4492L7.8125 13.2461L9.18359 12.5859L10.1484 12.1797L11.6211 11.6211L13.3477 11.0625L14.9727 10.6562L16.5469 10.3516L18.1211 10.1484L19.543 10.0469Z" fill="white"/>
<path d="M26.9062 10.8086L27.3125 10.8594L28.6328 11.2148L30.4609 11.8242L32.0859 12.4844L33.9141 13.3477L34.8281 13.7539L35.4883 14.0586L37.0625 14.668L38.4844 15.125L39.8047 15.4805L41.6328 15.8359L42.9023 15.9883L44.0703 16.0898H46.457L48.4883 15.8867L50.2148 15.582L51.4336 15.2773L52.957 14.8203L54.2266 14.3633L55.5469 13.8047L56.8672 13.1953L57.2734 13.0938H57.6797L58.1875 13.2461L58.6953 13.7031L59 14.2617V45.4922H56.207L55.293 45.3906L54.4805 45.2383L53.6172 44.9844L52.5508 44.5781L51.0781 43.8672L49.8086 43.1055L49.1992 42.6484L48.4883 41.9375L47.9805 41.1758L47.3203 39.8047L46.6094 37.9258L46.0508 36.4531L45.4922 35.2344L44.9844 34.2695L44.2734 33.2031L43.7656 32.543L43.1562 31.8828L42.4961 31.2227L41.9375 30.7656L41.2773 30.2578L40.3633 29.5977L39.3477 28.9375L38.5859 28.4805L37.3164 27.7695L35.8945 27.0078L34.2695 26.1953L33.1523 25.5859L31.7812 24.7734L30.8164 24.0625L30.0547 23.3516L29.6992 22.9961L29.1406 22.2852L28.7344 21.625L28.3281 20.8633L27.8711 19.6953L27.5156 18.4766L27.2109 16.9531L27.0078 15.4297L26.9062 14.1094L26.8555 12.2305V10.8594L26.9062 10.8086ZM48.6914 23.8086L48.0312 24.0117L47.4727 24.418L47.1172 24.8242L46.8633 25.3828L46.7617 25.8398V26.3984L46.9648 27.0586L47.2695 27.5664L47.625 27.9219L48.0312 28.1758L48.6914 28.3789H49.4023L50.0625 28.1758L50.5195 27.8711L50.875 27.5156L51.1797 27.0078L51.332 26.4492V25.7383L51.1289 25.0781L50.7734 24.5703L50.418 24.2148L49.8086 23.9102L49.4023 23.8086H48.6914Z" fill="white"/>
<path d="M9.08203 35.1836H10.0977L11.9766 35.3359L13.5 35.5898L14.8711 35.9453L16.0391 36.3516L17.1055 36.8086L17.918 37.2148L18.832 37.7227L20.0508 38.5352L20.5586 38.9414L21.1172 39.3984L21.4219 39.6523V39.7539L21.625 39.8555L22.3359 40.6172L22.9453 41.3789L23.6562 42.4453L24.1641 43.3594L24.7227 44.5273L25.1797 45.7461L25.5859 47.1172L25.8906 48.4375L26.1445 50.0117V50.418L25.7383 50.3672L24.3672 50.1133L22.6914 49.9102L21.9805 49.8594H19.4922L17.8164 50.0117L15.9883 50.3164L14.5156 50.6719L13.043 51.1289L11.6211 51.6367L10.0977 52.2969L9.08203 52.7539L8.77734 52.8555H8.21875L7.71094 52.6523L7.30469 52.2969L7 51.7383V35.3867L7.55859 35.2852L9.08203 35.1836Z" fill="white"/>
</svg>
