<svg width="53" height="52" viewBox="0 0 53 52" fill="none" xmlns="http://www.w3.org/2000/svg">
<path d="M9.03125 7.36328H32.4414L33.2539 7.51562L34.0156 7.82031L34.5742 8.17578L35.082 8.63281L35.4375 8.98828L35.8438 9.64844L36.0977 10.207L36.3008 10.9688L36.3516 11.5273V24.5781L36.3008 24.8828H34.8281L34.7773 24.1719V11.6289L34.6758 10.918L34.4219 10.3086L34.0156 9.75L33.6602 9.44531L33 9.08984L32.2383 8.9375H9.28516L8.625 9.03906L8.16797 9.24219L7.60938 9.59766L7.20312 10.0547L6.79688 10.8672L6.74609 11.1211L6.69531 12.1367V34.4805L6.84766 35.1914L7.15234 35.8008L7.60938 36.3086L8.01562 36.6133L8.57422 36.8672L8.87891 36.9688L9.33594 37.0195L20.457 37.0703L20.5078 37.1211V38.543L17.7656 38.5938H9.53906L8.47266 38.4922L7.71094 38.2383L7.05078 37.8828L6.49219 37.4258L5.98438 36.8672L5.52734 36.1055L5.27344 35.4453L5.17188 34.9375L5.12109 34.4297V11.6289L5.22266 10.7148L5.47656 9.95312L5.83203 9.29297L6.1875 8.83594L6.74609 8.27734L7.45703 7.82031L8.21875 7.51562L9.03125 7.36328Z" fill="#374455"/>
<path d="M29.0391 27.0664H40.5664L41.3281 27.2695L41.8867 27.5742L42.3438 27.9297L42.8516 28.3867L43.4102 28.9961L43.9688 29.7578L44.5781 30.7227L45.0859 31.6367L45.1875 31.8398L45.4922 31.7891L46.7109 31.332L46.9141 31.2812H47.2695L47.625 31.4844L47.8281 31.7891V32.2969L47.625 32.6016L47.4219 32.7539L46.0508 33.2617H45.9492L46.3555 34.3281L46.5078 35.0391V39.5078L46.4062 39.9648L46.1016 40.4727L45.7461 40.8281L45.543 40.9805L45.4922 43.3672L45.4414 44.1289L45.1367 44.4844L44.9844 44.5859L44.6289 44.6367H40.4648L40.0078 44.5352L39.7031 44.1797L39.6523 44.0273V41.1836L30.0039 41.2344L29.9531 44.0781L29.6484 44.4844L29.4961 44.5859L28.7344 44.6367H25.1797L24.6211 44.5859L24.2148 44.2305L24.1133 43.7227L24.0625 40.9805L23.4531 40.4219L23.1484 39.8125L23.0977 39.5586V35.1406L23.1992 34.5312L23.4023 33.8711L23.6055 33.4648L23.6562 33.2617L23.0977 33.1094L22.1836 32.7539L21.9297 32.5508L21.7773 32.2461L21.7266 31.9922L21.8789 31.6367L22.2852 31.2812H22.6406L23.8594 31.6875L24.3672 31.8906L24.8242 31.0781L25.3828 30.1641L26.043 29.1992L26.7031 28.4375L27.1094 28.0312L27.7188 27.5742L28.4297 27.2188L29.0391 27.0664ZM29.2422 28.5898L28.7852 28.7422L28.2773 29.0469L27.5156 29.8086L27.0078 30.4688L26.3984 31.4336L25.7891 32.5L24.8242 34.4297L24.6211 35.2422V39.4062L24.6719 39.5586L24.9766 39.6602L40.1602 39.7109H41.8867L44.7305 39.6602L44.9336 39.5078L44.9844 39.3555V35.2422L44.7812 34.4297L43.6133 32.0938L42.9531 30.9766L42.4453 30.2656L41.9883 29.707L41.582 29.25L41.0234 28.8438L40.6172 28.6406L40.3633 28.5898H29.2422ZM25.6875 41.1836L25.6367 41.2852V43.0625L25.7891 43.1133H28.1758L28.4297 43.0625V41.1836H25.6875ZM41.1758 41.1836V43.0625L41.3789 43.1133H43.7148L43.918 43.0625L43.9688 41.2344L43.918 41.1836H41.1758Z" fill="#374455"/>
<path d="M13.0938 12.7461H22.8438L23.8086 12.8984L24.6719 13.1523L25.5859 13.5586L26.3984 14.0664L26.957 14.5234L27.7695 15.3359L28.3281 16.1484L28.7344 16.9609L29.0391 17.7734L29.2422 18.8906V20.3125L28.9883 21.4805L28.582 22.4961L28.1758 23.207L27.668 23.8672L26.8047 24.7305L25.9922 25.2891L25.0273 25.7969L23.9609 26.1523L23.25 26.3047L22.8438 26.3555L21.2188 26.4062H18.6797L18.6289 26.457L18.5781 33.3633L18.5273 33.4141H13.1445L13.0938 33.3633V12.7461ZM14.6172 14.2695V31.8906H17.0039L17.0547 31.8398V24.8828H22.3359L23.3516 24.7305L24.2148 24.4766L25.0781 24.0703L25.7891 23.5625L26.3984 23.0039L26.8047 22.4961L27.3125 21.6328L27.6172 20.7188L27.7188 20.1602V18.9922L27.5664 18.1797L27.2109 17.2656L26.8047 16.6055L26.3984 16.0977L25.9414 15.6406L25.0781 15.0312L24.1133 14.5742L23.1992 14.3203L22.8438 14.2695H14.6172Z" fill="#C13B44"/>
<path d="M17.1055 16.4023H22.4375L23.1992 16.5547L23.8594 16.8086L24.5195 17.2656L24.875 17.6211L25.2305 18.1797L25.4844 18.7891L25.5859 19.2461V19.8555L25.4336 20.4648L25.2305 20.9219L24.9258 21.3789L24.5195 21.8359L23.8086 22.293L23.1992 22.5469L22.4375 22.6992H17.0547V16.4531L17.1055 16.4023ZM18.5781 17.9258V21.1758L18.6289 21.2266L22.4375 21.1758L23.0469 20.9727L23.5039 20.668L23.9102 20.2109L24.0625 19.7539V19.3477L23.9102 18.8906L23.6055 18.4844L23.1484 18.1797L22.6406 17.9766L22.4375 17.9258H18.5781Z" fill="#C13B44"/>
<path d="M27.5664 32.957L28.2773 33.0586L29.9023 33.2617L31.2734 33.3633L32.4922 33.4141H35.8438L38.5352 33.2617L41.2773 33.0078L42.0898 32.957L42.1914 33.2617L42.293 34.0742V34.4297L41.8359 34.5312L39.1953 34.7852L36.9102 34.9375L35.7422 34.9883H32.2891L29.8516 34.8359L28.1758 34.6328L27.2617 34.4805L27.2109 34.2773L27.4648 33.3633L27.5664 32.957Z" fill="#374455"/>
<path d="M30.6641 36.8164L38.9414 36.8672V38.3398L38.6875 38.3906H30.7148L30.6641 38.3398V36.8164Z" fill="#374455"/>
</svg>
