<svg width="42" height="42" viewBox="0 0 42 42" fill="none" xmlns="http://www.w3.org/2000/svg">
<path d="M21 0.4375C9.42065 0.4375 0 9.66188 0 21C0 32.3381 9.42065 41.5625 21 41.5625C32.5794 41.5625 42 32.3381 42 21C42 9.66188 32.5794 0.4375 21 0.4375ZM26.2225 21.7239H22.806C22.806 27.0687 22.806 33.6493 22.806 33.6493H17.7433C17.7433 33.6493 17.7433 27.1325 17.7433 21.7239H15.3368V17.5097H17.7433V14.7839C17.7433 12.8317 18.6907 9.78115 22.8525 9.78115L26.6023 9.79523V13.886C26.6023 13.886 24.3226 13.886 23.8794 13.886C23.4362 13.886 22.8068 14.103 22.8068 15.034V17.5105H26.6641L26.2225 21.7239Z" fill="white"/>
</svg>
