<svg width="688" height="512" viewBox="0 0 688 512" fill="none" xmlns="http://www.w3.org/2000/svg">
<path d="M687.137 449.938H0V450.281H687.137V449.938Z" fill="#EBEBEB"/>
<path d="M618.285 472.049H572.77V472.392H618.285V472.049Z" fill="#EBEBEB"/>
<path d="M455.185 475.787H443.242V476.131H455.185V475.787Z" fill="#EBEBEB"/>
<path d="M571.396 459.297H545.023V459.64H571.396V459.297Z" fill="#EBEBEB"/>
<path d="M131.453 461.605H72.0977V461.949H131.453V461.605Z" fill="#EBEBEB"/>
<path d="M152.394 461.605H143.695V461.949H152.394V461.605Z" fill="#EBEBEB"/>
<path d="M309.418 467.404H180.676V467.748H309.418V467.404Z" fill="#EBEBEB"/>
<path d="M325.704 388.645H60.3451C58.2663 388.641 56.2739 387.813 54.8052 386.342C53.3366 384.87 52.5117 382.877 52.5117 380.798V7.77839C52.5298 5.71152 53.3627 3.73525 54.8294 2.27885C56.296 0.822446 58.2781 0.00354066 60.3451 0H325.704C327.785 0 329.781 0.826747 331.253 2.29836C332.724 3.76998 333.551 5.76592 333.551 7.84711V380.798C333.551 382.879 332.724 384.875 331.253 386.346C329.781 387.818 327.785 388.645 325.704 388.645ZM60.3451 0.274856C58.3574 0.278496 56.4524 1.07065 55.0482 2.47744C53.6439 3.88423 52.8553 5.79071 52.8553 7.77839V380.798C52.8553 382.785 53.6439 384.692 55.0482 386.099C56.4524 387.505 58.3574 388.298 60.3451 388.301H325.704C327.693 388.298 329.599 387.506 331.006 386.099C332.412 384.693 333.204 382.787 333.207 380.798V7.77839C333.204 5.78945 332.412 3.883 331.006 2.4766C329.599 1.0702 327.693 0.278489 325.704 0.274856H60.3451Z" fill="#EBEBEB"/>
<path d="M622.97 388.645H357.597C355.517 388.641 353.523 387.813 352.052 386.342C350.582 384.872 349.754 382.878 349.75 380.798V7.77839C349.772 5.71027 350.608 3.73401 352.076 2.27799C353.545 0.821965 355.529 0.00350205 357.597 0H622.97C625.034 0.00715241 627.013 0.827656 628.476 2.28367C629.94 3.73968 630.771 5.71389 630.789 7.77839V380.798C630.789 382.874 629.966 384.866 628.5 386.337C627.035 387.808 625.046 388.638 622.97 388.645ZM357.597 0.274856C355.608 0.278489 353.702 1.0702 352.295 2.4766C350.889 3.883 350.097 5.78945 350.094 7.77839V380.798C350.097 382.787 350.889 384.693 352.295 386.099C353.702 387.506 355.608 388.298 357.597 388.301H622.97C624.958 388.298 626.865 387.506 628.271 386.099C629.678 384.693 630.469 382.787 630.473 380.798V7.77839C630.469 5.78945 629.678 3.883 628.271 2.4766C626.865 1.0702 624.958 0.278489 622.97 0.274856H357.597Z" fill="#EBEBEB"/>
<path d="M534.178 359.895C576.067 359.895 610.024 333.782 610.024 301.57C610.024 269.359 576.067 243.246 534.178 243.246C492.29 243.246 458.332 269.359 458.332 301.57C458.332 333.782 492.29 359.895 534.178 359.895Z" fill="#EBEBEB"/>
<path d="M518.307 286.523C551.422 286.523 578.267 265.874 578.267 240.402C578.267 214.93 551.422 194.281 518.307 194.281C485.192 194.281 458.348 214.93 458.348 240.402C458.348 265.874 485.192 286.523 518.307 286.523Z" fill="#EBEBEB"/>
<path d="M522.897 38.6041C522.897 38.6041 532.806 30.0423 519.942 27.9947C496.58 24.2704 475.457 35.9105 472.777 37.4634C475.526 32.0625 473.574 27.8435 459.488 29.369C448.398 30.5371 418.617 45.3518 418.617 45.3518H564.18C584.286 27.2801 522.897 38.6041 522.897 38.6041Z" fill="#F0F0F0"/>
<path d="M130.929 103.991C130.929 103.991 139.093 97.6417 132.139 96.13C119.537 93.3814 103.952 101.998 101.905 103.139C105.024 99.1396 104.997 96.0613 96.4077 97.1469C89.5363 98.0127 68.0977 108.979 68.0977 108.979H153.193C169.945 95.594 130.929 103.991 130.929 103.991Z" fill="#F0F0F0"/>
<path d="M583.203 91.3076C583.203 91.3076 589.002 86.7999 584.069 85.7143C575.108 83.7628 564.032 89.8371 562.616 90.7029C564.843 87.8581 564.815 85.673 558.686 86.4426C553.848 87.061 538.566 94.8532 538.566 94.8532H599.034C610.922 85.3432 583.203 91.3076 583.203 91.3076Z" fill="#F5F5F5"/>
<path d="M152.393 417.711C174.844 417.711 193.044 403.713 193.044 386.446C193.044 369.179 174.844 355.182 152.393 355.182C129.942 355.182 111.742 369.179 111.742 386.446C111.742 403.713 129.942 417.711 152.393 417.711Z" fill="#EBEBEB"/>
<path d="M127.026 393.441C97.397 393.441 73.4297 418.728 73.4297 449.938H180.719C180.678 418.728 156.669 393.441 127.026 393.441Z" fill="#EBEBEB"/>
<path d="M392.49 158.193H154.246V449.938H392.49V158.193Z" fill="#F0F0F0"/>
<path d="M392.481 449.938H532.891V158.193H392.481V449.938Z" fill="#E6E6E6"/>
<path d="M436.182 287.566H489.215V186.282H436.182V287.566Z" fill="#F5F5F5"/>
<path d="M292.514 234.23H345.547V173.158H292.514V234.23Z" fill="#F5F5F5"/>
<path d="M201.193 234.23H254.227V173.158H201.193V234.23Z" fill="#F5F5F5"/>
<path d="M292.514 256.838H345.547V245.541H292.514V256.838Z" fill="#F5F5F5"/>
<path d="M201.193 256.838H254.227V245.541H201.193V256.838Z" fill="#F5F5F5"/>
<path d="M392.481 449.938H532.891V322.955H392.481V449.938Z" fill="#F5F5F5"/>
<path d="M467.047 404.697H511.395V342.759H467.047V404.697Z" fill="#E6E6E6"/>
<path d="M414 404.697H458.348V342.759H414V404.697Z" fill="#E6E6E6"/>
<path d="M392.49 322.955H154.246V449.938H392.49V322.955Z" fill="#FAFAFA"/>
<path d="M245.044 339.445H193.027V442.791H245.044V339.445Z" fill="#E6E6E6"/>
<path d="M413.767 67.3398H273.371L392.493 158.193H532.889L413.767 67.3398Z" fill="#F0F0F0"/>
<path d="M247.248 56.4961H208.164V136.809H247.248V56.4961Z" fill="#EBEBEB"/>
<path d="M273.368 67.3398L154.246 158.193H392.49L273.368 67.3398Z" fill="#FAFAFA"/>
<path d="M273.371 84.8203L177.172 158.193H369.57L273.371 84.8203Z" fill="#F0F0F0"/>
<path d="M327.381 273.178H166.138L129.953 309.362V322.954H363.58V309.362L327.381 273.178Z" fill="#E6E6E6"/>
<path d="M532.904 435.645H129.953V449.937H532.904V435.645Z" fill="#E6E6E6"/>
<path d="M392.492 386.445H231.949V435.644H392.492V386.445Z" fill="#F0F0F0"/>
<path d="M328.449 322.955H318.98V435.646H328.449V322.955Z" fill="#E6E6E6"/>
<path d="M146.742 322.955H137.273V435.646H146.742V322.955Z" fill="#E6E6E6"/>
<path d="M343.571 512C490.732 512 610.029 505.035 610.029 496.443C610.029 487.852 490.732 480.887 343.571 480.887C196.411 480.887 77.1133 487.852 77.1133 496.443C77.1133 505.035 196.411 512 343.571 512Z" fill="#F5F5F5"/>
<path d="M394.858 241.666H375.742V500.566H394.858V241.666Z" fill="#C13B44"/>
<path opacity="0.3" d="M394.858 241.666H375.742V500.566H394.858V241.666Z" fill="white"/>
<path d="M413.976 241.666H394.859V500.566H413.976V241.666Z" fill="#C13B44"/>
<path opacity="0.5" d="M413.976 241.666H394.859V500.566H413.976V241.666Z" fill="white"/>
<path d="M550.84 256.412H401.141V274.621H550.84V256.412Z" fill="#C13B44"/>
<path opacity="0.3" d="M550.84 256.412H401.141V274.621H550.84V256.412Z" fill="white"/>
<path d="M563.988 256.412H550.836V274.621H563.988V256.412Z" fill="#C13B44"/>
<path opacity="0.5" d="M563.988 256.412H550.836V274.621H563.988V256.412Z" fill="white"/>
<path d="M538.881 274.621H425.641V382.886H538.881V274.621Z" fill="#C13B44"/>
<path opacity="0.2" d="M538.884 274.621H534.898V382.886H538.884V274.621Z" fill="black"/>
<path d="M445.723 297.502H463.588V302.518H453.006V306.641H462.049V311.355H453.006V320.892H445.75L445.723 297.502Z" fill="white"/>
<path d="M466.541 309.211C466.369 307.584 466.563 305.94 467.107 304.397C467.651 302.854 468.533 301.453 469.687 300.294C470.842 299.135 472.241 298.249 473.782 297.699C475.322 297.15 476.966 296.951 478.594 297.118C480.225 297.011 481.862 297.234 483.406 297.772C484.95 298.31 486.37 299.153 487.582 300.251C488.673 301.423 489.516 302.804 490.057 304.311C490.598 305.819 490.826 307.42 490.729 309.019C490.818 311.337 490.347 313.642 489.354 315.739C488.467 317.48 487.079 318.916 485.369 319.862C483.369 320.899 481.134 321.401 478.882 321.319C476.636 321.398 474.4 320.971 472.341 320.068C470.577 319.187 469.118 317.799 468.149 316.083C467 313.98 466.444 311.605 466.541 309.211ZM473.756 309.211C473.599 311.005 474.06 312.799 475.062 314.296C475.528 314.778 476.087 315.161 476.704 315.422C477.322 315.684 477.985 315.819 478.656 315.819C479.326 315.819 479.99 315.684 480.607 315.422C481.225 315.161 481.783 314.778 482.249 314.296C483.088 313.293 483.514 311.479 483.514 308.799C483.644 307.083 483.156 305.377 482.139 303.989C481.689 303.481 481.131 303.081 480.505 302.817C479.88 302.553 479.203 302.432 478.525 302.464C477.863 302.437 477.203 302.562 476.595 302.829C475.988 303.096 475.45 303.497 475.021 304.003C474.003 305.538 473.556 307.381 473.756 309.211Z" fill="white"/>
<path d="M494.738 320.853V297.49H506.763C508.486 297.428 510.209 297.622 511.875 298.067C513.038 298.433 514.042 299.184 514.72 300.197C515.47 301.311 515.85 302.634 515.806 303.976C515.852 305.11 515.587 306.234 515.039 307.227C514.492 308.22 513.683 309.045 512.7 309.611C511.912 310.051 511.058 310.362 510.171 310.532C510.833 310.727 511.463 311.019 512.04 311.397C512.474 311.756 512.862 312.167 513.195 312.621C513.578 313.074 513.918 313.562 514.212 314.077L517.702 320.839H509.553L505.732 313.72C505.404 313.043 504.936 312.443 504.358 311.961C503.841 311.606 503.227 311.418 502.599 311.425H501.953V320.894L494.738 320.853ZM501.981 306.972H505.032C505.676 306.921 506.315 306.815 506.942 306.656C507.41 306.562 507.826 306.298 508.11 305.914C508.417 305.523 508.577 305.037 508.563 304.54C508.58 304.214 508.525 303.889 508.401 303.587C508.278 303.286 508.089 303.015 507.849 302.795C507.024 302.296 506.058 302.084 505.1 302.19H501.926L501.981 306.972Z" fill="white"/>
<path d="M434.465 352.268L441.336 351.842C441.409 352.756 441.727 353.635 442.257 354.384C442.639 354.848 443.126 355.215 443.678 355.454C444.23 355.693 444.831 355.797 445.432 355.758C446.289 355.815 447.137 355.562 447.823 355.044C448.077 354.841 448.284 354.584 448.426 354.292C448.569 353.999 448.644 353.679 448.647 353.353C448.641 353.041 448.567 352.734 448.429 352.454C448.292 352.174 448.094 351.927 447.85 351.732C446.734 351.018 445.478 350.55 444.167 350.357C441.715 349.96 439.393 348.985 437.392 347.513C436.736 346.966 436.212 346.277 435.86 345.499C435.508 344.721 435.336 343.873 435.358 343.019C435.358 341.804 435.722 340.617 436.403 339.611C437.168 338.474 438.261 337.597 439.536 337.096C441.371 336.411 443.323 336.098 445.28 336.175C447.687 336.013 450.085 336.594 452.152 337.838C452.961 338.476 453.625 339.279 454.098 340.194C454.572 341.108 454.846 342.114 454.9 343.143L448.098 343.541C448.078 343.106 447.969 342.68 447.778 342.289C447.586 341.899 447.317 341.551 446.985 341.269C446.654 340.987 446.268 340.776 445.852 340.649C445.436 340.522 444.998 340.482 444.566 340.531C443.89 340.482 443.219 340.672 442.669 341.067C442.468 341.217 442.305 341.412 442.193 341.637C442.081 341.861 442.023 342.108 442.023 342.359C442.036 342.555 442.09 342.746 442.183 342.919C442.275 343.092 442.404 343.243 442.559 343.362C443.294 343.822 444.119 344.117 444.978 344.228C447.311 344.643 449.585 345.335 451.753 346.29C452.968 346.851 453.998 347.747 454.722 348.873C455.351 349.913 455.675 351.108 455.656 352.323C455.658 353.789 455.228 355.223 454.419 356.445C453.568 357.724 452.359 358.723 450.942 359.318C449.155 360.022 447.242 360.354 445.322 360.293C441.35 360.293 438.601 359.538 437.076 357.998C435.548 356.462 434.622 354.429 434.465 352.268Z" fill="white"/>
<path d="M473.631 356.144H465.386L464.245 359.992H456.879L465.66 336.629H473.521L482.372 360.06H474.813L473.631 356.144ZM472.133 351.086L469.563 342.703L467.007 351.086H472.133Z" fill="white"/>
<path d="M484.656 336.697H491.871V354.302H503.127V360.06H484.656V336.697Z" fill="white"/>
<path d="M506.379 336.697H525.715V341.686H513.621V345.396H524.849V350.165H513.621V354.769H526.072V360.06H506.379V336.697Z" fill="white"/>
<path d="M301.984 131.6L299.909 134.348C299.235 135.214 298.535 136.052 297.834 136.891C296.459 138.567 295.003 140.189 293.546 141.811C290.605 145.013 287.554 148.16 284.215 151.156C280.818 154.308 277.194 157.206 273.372 159.827C271.268 161.267 269.073 162.571 266.803 163.73C264.127 165.105 261.293 166.148 258.364 166.836L257.774 166.96C257.263 167.075 256.743 167.144 256.221 167.166C253.377 167.249 250.553 166.666 247.975 165.462C246.212 164.652 244.559 163.622 243.055 162.397C240.776 160.54 238.699 158.449 236.857 156.158C233.757 152.28 230.998 148.142 228.611 143.789C226.33 139.667 224.31 135.461 222.482 131.215C220.629 126.978 218.996 122.648 217.59 118.242C217.167 116.835 217.251 115.325 217.827 113.974C218.402 112.622 219.433 111.515 220.74 110.846C222.047 110.176 223.548 109.985 224.981 110.307C226.414 110.629 227.689 111.443 228.584 112.607L228.708 112.772C231.25 116.194 233.82 119.781 236.404 123.203C238.987 126.625 241.571 130.074 244.237 133.249C246.7 136.316 249.367 139.213 252.221 141.92C253.306 142.973 254.51 143.896 255.808 144.669C256.276 144.916 256.633 145.013 256.605 144.944C256.578 144.875 256.056 144.532 254.805 144.559L252.661 144.889C253.615 144.42 254.534 143.883 255.41 143.281C256.564 142.484 257.856 141.563 259.134 140.532C260.412 139.502 261.731 138.292 263.023 137.056C264.315 135.819 265.648 134.554 266.954 133.235C269.537 130.486 272.135 127.738 274.663 124.893L278.443 120.55L282.071 116.29L282.414 115.892C284.533 113.406 287.537 111.845 290.789 111.542C294.041 111.238 297.283 112.216 299.824 114.267C302.366 116.318 304.007 119.28 304.397 122.522C304.788 125.765 303.897 129.031 301.915 131.627L301.984 131.6Z" fill="#263238"/>
<path d="M228.295 109.941C227.512 103.757 216.284 100.899 216.284 100.899L209.729 97.9989C208.655 97.52 207.445 97.4396 206.316 97.772C205.188 98.1045 204.215 98.828 203.572 99.8129L200.233 104.925C199.881 105.476 199.641 106.09 199.526 106.733C199.412 107.376 199.425 108.036 199.565 108.674C199.706 109.312 199.97 109.916 200.344 110.452C200.718 110.988 201.194 111.445 201.744 111.797L207.764 115.562C208.843 116.229 210.052 116.66 211.309 116.826L216.422 117.486C218.57 117.764 220.753 117.425 222.716 116.511C224.68 115.596 226.343 114.142 227.512 112.319L227.828 111.838C228.192 111.276 228.357 110.608 228.295 109.941Z" fill="#FFB573"/>
<path d="M304.857 354C322.722 297.284 336.589 228.268 336.589 228.268L282.786 222.977C282.786 222.977 279.254 311.782 275.915 351.114C272.424 391.999 258.777 486.975 258.777 486.975L275.131 488.349C275.131 488.349 303.208 404.779 304.857 354Z" fill="#263238"/>
<path d="M315.606 274.607L323.082 287.952C319.261 303.522 314.836 320.646 309.902 337.425C310.589 311.094 313.338 280.723 315.606 274.607Z" fill="black"/>
<path d="M236.855 490.753C236.855 490.753 259.984 488.857 262.197 485.572L274.634 487.455L272.586 500.566L264.918 499.411L263.928 498.037L261.798 498.958C255.614 498.009 239.123 495.288 235.467 493.364C235.447 492.845 235.565 492.33 235.809 491.872C236.053 491.413 236.414 491.027 236.855 490.753Z" fill="#263238"/>
<path d="M357.148 350.22C356.199 291.91 359.896 252.935 354.935 224.199L305.777 223.457C305.777 223.457 317.857 315.973 323.863 354.494C329.868 393.015 337.509 488.142 337.509 488.142H352.709C352.709 488.142 365.929 395.338 357.148 350.22Z" fill="#263238"/>
<path d="M322.615 496.181C322.615 496.181 337.196 490.862 339.107 487.289H351.695L350.747 500.565H340.467L339.354 499.341L337.32 500.565C331.04 500.565 325.281 500.317 321.433 498.902C321.389 498.386 321.474 497.867 321.68 497.392C321.886 496.917 322.208 496.5 322.615 496.181Z" fill="#263238"/>
<path d="M352.751 107.838C335.366 105.681 310.519 105.887 293.863 108.759C289.702 109.512 285.884 111.555 282.949 114.599C280.014 117.642 278.111 121.532 277.509 125.718C274.005 150.867 277.014 194.83 279.255 239.081C317.294 252.096 357.437 238.903 357.437 238.903C358.811 229.97 355.705 200.725 353.603 185.114C356.75 168.993 363.401 150.523 367.799 129.112C368.34 126.715 368.371 124.232 367.89 121.823C367.41 119.413 366.428 117.132 365.009 115.126C363.591 113.12 361.766 111.435 359.654 110.18C357.543 108.924 355.191 108.126 352.751 107.838Z" fill="#263238"/>
<path d="M307.92 107.07C305.831 109.172 304.443 112.484 303.701 116.689C301.914 126.9 303.935 142.636 309.322 160.666C314.475 146.126 325.566 126.887 332.382 115.714C335.612 110.423 337.879 106.918 338.072 106.616C328.133 104.317 317.785 104.473 307.92 107.07Z" fill="#E0E0E0"/>
<path d="M335.545 74.623L315.742 90.867C318.312 97.6696 319.123 104.761 307.936 107.496C305.188 111.192 310.08 115.425 314.698 117.349C322.16 116.428 332.687 113.941 337.236 107.729C335.793 102.782 333.621 84.6965 335.545 74.623Z" fill="#FFB573"/>
<path d="M309.969 113.254C310.804 115.628 312.221 117.754 314.092 119.438C317.115 119.438 321.526 116.043 321.526 116.043C321.526 116.043 319.822 111.247 317.404 110.271C311.288 111.783 309.969 113.254 309.969 113.254Z" fill="#C13B44"/>
<path d="M316.868 117.363C316.399 117.001 315.861 116.738 315.286 116.592C314.712 116.445 314.114 116.418 313.528 116.511C309.571 122.132 307.056 130.872 304.609 140.96C305.783 147.658 307.357 154.28 309.323 160.79C311.527 154.807 314.097 148.964 317.019 143.296C315.89 134.692 315.839 125.98 316.868 117.363Z" fill="#C13B44"/>
<path opacity="0.2" d="M327.284 81.3984L315.754 90.8534C316.371 92.4307 316.831 94.0648 317.128 95.7321C321.595 96.0482 327.806 91.5268 328.122 87.4865C328.22 85.4228 327.936 83.3589 327.284 81.3984Z" fill="black"/>
<path d="M307.577 46.2024C298.947 54.7092 304.609 68.3145 304.609 68.3145C304.609 68.3145 319.698 41.3925 307.577 46.2024Z" fill="#263238"/>
<path d="M338.374 63.5596C336.573 75.928 336.147 83.3354 329.303 89.1623C319.01 97.9302 304.072 90.7977 302.12 78.0582C300.375 66.583 303.618 48.2089 316.262 44.361C319.061 43.5097 322.031 43.383 324.893 43.9928C327.755 44.6025 330.416 45.9287 332.625 47.8472C334.835 49.7657 336.521 52.2136 337.527 54.9617C338.532 57.7098 338.824 60.6681 338.374 63.5596Z" fill="#FFB573"/>
<path d="M339.764 69.9228C330.461 71.833 327.767 64.6318 327.767 64.6318C329.652 65.0238 331.598 65.0238 333.484 64.6318C333.484 64.6318 327.217 58.2277 332.11 52.0297C329.554 49.2812 318.175 50.463 312.87 52.0297C307.07 49.8446 304.088 48.8276 300.996 41.9425C303.855 42.4373 306.796 42.0739 309.448 40.8981C315.22 38.2457 306.562 36.2943 306.562 36.2943C313.2 33.6997 320.392 32.8526 327.451 33.8343C340.919 35.7308 343.008 39.73 342.485 44.2651C349.535 44.1826 350.236 52.0297 350.236 52.0297C349.38 51.3433 348.371 50.8721 347.295 50.6554C347.694 53.0467 349.068 67.078 339.764 69.9228Z" fill="#263238"/>
<path d="M340.57 45.1859C343.154 44.0178 343.937 37.8473 342.412 35.2637C349.324 42.6023 344.336 45.5982 340.57 45.1859Z" fill="#263238"/>
<path d="M342.58 73.1932C342.004 74.4965 341.175 75.6726 340.142 76.6539C339.109 77.6351 337.892 78.402 336.561 78.9102C332.974 80.2845 330.83 77.1237 331.531 73.578C332.163 70.376 334.788 65.8409 338.526 66.0333C339.34 66.0865 340.129 66.3415 340.82 66.7754C341.511 67.2093 342.084 67.8083 342.486 68.5186C342.888 69.2288 343.107 70.028 343.124 70.8441C343.14 71.6601 342.953 72.4674 342.58 73.1932Z" fill="#FFB573"/>
<path d="M320.947 64.0123C320.864 65.0293 320.246 65.7989 319.573 65.7439C318.899 65.6889 318.432 64.8094 318.528 63.7924C318.624 62.7755 319.215 61.9921 319.902 62.0608C320.59 62.1296 321.029 62.9953 320.947 64.0123Z" fill="#263238"/>
<path d="M308.788 63.7101C308.706 64.7271 308.101 65.5104 307.414 65.4417C306.727 65.373 306.287 64.5072 306.369 63.4902C306.452 62.4732 307.056 61.7037 307.744 61.7586C308.431 61.8136 308.87 62.6931 308.788 63.7101Z" fill="#263238"/>
<path d="M311.248 65.0859C311.248 65.0859 308.499 70.7342 305.668 73.3316C307.331 75.1731 310.45 74.7059 310.45 74.7059L311.248 65.0859Z" fill="#ED893E"/>
<path d="M323.903 60.9629C324.003 60.9841 324.106 60.9841 324.206 60.9629C324.28 60.9343 324.347 60.891 324.404 60.8357C324.461 60.7805 324.506 60.7143 324.537 60.6412C324.568 60.5681 324.583 60.4896 324.583 60.4103C324.583 60.331 324.567 60.2525 324.536 60.1796C324.194 59.277 323.642 58.4692 322.925 57.8237C322.207 57.1782 321.346 56.7137 320.413 56.469C320.258 56.4405 320.098 56.4733 319.968 56.5605C319.837 56.6478 319.745 56.7826 319.712 56.9363C319.679 57.093 319.71 57.2562 319.798 57.3902C319.885 57.5241 320.023 57.6179 320.179 57.6509C320.909 57.8559 321.579 58.2322 322.133 58.7485C322.688 59.2649 323.111 59.9063 323.367 60.6193C323.415 60.7218 323.49 60.8086 323.585 60.8695C323.68 60.9304 323.791 60.9628 323.903 60.9629Z" fill="#263238"/>
<path d="M303.122 59.8348C303.216 59.8684 303.316 59.8784 303.414 59.8641C303.513 59.8497 303.606 59.8113 303.686 59.7524C304.274 59.2857 304.964 58.9662 305.701 58.8204C306.437 58.6746 307.197 58.7067 307.919 58.914C307.992 58.9424 308.071 58.9556 308.15 58.9529C308.23 58.9502 308.307 58.9316 308.379 58.8983C308.451 58.8649 308.515 58.8175 308.568 58.7589C308.621 58.7002 308.662 58.6315 308.688 58.5567C308.742 58.4072 308.734 58.2427 308.667 58.0987C308.6 57.9548 308.48 57.8428 308.331 57.7871C307.423 57.5105 306.461 57.4572 305.528 57.6319C304.595 57.8066 303.718 58.204 302.971 58.7904C302.886 58.8558 302.82 58.9427 302.779 59.0423C302.738 59.1419 302.725 59.2505 302.741 59.3569C302.756 59.4633 302.8 59.5637 302.867 59.6477C302.934 59.7317 303.022 59.7963 303.122 59.8348Z" fill="#263238"/>
<path d="M338.073 106.656C337.867 106.959 335.613 110.463 332.384 115.754C329.137 118.756 325.155 120.847 320.84 121.814C321.472 119.684 319.562 112.469 317.445 110.243C322.434 110.532 329.305 109.68 338.073 106.656Z" fill="#FAFAFA"/>
<path d="M317.459 110.272C315.175 111.274 313.117 112.728 311.409 114.547C309.702 116.366 308.38 118.511 307.523 120.854C306.642 120.469 305.852 119.903 305.203 119.192C304.554 118.482 304.062 117.644 303.758 116.731C304.5 112.485 305.888 109.173 307.977 107.111C309.09 108.568 312.237 109.942 317.459 110.272Z" fill="#FAFAFA"/>
<path d="M367.84 119.988C368.857 122.201 369.709 124.111 370.588 126.269C371.468 128.426 372.237 130.391 373.035 132.535C374.574 136.741 376.017 141.001 377.281 145.398C378.613 149.872 379.704 154.414 380.552 159.004C380.992 161.368 381.363 163.814 381.61 166.397C381.873 169.226 381.905 172.071 381.706 174.904C381.103 180.61 379.33 186.13 376.498 191.121C374.143 195.406 371.381 199.456 368.252 203.214C365.306 206.772 362.144 210.146 358.783 213.315C355.454 216.465 351.919 219.389 348.201 222.069C347.003 222.924 345.542 223.331 344.073 223.219C342.605 223.106 341.223 222.481 340.169 221.453C339.115 220.425 338.455 219.059 338.306 217.594C338.156 216.129 338.526 214.659 339.351 213.439L339.557 213.15L343.007 208.079C344.175 206.375 345.288 204.63 346.401 202.898C348.586 199.449 350.716 196.027 352.544 192.509C354.362 189.228 355.929 185.815 357.23 182.298C357.801 180.757 358.26 179.177 358.605 177.57C358.887 176.341 359.003 175.079 358.948 173.818C358.847 172.353 358.64 170.897 358.33 169.462C358 167.785 357.601 165.999 357.107 164.171C356.09 160.515 354.88 156.722 353.561 152.916C352.242 149.109 350.813 145.275 349.342 141.441L344.889 130.048L344.779 129.787C343.605 126.749 343.658 123.373 344.927 120.373C346.196 117.373 348.582 114.985 351.58 113.712C354.579 112.439 357.955 112.383 360.994 113.554C364.033 114.725 366.498 117.033 367.867 119.988H367.84Z" fill="#263238"/>
<path d="M294.163 184.743C288.643 189.033 284.926 195.231 283.741 202.12C282.557 209.009 283.99 216.093 287.76 221.98C291.529 227.867 297.363 232.132 304.116 233.938C310.869 235.745 318.054 234.962 324.259 231.743L327.695 236.141L327.063 238.89L334.36 248.276L338.346 248.358L337.26 252.99L351.58 271.405L359.276 271.542L361.86 274.882L360.581 280.379L370.078 292.582L378.131 292.734L379.505 284.089L333.206 224.57C337.545 219.226 339.765 212.471 339.443 205.595C339.121 198.719 336.279 192.202 331.459 187.287C326.64 182.372 320.179 179.403 313.311 178.946C306.442 178.49 299.646 180.578 294.218 184.812L294.163 184.743ZM306.009 199.97C304.897 200.839 303.552 201.358 302.145 201.462C300.738 201.566 299.331 201.25 298.104 200.555C296.876 199.859 295.882 198.815 295.248 197.555C294.614 196.294 294.367 194.874 294.541 193.473C294.714 192.073 295.298 190.756 296.22 189.687C297.143 188.619 298.361 187.849 299.721 187.473C301.081 187.098 302.522 187.134 303.861 187.578C305.201 188.021 306.379 188.852 307.246 189.965C308.407 191.457 308.93 193.348 308.698 195.224C308.466 197.1 307.499 198.807 306.009 199.97Z" fill="#C13B44"/>
<path d="M349.92 219.361C349.738 218.697 349.323 218.122 348.751 217.739L343.9 214.386C343.434 214.063 342.887 213.878 342.321 213.851C341.755 213.824 341.192 213.957 340.698 214.235L336.342 216.722C332.106 219.12 328.436 222.401 325.581 226.342L324.633 227.716C324.248 228.253 323.974 228.86 323.828 229.504C323.681 230.148 323.664 230.814 323.778 231.464C323.891 232.114 324.134 232.735 324.491 233.29C324.848 233.846 325.312 234.324 325.856 234.698L330.886 238.161C331.856 238.827 333.032 239.126 334.202 239.005C335.373 238.884 336.462 238.351 337.276 237.501L342.196 232.251C342.196 232.251 351.541 225.38 349.92 219.361Z" fill="#FFB573"/>
<path d="M340.972 211.639C338.819 212.549 336.817 213.782 335.035 215.294C335.667 219.156 346.428 225.588 350.056 225.67C351.526 224.296 353.464 218.647 353.464 218.647C349.396 216.888 343.913 213.013 340.972 211.639Z" fill="#E0E0E0"/>
<path d="M230.876 115.44C230.924 113.116 230.618 110.799 229.969 108.568C226.19 107.551 215.924 114.752 214.371 118.051C215.044 119.961 219.373 124.015 219.373 124.015C222.63 120.937 228.402 117.501 230.876 115.44Z" fill="#E0E0E0"/>
<path d="M336.617 488.568L353.493 489.049L355.252 479.457L335.504 480.639L336.617 488.568Z" fill="#C13B44"/>
<path d="M257.98 486.851L276.025 489.641L279.076 481.67L259.08 477.148L257.98 486.851Z" fill="#C13B44"/>
<path d="M315.151 78.3334C314.499 78.3615 313.845 78.3292 313.199 78.2372C313.156 78.2308 313.115 78.2154 313.078 78.1922C313.041 78.1689 313.009 78.1382 312.984 78.1021C312.96 78.0659 312.943 78.0251 312.935 77.9821C312.927 77.9391 312.928 77.895 312.938 77.8524C312.958 77.7603 313.011 77.6786 313.087 77.6229C313.163 77.5672 313.256 77.5413 313.35 77.5501C314.806 77.7662 316.292 77.6497 317.696 77.2094C319.1 76.769 320.387 76.0163 321.459 75.0077C321.525 74.9439 321.614 74.9082 321.706 74.9082C321.798 74.9082 321.887 74.9439 321.953 75.0077C322.016 75.0719 322.051 75.1582 322.051 75.2482C322.051 75.3381 322.016 75.4245 321.953 75.4887C320.116 77.2467 317.692 78.2603 315.151 78.3334Z" fill="#263238"/>
<path d="M267.859 28.1037L226.287 24.7642L190.982 7.24219L152.283 18.8136L146.703 88.2831L262.28 97.5732L267.859 28.1037Z" fill="#C13B44"/>
<path d="M134.733 95.0297L116.441 93.5592L118.736 65.0293L120.922 65.2079L118.805 91.5528L134.912 92.8446L134.733 95.0297Z" fill="#C13B44"/>
<path d="M143.363 92.973L143.188 95.1719L157.48 96.3153L157.656 94.1164L143.363 92.973Z" fill="#C13B44"/>
<path d="M153.018 63.1206L126.758 61.0078L124.706 86.5144L150.966 88.6272L153.018 63.1206Z" fill="#C13B44"/>
<path opacity="0.2" d="M150.977 88.6266L174.009 90.4819L176.799 55.7402L153.024 63.1063L150.977 88.6266Z" fill="black"/>
<path opacity="0.2" d="M267.86 28.136L226.285 24.791L220.696 94.256L262.271 97.601L267.86 28.136Z" fill="black"/>
<path d="M232.556 10.5817L190.984 7.24219L226.289 24.7642L267.861 28.1037L232.556 10.5817Z" fill="#263238"/>
<path d="M267.862 30.3017H267.683L226.112 26.9622C225.834 26.9328 225.564 26.8537 225.315 26.7285L190.01 9.20655C189.552 8.97928 189.188 8.59986 188.98 8.13342C188.772 7.66698 188.733 7.14264 188.869 6.6504C189.009 6.16003 189.314 5.73276 189.732 5.44007C190.149 5.14739 190.655 5.00704 191.164 5.0425L232.736 8.38199C233.018 8.41118 233.292 8.49029 233.547 8.61562L268.838 26.1101C269.259 26.3421 269.592 26.7054 269.787 27.1446C269.981 27.5838 270.027 28.0747 269.916 28.5422C269.806 29.0097 269.545 29.4281 269.174 29.7334C268.803 30.0388 268.342 30.2142 267.862 30.233V30.3017ZM226.881 22.6057L256.676 25.0107L231.939 12.7384L202.144 10.3335L226.881 22.6057Z" fill="#263238"/>
<path d="M150.548 53.6367L176.797 55.7394L153.022 63.1055L126.773 61.0028L150.548 53.6367Z" fill="#263238"/>
<path d="M153.022 64.5079H152.912L126.65 62.3915C126.327 62.3672 126.024 62.2298 125.792 62.0035C125.561 61.7773 125.417 61.4767 125.386 61.1547C125.353 60.8248 125.441 60.4943 125.633 60.2241C125.825 59.9539 126.108 59.7621 126.43 59.6842L150.205 52.3043C150.377 52.271 150.555 52.271 150.727 52.3043L176.976 54.4207C177.299 54.4415 177.604 54.5755 177.838 54.7993C178.072 55.023 178.219 55.3221 178.254 55.6438C178.293 55.9667 178.217 56.293 178.038 56.5647C177.859 56.8365 177.59 57.0361 177.278 57.128L153.503 64.4941C153.345 64.527 153.182 64.5316 153.022 64.5079ZM134.057 60.1927L152.871 61.7044L169.513 56.5508L150.7 55.0391L134.057 60.1927Z" fill="#263238"/>
<path d="M153.34 21.0943C152.82 21.088 152.318 20.8972 151.925 20.5558C151.532 20.2144 151.273 19.7446 151.194 19.23C151.114 18.7154 151.22 18.1893 151.493 17.7456C151.765 17.3018 152.186 16.969 152.681 16.8066L190.336 5.13899C190.621 4.98636 190.937 4.89856 191.26 4.88184C191.583 4.86513 191.905 4.91991 192.205 5.04229C192.504 5.16466 192.773 5.35162 192.992 5.58981C193.211 5.82801 193.375 6.11158 193.471 6.4203C193.568 6.72901 193.596 7.05527 193.552 7.3758C193.508 7.69633 193.394 8.00324 193.218 8.27463C193.042 8.54602 192.808 8.77521 192.533 8.94585C192.258 9.11649 191.949 9.22437 191.628 9.26181L153.986 20.9294C153.781 21.0173 153.563 21.0729 153.34 21.0943Z" fill="#263238"/>
<path opacity="0.6" d="M205.32 65.9642L190.312 64.7637L188.128 92.0705L203.135 93.2711L205.32 65.9642Z" fill="white"/>
<path d="M206.721 31.7034L171.543 28.873L169.841 50.0235L205.019 52.8538L206.721 31.7034Z" fill="white"/>
<path d="M187.539 31.5703L172.73 30.3789L171.254 48.7349L186.062 49.9263L187.539 31.5703Z" fill="#C13B44"/>
<path d="M205.304 33.0059L190.496 31.8145L189.019 50.1704L203.827 51.3618L205.304 33.0059Z" fill="#C13B44"/>
<path d="M256.72 35.7378L237.062 34.1562L235.361 55.3067L255.018 56.8883L256.72 35.7378Z" fill="white"/>
<path d="M245.938 36.279L237.664 35.6133L236.187 53.9692L244.461 54.6349L245.938 36.279Z" fill="#C13B44"/>
<path d="M255.864 37.072L247.59 36.4062L246.113 54.7622L254.387 55.4279L255.864 37.072Z" fill="#C13B44"/>
<path d="M253.989 69.5328L234.332 67.9512L232.63 89.1016L252.288 90.6832L253.989 69.5328Z" fill="white"/>
<path d="M243.211 70.0759L234.938 69.4102L233.461 87.7661L241.735 88.4318L243.211 70.0759Z" fill="#C13B44"/>
<path d="M253.988 71.291L245.688 70.627L244.214 89.0422L252.515 89.7063L253.988 71.291Z" fill="#C13B44"/>
</svg>
