<?xml version="1.0" encoding="iso-8859-1"?>
<!-- Uploaded to: SVG Repo, www.svgrepo.com, Generator: SVG Repo Mixer Tools -->
<svg fill="#000000" height="40px" width="40px" version="1.1" id="Layer_1" xmlns="http://www.w3.org/2000/svg" xmlns:xlink="http://www.w3.org/1999/xlink" 
	 viewBox="0 0 512 512" xml:space="preserve">
<g>
	<g>
		<path d="M274.896,149.301c-4.771,0-9.178,1.526-12.791,4.096l36.986,22.636l22.808,1.182v-27.914H274.896z"/>
	</g>
</g>
<g>
	<g>
		<path d="M201.475,138.976l10.101-16.504l10.863-17.749c2.758-4.506-0.66-10.279-5.939-10.026l-29.372,1.411
			c-5.185,0.249-9.684,3.205-12.114,7.176l-8.681,14.185l-6.379-3.904c-6.511-3.984-15.019-1.936-19.004,4.574
			c-3.985,6.511-1.937,15.019,4.574,19.005l6.378,3.904l-5.97,9.755c-1.9,3.105-0.924,7.164,2.181,9.064l23.898,14.626
			c3.105,1.9,7.164,0.924,9.064-2.181l5.97-9.755l49.718,30.428c5.136-8.894,13.857-15.406,24.149-17.631L201.475,138.976z"/>
	</g>
</g>
<g>
	<g>
		<path d="M487.71,477.424l-43.076-104.55l9.93-80.094V135.12c0-16.946-13.737-30.682-30.682-30.682h-54.715
			c-16.945,0-30.682,13.736-30.682,30.682v44.06l42.567-33.485l-35.455,47.789l-75.703-3.924
			c-12.014-0.622-22.388,8.671-23.019,20.742c0,0.003-0.001,0.006-0.001,0.009c-0.621,11.967,8.566,22.39,20.751,23.02
			c55.64,2.884,31.795,1.648,87.438,4.533c9.92,0.514,17.539-6.436,18.735-8.828l39.152-52.772l-25.363,58.728
			c-2.932,6.79-15.623,18.788-33.301,17.872c-12.218-0.633-9.825-0.509-15.8-0.819v10.512c-0.67,2.447,0.328-4.389-13.205,99.236
			c-0.367,2.808-0.254,5.658,0.332,8.428l25.82,121.927c2.864,13.528,16.153,22.169,29.676,19.304
			c13.526-2.864,22.168-16.151,19.304-29.676L375.48,364.032c7.726-59.155,4.758-36.431,7.048-53.971h19.443
			c-0.861,6.946-6.996,56.433-7.834,63.184c-0.531,4.281,0.054,8.627,1.697,12.615l45.583,110.636
			c5.266,12.783,19.896,18.877,32.682,13.61C486.883,504.839,492.977,490.207,487.71,477.424z"/>
	</g>
</g>
<g>
	<g>
		<path d="M396.287,0c-25.085,0-45.419,20.334-45.419,45.418c0,25.17,20.454,45.419,45.419,45.419
			c24.965,0,45.418-20.249,45.418-45.419C441.705,20.334,421.37,0,396.287,0z"/>
	</g>
</g>
<g>
	<g>
		<path d="M115.807,321.513h-4.648v8.732h4.648c2.629,0,4.225-1.08,4.225-4.366C120.032,322.593,118.435,321.513,115.807,321.513z"
			/>
	</g>
</g>
<g>
	<g>
		<polygon points="87.455,324.001 84.027,336.583 90.883,336.583 		"/>
	</g>
</g>
<g>
	<g>
		<path d="M142.751,321.513h-4.178v21.548h4.178c2.629,0,4.225-1.502,4.225-4.695v-12.16
			C146.976,323.016,145.38,321.513,142.751,321.513z"/>
	</g>
</g>
<g>
	<g>
		<path d="M216.629,284.399h-65.847v-22.527c0-4.588-3.72-8.307-8.307-8.307h-27.802c-4.587,0-8.307,3.719-8.307,8.307v22.527H40.52
			c-10.008,0-18.123,8.114-18.123,18.123v59.381c0,10.008,8.114,18.122,18.123,18.122h65.847v104.331H46.061
			c-7.634,0-13.821,6.189-13.821,13.821c0,7.633,6.188,13.821,13.821,13.821h165.027c7.634,0,13.821-6.189,13.821-13.821
			c0-7.634-6.188-13.821-13.821-13.821h-60.306V380.025h65.847c10.008,0,18.123-8.114,18.123-18.122v-59.381
			C234.751,292.512,226.638,284.399,216.629,284.399z M60.418,343.345c2.629,0,4.225-1.503,4.225-4.696v-1.596h-2.77
			c-1.408,0-2.207-1.362-2.207-2.817c0-1.362,0.799-2.817,2.207-2.817h7.887c1.408,0,2.207,1.08,2.207,2.3v4.929
			c0,8.075-5.07,11.08-11.549,11.08s-11.502-3.005-11.502-11.08v-12.441c0-8.075,5.117-11.079,11.267-11.079
			c6.713,0,11.784,3.38,11.784,9.342c0,2.817-1.174,3.474-3.662,3.474c-1.971,0-3.615-0.516-3.662-2.207
			c-0.048-1.689-0.188-4.225-4.178-4.225c-2.677,0-4.225,1.503-4.225,4.695v12.441C56.239,341.841,57.787,343.345,60.418,343.345z
			 M96.422,349.447c-1.174,0-2.113-0.376-2.395-1.362l-1.596-5.868h-9.906l-1.596,5.868c-0.281,0.985-1.221,1.362-2.395,1.362
			c-2.018,0-4.695-1.267-4.695-3.004c0-0.141,0.047-0.328,0.093-0.516l8.732-28.638c0.516-1.643,2.629-2.441,4.788-2.441
			c2.16,0,4.273,0.799,4.789,2.441l8.779,28.638c0.047,0.188,0.094,0.375,0.094,0.516C101.117,348.18,98.441,349.447,96.422,349.447
			z M123.037,349.729c-0.939,0-1.832-0.375-2.347-1.362l-6.432-12.489h-3.099v11.315c0,1.503-1.831,2.254-3.662,2.254
			c-1.832,0-3.662-0.751-3.662-2.254v-29.859c0-1.174,0.892-2.206,2.254-2.206h9.719c6.432,0,11.549,2.395,11.549,10.046
			c0,5.258-2.394,8.264-5.681,9.531l5.728,10.376c0.188,0.281,0.234,0.611,0.234,0.845
			C127.638,347.758,125.196,349.729,123.037,349.729z M154.3,338.368c0,8.075-5.07,11.08-11.549,11.08h-8.309
			c-1.925,0-3.193-1.032-3.193-2.207v-29.906c0-1.174,1.267-2.206,3.193-2.206h8.309c6.48,0,11.549,3.004,11.549,11.079V338.368z
			 M173.309,329.449v-0.002c1.408,0,2.207,1.362,2.207,2.865c0,1.267-0.656,2.77-2.207,2.77h-7.042v7.98h12.582
			c1.408,0,2.207,1.503,2.207,3.24c0,1.503-0.656,3.147-2.207,3.147h-16.714c-1.596,0-3.193-0.751-3.193-2.254v-29.812
			c0-1.502,1.596-2.253,3.193-2.253h16.714c1.549,0,2.207,1.643,2.207,3.145c0,1.737-0.799,3.24-2.207,3.24h-12.582v7.934H173.309z
			 M208.234,347.194c0,1.503-1.832,2.254-3.662,2.254c-1.69,0-3.192-0.329-4.085-1.973l-8.92-16.244v15.963
			c0,1.503-1.832,2.254-3.662,2.254c-1.831,0-3.662-0.751-3.662-2.254v-29.812c0-1.548,1.832-2.253,3.662-2.253
			c2.629,0,3.615,0.234,5.399,3.661l7.606,14.508v-15.963c0-1.549,1.832-2.206,3.662-2.206c1.83,0,3.662,0.656,3.662,2.206V347.194z
			"/>
	</g>
</g>
</svg>