<svg width="565" height="420" viewBox="0 0 565 420" fill="none" xmlns="http://www.w3.org/2000/svg">
<path d="M564.336 369.09H0.667969V369.372H564.336V369.09Z" fill="#E6E6E6"/>
<path d="M88.8478 381.67H58.8945V381.952H88.8478V381.67Z" fill="#E6E6E6"/>
<path d="M99.6832 376.033H73.8672V376.315H99.6832V376.033Z" fill="#E6E6E6"/>
<path d="M367.517 376.867H298.242V377.149H367.517V376.867Z" fill="#E6E6E6"/>
<path d="M390.629 376.867H374.012V377.149H390.629V376.867Z" fill="#E6E6E6"/>
<path d="M485.102 378.797H430.246V379.079H485.102V378.797Z" fill="#E6E6E6"/>
<path d="M218.435 383.293H120.773V383.575H218.435V383.293Z" fill="#E6E6E6"/>
<path d="M502.997 378.797H495.004V379.079H502.997V378.797Z" fill="#E6E6E6"/>
<path d="M267.845 318.81H50.168C48.4627 318.807 46.8283 318.128 45.6236 316.921C44.4188 315.714 43.7422 314.079 43.7422 312.373V6.38072C43.757 4.68523 44.4402 3.06407 45.6434 1.86937C46.8465 0.674663 48.4725 0.00290445 50.168 0H267.845C269.552 0 271.19 0.678191 272.397 1.88538C273.604 3.09257 274.282 4.72986 274.282 6.43708V312.373C274.282 314.081 273.604 315.718 272.397 316.925C271.19 318.132 269.552 318.81 267.845 318.81ZM50.168 0.225468C48.5375 0.228454 46.9748 0.878268 45.8229 2.03228C44.671 3.18629 44.024 4.7502 44.024 6.38072V312.373C44.024 314.004 44.671 315.568 45.8229 316.722C46.9748 317.876 48.5375 318.526 50.168 318.529H267.845C269.477 318.526 271.041 317.876 272.194 316.723C273.348 315.569 273.998 314.005 274 312.373V6.38072C273.998 4.74916 273.348 3.18528 272.194 2.03159C271.041 0.877901 269.477 0.228448 267.845 0.225468H50.168Z" fill="#E6E6E6"/>
<path d="M511.7 318.81H294.011C292.305 318.807 290.669 318.128 289.463 316.922C288.256 315.715 287.577 314.08 287.574 312.373V6.38072C287.592 4.68421 288.278 3.06306 289.483 1.86866C290.688 0.674269 292.315 0.00287278 294.011 0H511.7C513.393 0.00586721 515.016 0.678937 516.217 1.87332C517.418 3.06771 518.099 4.68718 518.114 6.38072V312.373C518.114 314.077 517.439 315.711 516.237 316.917C515.035 318.124 513.403 318.804 511.7 318.81ZM294.011 0.225468C292.38 0.228448 290.816 0.877901 289.662 2.03159C288.508 3.18528 287.859 4.74916 287.856 6.38072V312.373C287.859 314.005 288.508 315.569 289.662 316.723C290.816 317.876 292.38 318.526 294.011 318.529H511.7C513.331 318.526 514.895 317.876 516.049 316.723C517.203 315.569 517.852 314.005 517.855 312.373V6.38072C517.852 4.74916 517.203 3.18528 516.049 2.03159C514.895 0.877901 513.331 0.228448 511.7 0.225468H294.011Z" fill="#E6E6E6"/>
<path d="M173.633 175.213C176.771 161.599 168.278 148.018 154.664 144.88C141.049 141.742 127.469 150.235 124.331 163.849C121.192 177.463 129.685 191.044 143.299 194.182C156.914 197.32 170.494 188.828 173.633 175.213Z" fill="#F0F0F0"/>
<path d="M321.488 164.299C318.343 157.535 320.845 152.631 328.556 152.631C333.381 152.631 339.379 154.547 345.218 157.647C345.884 155.878 347.732 154.818 350.72 154.818C355.985 154.818 363.233 158.098 368.915 162.709C370.669 161.536 372.735 160.919 374.845 160.939C379.884 160.736 385.972 162.619 391.27 165.685C391.581 165.391 391.947 165.161 392.348 165.01C392.749 164.859 393.176 164.79 393.604 164.806C395.283 164.862 396.932 165.27 398.444 166.002C399.957 166.734 401.299 167.774 402.386 169.056C402.51 169.203 402.611 169.361 402.724 169.507H317.576C314.882 167.106 317.858 164.423 321.488 164.299Z" fill="#F5F5F5"/>
<path d="M155.609 216.64L225.369 200.666V369.09H155.609V216.64Z" fill="#FAFAFA"/>
<path d="M261.566 200.666H225.367V369.09H261.566V200.666Z" fill="#EBEBEB"/>
<path d="M249.74 369.09H309.117V160.386H249.74L249.74 369.09Z" fill="#FAFAFA"/>
<path d="M339.927 160.387H309.117V369.09H339.927V160.387Z" fill="#EBEBEB"/>
<path d="M257.733 160.387H309.117V144.875H257.733V160.387Z" fill="#FAFAFA"/>
<path d="M257.733 160.387H309.117V156.903H257.733V160.387Z" fill="#EBEBEB"/>
<path d="M331.946 144.873H309.117V160.385H331.946V144.873Z" fill="#EBEBEB"/>
<path d="M265.714 144.873H309.105V129.361H265.714V144.873Z" fill="#FAFAFA"/>
<path d="M265.714 144.873H309.105V141.39H265.714V144.873Z" fill="#EBEBEB"/>
<path d="M323.953 129.373H309.117V144.885H323.953V129.373Z" fill="#EBEBEB"/>
<path d="M296.277 107.705H293.391V129.372H296.277V107.705Z" fill="#EBEBEB"/>
<path d="M330.092 369.09H373.449V187.51H330.092V369.09Z" fill="#FAFAFA"/>
<path d="M395.955 187.51H373.453V369.09H395.955V187.51Z" fill="#EBEBEB"/>
<path d="M384.707 224.34L417.58 252.523V369.09H384.707V224.34Z" fill="#FAFAFA"/>
<path d="M434.65 252.523H417.582V369.09H434.65V252.523Z" fill="#EBEBEB"/>
<path d="M434.648 252.523H417.58L384.707 224.34H401.764L434.648 252.523Z" fill="#EBEBEB"/>
<path d="M496.578 369.089C497.062 366.381 498.213 363.836 499.927 361.685C501.642 359.534 503.865 357.843 506.397 356.768C504.174 360.474 503.165 364.782 503.511 369.089H496.578Z" fill="#EBEBEB"/>
<path d="M210.69 369.089C210.207 366.381 209.056 363.836 207.341 361.685C205.627 359.534 203.403 357.843 200.871 356.768C203.094 360.474 204.103 364.782 203.757 369.089H210.69Z" fill="#EBEBEB"/>
<path d="M67.0329 369.088C67.0329 369.088 66.4805 354.659 60.4492 350.465C62.9181 356.361 62.3882 369.088 62.3882 369.088H67.0329Z" fill="#EBEBEB"/>
<path d="M64.7695 369.089C64.7695 369.089 65.3332 360.804 71.3644 358.402C68.8843 361.784 69.4254 369.089 69.4254 369.089H64.7695Z" fill="#EBEBEB"/>
<path d="M215.853 369.088C215.853 369.088 215.244 355.425 204.309 350.465C209.201 357.477 208.919 369.088 208.919 369.088H215.853Z" fill="#EBEBEB"/>
<path d="M106.277 277.109L114.236 333.251L115.025 338.865H120.132L119.332 333.251L111.373 277.109H106.277Z" fill="#E0E0E0"/>
<path d="M324.969 277.109L332.928 333.251L333.717 338.865H338.824L338.023 333.251L330.064 277.109H324.969Z" fill="#E0E0E0"/>
<path d="M138.961 333.252L139.761 338.866L144.056 369.135H149.163L144.868 338.866L144.079 333.252H138.961Z" fill="#E6E6E6"/>
<path d="M357.664 333.252L358.464 338.866L362.748 369.135H367.844L363.56 338.866L362.771 333.252H357.664Z" fill="#E6E6E6"/>
<path d="M331.894 333.252L331.093 338.866L326.798 369.135H321.691L325.987 338.866L326.776 333.252H331.894Z" fill="#E6E6E6"/>
<path d="M113.188 333.252L112.387 338.866L108.103 369.135H103.008L107.292 338.866L108.092 333.252H113.188Z" fill="#E6E6E6"/>
<path d="M98.9379 284.923H332.668L328.328 269.287H94.5977L98.9379 284.923Z" fill="#F5F5F5"/>
<path d="M104.27 284.923H338.012L333.671 269.287H99.9297L104.27 284.923Z" fill="#E6E6E6"/>
<path d="M102.195 304.414H335.926L331.585 288.789H97.8438L102.195 304.414Z" fill="#F5F5F5"/>
<path d="M107.532 304.414H341.262L336.922 288.789H103.191L107.532 304.414Z" fill="#E6E6E6"/>
<path d="M105.442 323.939H339.184L334.843 308.314H101.102L105.442 323.939Z" fill="#F5F5F5"/>
<path d="M110.782 323.939H344.512L340.172 308.314H106.441L110.782 323.939Z" fill="#E6E6E6"/>
<path d="M365.791 333.252H133.086V338.866H365.791V333.252Z" fill="#E6E6E6"/>
<path d="M133.084 333.252H101.102V338.866H133.084V333.252Z" fill="#F5F5F5"/>
<path d="M83.5272 104.245C79.1644 94.8209 82.6366 88.1133 93.3012 88.1133C99.9863 88.1133 108.272 90.7512 116.355 95.0464C117.268 92.6001 119.839 91.1345 123.965 91.1345C131.247 91.1345 141.269 95.6439 149.138 102.081C151.56 100.456 154.418 99.6031 157.334 99.6347C164.301 99.3415 172.733 101.957 180.061 106.196C180.932 105.379 182.092 104.941 183.285 104.978C187.298 104.809 192.732 107.447 195.427 110.852C195.596 111.066 195.742 111.269 195.889 111.483H78.116C74.3958 108.135 78.5106 104.415 83.5272 104.245Z" fill="#F5F5F5"/>
<path d="M392.884 123.68C393.181 123.663 393.478 123.663 393.775 123.68C393.504 120.602 395.094 118.63 398.509 118.63C401.545 118.835 404.483 119.783 407.066 121.392C406.187 115.417 409.016 111.527 415.397 111.527C420.549 111.527 427.076 114.053 433.524 118.179C434.088 115.834 435.982 114.425 439.161 114.425C444.798 114.425 452.689 118.776 459.115 124.909C460.803 123.374 463.011 122.536 465.293 122.564C470.625 122.282 477.254 124.819 483.127 128.855C483.41 128.484 483.778 128.188 484.2 127.992C484.622 127.796 485.086 127.705 485.551 127.727C488.471 127.581 492.484 129.824 494.829 132.823H388.194C385.68 128.178 387.676 124.199 392.884 123.68Z" fill="#F5F5F5"/>
<path d="M213.486 55.4979C213.779 55.4808 214.072 55.4808 214.365 55.4979C214.095 52.409 215.695 50.4475 219.1 50.4475C222.139 50.6509 225.082 51.5995 227.668 53.2094C226.788 47.2233 229.607 43.334 235.987 43.334C241.151 43.334 247.667 45.8705 254.115 49.9965C254.679 47.6517 256.573 46.2425 259.752 46.2425C265.388 46.2425 273.28 50.5827 279.705 56.7267C281.397 55.1963 283.602 54.3556 285.883 54.3706C291.216 54.1 297.844 56.6253 303.718 60.6611C304.001 60.2917 304.369 59.9962 304.791 59.7999C305.213 59.6036 305.676 59.5123 306.141 59.5338C309.061 59.376 313.086 61.6194 315.419 64.6294H208.785C206.282 59.996 208.277 56.0165 213.486 55.4979Z" fill="#F5F5F5"/>
<path d="M479.526 349.587L459.493 329.555H443.891L461.206 346.871H456.449V369.09H474.768V349.587H479.526Z" fill="#EBEBEB"/>
<path d="M463.925 349.587L443.892 329.555L423.859 349.587H431.334V369.09H456.451V349.587H463.925Z" fill="#FAFAFA"/>
<path d="M282.505 419.999C403.223 419.999 501.084 414.286 501.084 407.238C501.084 400.19 403.223 394.477 282.505 394.477C161.787 394.477 63.9258 400.19 63.9258 407.238C63.9258 414.286 161.787 419.999 282.505 419.999Z" fill="#F5F5F5"/>
<path d="M452.912 59.4322L422.868 29.3887H399.465L425.439 55.3625H418.291V88.6753H445.765V59.4322H452.912Z" fill="#C13B44"/>
<path opacity="0.4" d="M452.912 59.4322L422.868 29.3887H399.465L425.439 55.3625H418.291V88.6753H445.765V59.4322H452.912Z" fill="white"/>
<path d="M429.513 59.4322L399.469 29.3887L369.426 59.4322H380.643V88.6753H418.296V59.4322H429.513Z" fill="#C13B44"/>
<path opacity="0.7" d="M429.513 59.4322L399.469 29.3887L369.426 59.4322H380.643V88.6753H418.296V59.4322H429.513Z" fill="white"/>
<path d="M472.259 179.359L442.216 149.305H418.812L444.786 175.278H437.639V208.591H465.112V179.359H472.259Z" fill="#C13B44"/>
<path opacity="0.4" d="M472.259 179.359L442.216 149.305H418.812L444.786 175.278H437.639V208.591H465.112V179.359H472.259Z" fill="white"/>
<path d="M448.856 179.359L418.813 149.305L388.77 179.359H399.975V208.591H437.639V179.359H448.856Z" fill="#C13B44"/>
<path opacity="0.7" d="M448.856 179.359L418.813 149.305L388.77 179.359H399.975V208.591H437.639V179.359H448.856Z" fill="white"/>
<path d="M337.045 210.596L306.99 180.553H283.598L309.571 206.515H302.424V239.839H329.897V210.596H337.045Z" fill="#C13B44"/>
<path opacity="0.4" d="M337.045 210.596L306.99 180.553H283.598L309.571 206.515H302.424V239.839H329.897V210.596H337.045Z" fill="white"/>
<path d="M313.642 210.596L283.598 180.553L253.555 210.596H264.76V239.828H302.425V210.596H313.642Z" fill="#C13B44"/>
<path opacity="0.7" d="M313.642 210.596L283.598 180.553L253.555 210.596H264.76V239.828H302.425V210.596H313.642Z" fill="white"/>
<path d="M335.251 109.644H319.085L316.774 107.344L298.004 72.3965L335.251 109.644Z" fill="#2F54C6"/>
<path d="M319.029 143.588H353.086V102.282H319.029V143.588Z" fill="#C13B44"/>
<path opacity="0.3" d="M319.029 143.588H353.086V102.282H319.029V143.588Z" fill="black"/>
<path d="M332.939 107.344H361.956L324.698 70.0859H295.691L332.939 107.344Z" fill="#C13B44"/>
<path opacity="0.3" d="M332.939 107.344H361.956L324.698 70.0859H295.691L332.939 107.344Z" fill="black"/>
<path d="M319.035 96.8934V143.588H272.352V96.8934L295.699 74.2227L295.935 74.4594L298.01 76.4661L319.035 96.8934Z" fill="#C13B44"/>
<path opacity="0.3" d="M298.01 72.3965V88.5625L276.917 109.644H272.352V98.0546L295.935 74.4595L298.01 72.3965Z" fill="black"/>
<path d="M332.939 107.344H316.773L295.691 86.2519V70.0859L332.939 107.344Z" fill="#C13B44"/>
<path d="M258.434 107.344H274.6L295.692 86.2519V70.0859L258.434 107.344Z" fill="#C13B44"/>
<path d="M253.187 154.874C243.571 162.675 233.651 170.014 223.674 177.229C213.697 184.444 203.585 191.456 193.439 198.412C183.293 205.367 172.977 212.064 162.617 218.704C157.465 222.086 152.234 225.287 147.037 228.579C144.474 230.346 141.642 231.686 138.65 232.547C137.028 232.985 135.366 233.257 133.69 233.359C131.806 233.515 129.909 233.412 128.053 233.055C126.6 232.759 125.219 232.179 123.99 231.349C122.761 230.519 121.708 229.455 120.891 228.217C120.075 226.979 119.51 225.592 119.23 224.136C118.95 222.679 118.96 221.182 119.26 219.73C119.26 219.56 119.339 219.346 119.384 219.166C119.89 217.341 120.649 215.595 121.639 213.98C122.471 212.542 123.45 211.194 124.558 209.956C126.647 207.646 129.094 205.689 131.807 204.161C137.049 200.937 142.246 197.656 147.511 194.5C158.006 188.085 168.603 181.851 179.257 175.696C189.91 169.541 200.676 163.577 211.532 157.76C222.389 151.943 233.335 146.272 244.563 141.042C246.375 140.256 248.408 140.147 250.293 140.734C252.179 141.322 253.79 142.567 254.835 144.242C255.879 145.918 256.288 147.913 255.985 149.864C255.683 151.815 254.69 153.593 253.187 154.874Z" fill="#C13B44"/>
<path d="M253.187 154.874C243.571 162.675 233.651 170.014 223.674 177.229C213.697 184.444 203.585 191.456 193.439 198.412C183.293 205.367 172.977 212.064 162.617 218.704C157.465 222.086 152.234 225.287 147.037 228.579C144.474 230.346 141.642 231.686 138.65 232.547C137.028 232.985 135.366 233.257 133.69 233.359C131.806 233.515 129.909 233.412 128.053 233.055C126.6 232.759 125.219 232.179 123.99 231.349C122.761 230.519 121.708 229.455 120.891 228.217C120.075 226.979 119.51 225.592 119.23 224.136C118.95 222.679 118.96 221.182 119.26 219.73C119.26 219.56 119.339 219.346 119.384 219.166C119.89 217.341 120.649 215.595 121.639 213.98C122.471 212.542 123.45 211.194 124.558 209.956C126.647 207.646 129.094 205.689 131.807 204.161C137.049 200.937 142.246 197.656 147.511 194.5C158.006 188.085 168.603 181.851 179.257 175.696C189.91 169.541 200.676 163.577 211.532 157.76C222.389 151.943 233.335 146.272 244.563 141.042C246.375 140.256 248.408 140.147 250.293 140.734C252.179 141.322 253.79 142.567 254.835 144.242C255.879 145.918 256.288 147.913 255.985 149.864C255.683 151.815 254.69 153.593 253.187 154.874Z" fill="#C13B44"/>
<path opacity="0.5" d="M253.187 154.874C243.571 162.675 233.651 170.014 223.674 177.229C213.697 184.444 203.585 191.456 193.439 198.412C183.293 205.367 172.977 212.064 162.617 218.704C157.465 222.086 152.234 225.287 147.037 228.579C144.474 230.346 141.642 231.686 138.65 232.547C137.028 232.985 135.366 233.257 133.69 233.359C131.806 233.515 129.909 233.412 128.053 233.055C126.6 232.759 125.219 232.179 123.99 231.349C122.761 230.519 121.708 229.455 120.891 228.217C120.075 226.979 119.51 225.592 119.23 224.136C118.95 222.679 118.96 221.182 119.26 219.73C119.26 219.56 119.339 219.346 119.384 219.166C119.89 217.341 120.649 215.595 121.639 213.98C122.471 212.542 123.45 211.194 124.558 209.956C126.647 207.646 129.094 205.689 131.807 204.161C137.049 200.937 142.246 197.656 147.511 194.5C158.006 188.085 168.603 181.851 179.257 175.696C189.91 169.541 200.676 163.577 211.532 157.76C222.389 151.943 233.335 146.272 244.563 141.042C246.375 140.256 248.408 140.147 250.293 140.734C252.179 141.322 253.79 142.567 254.835 144.242C255.879 145.918 256.288 147.913 255.985 149.864C255.683 151.815 254.69 153.593 253.187 154.874Z" fill="white"/>
<path d="M211.588 397.533L220.787 395.402L216.48 373.949L207.281 376.08L211.588 397.533Z" fill="#EBB376"/>
<path d="M149.561 141.177C148.287 145.686 147.058 150.433 145.886 155.077C144.713 159.722 143.631 164.434 142.729 169.124C142.233 171.457 141.805 173.847 141.433 176.046C141.061 178.244 140.847 180.555 140.711 182.866C140.593 185.164 140.593 187.467 140.711 189.765C140.711 190.893 140.858 192.02 140.971 193.215C141.083 194.41 141.286 195.549 141.444 196.529L136.935 198.232C136.343 197.02 135.835 195.77 135.413 194.489C134.972 193.258 134.596 192.005 134.286 190.735C133.669 188.2 133.247 185.623 133.023 183.024C132.814 180.399 132.777 177.763 132.91 175.132C133.091 172.472 133.406 170.026 133.756 167.545C134.466 162.596 135.379 157.693 136.461 152.89C137.544 148.088 138.716 143.251 140.238 138.393L149.561 141.177Z" fill="#EBB376"/>
<path d="M136.297 142.733L145.778 150.286L151.471 154.795C151.471 154.795 152.068 153.206 152.79 150.929C154.165 146.532 155.958 139.565 154.718 136.363C152.767 131.29 149.081 126.713 144.414 127.728C140.457 128.619 136.297 142.733 136.297 142.733Z" fill="#263238"/>
<path d="M149.396 397.601H158.832L158.099 375.73H148.652L149.396 397.601Z" fill="#EBB376"/>
<path d="M216.48 373.959L218.791 385.447L209.502 387.138L207.27 376.09L216.48 373.959Z" fill="#DA9D62"/>
<path d="M148.652 375.73H158.099L158.471 387.004H149.024L148.652 375.73Z" fill="#DA9D62"/>
<path d="M179.427 185.018C179.427 185.018 173.949 249.829 168.267 286.354C163.679 315.857 160.049 384.827 160.049 384.827H147.219C147.219 384.827 141.087 318.224 143.42 289.004C149.316 215.174 138.911 202.097 151.255 184.984L179.427 185.018Z" fill="#C13B44"/>
<path opacity="0.6" d="M179.427 185.018C179.427 185.018 173.949 249.829 168.267 286.354C163.679 315.857 160.049 384.827 160.049 384.827H147.219C147.219 384.827 141.087 318.224 143.42 289.004C149.316 215.174 138.911 202.097 151.255 184.984L179.427 185.018Z" fill="black"/>
<path d="M137.557 197.499L131.988 201.287L132.777 204.522C132.777 204.522 144.378 198.502 141.278 196.09L137.557 197.499Z" fill="#EBB376"/>
<path d="M162.808 398.153C161.967 398.132 161.132 398.018 160.316 397.815C160.275 397.802 160.237 397.779 160.208 397.747C160.178 397.716 160.157 397.677 160.147 397.634C160.14 397.591 160.146 397.547 160.164 397.507C160.182 397.467 160.212 397.433 160.249 397.409C160.576 397.195 163.428 395.346 164.533 395.842C164.658 395.897 164.766 395.984 164.845 396.095C164.925 396.206 164.973 396.337 164.984 396.473C165.028 396.686 165.017 396.906 164.951 397.114C164.886 397.321 164.769 397.508 164.612 397.657C164.089 398.033 163.449 398.209 162.808 398.153ZM160.948 397.488C162.594 397.826 163.834 397.758 164.33 397.33C164.433 397.227 164.509 397.1 164.551 396.96C164.592 396.82 164.597 396.672 164.566 396.53C164.562 396.47 164.542 396.412 164.509 396.363C164.475 396.313 164.429 396.274 164.375 396.248C163.777 395.989 162.12 396.823 160.948 397.488Z" fill="#C13B44"/>
<path d="M160.374 397.815C160.337 397.827 160.298 397.827 160.261 397.815C160.228 397.795 160.201 397.766 160.181 397.733C160.161 397.7 160.15 397.662 160.148 397.623C160.148 397.499 160.148 394.782 161.186 393.869C161.311 393.751 161.461 393.664 161.625 393.613C161.789 393.562 161.963 393.549 162.133 393.576C162.31 393.577 162.482 393.64 162.62 393.753C162.757 393.865 162.852 394.022 162.888 394.196C163.102 395.323 161.377 397.308 160.487 397.815C160.45 397.825 160.411 397.825 160.374 397.815ZM161.975 393.993C161.792 393.998 161.617 394.065 161.479 394.185C160.887 395.063 160.584 396.103 160.611 397.161C161.501 396.439 162.583 394.906 162.448 394.264C162.448 394.162 162.369 394.027 162.076 393.993H161.975Z" fill="#C13B44"/>
<path d="M221.622 393.982C221.579 393.979 221.539 393.966 221.504 393.942C221.469 393.919 221.441 393.887 221.422 393.849C221.404 393.811 221.396 393.769 221.399 393.727C221.403 393.685 221.417 393.644 221.441 393.61C221.746 393.249 224.372 390.16 225.714 390.16H225.804C225.926 390.169 226.044 390.21 226.145 390.279C226.246 390.349 226.327 390.444 226.379 390.555C226.47 390.729 226.517 390.922 226.517 391.118C226.517 391.315 226.47 391.508 226.379 391.682C225.793 392.922 223.143 393.621 221.61 393.937L221.622 393.982ZM225.702 390.6C224.97 390.6 223.346 392.133 222.23 393.384C224.293 392.9 225.691 392.257 226.018 391.524C226.084 391.409 226.119 391.279 226.119 391.147C226.119 391.014 226.084 390.884 226.018 390.769C225.999 390.723 225.968 390.684 225.928 390.654C225.889 390.624 225.842 390.606 225.793 390.6H225.702Z" fill="#C13B44"/>
<path d="M221.617 393.982C221.579 393.976 221.544 393.959 221.516 393.933C221.488 393.906 221.468 393.872 221.459 393.835C221.459 393.734 220.648 391.299 221.369 389.934C221.468 389.735 221.608 389.558 221.778 389.414C221.949 389.27 222.147 389.164 222.361 389.1C222.959 388.92 223.252 389.1 223.376 389.359C223.951 390.284 222.677 393.012 221.831 393.869C221.809 393.905 221.777 393.935 221.74 393.955C221.702 393.974 221.66 393.984 221.617 393.982ZM222.745 389.472C222.659 389.459 222.571 389.459 222.485 389.472C222.328 389.517 222.181 389.595 222.055 389.7C221.929 389.804 221.826 389.934 221.752 390.081C221.425 391.108 221.425 392.211 221.752 393.238C222.553 392.11 223.331 390.092 222.993 389.54C222.955 389.495 222.904 389.463 222.846 389.451C222.789 389.439 222.729 389.446 222.677 389.472H222.745Z" fill="#C13B44"/>
<path d="M161.195 104.922C162.322 110.559 164.577 121.832 160.688 125.608C160.688 125.608 162.221 131.245 172.637 131.245C184.08 131.245 178.105 125.608 178.105 125.608C171.859 124.12 172.017 119.487 173.111 115.124L161.195 104.922Z" fill="#EBB376"/>
<path d="M183.947 92.904C183.854 92.9057 183.764 92.8781 183.688 92.8251C183.639 92.7904 183.599 92.7466 183.567 92.696C183.536 92.6454 183.515 92.5892 183.506 92.5306C183.496 92.4719 183.499 92.4119 183.512 92.3541C183.526 92.2964 183.551 92.2419 183.586 92.1938C183.993 91.6145 184.531 91.1391 185.156 90.8062C185.78 90.4732 186.475 90.2921 187.182 90.2773C187.288 90.2943 187.385 90.3484 187.454 90.43C187.524 90.5116 187.562 90.6154 187.562 90.7226C187.562 90.8299 187.524 90.9337 187.454 91.0153C187.385 91.0969 187.288 91.151 187.182 91.1679C186.619 91.1834 186.068 91.3325 185.574 91.603C185.08 91.8736 184.658 92.2577 184.342 92.7237C184.297 92.7853 184.237 92.8343 184.168 92.8659C184.099 92.8975 184.023 92.9107 183.947 92.904Z" fill="#263238"/>
<path d="M186.452 98.2812C187.06 100.047 187.91 101.72 188.978 103.253C188.577 103.513 188.124 103.683 187.651 103.751C187.178 103.819 186.696 103.784 186.238 103.647L186.452 98.2812Z" fill="#DE5753"/>
<path d="M185.816 96.9515C185.816 97.7181 186.166 98.3494 186.662 98.3607C187.158 98.372 187.586 97.7857 187.62 97.0192C187.654 96.2526 187.271 95.6325 186.775 95.61C186.279 95.5874 185.85 96.1962 185.816 96.9515Z" fill="#263238"/>
<path d="M186.551 95.6443L188.4 95.1934C188.4 95.1934 187.408 96.58 186.551 95.6443Z" fill="#263238"/>
<path d="M159.62 396.506H149.012C148.828 396.499 148.649 396.562 148.509 396.681C148.369 396.8 148.279 396.967 148.256 397.149L147.05 405.536C147.024 405.749 147.044 405.964 147.109 406.168C147.173 406.372 147.28 406.56 147.424 406.72C147.567 406.879 147.742 407.005 147.938 407.091C148.134 407.177 148.347 407.219 148.561 407.216C152.258 407.16 154.039 406.934 158.707 406.934C161.581 406.934 165.764 407.239 169.732 407.239C173.7 407.239 173.903 403.316 172.257 402.966C164.862 401.365 163.689 399.178 161.198 397.081C160.754 396.713 160.197 396.51 159.62 396.506Z" fill="#263238"/>
<path d="M220.607 392.979L210.81 397.049C210.641 397.114 210.501 397.24 210.418 397.402C210.335 397.565 210.314 397.751 210.36 397.928L212.456 406.146C212.516 406.351 212.618 406.541 212.756 406.704C212.895 406.866 213.066 406.998 213.259 407.089C213.452 407.181 213.662 407.231 213.875 407.235C214.088 407.24 214.3 407.199 214.497 407.116C217.879 405.639 219.457 404.759 223.764 402.967C226.413 401.84 232.016 399.867 235.679 398.345C239.343 396.823 238.024 393.125 236.367 393.43C228.927 394.805 225.387 393.892 222.287 392.911C221.736 392.736 221.142 392.76 220.607 392.979Z" fill="#263238"/>
<path d="M199.275 137.299C201.112 141.628 203.096 146.058 205.103 150.365C206.118 152.529 207.174 154.656 208.271 156.745C209.398 158.842 210.526 160.894 211.653 162.856C212.25 163.825 212.848 164.795 213.468 165.685L214.392 166.97C214.582 167.239 214.797 167.488 215.035 167.714C216.264 168.782 217.798 169.437 219.42 169.586C223.265 170.138 228.09 169.36 232.407 168.199L234.414 172.539C233.273 173.225 232.091 173.838 230.874 174.377C229.677 174.934 228.445 175.416 227.188 175.82C224.536 176.722 221.759 177.198 218.958 177.229C217.397 177.243 215.841 177.038 214.336 176.62C212.666 176.161 211.095 175.396 209.703 174.366C208.99 173.824 208.329 173.216 207.73 172.551C207.223 171.976 206.851 171.491 206.4 170.95C205.554 169.89 204.799 168.819 204.043 167.748C201.234 163.521 198.704 159.115 196.468 154.558C194.213 150.049 192.184 145.54 190.312 140.872L199.275 137.299Z" fill="#EBB376"/>
<path d="M231.439 173.068L241.742 171.445L239.003 165.605C239.003 165.605 231.021 166.992 229.488 170.6L231.439 173.068Z" fill="#EBB376"/>
<path d="M241.732 166.89L240.605 164.398L239.004 165.605L241.732 171.444V166.89Z" fill="#EBB376"/>
<path d="M160.343 93.3317C160.546 102.7 160.433 106.668 164.965 111.651C171.729 119.148 183.251 116.848 185.844 107.604C188.177 99.2841 187.444 85.3615 178.448 81.2805C176.467 80.3723 174.287 79.9855 172.115 80.1567C169.943 80.328 167.85 81.0517 166.036 82.2592C164.222 83.4666 162.747 85.1176 161.751 87.0556C160.754 88.9935 160.27 91.1539 160.343 93.3317Z" fill="#EBB376"/>
<path d="M152.791 76.4107C162.418 69.4325 173.173 73.3894 179.058 78.2144C185.213 83.2649 184.232 92.9712 180.467 96.9845C180.857 97.5781 181.116 98.2486 181.225 98.9508C181.334 99.6529 181.291 100.37 181.098 101.054C181.573 104.058 180.913 107.13 179.246 109.673C177.578 112.216 175.023 114.046 172.08 114.808L171.55 114.943C159.521 117.806 145.621 109.667 143.524 97.4918C142.25 90.0627 144.279 82.5659 152.791 76.4107Z" fill="#263238"/>
<path d="M178.31 97.6726C178.464 99.4388 179.22 101.098 180.452 102.374C182.12 104.098 183.834 103.106 184.138 101.066C184.398 99.2283 183.845 96.1168 181.816 95.1361C179.787 94.1553 178.163 95.587 178.31 97.6726Z" fill="#EBB376"/>
<path opacity="0.3" d="M166.384 215.322C165.313 234.69 169.98 249.311 172.111 257.868C173.621 245.219 175.008 232.018 176.169 220.372C172.19 207.183 167.162 200.746 166.384 215.322Z" fill="black"/>
<path d="M161.818 385.076H145.415L144.547 379.326L161.908 378.74L161.818 385.076Z" fill="#C13B44"/>
<path opacity="0.3" d="M145.777 150.286L151.47 154.795C151.47 154.795 152.068 153.206 152.789 150.928L149.407 134.188L145.777 150.286Z" fill="black"/>
<path d="M158.152 77.9789C161.095 74.7209 171.094 69.7494 179.673 73.6499C182.12 74.7646 184.194 76.5613 185.646 78.8248C187.097 81.0883 187.865 83.7224 187.858 86.4114L180.124 91.5971L158.152 77.9789Z" fill="#263238"/>
<path d="M150.262 86.5339C154.512 83.0505 159.281 70.4243 150.262 74.8209C141.244 79.2175 138.504 96.1727 150.262 86.5339Z" fill="#C13B44"/>
<path d="M151.22 78.4411C153.057 73.075 140.939 62.3991 132.765 72.5451C124.592 82.6912 145.933 93.8856 151.22 78.4411Z" fill="#263238"/>
<path d="M170.179 85.9251C163.133 82.9263 159.627 71.5628 171.723 71.8897C183.819 72.2167 183.47 91.5956 170.179 85.9251Z" fill="#C13B44"/>
<path d="M167.905 80.0405C163.633 74.7082 168.356 60.9998 180.61 65.3851C192.865 69.7705 177.713 92.227 167.905 80.0405Z" fill="#263238"/>
<path d="M189.561 185.018C189.561 185.018 200.203 257.731 203.946 286.342C207.835 316.048 219.199 382.651 219.199 382.651L206.572 384.579C206.572 384.579 186.619 321.053 181.061 292.137C174.996 260.628 163.023 185.04 163.023 185.04L189.561 185.018Z" fill="#C13B44"/>
<path opacity="0.6" d="M189.561 185.018C189.561 185.018 200.203 257.731 203.946 286.342C207.835 316.048 219.199 382.651 219.199 382.651L206.572 384.579C206.572 384.579 186.619 321.053 181.061 292.137C174.996 260.628 163.023 185.04 163.023 185.04L189.561 185.018Z" fill="black"/>
<path d="M194.067 128.032C198.757 129.159 204.54 142.056 204.54 142.056L193.368 156.373C193.368 156.373 181.824 140.038 183.369 135.055C184.97 129.858 188.374 126.645 194.067 128.032Z" fill="#263238"/>
<path d="M178.785 127.446C180.33 127.672 178.898 124.143 178.255 123.771C176.779 122.892 157.963 121.122 158.178 123.106C158.291 124.29 158.8 125.402 159.621 126.263C160.466 126.826 165.257 125.27 178.785 127.446Z" fill="#C13B44"/>
<path opacity="0.6" d="M178.785 127.446C180.33 127.672 178.898 124.143 178.255 123.771C176.779 122.892 157.963 121.122 158.178 123.106C158.291 124.29 158.8 125.402 159.621 126.263C160.466 126.826 165.257 125.27 178.785 127.446Z" fill="white"/>
<path d="M194.072 128.032C194.072 128.032 198.581 129.61 189.562 185.019H151.233C151.875 169.416 151.898 159.789 144.469 127.75C149.836 126.642 155.276 125.927 160.747 125.608C166.546 125.191 172.367 125.191 178.165 125.608C185.549 126.262 194.072 128.032 194.072 128.032Z" fill="#263238"/>
<path d="M150.6 182.776L148.875 186.158C148.74 186.429 149.056 186.699 149.495 186.699H189.719C190.057 186.699 190.35 186.53 190.373 186.305L190.711 182.923C190.711 182.686 190.44 182.483 190.057 182.483H151.254C151.129 182.466 151.001 182.484 150.885 182.536C150.77 182.588 150.671 182.671 150.6 182.776Z" fill="#C13B44"/>
<path opacity="0.6" d="M150.6 182.776L148.875 186.158C148.74 186.429 149.056 186.699 149.495 186.699H189.719C190.057 186.699 190.35 186.53 190.373 186.305L190.711 182.923C190.711 182.686 190.44 182.483 190.057 182.483H151.254C151.129 182.466 151.001 182.484 150.885 182.536C150.77 182.588 150.671 182.671 150.6 182.776Z" fill="white"/>
<path d="M155.852 187.137H154.803C154.6 187.137 154.442 187.024 154.454 186.9L154.95 182.391C154.95 182.256 155.141 182.154 155.344 182.154H156.393C156.596 182.154 156.753 182.256 156.742 182.391L156.246 186.9C156.235 187.002 156.055 187.137 155.852 187.137Z" fill="#C13B44"/>
<path d="M181.037 187.137H180C179.786 187.137 179.628 187.024 179.651 186.9L180.135 182.391C180.135 182.256 180.327 182.154 180.541 182.154H181.578C181.781 182.154 181.939 182.256 181.928 182.391L181.443 186.9C181.443 187.002 181.263 187.137 181.037 187.137Z" fill="#C13B44"/>
<path opacity="0.6" d="M155.852 187.137H154.803C154.6 187.137 154.442 187.024 154.454 186.9L154.95 182.391C154.95 182.256 155.141 182.154 155.344 182.154H156.393C156.596 182.154 156.753 182.256 156.742 182.391L156.246 186.9C156.235 187.002 156.055 187.137 155.852 187.137Z" fill="black"/>
<path opacity="0.6" d="M181.037 187.137H180C179.786 187.137 179.628 187.024 179.651 186.9L180.135 182.391C180.135 182.256 180.327 182.154 180.541 182.154H181.578C181.781 182.154 181.939 182.256 181.928 182.391L181.443 186.9C181.443 187.002 181.263 187.137 181.037 187.137Z" fill="black"/>
<path d="M221.058 382.651L204.892 385.402L203.055 379.303L220.359 376.338L221.058 382.651Z" fill="#C13B44"/>
<path d="M382.167 67.9336C373.568 54.1644 361.079 43.2542 346.28 36.5825C331.481 29.9108 315.036 27.7773 299.024 30.4516C283.012 33.126 268.153 40.4882 256.325 51.6073C244.497 62.7263 236.232 77.1029 232.575 92.9192C228.918 108.735 230.032 125.281 235.778 140.464C241.524 155.646 251.643 168.784 264.855 178.216C278.067 187.648 293.78 192.951 310.006 193.453C326.231 193.956 342.242 189.636 356.012 181.039C365.157 175.33 373.088 167.876 379.351 159.102C385.615 150.329 390.089 140.407 392.517 129.904C394.946 119.401 395.282 108.522 393.506 97.8891C391.73 87.2562 387.877 77.0772 382.167 67.9336ZM257.607 145.72C250.824 134.854 247.416 122.221 247.813 109.418C248.21 96.6146 252.394 84.2168 259.837 73.7919C267.28 63.367 277.647 55.3832 289.627 50.8501C301.607 46.3171 314.663 45.4382 327.142 48.3248C339.622 51.2114 350.965 57.7338 359.738 67.0671C368.511 76.4005 374.319 88.1257 376.429 100.76C378.538 113.394 376.853 126.37 371.588 138.047C366.322 149.724 357.713 159.577 346.847 166.361C339.632 170.865 331.6 173.904 323.21 175.304C314.82 176.703 306.236 176.437 297.95 174.519C289.663 172.601 281.835 169.07 274.913 164.126C267.991 159.183 262.11 152.925 257.607 145.708V145.72Z" fill="#C13B44"/>
<path d="M382.167 67.9336C373.568 54.1644 361.079 43.2542 346.28 36.5825C331.481 29.9108 315.036 27.7773 299.024 30.4516C283.012 33.126 268.153 40.4882 256.325 51.6073C244.497 62.7263 236.232 77.1029 232.575 92.9192C228.918 108.735 230.032 125.281 235.778 140.464C241.524 155.646 251.643 168.784 264.855 178.216C278.067 187.648 293.78 192.951 310.006 193.453C326.231 193.956 342.242 189.636 356.012 181.039C365.157 175.33 373.088 167.876 379.351 159.102C385.615 150.329 390.089 140.407 392.517 129.904C394.946 119.401 395.282 108.522 393.506 97.8891C391.73 87.2562 387.877 77.0772 382.167 67.9336ZM257.607 145.72C250.824 134.854 247.416 122.221 247.813 109.418C248.21 96.6146 252.394 84.2168 259.837 73.7919C267.28 63.367 277.647 55.3832 289.627 50.8501C301.607 46.3171 314.663 45.4382 327.142 48.3248C339.622 51.2114 350.965 57.7338 359.738 67.0671C368.511 76.4005 374.319 88.1257 376.429 100.76C378.538 113.394 376.853 126.37 371.588 138.047C366.322 149.724 357.713 159.577 346.847 166.361C339.632 170.865 331.6 173.904 323.21 175.304C314.82 176.703 306.236 176.437 297.95 174.519C289.663 172.601 281.835 169.07 274.913 164.126C267.991 159.183 262.11 152.925 257.607 145.708V145.72Z" fill="#C13B44"/>
<path opacity="0.5" d="M382.167 67.9336C373.568 54.1644 361.079 43.2542 346.28 36.5825C331.481 29.9108 315.036 27.7773 299.024 30.4516C283.012 33.126 268.153 40.4882 256.325 51.6073C244.497 62.7263 236.232 77.1029 232.575 92.9192C228.918 108.735 230.032 125.281 235.778 140.464C241.524 155.646 251.643 168.784 264.855 178.216C278.067 187.648 293.78 192.951 310.006 193.453C326.231 193.956 342.242 189.636 356.012 181.039C365.157 175.33 373.088 167.876 379.351 159.102C385.615 150.329 390.089 140.407 392.517 129.904C394.946 119.401 395.282 108.522 393.506 97.8891C391.73 87.2562 387.877 77.0772 382.167 67.9336ZM257.607 145.72C250.824 134.854 247.416 122.221 247.813 109.418C248.21 96.6146 252.394 84.2168 259.837 73.7919C267.28 63.367 277.647 55.3832 289.627 50.8501C301.607 46.3171 314.663 45.4382 327.142 48.3248C339.622 51.2114 350.965 57.7338 359.738 67.0671C368.511 76.4005 374.319 88.1257 376.429 100.76C378.538 113.394 376.853 126.37 371.588 138.047C366.322 149.724 357.713 159.577 346.847 166.361C339.632 170.865 331.6 173.904 323.21 175.304C314.82 176.703 306.236 176.437 297.95 174.519C289.663 172.601 281.835 169.07 274.913 164.126C267.991 159.183 262.11 152.925 257.607 145.708V145.72Z" fill="white"/>
<path opacity="0.2" d="M372.912 73.7157C380.363 85.656 384.107 99.5376 383.67 113.605C383.233 127.673 378.635 141.296 370.456 152.75C362.277 164.205 350.886 172.977 337.722 177.958C324.558 182.939 310.213 183.905 296.5 180.734C282.788 177.563 270.323 170.397 260.683 160.142C251.042 149.887 244.659 137.004 242.34 123.122C240.021 109.239 241.87 94.9812 247.654 82.1497C253.438 69.3183 262.896 58.49 274.834 51.0337C282.762 46.0814 291.589 42.7396 300.809 41.1993C310.03 39.659 319.464 39.9503 328.571 42.0566C337.679 44.163 346.283 48.043 353.891 53.4752C361.499 58.9073 367.962 65.7851 372.912 73.7157Z" fill="#FAFAFA"/>
<path opacity="0.1" d="M383.021 101.335L272.542 170.306C263.533 164.193 256.047 156.093 250.66 146.632L371.285 71.3145C377.44 80.2928 381.455 90.5629 383.021 101.335Z" fill="#E6E6E6"/>
</svg>
