<svg width="56" height="56" viewBox="0 0 56 56" fill="none" xmlns="http://www.w3.org/2000/svg">
<g clip-path="url(#clip0_911_45)">
<path d="M7.16406 18.4844L7.60156 18.5391L9.46094 19.4141L11.1016 20.2891L12.3594 21L13.7266 21.7656L14.9844 22.4766L16.5156 23.3516L17.8828 24.1172L19.0859 24.7734L20.3438 25.4297L21.2734 25.9219L22.5859 26.4141L24.2812 27.0156L24.6094 26.9609L25.5938 26.6328L26.0859 26.5234L26.6875 26.4688H27.2891L28.3281 26.5781L34.4531 27.6172H34.7266L35.5469 27.0703L37.0781 26.1406L38.2266 25.4297L43.2031 22.3672L44.2969 21.7109L47.7422 19.5781L48.3984 19.1953L48.7812 19.1406L49.1094 19.3594L49.2734 19.5781L49.3281 19.9609L49.1641 20.2344L48.7812 20.5625L47.6875 21.2188L46.6484 21.875L45.3906 22.6406L44.2422 23.3516L42.8203 24.2266L41.5625 24.9922L40.4141 25.7031L39.4297 26.3047L39.3203 26.3594L39.4297 26.6875L40.1953 28.0547L41.0156 29.4766L41.8906 31.0078L42.6016 32.2656L43.4219 33.6875L44.1328 34.9453L44.2969 35L45.5 34.1797L47.6875 32.6484L48.3984 32.2109L48.5078 32.1562H48.8359L49.1641 32.375L49.3281 32.7031L49.2734 33.0859L49 33.4141L47.9062 34.1797L46.6484 35.0547L45.6094 35.7656L44.6797 36.4219L42.7656 37.7344L41.6719 38.5L41.0703 38.9375L40.6875 39.4297L40.5781 39.7031L41.0156 40.1953L41.2891 40.8516L41.3438 41.3438L41.2344 42L40.9062 42.6562L40.6328 42.9297H40.5234L40.6875 43.2031L41.0703 43.6953L41.2891 44.2969V45.2266L41.0156 45.8828L40.6328 46.3203L40.1953 46.6484L39.7031 46.8125L39.2656 46.8672L38.6094 46.7578L38.1172 46.5391L37.9531 47.0312L37.625 47.5781L37.0781 48.0156L36.4219 48.2344H35.7109L35.1094 48.0156L34.5078 47.6328L34.1797 47.4141L34.0703 47.8516L33.7969 48.3438L33.5234 48.6172L33.1406 48.9453L32.7031 49.1094L50.4766 49.1641L50.75 49.3281L50.9688 49.6016L51.0234 49.875L50.8594 50.2031L50.5859 50.4766H5.41406L5.14062 50.2578L4.97656 49.9297L5.03125 49.5469L5.30469 49.2188L5.46875 49.1641H26.0312L25.9766 48.9453L25.7031 49L25.2656 49.1094H24.5L23.8984 48.8906L23.4062 48.5078L23.0234 47.9609L22.8047 47.4688L22.6953 47.1953H22.2031L21.4922 46.9766L20.7266 46.4297L20.3438 46.0469L20.0703 45.5547L19.9062 45.1172L19.0312 45.0625L18.375 44.7891L17.7734 44.3516L17.2812 43.75L17.0078 42.9844V42.2188L17.1719 41.6172L17.7188 40.7422L18.1016 40.25L18.0469 40.0312L17.2266 39.4844L15.3672 38.1719L14.7656 37.7891L12.7422 37.0234L10.0625 36.0938L8.42188 35.4922L6.94531 34.8906L6.67188 34.5625L6.61719 34.2891L6.83594 33.8516L7.05469 33.6875H7.49219L8.3125 33.9609L10.7734 34.8906H10.9375L11.7031 33.4141L12.1953 32.4844L12.6875 31.4453L13.2344 30.4062L13.7266 29.4766L14.9297 27.0703L15.4766 26.0312L16.0234 24.9375L16.0781 24.7188L14.8203 24.0078L12.1406 22.4766L10.8828 21.7656L9.67969 21.1094L8.20312 20.3438L7.16406 19.8516L6.78125 19.5781L6.67188 19.3594L6.72656 18.8672L6.94531 18.5938L7.16406 18.4844ZM17.2812 25.375L15.9688 28L15.4219 29.0391L14.4922 30.8984L13.9453 31.9375L13.3984 33.0312L12.8516 34.0703L12.25 35.2188L12.3047 35.4375L14.3828 36.2031L14.6562 36.3125H14.875L15.5312 35.1094L15.9688 34.2344L17.0078 32.2109L17.5547 31.1719L18.6484 29.0391L19.25 27.9453L19.7969 26.8516L19.7422 26.6328L17.8281 25.6484L17.3906 25.375H17.2812ZM38.0625 27.125L37.4609 27.4531L36.3125 28.1641L35.7656 28.4922L35.875 28.7656L36.6406 30.1328L37.4062 31.4453L39.0469 34.2891L39.5938 35.2188L40.4141 36.6406L40.8516 37.3516L41.0703 37.2969L42 36.6406L43.0391 35.9297V35.7109L42.2734 34.3438L41.5078 33.0312L40.6875 31.5547L39.9219 30.2422L39.0469 28.7109L38.2266 27.2344L38.1719 27.125H38.0625ZM21 27.3438L20.4531 28.3828L19.6875 29.8594L19.1406 30.8984L18.375 32.375L17.4453 34.1797L16.6797 35.6562L16.0234 36.8594L16.1328 37.0781L17.0625 37.7344L18.1562 38.5L18.8672 38.9922H19.0312L19.6875 38.0625L20.0156 37.6797L20.7266 37.2969L21.2188 37.1875L21.875 37.2422L22.3125 37.4062L22.9141 37.7891L23.2969 38.1172L23.625 38.6641L23.8438 39.2109H24.3906L24.9375 39.3203L25.5938 39.6484L26.1953 40.1406L26.5234 40.5781L26.7422 41.0703L26.9062 41.4531H27.3438L28 41.6172L28.6016 42L28.9844 42.4922L29.2578 43.1484H30.1875L30.8438 43.3672L31.5 43.8594L31.9922 44.3516L34.3984 45.9375L35.4375 46.6484L35.9297 46.9219H36.2578L36.5859 46.7031L36.75 46.4844L36.8047 46.2656V45.8281L36.6406 45.4453L35.875 44.8984L34.5078 43.9688L33.4141 43.2031L32.375 42.4922L31.5 41.8906L30.4062 41.125L29.8047 40.6875L29.6406 40.4688L29.5859 40.1953L29.75 39.8125L30.0781 39.5938L30.4609 39.6484L31.3359 40.1953L32.4297 40.9609L33.3047 41.5625L34.5625 42.4375L35.6016 43.1484L36.6953 43.9141L37.8984 44.7344L38.7734 45.3359L39.0469 45.5H39.5391L39.8672 45.2266L39.9766 45.0078V44.5156L39.7578 44.1875L39.4297 43.9141L38.1172 43.0391L34.3438 40.4141L31.9922 38.7734L31.6094 38.4453L31.5547 38.3359V37.8984L31.7188 37.625L32.1016 37.4609L32.5938 37.625L33.6328 38.3359L34.8906 39.2109L35.9297 39.9219L36.6406 40.4141L37.8984 41.2891L38.7734 41.8906L39.1562 42.1094L39.5391 42.0547L39.8125 41.8906L39.9766 41.5625V41.0703L39.6484 40.6328L38.7188 40.0859L37.2422 39.1016L35.9844 38.2812L33.5781 36.6953L32.7578 36.1484L31.3359 35.2188L28.3281 33.25L27.8359 33.0312L27.2891 32.9766L26.8516 33.3594L25.7578 34.7266L25.1562 35.4922L24.6641 35.9844L23.8984 36.5312L23.2422 36.8594L22.4766 37.0234L21.8203 36.9688L21.2188 36.75L20.6172 36.3125L20.2891 35.875L20.0703 35.3828V34.7812L20.6172 33.5781L21 32.5391L21.6016 30.625L21.9844 29.5859L22.4766 28.7109L22.9688 28.1641L23.0234 28L22.1484 27.6719L21.2188 27.3438H21ZM26.3047 27.8359L25.375 28.0547L24.5 28.4922L23.8438 29.0938L23.4062 29.6406L23.0781 30.2969L22.2578 32.7578L21.8203 34.0156L21.3828 34.9453V35.2188L21.8203 35.6016L22.3125 35.7656L22.8047 35.6562L23.4062 35.3281L23.9531 34.8359L24.2266 34.5625L24.7188 34.0156L25.2656 33.3047L25.8672 32.5391L26.25 32.1016L26.9062 31.7734L27.1797 31.7188H27.7812L28.6016 31.9375L29.2031 32.2656L30.3516 33.0312L31.6094 33.8516L32.4297 34.3984L33.6875 35.2188L35.4922 36.4219L36.0938 36.8047L37.6797 37.8438L38.6094 38.4453L39.2656 38.8828L39.4844 38.8281L39.8125 38.3906L39.7578 38.0625L38.8828 36.5312L38.0625 35.1094L37.2969 33.7969L36.4766 32.375L35.7109 31.0625L35.0547 29.9141L34.5625 29.0938L34.4531 28.9844L32.3203 28.6016L27.7812 27.8359H26.3047ZM21.1641 38.5L20.8359 38.7188L20.5078 39.1016L19.9062 39.9766L19.3594 40.7422L18.7031 41.6719L18.375 42.2188L18.3203 42.3828V42.7656L18.5391 43.2031L19.0312 43.6406L19.25 43.75H19.7422L20.0703 43.5312L20.3984 43.1484L21.0547 42.2188L21.8203 41.125L22.5312 40.0859L22.5859 39.5391L22.4219 39.1016L22.0391 38.7188L21.6562 38.5H21.1641ZM24.0078 40.5234L23.6797 40.7422L23.1328 41.4531L22.5312 42.3281L21.9844 43.0938L21.3828 43.9688L21.2188 44.2969V44.8984L21.5469 45.3906L22.0938 45.7734L22.4219 45.8828L22.8594 45.7734L23.1875 45.5L23.7344 44.7344L25.0469 42.875L25.4297 42.3281L25.5391 42.0547V41.4531L25.3203 41.125L24.7734 40.6328L24.5547 40.5234H24.0078ZM26.9062 42.7656L26.6328 42.9297L26.25 43.3672L25.6484 44.2422L24.9922 45.1719L24.2812 46.1562L24.1172 46.4297L24.0625 46.6484V47.0312L24.2812 47.4688L24.5 47.6875L24.8828 47.7969L25.2109 47.7422L25.5391 47.5234L25.9766 46.9766L26.8516 45.7188L27.5625 44.7344L28 44.0234V43.4219L27.7812 43.0391L27.5625 42.8203L27.3984 42.7656H26.9062ZM29.6406 44.4062L29.2031 44.625L28.4922 45.6094L27.8906 46.4844L27.2344 47.4141L27.0703 47.7969L27.1797 48.3984L27.6719 48.9453L28.1094 49.1641H28.4922L28.9297 48.8906L29.6406 47.9062L30.4062 46.8125L30.8984 46.1016L31.0078 45.7188L30.9531 45.2812L30.6797 44.8438L30.2422 44.5156L29.9688 44.4062H29.6406ZM32.2109 46.2656L31.8281 47.0312L31.5547 47.4141L31.6094 47.6328L31.9375 47.7969L32.2656 47.8516L32.6484 47.6328L32.8125 47.4141L32.8672 47.25V46.8672L32.7031 46.5391L32.375 46.2656H32.2109ZM30.6797 48.6172L30.3516 49.1641L30.5156 49.2188L31.7188 49.1641L31.6094 49.0547L30.9531 48.7266L30.6797 48.6172Z" fill="#374455"/>
<path d="M28.7656 11.8125L29.9688 11.8672L30.9531 12.0859L31.9375 12.4688L32.5938 12.8516L33.25 13.3438L33.9062 13.9453L34.5078 14.7109L34.9453 15.4219L35.3828 16.5156L35.5469 17.1719L35.6562 17.9375V18.9766L35.4922 20.0703L35.1641 21.0547L34.7266 21.9297L34.1797 22.6953L33.6875 23.2422L33.0859 23.7891L32.3203 24.2812L31.5547 24.6641L30.7344 24.9375L29.9688 25.1016L29.4219 25.1562H28.5469L27.6719 25.0469L26.8516 24.8281L25.9766 24.4453L25.375 24.1172L24.7188 23.625L24.1719 23.1328L23.6797 22.5312L23.2969 21.9844L22.8594 21.1641L22.4766 20.0156L22.3672 19.4141L22.3125 18.8125V18.2109L22.4219 17.2266L22.6406 16.4062L23.0234 15.4766L23.5156 14.6562L24.0078 14.0547L24.2812 13.7266L24.7188 13.3438L25.3203 12.9062L26.0859 12.4688L26.8516 12.1406L28 11.8672L28.7656 11.8125ZM28.2734 13.1797L27.2891 13.3984L26.4141 13.7812L25.7578 14.2188L25.0469 14.875L24.6094 15.4219L24.2812 15.9688L23.8984 16.8438L23.7344 17.5L23.6797 17.8828V19.1953L23.8984 20.125L24.1719 20.8359L24.5547 21.4922L24.9922 22.0391L25.5938 22.6406L26.1406 23.0234L27.0156 23.4609L27.8359 23.7344L28.7109 23.8438H29.2578L30.1328 23.7344L31.1172 23.4062L31.9375 22.9688L32.7031 22.3672L33.25 21.7656L33.7422 21L34.0156 20.3438L34.1797 19.7969L34.3438 18.7578V18.2656L34.2344 17.3359L33.9062 16.3516L33.4688 15.5312L33.0312 14.9844L32.7578 14.6562L31.9922 14.0547L31.1172 13.5625L30.2969 13.2891L29.75 13.1797H28.2734Z" fill="#374455"/>
<path d="M23.1328 51.7891H33.3594L34.8359 51.8438L35.1641 52.0625L35.3281 52.3359V52.6641L35.0547 53.0469L34.8359 53.1562L29.3672 53.2109V53.7578L31.9375 53.8125L32.5938 53.8672L32.9766 54.25V54.6875L32.7031 55.0703L32.5938 55.125L30.1328 55.1797H24.2266L23.6797 55.125L23.4062 54.8516L23.2969 54.5781L23.3516 54.25L23.6797 53.8672L23.8438 53.8125H26.6328V53.1562H21.1094L20.7812 52.8828L20.6719 52.7188V52.2812L21 51.8984L21.1094 51.8438L23.1328 51.7891Z" fill="#C13B44"/>
<path d="M31.4453 16.5156H31.8828L32.1562 16.6797L32.3203 16.9531V17.3906L32.0469 17.7188L31.2266 18.2656L29.6406 19.3047L28.1641 20.2891L27.7266 20.5078L27.3438 20.4531L26.9062 20.0703L26.1953 19.1406L25.7578 18.5391L25.6484 18.3203L25.7031 17.9375L25.9766 17.6094L26.0859 17.5547H26.5234L26.8516 17.7734L27.3984 18.4297L27.6172 18.7578V18.8672L27.8906 18.8125L30.1875 17.2812L31.0625 16.7344L31.4453 16.5156Z" fill="#C13B44"/>
<path d="M36.4219 51.8438H39.5391L39.8125 52.0078L39.9766 52.2812V52.6641L39.7578 52.9922L39.4844 53.1562H36.4766L36.1484 52.9375L35.9844 52.6641V52.3359L36.2031 52.0078L36.4219 51.8438Z" fill="#C13B44"/>
<path d="M16.4062 51.8438H19.5234L19.7969 52.0078L20.0156 52.3906L19.9609 52.7188L19.6328 53.1016L19.4688 53.1562H16.4609L16.1328 52.8828L15.9688 52.5L16.1328 52.1172L16.4062 51.8438Z" fill="#C13B44"/>
<path d="M2.51562 49.1641H3.82812L4.15625 49.3828L4.32031 49.6016V50.0391L3.99219 50.4219L3.82812 50.4766H2.46094L2.13281 50.2578L1.96875 49.7656L2.1875 49.3281L2.51562 49.1641Z" fill="#374455"/>
<path d="M52.1719 49.1641H53.4297L53.7031 49.2734L53.9766 49.6016V50.0391L53.6484 50.4219L53.5391 50.4766H52.1172L51.8438 50.3125L51.6797 50.0391V49.6016L51.8984 49.2734L52.1719 49.1641Z" fill="#374455"/>
<path d="M15.8047 9.95312H16.2969L16.625 10.1172L16.9531 10.5L17.0078 10.6094V11.1562L16.7891 11.5938L16.4062 11.8672L16.2422 11.9219H15.8047L15.3672 11.7031L15.0938 11.3203L15.0391 11.1562V10.6641L15.3125 10.2266L15.6406 10.0078L15.8047 9.95312ZM15.8047 10.4453L15.4766 10.8281L15.5859 11.2109L15.8594 11.4297L16.3516 11.375L16.5156 11.1562V10.7734L16.3516 10.5L16.2422 10.4453H15.8047Z" fill="#374455"/>
<path d="M13.8906 33.8516H14.3828L14.7109 34.125L14.8203 34.3438V34.6719L14.4922 35.0547L14.2734 35.1641H13.9453L13.6172 34.9453L13.4531 34.6719V34.2891L13.7812 33.9062L13.8906 33.8516Z" fill="#C13B44"/>
<path d="M41.125 34.8359L41.6172 34.8906L41.9453 35.1641L42 35.6562L41.7812 35.9844L41.5078 36.1484H41.125L40.7969 35.9297L40.6875 35.7656V35.2188L40.9062 34.9453L41.125 34.8359Z" fill="#C13B44"/>
<path d="M0.492188 49.1641L0.929688 49.2188L1.25781 49.4922L1.3125 49.6016V50.0391L0.984375 50.4219L0.875 50.4766H0.492188L0.21875 50.3125L0 50.0938V49.5469L0.328125 49.2188L0.492188 49.1641Z" fill="#374455"/>
<path d="M55.1797 49.1641L55.5625 49.2188L56 49.6016V50.0938L55.6172 50.4219L55.5078 50.4766H55.125L54.6875 50.0938V49.6016L55.0156 49.2188L55.1797 49.1641Z" fill="#374455"/>
<path d="M4.53906 1.14844L4.75781 1.20312L5.08594 1.69531L5.19531 1.75L5.25 1.47656L5.46875 1.14844H5.6875L5.63281 1.42188L5.30469 1.91406L5.96094 1.85938L6.07031 1.91406V2.07812L5.96094 2.13281L5.35938 2.1875L5.6875 2.67969L5.63281 2.84375L5.35938 2.78906L5.19531 2.46094V2.29688L4.92188 2.57031L4.75781 2.84375L4.53906 2.89844L4.59375 2.57031L4.86719 2.13281H4.21094L4.15625 1.91406L4.375 1.85938L4.8125 1.91406L4.64844 1.58594L4.48438 1.3125L4.53906 1.14844Z" fill="#C13B44"/>
<path d="M55.0703 7.21875L55.2344 7.27344L55.125 7.54688L54.9062 7.98438L55.5078 7.92969L55.5625 8.20312L55.5078 8.25781L54.8516 8.20312L55.1797 8.64062V8.91406L54.9062 8.85938L54.5781 8.36719L54.4141 8.85938L54.3594 8.91406H54.0859L54.1406 8.64062L54.4141 8.25781L54.3594 8.20312H53.7578L53.7031 8.03906L53.8125 7.98438H54.3594L54.25 7.71094L54.0859 7.49219L54.1406 7.27344L54.4141 7.32812L54.5234 7.76562L54.6875 7.71094L55.0156 7.27344L55.0703 7.21875Z" fill="#C13B44"/>
<path d="M52.3359 21.4922L52.7188 21.5469L52.9922 21.7656L53.1016 21.9844L53.0469 22.4766L52.6641 22.8047H52.1719L51.8438 22.5312L51.7344 22.2578L51.7891 21.875L52.1719 21.5469L52.3359 21.4922ZM52.3359 21.8203L52.0625 22.0938L52.1172 22.3672L52.2266 22.4766H52.6094L52.7188 22.3672V21.9844L52.5547 21.8203H52.3359Z" fill="#374455"/>
<path d="M41.125 16.5156H41.5078L41.7812 16.6797L42 16.9531L41.9453 17.4453L41.6719 17.7188L41.4531 17.8281L41.0156 17.7734L40.7422 17.5L40.6875 17.3906V16.8984L40.9062 16.625L41.125 16.5156ZM41.2891 16.7891L40.9609 17.0625L41.0156 17.3359L41.125 17.5H41.5078L41.6172 17.3359V16.9531L41.3984 16.7891H41.2891Z" fill="#374455"/>
<path d="M1.80469 13.1797H2.1875L2.57031 13.4531L2.67969 13.8906L2.51562 14.2188L2.24219 14.4375L1.85938 14.4922L1.53125 14.3281L1.36719 14.1094L1.3125 13.6719L1.47656 13.3984L1.64062 13.2344L1.80469 13.1797ZM1.91406 13.4531L1.69531 13.6172L1.64062 13.9453L1.80469 14.1641H2.13281L2.29688 14V13.6719L2.13281 13.5078L1.91406 13.4531Z" fill="#374455"/>
<path d="M48.3984 0.875H48.9453L49.2188 1.09375L49.3281 1.3125L49.2734 1.80469L48.8906 2.13281L48.6172 2.1875L48.2344 2.02344L48.0156 1.75V1.25781L48.2891 0.929688L48.3984 0.875ZM48.5625 1.14844L48.2891 1.42188L48.3984 1.75L48.6719 1.85938L48.9453 1.69531L49 1.42188L48.8906 1.20312L48.5625 1.14844Z" fill="#374455"/>
<path d="M38.3359 5.6875L38.5547 5.79688L38.7734 6.125L38.8828 6.17969L38.9375 5.85156L39.1016 5.6875L39.3203 5.79688L38.9922 6.28906H39.5391L39.5938 6.50781L39.0469 6.61719L39.2656 6.89062V7.10938H38.9922L38.8828 6.67188L38.6641 6.89062L38.4453 7.16406H38.3359L38.3906 6.83594L38.5547 6.50781H38.0078V6.34375H38.5547L38.3359 5.96094L38.2812 5.74219L38.3359 5.6875Z" fill="#C13B44"/>
<path d="M23.8438 1.14844H24.2266L24.3906 1.3125L24.2812 1.80469L24.2266 1.85938H23.8438L23.7344 1.53125V1.25781L23.8438 1.14844Z" fill="#C13B44"/>
</g>
<defs>
<clipPath id="clip0_911_45">
<rect width="56" height="56" fill="white"/>
</clipPath>
</defs>
</svg>
