<svg width="56" height="56" viewBox="0 0 56 56" fill="none" xmlns="http://www.w3.org/2000/svg">
<path d="M26.5234 9.1875H29.3125L30.4609 9.29688L31.9375 9.57031L33.25 9.89844L34.6719 10.3906L35.7656 10.8828L36.8594 11.4297L37.8438 12.0312L38.7734 12.6875L39.4844 13.2344L40.25 13.8906L41.125 14.7109L41.5078 15.1484L42.0547 15.75L42.7656 16.6797L43.3125 17.4453L44.0234 18.6484L44.5703 19.6875L45.0078 20.7266L45.5 22.0938L45.8828 23.5156L46.1562 25.0469L46.2656 26.1406L47.1406 26.1953L47.7969 26.4141L48.2891 26.7422L48.6719 27.0703L49.0547 27.6719L49.2734 28.2734L49.3281 28.6016V34.3438L49.1641 35.0547L48.7812 35.7656L48.2891 36.2578L47.7422 36.5859L47.25 36.75L46.2656 36.8594H45.8828L45.5547 37.8438L44.9531 39.2109L44.4062 40.1406L43.8594 40.9062L43.4219 41.4531L42.9297 42L42.2734 42.6562L41.6719 43.1484L40.8516 43.75L39.8125 44.3516L38.9375 44.7891L38.0625 45.1172L37.8984 45.5L37.6797 45.9375L37.1875 46.5391L37.3516 46.4844H50.4766L50.75 46.6484L50.9688 46.9219L51.0234 47.1406L50.9141 47.4688L50.6953 47.7422L50.2578 47.8516H5.57812L5.30469 47.7422L5.03125 47.4141L4.97656 47.0859L5.14062 46.7578L5.35938 46.5391L5.52344 46.4844H34.7812L34.3438 45.9922L34.0703 45.4453L33.9609 44.7891L34.0703 44.1875L34.3438 43.6406L34.7812 43.2031L35.4375 42.875L35.7109 42.8203H36.2578L36.9688 43.0391L37.4062 43.3672L37.6797 43.75L37.9531 43.6953L38.8828 43.3125L39.9766 42.7109L40.7969 42.1094L41.3984 41.6172L42.4375 40.5781L43.2031 39.5391L43.6953 38.7188L44.2422 37.4609L44.4609 36.8047L42.0547 36.8594L42 36.8047V26.1953L42.0547 26.1406H44.7344L44.8984 26.0859L44.625 24.2812L44.2969 22.9141L43.8047 21.4375L43.2578 20.1797L42.5469 18.8125L41.8906 17.8281L41.125 16.7891L40.5234 16.1328L40.1406 15.6953L39.3203 14.875L38.7188 14.3828L37.8984 13.7266L36.8047 13.0156L35.6562 12.3594L34.6172 11.8672L33.3047 11.375L31.9922 10.9922L30.5703 10.7188L29.0938 10.5547H26.8516L25.375 10.7188L23.7891 11.0469L22.4766 11.4297L21.3828 11.8672L20.0156 12.5234L19.1406 13.0156L18.4844 13.4531L17.6094 14.1094L17.0078 14.6016L16.4609 15.0938L16.1328 15.4219H16.0234L15.9141 15.6406H15.8047L15.6953 15.8594L15.3125 16.2422L14.8203 16.8438L14.2734 17.5547L13.7266 18.375L13.2344 19.1953L12.6875 20.2344L12.1406 21.5469L11.6484 23.0234L11.375 24.1719L11.0469 26.1406H13.9453L14 26.1953V36.75L13.9453 36.8047H8.96875L8.36719 36.6406L7.92969 36.4219L7.4375 36.0391L7 35.4375L6.72656 34.7812L6.67188 34.5078V28.4922L6.83594 27.8359L7.16406 27.2891L7.54688 26.8516L8.09375 26.4688L8.58594 26.25L8.85938 26.1953L9.73438 26.1406V25.7031L9.95312 24.2266L10.3359 22.5859L10.8828 20.9453L11.4844 19.5781L12.1406 18.3203L12.6875 17.4453L13.3984 16.4609L14 15.6953L14.4922 15.1484L15.0938 14.4922L15.5859 14L16.0234 13.6172L16.7344 13.0156L17.7188 12.3047L18.7578 11.6484L19.9609 10.9922L21.3281 10.3906L22.3672 10.0078L23.7344 9.625L25.1562 9.35156L26.5234 9.1875ZM12.5234 27.4531L9.02344 27.5078L8.47656 27.7812L8.09375 28.2734L7.98438 28.7656V34.2891L8.14844 34.7812L8.53125 35.2188L8.91406 35.4375L9.13281 35.4922H12.6328L12.6875 35.2734V27.5078L12.5234 27.4531ZM43.4219 27.4531L43.3125 27.5078V35.4922H46.8125L47.3047 35.3281L47.7422 34.9453L47.9609 34.5078L48.0156 33.9609V28.7656L47.8516 28.2188L47.5781 27.8359L47.25 27.6172L46.9219 27.5078L43.4219 27.4531Z" fill="#374455"/>
<path d="M27.9453 16.1328L29.6953 16.1875L30.2422 16.4062L30.7344 16.8438L30.9531 17.2812L31.1719 18.2656L31.2812 19.1953L31.8281 19.3594L32.3203 19.5781L32.5391 19.5234L33.4141 18.8125L33.9609 18.4844L34.3438 18.375H35L35.6016 18.5938L36.2031 19.0859L37.9531 20.8359L38.2812 21.4922L38.3359 21.7656L38.2812 22.4766L37.8984 23.1875L37.4062 23.8438L37.1875 24.1172L37.2422 24.5L37.5703 25.2656L37.625 25.5391L39.2109 25.7578L39.8125 25.9766L40.3047 26.4141L40.5781 26.9062L40.6328 27.125L40.6875 29.4219L40.6328 30.5703L40.3047 31.2266L39.9219 31.6094L39.4297 31.8281L38.2266 32.0469L37.625 32.1016L37.5703 32.4297L37.2422 33.1953L37.4609 33.5781L38.1719 34.5078L38.3906 34.9453L38.4453 35.1641V35.9297L38.1172 36.5859L37.4609 37.2969L35.9297 38.8281L35.3828 39.1016L35.1094 39.1562H34.5625L33.9609 38.9375L33.25 38.4453L32.7031 38.0078L32.3203 38.0625L31.5547 38.3906L31.2812 38.4453L31.1172 39.7578L30.9531 40.4141L30.625 40.9062L30.1875 41.2891L29.75 41.4531L29.3672 41.5078H26.5234L26.0312 41.3984L25.5938 41.125L25.2109 40.7422L24.9375 40.1406L24.6641 38.5L24.0078 38.2266L23.7344 38.1172H23.4609L22.8594 38.6094L22.0391 39.1562L21.4922 39.3203L20.8906 39.2656L20.4531 39.1016L19.9609 38.7188L18.6484 37.4062L18.2656 37.0781L17.8281 36.4766L17.6641 36.0391V35.3828L17.8281 34.8906L18.4844 33.9609L18.8125 33.4688L18.7578 33.1953L18.3203 32.1562L18.2656 32.1016L16.6797 31.8828L16.1328 31.6641L15.6406 31.1719L15.3672 30.625L15.3125 30.3516V27.2891L15.4766 26.7422L15.8047 26.3047L16.1875 25.9766L16.7344 25.7578L18.2109 25.5391H18.375L18.4297 25.2109L18.7578 24.5L18.6484 24.2266L18.0469 23.4609L17.6641 22.8594L17.5 22.2578L17.6094 21.5469L17.8281 21.1094L18.4844 20.3984L19.7969 19.0859L20.1797 18.7578L20.6719 18.5391L20.8906 18.4844H21.3281L21.875 18.6484L22.4219 18.9766L23.2969 19.6328L23.6797 19.5781L24.4453 19.25L24.7188 19.1953L24.8281 18.1016L25.0469 17.2266L25.2656 16.8438L25.6484 16.4609L26.0859 16.2422L26.25 16.1875L27.9453 16.1328ZM26.5234 17.7188L26.4141 18.1562L26.1406 20.0703L26.0859 20.3438L24.6641 20.8359L23.3516 21.4922L23.0781 21.3828L22.5859 21.0547L21.5469 20.2891L21.2188 20.0703L20.9453 20.125L20.2891 20.7812L19.9062 21.2188L19.0859 22.0391L19.1406 22.2578L19.6875 23.0234L20.4531 24.0078L20.5625 24.1719L20.5078 24.5L20.0703 25.375L19.6875 26.4141L19.5234 26.9062L17.3906 27.2344L16.8984 27.3438V30.2969L17.3359 30.4062L19.5234 30.7344L20.0156 32.1562L20.4531 33.0312L20.6719 33.4141L20.6172 33.6875L19.9609 34.5625L19.25 35.6016L19.3047 35.875L19.9609 36.5312L20.2891 36.8047L20.5625 37.1328L21 37.5156L21.2188 37.7344L21.4375 37.6797L22.4766 36.9141L23.0234 36.4766L23.3516 36.2578L23.625 36.3125L24.5547 36.75L25.5938 37.1328L26.0859 37.2422L26.4141 39.4297L26.4688 39.8125L26.5781 39.9219H29.4219L29.5312 39.7578L29.8594 37.4609L29.9141 37.2422L30.5703 37.0781L31.6641 36.6406L32.4844 36.2031H32.8125L33.4141 36.5859L34.3984 37.3516L34.8906 37.625L35.3281 37.2422L35.9844 36.5859V36.4766L36.1484 36.4219L36.5312 35.9844L36.9141 35.6016L36.8047 35.3281L36.3672 34.7266L35.4922 33.5781L35.4375 33.25L35.875 32.375L36.1484 31.6641L36.4219 30.8438L36.5312 30.7344L38.9375 30.3516L39.0469 30.2969L39.1016 30.1328V27.3984L38.8828 27.2891L36.75 26.9609L36.4219 26.9062L36.2578 26.3047L35.875 25.2656L35.3281 24.2266L35.3828 23.9531L36.1484 22.9141L36.75 22.0938L36.6953 21.8203L34.8359 19.9609L34.6172 19.9062L33.7422 20.5625L32.8125 21.2734L32.5938 21.3828L32.3203 21.3281L31.1719 20.7812L29.8594 20.3438L29.75 19.4141L29.5312 17.9375L29.4219 17.7188H26.5234Z" fill="#374455"/>
<path d="M27.1797 23.4062H28.7109L29.5859 23.5703L30.4062 23.8984L31.2266 24.3906L31.8828 24.9922L32.375 25.5391L32.8125 26.25L33.1406 26.9609L33.3594 27.7266L33.4688 28.6016L33.4141 29.6406L33.1406 30.6797L32.8672 31.3359L32.375 32.1016L31.8828 32.6484L31.6094 32.9219L31.0625 33.3594L30.1875 33.8516L29.3672 34.125L28.4375 34.2891H27.5078L26.5781 34.125L25.7031 33.7969L24.9375 33.3594L24.3906 32.9219L24.0078 32.5938L23.4062 31.8281L22.9688 31.0078L22.6406 30.0234L22.5312 29.3125V28.3281L22.6953 27.4531L22.9688 26.6328L23.3516 25.9219L23.8438 25.2656L24.1172 24.9375L24.5547 24.5547L25.1016 24.1719L25.9219 23.7344L26.8516 23.4609L27.1797 23.4062ZM27.5625 24.9375L26.7969 25.1016L26.1406 25.375L25.4297 25.8672L24.9922 26.3047L24.5 27.0703L24.2266 27.7812L24.1172 28.3281V29.3672L24.2812 30.0781L24.7188 30.9531L25.1562 31.5L25.7031 31.9922L26.4688 32.4297L27.1797 32.6484L27.4531 32.7031H28.4922L29.3672 32.4844L30.1328 32.1016L30.7344 31.6094L31.1719 31.1172L31.5 30.5703L31.7734 29.8047L31.8828 29.2031V28.3828L31.6641 27.4531L31.2266 26.6328L30.7891 26.0859L30.1875 25.5938L29.3672 25.1562L28.7656 24.9922L28.4375 24.9375H27.5625Z" fill="#C13B44"/>
<path d="M22.5312 49.4922H34.7812L35.1641 49.7109L35.3281 49.9844V50.3125L35.1094 50.6406L34.8906 50.8047L30.5703 50.8594H29.3672V51.4062L30.1328 51.4609L32.5391 51.5156L32.8125 51.6797L32.9766 51.9531V52.3906L32.6484 52.7734L32.4297 52.8281H23.8438L23.5156 52.6094L23.2969 52.2812L23.3516 51.9531L23.625 51.625L23.7891 51.5156H26.6328V50.8047L24.6094 50.8594H21.2734L20.8906 50.6953L20.6172 50.2578L20.6719 49.9297L21.1094 49.5469L22.5312 49.4922Z" fill="#C13B44"/>
<path d="M16.5156 49.4922H19.25L19.6328 49.6016L20.0156 49.9844V50.3125L19.7969 50.6406L19.5234 50.8047L19.25 50.8594H16.7344L16.3516 50.75L16.0234 50.3672L15.9688 50.0391L16.2422 49.6562L16.5156 49.4922Z" fill="#C13B44"/>
<path d="M36.4766 49.4922H39.4844L39.7578 49.6562L39.9766 49.9297V50.3672L39.7031 50.75L39.5391 50.8047H36.4219L36.0938 50.5312L35.9844 50.3125L36.0391 49.875L36.2578 49.6016L36.4766 49.4922Z" fill="#C13B44"/>
<path d="M52.1719 46.4844H53.375L53.7578 46.6484L53.9766 46.9219L54.0312 47.1953L53.8125 47.6328L53.5391 47.7969L53.2656 47.8516H52.2812L51.8984 47.6875L51.6797 47.3594V46.9219L51.9531 46.5938L52.1719 46.4844Z" fill="#374455"/>
<path d="M2.51562 46.4844H3.71875L4.10156 46.6484L4.32031 46.9766V47.3594L4.10156 47.6875L3.88281 47.7969L3.5 47.8516H2.625L2.24219 47.6875L2.02344 47.4141L1.96875 47.0859L2.13281 46.7578L2.40625 46.5391L2.51562 46.4844Z" fill="#374455"/>
<path d="M4.75781 6.83594H5.14062L5.57812 7L5.85156 7.27344L5.96094 7.49219V8.14844L5.74219 8.47656L5.46875 8.69531L5.19531 8.80469H4.70312L4.32031 8.58594L4.10156 8.3125L3.99219 8.09375V7.54688L4.32031 7.05469L4.75781 6.83594ZM4.8125 7.32812L4.59375 7.4375L4.48438 7.65625L4.53906 8.09375L4.75781 8.3125H5.19531L5.46875 8.03906V7.60156L5.25 7.38281L5.14062 7.32812H4.8125Z" fill="#374455"/>
<path d="M15.3672 2.1875H15.9688L16.4062 2.46094L16.625 2.78906V3.44531L16.4062 3.82812L16.0234 4.10156L15.5859 4.15625L15.1484 4.04688L14.875 3.77344L14.6562 3.39062V2.95312L14.875 2.51562L15.1484 2.29688L15.3672 2.1875ZM15.4766 2.67969L15.1484 2.95312V3.33594L15.3672 3.60938L15.8047 3.66406L16.1328 3.39062L16.1875 3.0625L15.9688 2.73438L15.9141 2.67969H15.4766Z" fill="#374455"/>
<path d="M0.492188 46.4844L0.929688 46.5391L1.25781 46.8125L1.3125 46.9219V47.3594L0.929688 47.7969L0.601562 47.8516L0.21875 47.6875L0 47.4141V46.8672L0.382812 46.5391L0.492188 46.4844Z" fill="#374455"/>
<path d="M55.2344 46.4844L55.5625 46.5391L56 46.9219V47.4141L55.5625 47.7969L55.2891 47.8516L54.9062 47.6875L54.6875 47.4141V46.9219L54.9609 46.5938L55.2344 46.4844Z" fill="#374455"/>
<path d="M14.8203 10.1719L15.3125 10.2266L15.5859 10.5L15.6406 10.6094V11.0469L15.3125 11.4297L15.2031 11.4844H14.7656L14.4375 11.2109L14.3281 10.9922V10.6094L14.6016 10.2812L14.8203 10.1719ZM14.8203 10.5L14.6562 10.6641V10.9922L14.8203 11.1562H15.1484L15.3125 10.9922L15.2578 10.6094L15.1484 10.5H14.8203Z" fill="#374455"/>
<path d="M37.7344 1.53125H38.2266L38.5 1.69531L38.6641 1.96875L38.6094 2.40625L38.3359 2.73438L38.0625 2.84375L37.7344 2.78906L37.5156 2.67969L37.2969 2.24219L37.3516 1.91406L37.625 1.58594L37.7344 1.53125ZM37.8984 1.80469L37.6797 1.96875L37.625 2.1875L37.7891 2.46094L37.8438 2.51562H38.1172L38.3359 2.24219L38.2266 1.91406L38.0625 1.80469H37.8984Z" fill="#374455"/>
<path d="M41.6172 8.14844L42.1094 8.3125L42.3281 8.64062L42.2734 9.13281L41.8906 9.46094H41.3984L41.0703 9.1875L40.9609 8.69531L41.1797 8.36719L41.3984 8.20312L41.6172 8.14844ZM41.5625 8.47656L41.2891 8.75L41.3438 9.02344L41.5078 9.1875L41.8359 9.13281L42 8.96875L41.9453 8.64062L41.7812 8.47656H41.5625Z" fill="#374455"/>
<path d="M50.3672 15.9688L50.6953 16.1328V16.2422L51.0781 15.9688V16.1875L50.9688 16.4062H51.3516V16.625L50.9141 16.5703L51.0234 16.7891L51.1875 16.9531L51.1328 17.1172L50.9141 17.0078V16.8984L50.6953 16.9531L50.5859 16.8984L50.4766 17.1172L50.3672 17.0625L50.4219 16.8438L50.5859 16.5703L50.1484 16.625V16.4609L50.4766 16.3516L50.3672 16.1328V15.9688Z" fill="#C13B44"/>
<path d="M24.3359 1.14844H24.4453L24.6094 1.47656L24.7188 1.53125L24.7734 1.42188L24.6641 1.36719L24.9922 1.14844H25.1016L24.9375 1.80469L25.2656 1.58594L25.3203 1.85938L25.0469 1.91406L24.9375 1.85938L25.1016 2.35156L24.8828 2.29688L24.6094 2.07812L24.5547 2.02344L24.5 2.35156L24.2812 2.29688L24.3906 1.96875L24.4453 1.64062V1.53125H24.3359V1.14844Z" fill="#C13B44"/>
<path d="M51.8984 5.35938H52.0078V5.74219L52.2266 5.79688L52.1719 6.07031L51.9531 6.50781L51.8438 6.45312V6.07031L51.4609 6.45312L51.4062 6.39844V6.125L51.2422 6.01562V5.85156H51.4062V5.96094H51.5703L51.4062 5.6875V5.41406L51.625 5.46875L51.6797 5.6875L51.7891 5.63281L51.8984 5.35938ZM51.9531 5.74219L51.8438 5.79688V5.96094L52.0078 5.90625L51.9531 5.74219Z" fill="#C13B44"/>
<path d="M5.35938 17.0078L5.46875 17.0625L5.41406 17.3906L5.35938 17.5H5.74219V17.6641L5.46875 17.7188V18.1016L5.25 18.0469L5.19531 17.7734L5.08594 17.8281L5.03125 18.1016L4.8125 18.0469L4.92188 17.6641L4.64844 17.7188V17.5L4.97656 17.4453L4.8125 17.2812V17.0625L5.03125 17.1172L5.14062 17.3359L5.35938 17.0078Z" fill="#C13B44"/>
<path d="M31.1172 6.34375L31.3359 6.45312L31.5 6.72656V6.83594L31.7188 6.89062L31.6641 7.21875H31.5547L31.5 7L31.2812 7.21875L31.0625 7.16406L30.9531 6.83594L31.1719 6.78125V6.67188L31.0625 6.61719L31.1172 6.34375Z" fill="#C13B44"/>
<path d="M24.2266 1.53125H24.3359V1.91406L24.1719 1.96875L24.1172 1.69531L24.2266 1.53125Z" fill="#C13B44"/>
<path d="M31.5547 6.34375H31.6641V6.61719H31.5L31.5547 6.34375Z" fill="#C13B44"/>
</svg>
