<svg width="38" height="36" viewBox="0 0 38 36" fill="none" xmlns="http://www.w3.org/2000/svg">
<rect x="0.25" y="0.25" width="37.2778" height="35.5" rx="7.75" fill="white" fill-opacity="0.5"/>
<rect x="0.25" y="0.25" width="37.2778" height="35.5" rx="7.75" stroke="#8B8B8B" stroke-width="0.5"/>
<path d="M22.8 11.7778C24.5778 11.7778 26 13.2 26 14.9778C26 16.7556 22.5333 20.6667 18.8889 23.6889C15.2444 20.5778 11.7778 16.6667 11.7778 14.9778C11.7778 13.2 13.2 11.7778 14.9778 11.7778C17.1111 11.7778 18.8889 14.4444 18.8889 14.4444C18.8889 14.4444 20.5778 11.7778 22.8 11.7778ZM22.8 10C21.2 10 19.7778 10.8 18.8889 12.0444C18 10.8 16.5778 10 14.9778 10C12.2222 10 10 12.2222 10 14.9778C10 18.8889 18.8889 26 18.8889 26C18.8889 26 27.7778 18.8889 27.7778 14.9778C27.7778 12.2222 25.5556 10 22.8 10Z" fill="#8B8B8B"/>
</svg>
