<svg width="136" height="136" viewBox="0 0 136 136" fill="none" xmlns="http://www.w3.org/2000/svg">
<path d="M106.496 2.60938H113.615L115.725 3.00488L117.438 3.92773L118.757 5.11426L119.812 6.56445L120.471 8.14648L120.734 9.33301V10.7832L120.339 12.8926L118.229 20.2754L117.175 23.835L117.307 24.3623L118.625 25.2852L119.68 26.4717L120.339 27.79L120.734 29.3721V30.6904L120.339 32.2725L119.812 33.3271L118.889 34.5137L117.702 35.4365L116.911 35.832H116.647L117.57 36.8867L119.548 38.9961L120.734 40.3145L121.657 41.3691L123.107 42.9512L124.03 44.0059L125.349 45.4561L127.722 48.3564L129.04 50.334L130.622 53.2344L131.677 55.8711L132.6 58.9033L133.127 61.8037L133.391 64.8359V66.8135L133.127 69.8457L132.468 73.2734L131.677 75.7783L130.622 78.415L129.436 80.6562L128.249 82.502L126.667 84.6113L125.217 86.1934L124.558 86.9844L123.503 87.9072L121.921 89.2256L119.68 90.8076L117.175 92.2578L114.538 93.4443L112.165 94.2354L109.396 94.8945L106.892 95.29L104.65 95.4219H102.673L99.6406 95.1582L96.4766 94.499L93.8398 93.708L91.335 92.6533L88.5664 91.2031L86.9844 90.1484L86.0615 89.4893L85.5342 89.3574L85.2705 90.0166L84.3477 91.0713L82.6338 92.2578L81.0518 92.917L79.9971 93.1807L78.5469 93.3125V108.078L82.1064 105.969L84.875 104.255L89.0938 101.75L91.7305 100.168L92.6533 99.7725L93.4443 99.6406H94.8945L96.4766 100.036L97.7949 100.959L98.8496 102.146L99.5088 103.728L99.6406 104.782V108.078H133.259L133.391 108.21V124.821L133.127 124.953H99.6406V127.985L99.377 129.699L98.7178 131.018L97.6631 132.204L96.4766 132.863L95.4219 133.259L93.8398 133.391L92.5215 133.127L90.4121 132.072L86.7207 129.831L83.1611 127.722L80.7881 126.271L78.5469 124.953V133.259L77.8877 133.391H11.1787L11.0469 133.259V93.3125L9.33301 93.1807L7.35547 92.5215L5.90527 91.5986L4.58691 90.4121L3.40039 88.5664L2.87305 87.248L2.60938 86.0615V83.8203L3.13672 81.8428L4.05957 79.9971L5.50977 78.415L6.82812 77.4922L9.86035 75.9102L14.8701 73.4053L17.375 72.0869L19.3525 71.0322L27.79 66.8135L30.2949 65.4951L37.1504 62.0674L39.6553 60.749L41.2373 60.0898L42.6875 59.6943L43.7422 59.5625H45.5879L47.5654 59.8262L49.6748 60.6172L53.1025 62.3311L55.6074 63.6494L60.6172 66.1543L63.1221 67.4727L67.3408 69.582L69.8457 70.9004L74.3281 73.1416L75.251 73.6689L74.9873 72.3506L74.5918 70.2412L74.3281 67.8682V63.6494L74.7236 60.6172L75.5146 57.3213L76.4375 54.6846L77.8877 51.6523L78.9424 49.9385L80.1289 48.2246L81.8428 46.1152L83.0293 44.7969L84.4795 43.2148L85.4023 42.1602L86.5889 40.8418L87.5117 39.7871L88.9619 38.2051L89.8848 37.1504L90.8076 36.2275L90.9395 35.832L90.1484 35.5684L88.9619 34.6455L88.0391 33.5908L87.248 32.0088L86.9844 30.9541V29.1084L87.5117 27.3945L88.3027 26.0762L89.3574 25.0215L90.6758 24.2305L92.2578 23.7031L91.4668 22.7803L88.9619 20.2754L88.0391 18.957L87.3799 17.5068L86.9844 15.9248V13.8154L87.5117 11.8379L88.3027 10.3877L89.0938 9.33301H89.3574L89.4893 8.9375L91.2031 7.75098L92.6533 7.0918L93.8398 6.82812L100.432 6.69629L101.486 5.24609L102.673 4.05957L103.991 3.26855L105.573 2.74121L106.496 2.60938ZM106.628 6.82812L105.31 7.35547L104.387 8.27832L103.991 9.06934L103.859 9.72852V15.1338L99.6406 15.2656V11.0469H94.2354L92.917 11.5742L92.126 12.2334L91.4668 13.2881L91.2031 14.3428V15.5293L91.7305 16.9795L93.1807 18.5615L98.1904 23.5713L98.4541 23.7031H112.824L113.747 20.5391L116.12 12.2334L116.516 10.124L116.252 8.80566L115.461 7.75098L114.802 7.22363L113.747 6.82812H106.628ZM92.6533 27.9219L91.8623 28.4492L91.335 29.1084L91.2031 29.5039V30.5586L91.8623 31.6133L92.7852 32.1406H114.538L115.461 31.877L116.12 31.3496L116.516 30.4268L116.384 29.2402L115.856 28.4492L115.329 28.0537L114.934 27.9219H92.6533ZM96.2129 36.3594L95.0264 37.6777L94.1035 38.7324L92.917 40.0508L91.9941 41.1055L90.4121 42.8193L89.2256 44.1377L88.3027 45.1924L87.1162 46.5107L85.666 48.0928L84.2158 49.8066L83.0293 51.3887L81.8428 53.2344L80.7881 55.3438L79.7334 57.9805L78.9424 60.8809L78.5469 64.0449V67.7363L78.9424 70.6367L79.7334 73.6689L80.7881 76.4375L81.1836 76.833L82.7656 77.624L84.4795 78.9424L85.666 80.5244L86.3252 81.9746L86.7207 83.4248L86.9844 84.7432L88.1709 85.7979L90.4121 87.3799L92.2578 88.4346L95.0264 89.6211L97.3994 90.4121L100.036 90.9395L102.805 91.2031H104.65L106.76 91.0713L109.66 90.5439L112.692 89.6211L115.461 88.4346L118.098 86.8525L119.943 85.4023L121.262 84.2158L121.921 83.6885L123.767 81.5791L125.085 79.7334L126.535 77.2285L127.59 74.7236L128.249 72.7461L128.776 70.373L129.04 68.6592L129.172 66.9453V64.7041L128.776 61.2764L128.117 58.5078L127.326 56.2666L126.008 53.498L124.689 51.3887L123.239 49.543L121.525 47.5654L119.68 45.5879L118.757 44.5332L117.438 43.083L116.516 42.0283L114.934 40.3145L114.011 39.2598L112.692 37.8096L111.77 36.7549L111.374 36.3594H96.2129ZM43.7422 63.7812L42.0283 64.3086L35.7002 67.4727L33.1953 68.791L28.4492 71.1641L25.9443 72.4824L21.9893 74.46L19.4844 75.7783L13.1562 78.9424L10.6514 80.2607L8.67383 81.3154L7.4873 82.3701L6.95996 83.5566L6.82812 84.084V85.666L7.4873 87.248L8.54199 88.3027L9.99219 88.9619L11.1787 89.0938L12.4971 88.8301L15.5293 87.3799L44.5332 72.8779L45.3242 73.0098L76.9648 88.8301L78.0195 89.0938L79.7334 88.9619L81.0518 88.3027L82.1064 87.248L82.6338 85.9297L82.7656 85.4023V84.2158L82.2383 82.7656L81.4473 81.7109L79.7334 80.6562L74.1963 77.8877L71.6914 76.5693L66.9453 74.1963L64.4404 72.8779L59.958 70.6367L57.4531 69.3184L53.498 67.3408L50.9932 66.0225L47.3018 64.1768L45.7197 63.7812H43.7422ZM44.4014 77.4922L15.3975 91.9941L15.2656 92.126V129.172H27.79L27.9219 129.04L28.0537 95.5537L61.6719 95.4219V129.172H74.1963L74.3281 129.04V122.448L72.2188 120.866L71.2959 119.943L70.6367 118.757L70.2412 117.438V115.593L70.7686 113.879L71.8232 112.429L73.4053 111.242L74.3281 110.583V92.2578L73.2734 91.5986L45.0605 77.4922H44.4014ZM32.1406 99.6406V108.474L33.3271 108.21H34.9092L36.2275 108.474L37.8096 109.265L39.1279 110.451L39.9189 111.77L40.3145 112.956L40.4463 113.747V114.934L40.1826 116.252L39.2598 118.098L38.4688 119.021L37.0186 119.943L35.5684 120.471H32.7998L32.1406 120.339V129.172H57.3213L57.4531 129.04V99.6406H32.1406ZM93.8398 103.859L91.7305 105.046L79.8652 112.165L76.1738 114.406L74.8555 115.329L74.1963 116.252L74.46 117.175L75.6465 118.229L78.415 119.943L82.2383 122.185L83.9521 123.239L88.1709 125.744L91.2031 127.59L93.1807 128.776L93.9717 129.172L94.6309 129.04L95.29 128.381L95.4219 127.194L95.5537 120.866L129.04 120.734L129.172 120.603V112.297H95.4219V105.046L95.0264 104.123L94.7627 103.859H93.8398Z" fill="#414141"/>
<path d="M101.75 44.7969H105.969L109.133 45.4561L111.638 46.3789L113.879 47.5654L115.329 48.6201L116.779 49.8066L118.229 51.2568L119.812 53.3662L120.866 55.2119L121.789 57.4531L122.316 59.167L122.712 61.4082L122.844 62.7266V64.5723L122.58 67.209L121.921 69.7139L121.13 71.6914L119.943 73.9326L118.625 75.7783L117.043 77.4922L115.725 78.6787L113.747 79.9971L111.506 81.1836L108.869 82.1064L106.232 82.6338L105.178 82.7656H102.014L99.377 82.2383L97.2676 81.5791L95.6855 80.9199L93.708 79.8652L91.8623 78.5469L90.0166 76.833L89.0938 75.7783L87.7754 73.9326L86.5889 71.8232L85.666 69.4502L85.1387 67.3408L84.875 65.4951V62.0674L85.2705 59.5625L86.0615 56.9258L87.248 54.4209L88.1709 52.9707L89.2256 51.6523L90.4121 50.334L91.335 49.4111L93.4443 47.8291L95.29 46.7744L97.0039 45.9834L99.1133 45.3242L101.75 44.7969Z" fill="#C13B44"/>
<path d="M40.8418 21.5938H42.6875L44.0059 21.9893L46.1152 23.1758L49.8066 25.417L54.0254 27.9219L57.7168 30.1631L61.9355 32.668L63.5176 33.7227L64.4404 34.5137L65.3633 35.9639L65.7588 37.1504L65.8906 37.8096V39.1279L65.3633 40.9736L64.4404 42.4238H64.1768V42.6875L62.4629 43.874L59.5625 45.5879L55.8711 47.8291L52.9707 49.543L50.334 51.125L46.6426 53.3662L44.1377 54.8164L43.083 55.2119L42.1602 55.3438H41.1055L39.3916 54.8164L38.2051 54.0254L37.2822 52.9707L36.4912 51.3887L36.3594 50.7295V46.9062H2.74121L2.60938 46.7744V30.1631L2.74121 30.0312L36.2275 29.8994L36.3594 26.208L36.8867 24.4941L37.8096 23.3076L38.8643 22.3848L39.9189 21.8574L40.8418 21.5938ZM41.3691 25.8125L40.71 26.3398L40.5781 26.6035L40.4463 34.1182L6.82812 34.25V42.6875L40.4463 42.8193L40.5781 50.334L41.2373 50.9932L42.0283 51.125L43.083 50.5977L54.2891 43.874L57.9805 41.6328L60.8809 39.9189L61.6719 38.9961V38.0732L61.2764 37.4141L60.4854 36.7549L58.2441 35.4365L56.2666 34.25L52.5752 32.0088L48.3564 29.5039L44.665 27.2627L42.1602 25.8125H41.3691Z" fill="#414141"/>
<path d="M101.091 44.9297H101.75V49.0166L101.223 49.4121L100.036 49.9395L98.7178 50.7305L97.3994 51.917L96.4766 53.3672L95.9492 54.5537L95.5537 56.2676V58.2451L96.0811 60.3545L96.8721 61.8047L98.0586 63.2549L99.377 64.1777L100.959 64.9688L105.573 66.5508L106.76 67.3418L107.551 68.2646L107.946 69.1875L108.078 70.6377L107.814 71.8242L107.023 73.0107L106.101 73.8018L104.65 74.3291H102.937L101.486 73.8018L100.563 73.0107L99.9043 71.9561L99.6406 70.9014V68.001H95.4219L95.5537 71.0332L95.9492 73.0107L96.8721 74.8564L97.7949 75.9111V76.1748L98.3223 76.4385L99.6406 77.3613L101.091 78.0205L101.618 78.2842L101.75 78.8115V82.5029L101.486 82.6348L99.377 82.2393L97.2676 81.5801L95.6855 80.9209L93.708 79.8662L91.8623 78.5479L90.0166 76.834L89.0938 75.7793L87.7754 73.9336L86.5889 71.8242L85.666 69.4512L85.1387 67.3418L84.875 65.4961V62.0684L85.2705 59.5635L86.0615 56.9268L87.248 54.4219L88.1709 52.9717L89.2256 51.6533L90.4121 50.335L91.335 49.4121L93.4443 47.8301L95.29 46.7754L97.0039 45.9844L99.1133 45.3252L101.091 44.9297Z" fill="#C13B44"/>
<path d="M101.75 44.7969H105.969L106.101 49.1475L108.078 50.0703L109.265 50.8613L110.583 52.1797L111.374 53.498L112.033 55.0801L112.297 56.1348V57.1895L112.033 57.3213L109.792 57.4531H108.078L107.683 55.7393L106.892 54.4209L105.705 53.6299L104.782 53.3662H102.805L101.486 53.8936L100.432 54.9482L99.9043 56.0029L99.7725 56.5303V57.8486L100.168 59.167L100.959 60.2217L102.409 61.0127L106.76 62.4629L108.605 63.3857L109.924 64.4404L110.979 65.7588L111.901 67.6045L112.297 69.1865V71.2959L111.77 73.2734L111.11 74.5918L110.188 75.7783L109.133 76.833L107.287 77.8877L106.628 78.1514H106.101L105.969 82.6338L105.178 82.7656H102.014L101.618 82.502V78.8105L101.486 78.2832L99.9043 77.624L98.4541 76.7012L97.7949 76.1738L96.7402 74.8555L95.8174 73.0098L95.4219 71.0322V68H99.6406L99.7725 70.9004L100.168 72.2188L101.091 73.4053L102.409 74.0645L102.937 74.1963H104.65L106.101 73.6689L107.155 72.7461L107.814 71.4277L107.946 69.9775L107.683 68.791L107.023 67.7363L106.101 66.9453L104.519 66.2861L100.959 65.0996L99.1133 64.1768L97.6631 62.9902L96.4766 61.4082L95.8174 59.958L95.4219 58.2441V56.2666L95.9492 54.1572L96.8721 52.4434L98.1904 50.9932L99.5088 50.0703L101.618 49.0156L101.75 44.7969Z" fill="white"/>
<path d="M33.3271 108.078H34.9092L36.2275 108.342L37.8096 109.133L39.1279 110.319L40.0508 111.77L40.4463 112.956L40.5781 113.747V114.934L40.3145 116.252L39.3916 118.098L38.4688 119.152L37.0186 120.075L35.5684 120.603H32.7998L32.1406 120.339V108.474L33.3271 108.078Z" fill="#C13B44"/>
</svg>
