<svg width="42" height="42" viewBox="0 0 42 42" fill="none" xmlns="http://www.w3.org/2000/svg">
<g clip-path="url(#clip0_648_66111)">
<path fill-rule="evenodd" clip-rule="evenodd" d="M21 0C32.5902 0 42 9.40981 42 21C42 32.5902 32.5902 42 21 42C9.40981 42 0 32.5902 0 21C0 9.40981 9.40981 0 21 0ZM21 7.875C17.4355 7.875 16.9885 7.89009 15.5886 7.954C14.1916 8.01773 13.2375 8.23963 12.4025 8.56406C11.5395 8.89949 10.8075 9.34828 10.0779 10.0779C9.3482 10.8076 8.89941 11.5396 8.56398 12.4026C8.23955 13.2375 8.01773 14.1916 7.95391 15.5886C7.89009 16.9885 7.875 17.4355 7.875 21C7.875 24.5645 7.89009 25.0115 7.95391 26.4114C8.01773 27.8084 8.23955 28.7625 8.56398 29.5974C8.89941 30.4604 9.3482 31.1924 10.0779 31.9221C10.8075 32.6518 11.5395 33.1006 12.4025 33.436C13.2375 33.7604 14.1916 33.9823 15.5886 34.046C16.9885 34.1099 17.4355 34.125 21 34.125C24.5645 34.125 25.0115 34.1099 26.4114 34.046C27.8084 33.9823 28.7625 33.7604 29.5974 33.436C30.4604 33.1006 31.1924 32.6518 31.9221 31.9221C32.6518 31.1924 33.1006 30.4604 33.436 29.5974C33.7604 28.7625 33.9823 27.8084 34.046 26.4114C34.1099 25.0115 34.125 24.5645 34.125 21C34.125 17.4355 34.1099 16.9885 34.046 15.5886C33.9823 14.1916 33.7604 13.2375 33.436 12.4026C33.1006 11.5396 32.6518 10.8076 31.9221 10.0779C31.1924 9.34828 30.4604 8.89949 29.5974 8.56406C28.7625 8.23963 27.8084 8.01773 26.4114 7.954C25.0115 7.89009 24.5645 7.875 21 7.875ZM21 10.2399C24.5045 10.2399 24.9196 10.2533 26.3036 10.3164C27.5833 10.3748 28.2782 10.5886 28.7407 10.7683C29.3534 11.0064 29.7906 11.2909 30.2498 11.7502C30.7092 12.2094 30.9936 12.6467 31.2317 13.2593C31.4114 13.7218 31.6253 14.4167 31.6836 15.6964C31.7467 17.0804 31.7601 17.4955 31.7601 21C31.7601 24.5045 31.7467 24.9196 31.6836 26.3036C31.6253 27.5833 31.4114 28.2782 31.2317 28.7407C30.9936 29.3534 30.7092 29.7906 30.2498 30.2498C29.7906 30.7092 29.3534 30.9936 28.7407 31.2317C28.2782 31.4114 27.5833 31.6253 26.3036 31.6836C24.9199 31.7467 24.5048 31.7601 21 31.7601C17.4952 31.7601 17.0802 31.7467 15.6964 31.6836C14.4167 31.6253 13.7218 31.4114 13.2593 31.2317C12.6466 30.9936 12.2094 30.7092 11.7501 30.2498C11.2908 29.7906 11.0064 29.3534 10.7683 28.7407C10.5886 28.2782 10.3747 27.5833 10.3163 26.3036C10.2532 24.9196 10.2399 24.5045 10.2399 21C10.2399 17.4955 10.2532 17.0804 10.3163 15.6964C10.3747 14.4167 10.5886 13.7218 10.7683 13.2593C11.0064 12.6467 11.2908 12.2094 11.7501 11.7502C12.2094 11.2909 12.6466 11.0064 13.2593 10.7683C13.7218 10.5886 14.4167 10.3748 15.6964 10.3164C17.0804 10.2533 17.4955 10.2399 21 10.2399ZM21 14.2601C17.2777 14.2601 14.2601 17.2777 14.2601 21C14.2601 24.7223 17.2777 27.7399 21 27.7399C24.7223 27.7399 27.7399 24.7223 27.7399 21C27.7399 17.2777 24.7223 14.2601 21 14.2601ZM21 25.375C18.5838 25.375 16.625 23.4162 16.625 21C16.625 18.5838 18.5838 16.625 21 16.625C23.4162 16.625 25.375 18.5838 25.375 21C25.375 23.4162 23.4162 25.375 21 25.375ZM29.5812 13.9939C29.5812 14.8637 28.876 15.5688 28.0061 15.5688C27.1363 15.5688 26.4312 14.8637 26.4312 13.9939C26.4312 13.124 27.1363 12.4189 28.0061 12.4189C28.876 12.4189 29.5812 13.124 29.5812 13.9939Z" fill="white"/>
</g>
<defs>
<clipPath id="clip0_648_66111">
<rect width="42" height="42" fill="white"/>
</clipPath>
</defs>
</svg>
