<svg width="136" height="136" viewBox="0 0 136 136" fill="none" xmlns="http://www.w3.org/2000/svg">
<path d="M58.6387 57.4531H68.5264L69.9766 57.7168L71.5586 58.5078L72.877 59.6943L73.668 60.8809L74.1953 62.3311L74.3271 63.1221V64.3086L73.9316 65.8906H82.7646V69.8457L82.1055 70.1094H78.5459V80.5244L78.2822 82.8975L77.623 84.875L76.832 86.3252L76.4365 86.9844H133.258L133.39 87.1162V133.259L132.203 133.391H40.709L40.5771 133.259L40.4453 102.805V92.5215L40.5771 86.9844H51.124L50.0693 85.2705L49.4102 83.5566L49.0146 81.4473L48.8828 76.1738V70.1094H44.9277L44.7959 69.9775V66.0225L44.9277 65.8906L53.4971 65.7588L53.2334 64.5723V62.9902L53.6289 61.4082L54.5518 59.8262L55.6064 58.7715L56.9248 57.9805L57.9795 57.585L58.6387 57.4531ZM58.9023 61.6719L58.1113 62.1992L57.584 62.8584L57.4521 63.2539V64.3086L58.1113 65.3633L59.0342 65.8906H68.2627L69.1855 65.4951L69.8447 64.8359L70.1084 64.1768L69.9766 62.9902L69.4492 62.1992L68.9219 61.8037L68.5264 61.6719H58.9023ZM53.2334 70.1094V74.3281H74.1953L74.3271 74.1963V70.1094H53.2334ZM53.2334 78.5469V81.3154L53.6289 83.0293L54.5518 84.6113L55.6064 85.666L57.0566 86.457L58.1113 86.8525L58.9023 86.9844H68.5264L70.2402 86.5889L71.5586 85.9297L72.877 84.7432L73.668 83.4248L74.0635 82.2383L74.3271 80.5244V78.5469H53.2334ZM44.7959 91.2031V95.4219H69.9766L70.1084 95.29V91.2031H44.7959ZM74.5908 91.0713L74.3271 91.2031V95.4219H99.5078L99.6396 95.29V91.2031L74.5908 91.0713ZM103.858 91.2031V95.4219H129.039L129.171 95.29V91.2031H103.858ZM44.7959 99.6406L44.6641 128.117L44.7959 129.172H69.9766L70.1084 129.04V99.6406H44.7959ZM74.3271 99.6406V129.172H99.5078L99.6396 129.04V99.6406H74.3271ZM103.858 99.6406V129.172H129.039L129.171 129.04V99.6406H103.858Z" fill="#414141"/>
<path d="M6.30078 4.71875H129.567L130.358 5.11426L131.018 5.90527L131.281 6.56445V11.3105L130.886 12.2334L129.831 13.0244L129.304 13.2881L129.172 48.8838L128.908 49.0156H6.82812L6.69629 46.2471V13.2881L5.50977 12.6289L4.85059 11.9697L4.71875 11.5742V6.30078L5.24609 5.50977L6.30078 4.71875ZM11.0469 13.1562V44.7969H36.2275L36.3594 44.665V13.1562H11.0469ZM40.5781 13.1562V44.7969H65.7588L65.8906 44.665V13.1562H40.5781ZM70.1094 13.1562L69.9775 44.665L70.1094 44.7969H95.29L95.4219 44.1377V13.1562H70.1094ZM99.6406 13.1562V44.7969H124.821L124.953 44.665V13.2881L124.821 13.1562H99.6406Z" fill="#414141"/>
<path d="M6.30078 4.71875H129.567L130.358 5.11426L131.018 5.90527L131.281 6.56445V11.3105L130.886 12.2334L129.831 13.0244L129.172 13.2881H6.69629L5.50977 12.6289L4.85059 11.9697L4.71875 11.5742V6.30078L5.24609 5.50977L6.30078 4.71875Z" fill="#C13B44"/>
<path d="M20.4062 53.2344H22.6475L24.7568 53.6299L26.6025 54.4209L28.3164 55.6074L29.3711 56.5303L30.6895 58.376L31.6123 60.3535L32.0078 61.9355L32.1396 63.7812H36.2266L36.3584 63.9131V67.8682L35.8311 68H23.7021V63.9131L23.834 63.7812L27.7891 63.6494L27.6572 62.4629L27.1299 60.8809L26.207 59.5625L25.0205 58.5078L23.5703 57.8486L22.3838 57.585H20.6699L19.2197 57.9805L17.7695 58.7715L16.583 59.958L15.6602 61.8037L15.3965 62.9902L15.2646 78.5469H19.4834V86.8525L36.3584 86.9844V99.377L36.2266 99.5088L32.2715 99.6406L32.1396 133.259L29.5029 133.391H2.74023L2.6084 133.259L2.47656 93.9717V88.6982L2.6084 78.6787L2.74023 78.5469H11.0459V62.4629L11.5732 60.2217L12.6279 58.1123L13.9463 56.3984L15.1328 55.3438L16.8467 54.2891L18.4287 53.6299L19.3516 53.3662L20.4062 53.2344ZM6.95898 82.6338L6.82715 82.7656V86.9844H15.1328L15.2646 86.8525V82.8975L15.1328 82.7656L6.95898 82.6338ZM6.82715 91.2031V95.4219H32.0078L32.1396 95.29V91.2031H6.82715ZM6.82715 99.6406V129.172H27.7891L27.9209 129.04V99.6406H6.82715Z" fill="#414141"/>
<path d="M116.517 53.2344H120.604L120.735 53.3662L120.867 66.0225L122.449 66.6816L123.636 67.6045L124.559 68.6592L125.35 70.373L125.877 73.0098L127.327 81.7109V82.6338L126.932 82.7656H109.925L109.793 82.1064L110.848 76.042L111.771 70.7686L112.298 69.3184L113.089 68.1318L113.616 67.4727L115.066 66.5498L115.989 66.1543H116.385L116.517 53.2344Z" fill="#C13B44"/>
<path d="M95.4219 53.2344H99.5088L99.6406 53.3662L99.7725 66.1543L101.223 66.6816L102.673 67.6045L103.728 68.5273L104.782 69.9775L105.441 71.2959L105.969 73.2734V75.251L105.441 77.3604L104.782 78.6787L103.859 79.8652L102.541 81.1836L100.432 82.2383L99.1133 82.6338L98.0586 82.7656H96.7402L94.8945 82.3701L93.3125 81.7109L92.126 80.7881L91.2031 79.9971L90.0166 78.2832L89.3574 76.7012L89.0938 75.5146V73.1416L89.6211 71.1641L90.6758 69.3184L91.8623 68L93.3125 66.9453L95.29 66.0225L95.4219 53.2344Z" fill="#C13B44"/>
<path d="M108.21 105.969H124.821L124.953 106.101V110.319L124.689 111.77L123.898 112.956L122.844 113.879L121.657 114.274L120.471 114.406H112.165L110.715 114.143L109.396 113.352L108.605 112.297L108.078 110.847V106.101L108.21 105.969Z" fill="#C13B44"/>
<path d="M49.1475 105.969H65.7588L65.8906 106.101V110.188L65.627 111.638L64.9678 112.824L64.0449 113.747L62.7266 114.274L61.2764 114.406H53.1025L51.6523 114.143L50.334 113.352L49.543 112.297L49.0156 110.979V106.101L49.1475 105.969Z" fill="#C13B44"/>
<path d="M78.6787 105.969H95.4219V110.188L95.1582 111.77L94.3672 112.956L93.3125 113.879L92.126 114.274L90.8076 114.406H82.6338L81.1836 114.143L80.1289 113.483L79.4697 112.824L78.8105 111.77L78.5469 110.847V106.101L78.6787 105.969Z" fill="#C13B44"/>
<path d="M95.4219 53.2344H99.5088L99.6406 53.3662V66.1543L98.5859 66.0225H96.2129L95.5537 66.1543L95.4219 66.0225V53.2344Z" fill="#414141"/>
<path d="M116.516 53.2344H120.603L120.734 53.3662V66.0225L116.516 65.8906V53.2344Z" fill="#414141"/>
<path d="M44.9287 23.7031H49.0156V36.2275L48.752 36.3594H44.9287L44.7969 36.2275V23.835L44.9287 23.7031Z" fill="#414141"/>
<path d="M28.0537 23.7031H32.0088L32.1406 23.835V36.2275L31.877 36.3594H27.9219V23.835L28.0537 23.7031Z" fill="#414141"/>
<path d="M87.1162 23.7031H91.0713L91.2031 23.835V36.2275L90.9395 36.3594H87.1162L86.9844 36.2275V23.835L87.1162 23.7031Z" fill="#414141"/>
<path d="M103.859 23.7031H107.946L108.078 23.835V36.2275L107.023 36.3594H103.859V23.7031Z" fill="#414141"/>
<path d="M11.0469 120.734H15.2656V124.821L14.8701 124.953H11.0469V120.734Z" fill="#414141"/>
<path d="M11.0469 103.859H15.1338L15.2656 103.991V107.946L15.002 108.078H11.0469V103.859Z" fill="#414141"/>
<path d="M11.0469 112.297H15.2656V116.384L14.7383 116.516H11.0469V112.297Z" fill="#414141"/>
</svg>
