<svg width="136" height="136" viewBox="0 0 136 136" fill="none" xmlns="http://www.w3.org/2000/svg">
<path d="M58.6396 57.4531H68.5273L69.9775 57.7168L71.5596 58.5078L72.8779 59.6943L73.6689 60.8809L74.1963 62.3311L74.3281 63.1221V64.3086L73.9326 65.8906H82.7656V69.8457L82.1064 70.1094H78.5469V80.5244L78.2832 82.8975L77.624 84.875L76.833 86.3252L76.4375 86.9844H133.259L133.391 87.1162V133.259L132.204 133.391H40.71L40.5781 133.259L40.4463 102.805V92.5215L40.5781 86.9844H51.125L50.0703 85.2705L49.4111 83.5566L49.0156 81.4473L48.8838 76.1738V70.1094H44.9287L44.7969 69.9775V66.0225L44.9287 65.8906L53.498 65.7588L53.2344 64.5723V62.9902L53.6299 61.4082L54.5527 59.8262L55.6074 58.7715L56.9258 57.9805L57.9805 57.585L58.6396 57.4531ZM58.9033 61.6719L58.1123 62.1992L57.585 62.8584L57.4531 63.2539V64.3086L58.1123 65.3633L59.0352 65.8906H68.2637L69.1865 65.4951L69.8457 64.8359L70.1094 64.1768L69.9775 62.9902L69.4502 62.1992L68.9229 61.8037L68.5273 61.6719H58.9033ZM53.2344 70.1094V74.3281H74.1963L74.3281 74.1963V70.1094H53.2344ZM53.2344 78.5469V81.3154L53.6299 83.0293L54.5527 84.6113L55.6074 85.666L57.0576 86.457L58.1123 86.8525L58.9033 86.9844H68.5273L70.2412 86.5889L71.5596 85.9297L72.8779 84.7432L73.6689 83.4248L74.0645 82.2383L74.3281 80.5244V78.5469H53.2344ZM44.7969 91.2031V95.4219H69.9775L70.1094 95.29V91.2031H44.7969ZM74.5918 91.0713L74.3281 91.2031V95.4219H99.5088L99.6406 95.29V91.2031L74.5918 91.0713ZM103.859 91.2031V95.4219H129.04L129.172 95.29V91.2031H103.859ZM44.7969 99.6406L44.665 128.117L44.7969 129.172H69.9775L70.1094 129.04V99.6406H44.7969ZM74.3281 99.6406V129.172H99.5088L99.6406 129.04V99.6406H74.3281ZM103.859 99.6406V129.172H129.04L129.172 129.04V99.6406H103.859Z" fill="#414141"/>
<path d="M6.30078 4.71875H129.567L130.358 5.11426L131.018 5.90527L131.281 6.56445V11.3105L130.886 12.2334L129.831 13.0244L129.304 13.2881L129.172 48.8838L128.908 49.0156H6.82812L6.69629 46.2471V13.2881L5.50977 12.6289L4.85059 11.9697L4.71875 11.5742V6.30078L5.24609 5.50977L6.30078 4.71875ZM11.0469 13.1562V44.7969H36.2275L36.3594 44.665V13.1562H11.0469ZM40.5781 13.1562V44.7969H65.7588L65.8906 44.665V13.1562H40.5781ZM70.1094 13.1562L69.9775 44.665L70.1094 44.7969H95.29L95.4219 44.1377V13.1562H70.1094ZM99.6406 13.1562V44.7969H124.821L124.953 44.665V13.2881L124.821 13.1562H99.6406Z" fill="#414141"/>
<path d="M6.30078 4.71875H129.567L130.358 5.11426L131.018 5.90527L131.281 6.56445V11.3105L130.886 12.2334L129.831 13.0244L129.172 13.2881H6.69629L5.50977 12.6289L4.85059 11.9697L4.71875 11.5742V6.30078L5.24609 5.50977L6.30078 4.71875Z" fill="#C13B44"/>
<path d="M20.4072 53.2344H22.6484L24.7578 53.6299L26.6035 54.4209L28.3174 55.6074L29.3721 56.5303L30.6904 58.376L31.6133 60.3535L32.0088 61.9355L32.1406 63.7812H36.2275L36.3594 63.9131V67.8682L35.832 68H23.7031V63.9131L23.835 63.7812L27.79 63.6494L27.6582 62.4629L27.1309 60.8809L26.208 59.5625L25.0215 58.5078L23.5713 57.8486L22.3848 57.585H20.6709L19.2207 57.9805L17.7705 58.7715L16.584 59.958L15.6611 61.8037L15.3975 62.9902L15.2656 78.5469H19.4844V86.8525L36.3594 86.9844V99.377L36.2275 99.5088L32.2725 99.6406L32.1406 133.259L29.5039 133.391H2.74121L2.60938 133.259L2.47754 93.9717V88.6982L2.60938 78.6787L2.74121 78.5469H11.0469V62.4629L11.5742 60.2217L12.6289 58.1123L13.9473 56.3984L15.1338 55.3438L16.8477 54.2891L18.4297 53.6299L19.3525 53.3662L20.4072 53.2344ZM6.95996 82.6338L6.82812 82.7656V86.9844H15.1338L15.2656 86.8525V82.8975L15.1338 82.7656L6.95996 82.6338ZM6.82812 91.2031V95.4219H32.0088L32.1406 95.29V91.2031H6.82812ZM6.82812 99.6406V129.172H27.79L27.9219 129.04V99.6406H6.82812Z" fill="#414141"/>
<path d="M116.516 53.2344H120.603L120.734 53.3662L120.866 66.0225L122.448 66.6816L123.635 67.6045L124.558 68.6592L125.349 70.373L125.876 73.0098L127.326 81.7109V82.6338L126.931 82.7656H109.924L109.792 82.1064L110.847 76.042L111.77 70.7686L112.297 69.3184L113.088 68.1318L113.615 67.4727L115.065 66.5498L115.988 66.1543H116.384L116.516 53.2344Z" fill="#C13B44"/>
<path d="M95.4219 53.2344H99.5088L99.6406 53.3662L99.7725 66.1543L101.223 66.6816L102.673 67.6045L103.728 68.5273L104.782 69.9775L105.441 71.2959L105.969 73.2734V75.251L105.441 77.3604L104.782 78.6787L103.859 79.8652L102.541 81.1836L100.432 82.2383L99.1133 82.6338L98.0586 82.7656H96.7402L94.8945 82.3701L93.3125 81.7109L92.126 80.7881L91.2031 79.9971L90.0166 78.2832L89.3574 76.7012L89.0938 75.5146V73.1416L89.6211 71.1641L90.6758 69.3184L91.8623 68L93.3125 66.9453L95.29 66.0225L95.4219 53.2344Z" fill="#C13B44"/>
<path d="M108.21 105.969H124.821L124.953 106.101V110.319L124.689 111.77L123.898 112.956L122.844 113.879L121.657 114.274L120.471 114.406H112.165L110.715 114.143L109.396 113.352L108.605 112.297L108.078 110.847V106.101L108.21 105.969Z" fill="#C13B44"/>
<path d="M49.1475 105.969H65.7588L65.8906 106.101V110.188L65.627 111.638L64.9678 112.824L64.0449 113.747L62.7266 114.274L61.2764 114.406H53.1025L51.6523 114.143L50.334 113.352L49.543 112.297L49.0156 110.979V106.101L49.1475 105.969Z" fill="#C13B44"/>
<path d="M78.6787 105.969H95.4219V110.188L95.1582 111.77L94.3672 112.956L93.3125 113.879L92.126 114.274L90.8076 114.406H82.6338L81.1836 114.143L80.1289 113.483L79.4697 112.824L78.8105 111.77L78.5469 110.847V106.101L78.6787 105.969Z" fill="#C13B44"/>
<path d="M95.4219 53.2344H99.5088L99.6406 53.3662V66.1543L98.5859 66.0225H96.2129L95.5537 66.1543L95.4219 66.0225V53.2344Z" fill="#414141"/>
<path d="M116.516 53.2344H120.603L120.734 53.3662V66.0225L116.516 65.8906V53.2344Z" fill="#414141"/>
<path d="M44.9287 23.7031H49.0156V36.2275L48.752 36.3594H44.9287L44.7969 36.2275V23.835L44.9287 23.7031Z" fill="#414141"/>
<path d="M28.0537 23.7031H32.0088L32.1406 23.835V36.2275L31.877 36.3594H27.9219V23.835L28.0537 23.7031Z" fill="#414141"/>
<path d="M87.1162 23.7031H91.0713L91.2031 23.835V36.2275L90.9395 36.3594H87.1162L86.9844 36.2275V23.835L87.1162 23.7031Z" fill="#414141"/>
<path d="M103.859 23.7031H107.946L108.078 23.835V36.2275L107.023 36.3594H103.859V23.7031Z" fill="#414141"/>
<path d="M11.0469 120.734H15.2656V124.821L14.8701 124.953H11.0469V120.734Z" fill="#414141"/>
<path d="M11.0469 103.859H15.1338L15.2656 103.991V107.946L15.002 108.078H11.0469V103.859Z" fill="#414141"/>
<path d="M11.0469 112.297H15.2656V116.384L14.7383 116.516H11.0469V112.297Z" fill="#414141"/>
</svg>
