<svg width="398" height="218" viewBox="0 0 552 368" fill="none" xmlns="http://www.w3.org/2000/svg">
<path d="M136.338 104.594H21.375V168.876H136.338V104.594Z" fill="#FAFAFA"/>
<path d="M136.337 168.876C136.337 168.876 136.337 168.479 136.337 167.72C136.337 166.962 136.337 165.829 136.337 164.364C136.337 161.42 136.337 157.078 136.3 151.506C136.3 140.378 136.256 124.326 136.226 104.594L136.374 104.741L21.4178 104.785L21.6091 104.594C21.6091 127.329 21.6091 149.07 21.6091 168.876L21.4325 168.699L104.107 168.788L127.858 168.832H134.195H135.829H136.396H135.851H134.239H127.939L104.225 168.883L21.3442 169.06H21.1602V168.876C21.1602 149.07 21.1602 127.329 21.1602 104.594V104.402H21.3662L136.322 104.447H136.469V104.594C136.432 124.37 136.41 140.452 136.388 151.602C136.388 157.151 136.388 161.479 136.352 164.416C136.352 165.888 136.352 166.992 136.352 167.75C136.352 168.508 136.337 168.876 136.337 168.876Z" fill="#E0E0E0"/>
<path d="M51.6688 119.918H35.418V136.169H51.6688V119.918Z" fill="#E0E0E0"/>
<path d="M73.997 122.176C73.997 122.279 70.1992 122.367 65.5256 122.367C60.852 122.367 57.0469 122.279 57.0469 122.176C57.0469 122.073 60.8446 121.984 65.5256 121.984C70.2066 121.984 73.997 122.095 73.997 122.176Z" fill="#E0E0E0"/>
<path d="M128.115 128.064C128.115 128.167 112.21 128.256 92.5883 128.256C72.9666 128.256 57.0469 128.167 57.0469 128.064C57.0469 127.961 72.9592 127.873 92.5883 127.873C112.217 127.873 128.115 127.939 128.115 128.064Z" fill="#E0E0E0"/>
<path d="M104.211 134.602C104.211 134.705 93.7524 134.793 80.8576 134.793C67.9629 134.793 57.5117 134.705 57.5117 134.602C57.5117 134.498 67.9629 134.41 80.8576 134.41C93.7524 134.41 104.211 134.491 104.211 134.602Z" fill="#E0E0E0"/>
<path d="M119.314 160.361H40.7832C38.7856 160.359 36.8705 159.564 35.4587 158.151C34.0469 156.738 33.2539 154.822 33.2539 152.824C33.2539 150.827 34.0472 148.912 35.4592 147.5C36.8712 146.088 38.7863 145.295 40.7832 145.295H119.314C120.304 145.294 121.284 145.488 122.198 145.866C123.112 146.244 123.943 146.798 124.643 147.498C125.343 148.197 125.898 149.027 126.277 149.941C126.656 150.855 126.851 151.835 126.851 152.824C126.851 153.814 126.656 154.794 126.277 155.708C125.899 156.623 125.343 157.454 124.644 158.153C123.944 158.853 123.113 159.408 122.199 159.787C121.284 160.166 120.304 160.361 119.314 160.361Z" fill="#E0E0E0"/>
<path d="M65.6146 153.884H63.6863L63.3183 154.774H62.332L64.1867 150.623H65.1362L66.9762 154.774H65.9826L65.6146 153.884ZM65.3128 153.148L64.6504 151.558L64.0322 153.155L65.3128 153.148Z" fill="white"/>
<path d="M71.0248 152.125C71.0248 153.052 70.2888 153.597 69.2216 153.597H68.3826V154.745H67.4258V150.594H69.2216C70.3256 150.623 71.0248 151.197 71.0248 152.125ZM70.0533 152.125C70.0533 151.668 69.7515 151.389 69.1627 151.389H68.3826V152.861H69.1848C69.7515 152.846 70.0533 152.581 70.0533 152.125Z" fill="white"/>
<path d="M75.3022 152.125C75.3022 153.052 74.6103 153.597 73.5063 153.597H72.6673V154.745H71.7031V150.594H73.5063C74.6103 150.623 75.3022 151.197 75.3022 152.125ZM74.3306 152.125C74.3306 151.668 74.0362 151.389 73.4474 151.389H72.6673V152.861H73.4474C74.0362 152.846 74.338 152.581 74.338 152.125H74.3306Z" fill="white"/>
<path d="M75.9844 150.623H76.9485V153.987H79.0314V154.774H75.9844V150.623Z" fill="white"/>
<path d="M81.135 153.301V154.773H80.1709V153.301L78.5664 150.637H79.5821L80.6934 152.477L81.8048 150.637H82.7469L81.135 153.301Z" fill="white"/>
<path d="M88.6371 150.623V154.774H87.8496L85.7815 152.25V154.774H84.832V150.623H85.6269L87.6877 153.14V150.623H88.6371Z" fill="white"/>
<path d="M89.3598 152.699C89.3317 152.242 89.4415 151.788 89.6749 151.395C89.9083 151.001 90.2545 150.687 90.6686 150.493C91.0827 150.299 91.5456 150.234 91.9972 150.306C92.4489 150.378 92.8684 150.584 93.2013 150.898C93.5342 151.212 93.7653 151.618 93.8644 152.064C93.9636 152.511 93.9262 152.977 93.7573 153.402C93.5883 153.827 93.2956 154.191 92.9169 154.448C92.5383 154.704 92.0913 154.841 91.634 154.841C91.342 154.858 91.0497 154.815 90.7748 154.715C90.5 154.615 90.2484 154.46 90.0355 154.26C89.8226 154.059 89.6528 153.817 89.5366 153.549C89.4205 153.281 89.3603 152.991 89.3598 152.699ZM92.9294 152.699C92.9236 152.444 92.8427 152.196 92.6969 151.987C92.5511 151.778 92.3468 151.617 92.1097 151.523C91.8725 151.43 91.613 151.408 91.3637 151.461C91.1144 151.515 90.8864 151.64 90.7081 151.823C90.5299 152.005 90.4094 152.236 90.3618 152.486C90.3142 152.737 90.3415 152.996 90.4403 153.231C90.5392 153.465 90.7052 153.666 90.9175 153.807C91.1298 153.948 91.3791 154.024 91.634 154.024C91.8081 154.029 91.9814 153.998 92.1429 153.933C92.3044 153.868 92.4507 153.77 92.5724 153.646C92.6942 153.521 92.7888 153.373 92.8502 153.21C92.9117 153.047 92.9386 152.873 92.9294 152.699Z" fill="white"/>
<path d="M100.768 150.623L99.406 154.774H98.3756L97.463 151.963L96.5209 154.774H95.4979L94.1289 150.623H95.1299L96.0646 153.567L97.0435 150.623H97.934L98.8835 153.567L99.8476 150.623H100.768Z" fill="white"/>
<path d="M138.766 241.482H39.3984V297.043H138.766V241.482Z" fill="#FAFAFA"/>
<path d="M138.766 297.051C138.766 297.051 138.766 296.705 138.766 296.043C138.766 295.381 138.766 294.409 138.766 293.143C138.766 290.589 138.766 286.843 138.722 282.029C138.722 272.41 138.678 258.536 138.648 241.483L138.796 241.63L39.4356 241.675L39.627 241.483C39.627 261.134 39.627 279.925 39.627 297.051L39.4504 296.867L110.901 296.956L131.436 297.007H136.911H138.332H138.818H136.897H131.458L110.96 297.059L39.3915 297.147H39.2148V296.97C39.2148 279.844 39.2148 261.053 39.2148 241.402V241.211H39.4136L138.774 241.255H138.921V241.402C138.884 258.5 138.862 272.403 138.84 282.037C138.84 286.836 138.84 290.574 138.84 293.114C138.84 294.372 138.84 295.322 138.84 295.999C138.84 296.676 138.766 297.051 138.766 297.051Z" fill="#E0E0E0"/>
<path d="M65.5932 254.73H51.543V268.781H65.5932V254.73Z" fill="#E0E0E0"/>
<path d="M84.8824 256.703C82.434 256.894 79.9774 256.958 77.5224 256.895C75.0797 256.957 72.6354 256.893 70.1992 256.703C72.6354 256.514 75.0797 256.45 77.5224 256.512C79.9774 256.449 82.434 256.513 84.8824 256.703Z" fill="#E0E0E0"/>
<path d="M131.665 261.752C131.665 261.855 117.916 261.943 100.952 261.943C83.9868 261.943 70.2383 261.855 70.2383 261.752C70.2383 261.649 83.9868 261.561 100.952 261.561C117.916 261.561 131.665 261.649 131.665 261.752Z" fill="#E0E0E0"/>
<path d="M110.996 267.42C110.996 267.523 101.958 267.611 90.8153 267.611C79.6722 267.611 70.6562 267.523 70.6562 267.42C70.6562 267.317 79.6943 267.229 90.8374 267.229C101.98 267.229 110.996 267.309 110.996 267.42Z" fill="#E0E0E0"/>
<path d="M124.052 289.684H56.1777C54.4501 289.684 52.7934 288.998 51.5718 287.776C50.3503 286.555 49.6641 284.898 49.6641 283.17C49.6641 282.315 49.8326 281.469 50.16 280.679C50.4875 279.889 50.9674 279.171 51.5723 278.567C52.1772 277.963 52.8953 277.484 53.6856 277.157C54.4758 276.831 55.3226 276.663 56.1777 276.664H124.052C124.907 276.663 125.753 276.831 126.544 277.157C127.334 277.484 128.052 277.963 128.657 278.567C129.262 279.171 129.742 279.889 130.069 280.679C130.397 281.469 130.565 282.315 130.565 283.17C130.565 284.898 129.879 286.555 128.657 287.776C127.436 288.998 125.779 289.684 124.052 289.684Z" fill="#E0E0E0"/>
<path d="M77.6348 284.096H75.9715L75.655 284.832H74.8086L76.4057 281.248H77.2227L78.8272 284.832H77.9513L77.6348 284.096ZM77.3772 283.463L76.8105 282.094L76.2364 283.463H77.3772Z" fill="white"/>
<path d="M82.3081 282.573C82.3081 283.368 81.712 283.868 80.7552 283.868H80.0192V284.832H79.1875V281.248H80.7405C81.6973 281.27 82.3081 281.763 82.3081 282.573ZM81.4691 282.573C81.4691 282.175 81.2115 281.947 80.7331 281.947H80.056V283.191H80.7331C81.2115 283.191 81.4691 282.963 81.4691 282.573Z" fill="white"/>
<path d="M86.0074 282.573C86.0074 283.368 85.4112 283.868 84.4544 283.868H83.7184V284.832H82.8867V281.248H84.4397C85.4112 281.27 86.0074 281.763 86.0074 282.573ZM85.1683 282.573C85.1683 282.175 84.9107 281.947 84.4323 281.947H83.7626V283.191H84.4323C84.9107 283.191 85.1683 282.963 85.1683 282.573Z" fill="white"/>
<path d="M86.6055 281.27H87.4298V284.177H89.233V284.832H86.6055V281.27Z" fill="white"/>
<path d="M91.0513 283.581V284.832H90.2196V283.552L88.8359 281.248H89.7118L90.6759 282.838L91.6327 281.248H92.4423L91.0513 283.581Z" fill="white"/>
<path d="M97.536 281.27V284.832H96.8515L95.0704 282.624V284.832H94.2461V281.248H94.9453L96.7338 283.456V281.248L97.536 281.27Z" fill="white"/>
<path d="M98.1594 283.06C98.1373 282.667 98.2335 282.277 98.4355 281.94C98.6376 281.602 98.9362 281.333 99.2928 281.168C99.6494 281.002 100.047 280.947 100.436 281.01C100.824 281.073 101.184 281.25 101.47 281.52C101.756 281.79 101.955 282.14 102.04 282.524C102.125 282.908 102.093 283.308 101.948 283.674C101.803 284.039 101.552 284.353 101.227 284.574C100.902 284.795 100.518 284.914 100.124 284.915C99.8718 284.93 99.6187 284.893 99.3808 284.806C99.1428 284.72 98.9251 284.586 98.741 284.412C98.5569 284.238 98.4103 284.029 98.3103 283.796C98.2103 283.564 98.1589 283.313 98.1594 283.06ZM101.243 283.06C101.237 282.84 101.167 282.627 101.041 282.447C100.914 282.267 100.737 282.128 100.533 282.048C100.328 281.967 100.104 281.949 99.8887 281.996C99.6737 282.042 99.4771 282.151 99.3236 282.309C99.1701 282.466 99.0664 282.666 99.0256 282.882C98.9847 283.098 99.0086 283.321 99.094 283.524C99.1795 283.727 99.3228 283.9 99.5061 284.021C99.6894 284.143 99.9045 284.208 100.124 284.208C100.275 284.212 100.425 284.185 100.565 284.129C100.704 284.072 100.831 283.987 100.936 283.879C101.041 283.771 101.122 283.643 101.175 283.502C101.228 283.361 101.251 283.21 101.243 283.06Z" fill="white"/>
<path d="M108.016 281.27L106.846 284.832H105.985L105.19 282.404L104.381 284.832H103.49L102.312 281.248H103.174L103.983 283.765L104.83 281.248H105.566L106.39 283.787L107.222 281.248L108.016 281.27Z" fill="white"/>
<path d="M484.949 266.551H385.582V322.111H484.949V266.551Z" fill="#FAFAFA"/>
<path d="M484.95 322.118C484.95 322.118 484.95 321.772 484.95 321.109C484.95 320.447 484.95 319.475 484.95 318.21C484.95 315.656 484.95 311.909 484.913 307.096C484.913 297.476 484.869 283.603 484.832 266.55L484.979 266.697L385.619 266.741L385.81 266.55C385.81 286.201 385.81 304.991 385.81 322.118L385.634 321.934L457.085 322.022L477.619 322.074H483.095H484.515H485.001H483.139H477.7L457.202 322.125L385.634 322.213H385.457V322.037C385.457 304.91 385.457 286.12 385.457 266.469V266.277H385.656L485.016 266.322H485.163V266.469C485.126 283.566 485.104 297.469 485.082 307.103C485.082 311.902 485.082 315.641 485.082 318.18C485.082 319.439 485.082 320.388 485.082 321.065C485.082 321.742 484.95 322.118 484.95 322.118Z" fill="#E0E0E0"/>
<path d="M411.777 279.799H397.727V293.849H411.777V279.799Z" fill="#E0E0E0"/>
<path d="M431.068 281.771C426.189 282.027 421.301 282.027 416.422 281.771C421.301 281.516 426.189 281.516 431.068 281.771Z" fill="#E0E0E0"/>
<path d="M477.848 286.82C477.848 286.923 464.1 287.012 447.135 287.012C430.17 287.012 416.422 286.923 416.422 286.82C416.422 286.717 430.17 286.629 447.135 286.629C464.1 286.629 477.848 286.717 477.848 286.82Z" fill="#E0E0E0"/>
<path d="M457.183 292.488C457.183 292.591 448.144 292.68 437.001 292.68C425.858 292.68 416.82 292.591 416.82 292.488C416.82 292.385 425.858 292.297 437.001 292.297C448.144 292.297 457.183 292.378 457.183 292.488Z" fill="#E0E0E0"/>
<path d="M470.239 314.75H402.365C400.638 314.75 398.981 314.064 397.759 312.843C396.538 311.621 395.852 309.964 395.852 308.237C395.852 307.382 396.02 306.535 396.347 305.745C396.675 304.955 397.155 304.238 397.76 303.633C398.365 303.029 399.083 302.55 399.873 302.224C400.663 301.897 401.51 301.73 402.365 301.73H470.239C471.094 301.73 471.941 301.897 472.731 302.224C473.521 302.55 474.239 303.029 474.844 303.633C475.449 304.238 475.929 304.955 476.257 305.745C476.584 306.535 476.753 307.382 476.753 308.237C476.753 309.964 476.066 311.621 474.845 312.843C473.623 314.064 471.967 314.75 470.239 314.75Z" fill="#E0E0E0"/>
<path d="M423.826 309.157H422.155L421.839 309.893H420.992L422.589 306.309H423.406L425.011 309.893H424.142L423.826 309.157ZM423.561 308.524L422.994 307.148L422.427 308.524H423.561Z" fill="white"/>
<path d="M428.497 307.648C428.497 308.443 427.894 308.944 426.937 308.944H426.201V309.93H425.406V306.346H426.959C427.894 306.338 428.497 306.832 428.497 307.648ZM427.658 307.648C427.658 307.251 427.401 307.023 426.922 307.023H426.245V308.267H426.878C427.401 308.259 427.658 308.024 427.658 307.648Z" fill="white"/>
<path d="M432.203 307.648C432.203 308.443 431.6 308.944 430.643 308.944H429.907V309.93H429.09V306.346H430.643C431.6 306.338 432.203 306.832 432.203 307.648ZM431.357 307.648C431.357 307.251 431.106 307.023 430.621 307.023H429.944V308.267H430.621C431.106 308.259 431.357 308.024 431.357 307.648Z" fill="white"/>
<path d="M432.77 306.34H433.601V309.247H435.397V309.924H432.77V306.34Z" fill="white"/>
<path d="M437.237 308.651V309.924H436.45V308.644L435.059 306.34H435.942L436.899 307.93L437.855 306.34H438.658L437.237 308.651Z" fill="white"/>
<path d="M443.721 306.34V309.924H443.074L441.285 307.716V309.924H440.461V306.34H441.153L442.934 308.548V306.34H443.721Z" fill="white"/>
<path d="M444.355 308.126C444.333 307.733 444.429 307.343 444.631 307.005C444.834 306.668 445.133 306.399 445.49 306.233C445.847 306.068 446.245 306.013 446.634 306.077C447.022 306.14 447.382 306.319 447.668 306.589C447.954 306.86 448.152 307.21 448.236 307.595C448.32 307.979 448.288 308.38 448.141 308.745C447.995 309.111 447.743 309.424 447.417 309.644C447.091 309.865 446.706 309.982 446.312 309.981C446.06 309.996 445.807 309.959 445.57 309.873C445.332 309.786 445.115 309.652 444.932 309.478C444.748 309.304 444.602 309.095 444.503 308.862C444.404 308.629 444.353 308.379 444.355 308.126ZM447.439 308.126C447.434 307.905 447.364 307.689 447.238 307.507C447.112 307.325 446.934 307.184 446.728 307.102C446.522 307.02 446.296 307.001 446.08 307.047C445.863 307.093 445.664 307.202 445.509 307.36C445.353 307.518 445.248 307.719 445.207 307.937C445.165 308.154 445.189 308.38 445.274 308.584C445.36 308.789 445.504 308.963 445.689 309.086C445.874 309.209 446.091 309.274 446.312 309.274C446.463 309.279 446.613 309.252 446.753 309.195C446.893 309.139 447.02 309.054 447.126 308.946C447.232 308.838 447.314 308.71 447.368 308.569C447.422 308.428 447.446 308.277 447.439 308.126Z" fill="white"/>
<path d="M454.199 306.34L453.028 309.924H452.138L451.35 307.495L450.533 309.924H449.65L448.473 306.34H449.334L450.143 308.857L450.982 306.34H451.718L452.535 308.879L453.367 306.34H454.199Z" fill="white"/>
<path d="M520.741 130.883H405.777V195.165H520.741V130.883Z" fill="#FAFAFA"/>
<path d="M520.743 195.166C520.743 195.166 520.743 194.768 520.743 194.01C520.743 193.252 520.743 192.126 520.743 190.654C520.743 187.71 520.743 183.368 520.743 177.804C520.743 166.675 520.699 150.623 520.662 130.884L520.81 131.031L405.854 131.075L406.045 130.884C406.045 153.619 406.045 175.36 406.045 195.166L405.869 194.989L488.543 195.078L512.301 195.129H518.631H520.839H520.302H518.683H512.382L488.669 195.181L405.876 195.269H405.699V195.085C405.699 175.279 405.699 153.538 405.699 130.803V130.611H405.898L520.854 130.655H521.001V130.803C521.001 150.579 520.942 166.661 520.92 177.811C520.92 183.36 520.92 187.688 520.92 190.632C520.92 192.104 520.92 193.201 520.92 193.959C520.92 194.717 520.743 195.166 520.743 195.166Z" fill="#E0E0E0"/>
<path d="M436.079 146.207H419.828V162.458H436.079V146.207Z" fill="#E0E0E0"/>
<path d="M458.404 148.488C458.404 148.599 454.613 148.68 449.932 148.68C445.251 148.68 441.461 148.599 441.461 148.488C441.461 148.378 445.251 148.297 449.932 148.297C454.613 148.297 458.404 148.385 458.404 148.488Z" fill="#E0E0E0"/>
<path d="M512.529 154.332C512.529 154.442 496.617 154.523 476.995 154.523C457.373 154.523 441.461 154.442 441.461 154.332C441.461 154.222 457.366 154.141 476.995 154.141C496.624 154.141 512.529 154.229 512.529 154.332Z" fill="#E0E0E0"/>
<path d="M488.617 160.891C488.617 160.994 478.166 161.082 465.271 161.082C452.377 161.082 441.918 160.994 441.918 160.891C441.918 160.788 452.369 160.699 465.271 160.699C478.173 160.699 488.617 160.78 488.617 160.891Z" fill="#E0E0E0"/>
<path d="M503.724 171.584H425.186C421.027 171.584 417.656 174.955 417.656 179.113V179.121C417.656 183.279 421.027 186.65 425.186 186.65H503.724C507.882 186.65 511.253 183.279 511.253 179.121V179.113C511.253 174.955 507.882 171.584 503.724 171.584Z" fill="#E0E0E0"/>
<path d="M450.022 180.175H448.093L447.725 181.065H446.754L448.601 176.914H449.551L451.405 181.065H450.397L450.022 180.175ZM449.72 179.439L449.065 177.849L448.403 179.439H449.72Z" fill="white"/>
<path d="M455.431 178.422C455.431 179.342 454.739 179.894 453.628 179.894H452.796V181.057H451.832V176.906H453.628C454.739 176.914 455.431 177.488 455.431 178.422ZM454.46 178.422C454.46 177.966 454.165 177.686 453.576 177.686H452.796V179.158H453.576C454.165 179.136 454.46 178.849 454.46 178.422Z" fill="white"/>
<path d="M459.711 178.422C459.711 179.342 459.02 179.894 457.908 179.894H457.054V181.057H456.098V176.906H457.893C459.02 176.914 459.711 177.488 459.711 178.422ZM458.74 178.422C458.74 177.966 458.438 177.686 457.857 177.686H457.054V179.158H457.842C458.438 179.136 458.74 178.849 458.74 178.422Z" fill="white"/>
<path d="M460.398 176.914H461.355V180.322H463.438V181.058H460.398V176.914Z" fill="white"/>
<path d="M465.543 179.586V181.058H464.587V179.586L462.945 176.914H463.968L465.072 178.754L466.184 176.914H467.126L465.543 179.586Z" fill="white"/>
<path d="M473.043 176.914V181.057H472.256L470.188 178.533V181.057H469.238V176.906H470.033L472.101 179.423V176.906L473.043 176.914Z" fill="white"/>
<path d="M473.769 178.989C473.744 178.535 473.856 178.083 474.09 177.693C474.325 177.302 474.671 176.992 475.084 176.8C475.498 176.609 475.959 176.546 476.408 176.62C476.857 176.694 477.274 176.9 477.605 177.214C477.935 177.527 478.164 177.932 478.261 178.377C478.359 178.822 478.321 179.285 478.152 179.708C477.983 180.131 477.691 180.493 477.313 180.748C476.936 181.003 476.491 181.139 476.036 181.138C475.744 181.155 475.451 181.112 475.176 181.012C474.901 180.912 474.65 180.756 474.437 180.555C474.225 180.353 474.056 180.11 473.941 179.841C473.826 179.572 473.768 179.282 473.769 178.989ZM477.339 178.989C477.334 178.733 477.254 178.483 477.108 178.272C476.963 178.06 476.758 177.897 476.519 177.801C476.281 177.706 476.02 177.684 475.769 177.736C475.517 177.789 475.287 177.915 475.107 178.098C474.927 178.281 474.805 178.513 474.757 178.765C474.708 179.017 474.735 179.278 474.835 179.515C474.934 179.752 475.101 179.954 475.315 180.096C475.528 180.238 475.779 180.314 476.036 180.314C476.21 180.318 476.383 180.287 476.545 180.221C476.706 180.156 476.852 180.058 476.974 179.934C477.096 179.81 477.192 179.662 477.254 179.499C477.317 179.337 477.346 179.163 477.339 178.989Z" fill="white"/>
<path d="M485.173 176.914L483.818 181.057H482.817L481.897 178.246L480.926 181.057H479.873L478.512 176.906H479.505L480.44 179.85L481.419 176.906H482.309L483.259 179.85L484.223 176.906L485.173 176.914Z" fill="white"/>
<path d="M440.7 31.9863H100.094V343.439H440.7V31.9863Z" fill="white"/>
<path d="M440.7 31.9863H100.094V52.7047H440.7V31.9863Z" fill="#E0E0E0"/>
<path d="M394.847 323.441C394.847 323.552 337.852 323.633 267.519 323.633C197.187 323.633 140.191 323.552 140.191 323.441C140.191 323.331 197.18 323.25 267.519 323.25C337.859 323.25 394.847 323.338 394.847 323.441Z" fill="#263238"/>
<path d="M246.456 260.963H241.414V287.518H246.456V260.963Z" fill="#E0E0E0"/>
<path d="M246.465 287.512C246.453 287.33 246.453 287.148 246.465 286.967C246.465 286.584 246.465 286.077 246.465 285.436C246.465 284.082 246.465 282.183 246.406 279.821C246.406 275.051 246.354 268.449 246.325 260.964L246.516 261.148H241.408C241.784 260.765 241.512 261.045 241.6 260.964V269.06C241.6 271.636 241.6 274.087 241.6 276.361C241.6 280.888 241.556 284.722 241.541 287.534L241.431 287.431L245.111 287.49H246.097H246.457C246.352 287.5 246.246 287.5 246.141 287.49H245.169L241.408 287.541H241.313V287.431C241.313 284.619 241.276 280.807 241.254 276.258C241.254 273.984 241.254 271.533 241.254 268.957V264.997C241.254 264.328 241.254 263.643 241.254 262.959V260.898L241.453 260.699H246.678V260.891C246.678 268.427 246.619 275.073 246.597 279.879C246.597 282.22 246.553 284.111 246.546 285.458C246.546 286.077 246.546 286.57 246.546 286.93C246.533 287.126 246.506 287.32 246.465 287.512Z" fill="#263238"/>
<path d="M255.612 256.937H232.06C230.383 256.937 228.774 256.272 227.587 255.086C226.4 253.901 225.732 252.293 225.73 250.615H261.942C261.94 252.293 261.272 253.901 260.085 255.086C258.898 256.272 257.289 256.937 255.612 256.937Z" fill="#263238"/>
<path d="M276.403 251.852H235.305V243.064H276.403C277.574 243.064 278.697 243.53 279.526 244.358C280.354 245.186 280.819 246.309 280.819 247.48C280.807 248.644 280.337 249.756 279.51 250.575C278.683 251.393 277.567 251.852 276.403 251.852Z" fill="#C13B44"/>
<path d="M203.365 179.93C202.235 180.082 201.21 180.67 200.507 181.568C199.804 182.466 199.48 183.602 199.604 184.736L205.536 238.655C205.945 242.285 207.676 245.637 210.4 248.071C213.123 250.505 216.648 251.851 220.3 251.851H235.977C237.148 251.851 238.271 251.386 239.1 250.558C239.928 249.73 240.393 248.607 240.393 247.435C240.393 246.264 239.928 245.141 239.1 244.313C238.271 243.485 237.148 243.019 235.977 243.019H222.663C220.833 243.02 219.066 242.356 217.689 241.151C216.313 239.946 215.42 238.282 215.178 236.469L208.289 183.691C208.213 183.12 208.027 182.571 207.739 182.073C207.451 181.575 207.067 181.139 206.611 180.79C206.154 180.441 205.633 180.185 205.077 180.037C204.521 179.89 203.942 179.853 203.372 179.93H203.365Z" fill="#C13B44"/>
<path d="M253.309 243.491L208.626 244.117L204.262 179.886L241.658 179.65C243.458 179.66 245.181 180.384 246.448 181.663C247.715 182.943 248.422 184.673 248.414 186.473L253.309 243.491Z" fill="#C13B44"/>
<g opacity="0.3">
<path d="M203.365 179.93C202.235 180.082 201.21 180.67 200.507 181.568C199.804 182.466 199.48 183.602 199.604 184.736L205.536 238.655C205.945 242.285 207.676 245.637 210.4 248.071C213.123 250.505 216.648 251.851 220.3 251.851H235.977C237.148 251.851 238.271 251.386 239.1 250.558C239.928 249.73 240.393 248.607 240.393 247.435C240.393 246.264 239.928 245.141 239.1 244.313C238.271 243.485 237.148 243.019 235.977 243.019H221.706C217.923 243.019 215.266 240.34 214.765 236.587L208.289 183.691C208.213 183.12 208.027 182.571 207.739 182.073C207.451 181.575 207.067 181.139 206.611 180.79C206.154 180.441 205.633 180.185 205.077 180.037C204.521 179.89 203.942 179.853 203.372 179.93H203.365Z" fill="black"/>
</g>
<path d="M248.818 256.938H239.051V262.016H248.818V256.938Z" fill="#263238"/>
<path d="M245.763 286.023H241.973C240.359 286.023 239.051 287.332 239.051 288.945V306.366C239.051 307.98 240.359 309.288 241.973 309.288H245.763C247.377 309.288 248.685 307.98 248.685 306.366V288.945C248.685 287.332 247.377 286.023 245.763 286.023Z" fill="#E0E0E0"/>
<path d="M245.77 309.288C245.77 309.288 245.983 309.288 246.374 309.185C246.857 309.064 247.301 308.822 247.666 308.482C248.03 308.143 248.302 307.716 248.456 307.242C248.579 306.762 248.621 306.264 248.582 305.77C248.582 304.674 248.582 303.43 248.582 302.09C248.582 299.323 248.582 296.055 248.537 292.427C248.537 291.521 248.537 290.587 248.537 289.637C248.571 289.173 248.536 288.707 248.434 288.253C248.315 287.806 248.082 287.398 247.757 287.068C247.432 286.725 247.024 286.472 246.572 286.332C246.09 286.222 245.594 286.185 245.1 286.222H241.994C241.508 286.223 241.03 286.353 240.611 286.6C240.191 286.847 239.846 287.202 239.61 287.628C239.382 288.045 239.263 288.514 239.264 288.989V290.461C239.264 292.434 239.264 294.347 239.264 296.165C239.264 299.794 239.264 303.062 239.227 305.822C239.159 306.455 239.269 307.094 239.543 307.669C239.796 308.131 240.172 308.513 240.63 308.773C241.087 309.033 241.608 309.161 242.134 309.141H243.415L245.189 309.178C245.395 309.17 245.602 309.182 245.807 309.215C245.601 309.23 245.394 309.23 245.189 309.215L243.415 309.251H242.134C241.567 309.279 241.003 309.147 240.507 308.87C240.012 308.592 239.604 308.181 239.33 307.684C239.173 307.391 239.064 307.076 239.006 306.749C238.96 306.408 238.943 306.063 238.955 305.719C238.955 302.959 238.955 299.691 238.91 296.062C238.91 294.244 238.91 292.331 238.91 290.358V288.886C238.905 288.475 238.981 288.066 239.134 287.684C239.288 287.302 239.515 286.955 239.804 286.662C240.093 286.368 240.438 286.136 240.818 285.977C241.197 285.818 241.605 285.736 242.016 285.736H245.086C245.611 285.698 246.14 285.74 246.653 285.861C247.163 286.018 247.626 286.299 248 286.678C248.352 287.058 248.605 287.518 248.736 288.018C248.839 288.501 248.876 288.996 248.846 289.49C248.846 290.439 248.846 291.374 248.846 292.279C248.846 295.908 248.846 299.176 248.81 301.943C248.81 303.312 248.81 304.556 248.81 305.623C248.84 306.139 248.786 306.656 248.648 307.154C248.502 307.571 248.268 307.953 247.963 308.273C247.543 308.709 246.998 309.004 246.403 309.119C246.202 309.209 245.989 309.266 245.77 309.288Z" fill="#263238"/>
<path d="M271.99 307.847H214.655C213.889 307.82 213.125 307.953 212.414 308.24C211.703 308.526 211.059 308.959 210.526 309.511C208.399 311.719 208.532 315.399 208.539 315.531L211.152 315.421C211.152 314.685 211.292 312.477 212.418 311.314C212.707 311.027 213.052 310.802 213.432 310.655C213.812 310.508 214.219 310.442 214.626 310.46H229.67V317.121H232.282V310.46H271.96C272.768 310.462 273.542 310.784 274.113 311.355C274.684 311.926 275.005 312.7 275.007 313.507V315.472H277.62V313.537C277.626 312.036 277.037 310.595 275.981 309.528C274.926 308.461 273.49 307.857 271.99 307.847Z" fill="#E0E0E0"/>
<path d="M271.988 307.847C272.233 307.829 272.479 307.829 272.724 307.847C273.424 307.923 274.103 308.13 274.726 308.457C275.741 309.011 276.57 309.85 277.111 310.872C277.452 311.524 277.662 312.236 277.729 312.969C277.78 313.757 277.729 314.566 277.766 315.442V315.538H274.962V315.435C274.888 314.161 275.256 312.601 274.189 311.512C273.687 310.962 272.995 310.623 272.253 310.562C271.517 310.562 270.663 310.562 269.839 310.562H258.939H232.34L232.516 310.378C232.516 312.476 232.516 314.743 232.516 317.039V317.231H229.528V310.378L229.72 310.57H214.404C213.88 310.586 213.37 310.746 212.932 311.033C212.509 311.342 212.174 311.755 211.96 312.233C211.526 313.205 211.313 314.26 211.334 315.324V315.516H211.158L208.545 315.626H208.354V315.435C208.329 314.199 208.521 312.969 208.92 311.799C209.295 310.627 209.991 309.584 210.93 308.789C211.886 308.039 213.056 307.614 214.271 307.574C215.449 307.574 216.582 307.574 217.723 307.574H230.721L252.411 307.618L266.792 307.67L270.656 307.707H271.657H271.995C271.995 307.707 271.885 307.707 271.657 307.707H270.656H266.792L252.411 307.766L230.721 307.81H217.723C216.589 307.81 215.434 307.81 214.293 307.81C213.154 307.845 212.056 308.247 211.165 308.958C210.278 309.707 209.619 310.692 209.266 311.799C208.887 312.924 208.708 314.108 208.736 315.295L208.538 315.118L211.143 315.008L210.966 315.199C210.94 314.072 211.166 312.952 211.629 311.924C211.872 311.388 212.249 310.924 212.725 310.577C213.22 310.25 213.796 310.066 214.389 310.047H229.896V310.239C229.896 312.527 229.896 314.794 229.896 316.899L229.712 316.715H232.318L232.134 316.899C232.134 314.603 232.134 312.336 232.134 310.239V310.055H232.318H258.917H269.817C270.649 310.055 271.444 310.055 272.253 310.055C273.032 310.123 273.758 310.476 274.293 311.046C274.828 311.617 275.134 312.364 275.153 313.146C275.153 313.845 275.153 314.522 275.153 315.177L275.05 315.074H277.663L277.567 315.162C277.567 314.294 277.604 313.462 277.567 312.704C277.511 311.99 277.313 311.295 276.986 310.658C276.472 309.652 275.674 308.82 274.689 308.266C274.08 307.928 273.414 307.706 272.724 307.611C272.231 307.861 271.988 307.861 271.988 307.847Z" fill="#263238"/>
<path d="M236.035 320.225C236.037 321.237 235.738 322.227 235.177 323.069C234.615 323.911 233.817 324.568 232.882 324.956C231.948 325.344 230.919 325.447 229.926 325.25C228.934 325.054 228.022 324.567 227.305 323.852C226.589 323.137 226.101 322.225 225.904 321.233C225.706 320.241 225.806 319.212 226.193 318.277C226.58 317.341 227.236 316.542 228.077 315.98C228.919 315.417 229.908 315.117 230.92 315.117C232.275 315.117 233.575 315.655 234.534 316.613C235.493 317.57 236.033 318.87 236.035 320.225Z" fill="#263238"/>
<path d="M214.957 318.982C214.957 319.994 214.657 320.983 214.095 321.824C213.533 322.665 212.734 323.321 211.799 323.708C210.865 324.095 209.836 324.197 208.844 323.999C207.852 323.802 206.94 323.315 206.225 322.599C205.509 321.884 205.022 320.973 204.825 319.98C204.627 318.988 204.729 317.96 205.116 317.025C205.503 316.09 206.159 315.291 207 314.729C207.841 314.167 208.83 313.867 209.842 313.867C211.198 313.867 212.499 314.406 213.459 315.365C214.418 316.325 214.957 317.626 214.957 318.982Z" fill="#263238"/>
<path d="M280.863 319.166C280.865 320.178 280.566 321.168 280.005 322.01C279.444 322.852 278.645 323.509 277.711 323.898C276.776 324.286 275.747 324.388 274.755 324.192C273.762 323.995 272.85 323.508 272.134 322.793C271.418 322.078 270.93 321.167 270.732 320.174C270.534 319.182 270.635 318.153 271.021 317.218C271.408 316.283 272.064 315.484 272.905 314.921C273.747 314.359 274.736 314.059 275.748 314.059C277.103 314.059 278.403 314.597 279.362 315.554C280.321 316.512 280.861 317.811 280.863 319.166Z" fill="#263238"/>
<path d="M277.509 243.063C277.509 243.166 264.909 243.299 249.372 243.358C233.835 243.417 221.234 243.358 221.234 243.27C221.234 243.181 233.827 243.034 249.372 242.975C264.916 242.916 277.509 242.953 277.509 243.063Z" fill="#263238"/>
<path d="M214.822 235.756C214.719 235.756 213.166 224.127 211.363 209.753C209.559 195.379 208.176 183.706 208.279 183.691C208.382 183.677 209.935 195.32 211.738 209.702C213.541 224.083 214.91 235.741 214.822 235.756Z" fill="#263238"/>
<path d="M207.809 179.804C207.937 179.755 208.07 179.72 208.206 179.701C208.59 179.634 208.979 179.595 209.369 179.583C210.813 179.533 212.254 179.755 213.616 180.238C214.567 180.582 215.418 181.159 216.089 181.916C216.827 182.79 217.461 183.746 217.98 184.765C219.084 186.892 220.313 189.181 221.66 191.602C224.361 196.393 226.9 200.692 228.623 203.871C229.499 205.454 230.168 206.749 230.625 207.654C230.831 208.074 230.993 208.39 231.132 208.699C231.201 208.819 231.25 208.948 231.28 209.082C231.197 208.973 231.123 208.857 231.059 208.736L230.492 207.72L228.387 204.004C226.606 200.861 224.03 196.592 221.322 191.786C219.967 189.387 218.746 187.054 217.642 184.934C217.147 183.93 216.534 182.989 215.816 182.13C215.189 181.396 214.386 180.831 213.483 180.488C212.156 180 210.753 179.751 209.339 179.752C208.368 179.723 207.816 179.841 207.809 179.804Z" fill="#263238"/>
<path d="M199.904 182.602C200 182.654 196.614 188.556 192.353 195.777C188.091 202.997 184.559 208.819 184.463 208.767C184.367 208.716 187.753 202.813 192.022 195.585C196.29 188.358 199.816 182.529 199.904 182.602Z" fill="#263238"/>
<path d="M239.824 208.758H178.566V226.819H239.824V208.758Z" fill="#FAFAFA"/>
<path d="M195.09 214.367L192.094 221.3H190.512L187.523 214.367H189.253L191.358 219.328L193.492 214.375L195.09 214.367Z" fill="#263238"/>
<path d="M199.992 219.813H196.776L196.165 221.285H194.523L197.607 214.352H199.19L202.288 221.285H200.603L199.992 219.813ZM199.455 218.591L198.358 215.934L197.291 218.591H199.455Z" fill="#263238"/>
<path d="M202.473 217.855C202.515 217.105 202.777 216.385 203.227 215.784C203.677 215.183 204.294 214.728 205.002 214.476C205.709 214.225 206.475 214.188 207.204 214.37C207.932 214.552 208.591 214.945 209.097 215.5L208.066 216.449C207.856 216.193 207.591 215.986 207.29 215.846C206.989 215.706 206.661 215.636 206.329 215.64C205.744 215.64 205.182 215.872 204.768 216.286C204.354 216.701 204.121 217.262 204.121 217.848C204.121 218.433 204.354 218.995 204.768 219.409C205.182 219.823 205.744 220.056 206.329 220.056C206.662 220.059 206.99 219.987 207.291 219.846C207.592 219.704 207.857 219.497 208.066 219.239L209.097 220.188C208.593 220.746 207.935 221.143 207.206 221.327C206.477 221.512 205.71 221.476 205.001 221.225C204.292 220.974 203.674 220.518 203.224 219.916C202.774 219.313 202.513 218.591 202.473 217.84V217.855Z" fill="#263238"/>
<path d="M214.582 219.813H211.365L210.755 221.285H209.113L212.197 214.352H213.78L216.878 221.285H215.193L214.582 219.813ZM214.081 218.598L212.977 215.941L211.881 218.591L214.081 218.598Z" fill="#263238"/>
<path d="M223.949 214.367V221.3H222.632L219.18 217.12V221.33H217.598V214.397H218.922L222.367 218.607V214.397L223.949 214.367Z" fill="#263238"/>
<path d="M227.017 215.648H224.809V214.338H230.844V215.648H228.636V221.271H227.031L227.017 215.648Z" fill="#263238"/>
<path d="M237.846 225.216C237.846 225.216 237.846 225.128 237.846 224.951C237.846 224.774 237.846 224.524 237.846 224.215C237.846 223.545 237.846 222.574 237.846 221.323C237.846 218.791 237.846 215.118 237.788 210.481L237.898 210.592L180.122 210.673C180.203 210.584 179.923 210.864 180.306 210.481V225.201L180.115 225.017L221.331 225.098L233.482 225.15H236.765H237.618H237.913C237.822 225.157 237.731 225.157 237.64 225.15H236.809H233.57L221.463 225.201L180.129 225.29H179.945V225.216C179.945 222.839 179.945 220.41 179.945 217.952V210.437C180.328 210.054 180.056 210.327 180.144 210.246L237.92 210.319H238.038V210.437C238.038 215.103 237.986 218.798 237.972 221.345C237.972 222.589 237.972 223.553 237.972 224.215V224.951C237.94 225.044 237.898 225.133 237.846 225.216Z" fill="#263238"/>
<path d="M243.837 119.145H248.496L243.881 122.913H240.547L243.837 119.145Z" fill="#263238"/>
<path d="M191.528 154.678V164.371H185.596V155.649C185.596 153.206 184.529 152.176 182.814 152.176C180.908 152.176 179.436 153.368 179.436 156.179V164.371H173.496V141.18H179.436V148.989C180.838 147.75 182.659 147.092 184.529 147.149C188.496 147.149 191.528 149.408 191.528 154.678Z" fill="#263238"/>
<path d="M194.598 142.394C194.598 140.613 196.07 139.236 198.219 139.236C200.368 139.236 201.847 140.517 201.847 142.298C201.847 144.079 200.412 145.551 198.219 145.551C196.026 145.551 194.598 144.175 194.598 142.394ZM195.253 147.428H201.192V164.356H195.253V147.428Z" fill="#263238"/>
<path d="M216.384 147.148V152.492C215.938 152.43 215.488 152.398 215.037 152.396C212.631 152.396 210.975 153.618 210.975 156.584V164.371H205.035V147.443H210.695V149.474C211.917 147.936 213.882 147.148 216.384 147.148Z" fill="#263238"/>
<path d="M218.164 142.394C218.164 140.613 219.599 139.236 221.793 139.236C223.986 139.236 225.414 140.517 225.414 142.298C225.414 144.079 223.978 145.551 221.793 145.551C219.607 145.551 218.164 144.175 218.164 142.394ZM218.819 147.428H224.759V164.356H218.819V147.428Z" fill="#263238"/>
<path d="M246.64 154.679V164.372H240.671V155.65C240.671 153.207 239.611 152.176 237.889 152.176C235.982 152.176 234.51 153.369 234.51 156.18V164.372H228.578V147.444H234.231V149.284C234.935 148.582 235.776 148.032 236.701 147.667C237.627 147.303 238.617 147.132 239.611 147.164C243.615 147.149 246.64 149.409 246.64 154.679Z" fill="#263238"/>
<path d="M268.83 147.429V161.273C268.83 167.684 265.209 170.716 258.894 170.716C255.641 170.716 252.55 169.98 250.482 168.508L252.638 164.35C254.311 165.538 256.313 166.173 258.364 166.168C261.551 166.168 262.891 164.696 262.891 162.068V161.509C262.253 162.193 261.471 162.728 260.602 163.074C259.733 163.42 258.797 163.569 257.864 163.511C253.359 163.511 249.547 160.316 249.547 155.319C249.547 150.322 253.359 147.164 257.864 147.164C260.204 147.164 262.015 147.9 263.178 149.505V147.444L268.83 147.429ZM262.942 155.304C262.942 153.243 261.374 151.867 259.262 151.867C257.15 151.867 255.538 153.243 255.538 155.304C255.538 157.365 257.135 158.771 259.262 158.771C259.738 158.805 260.215 158.741 260.664 158.582C261.113 158.422 261.525 158.171 261.872 157.845C262.219 157.518 262.495 157.123 262.682 156.685C262.868 156.246 262.962 155.774 262.957 155.297L262.942 155.304Z" fill="#263238"/>
<path d="M271.582 161.117C271.582 160.172 271.957 159.266 272.625 158.598C273.293 157.93 274.2 157.555 275.144 157.555C276.089 157.555 276.995 157.93 277.663 158.598C278.331 159.266 278.707 160.172 278.707 161.117C278.707 162.062 278.331 162.968 277.663 163.636C276.995 164.304 276.089 164.679 275.144 164.679C274.2 164.679 273.293 164.304 272.625 163.636C271.957 162.968 271.582 162.062 271.582 161.117Z" fill="#C13B44"/>
<path d="M254.433 124.244V128.447C254.084 128.399 253.733 128.374 253.38 128.373C251.489 128.373 250.194 129.33 250.194 131.656V137.764H245.527V124.465H249.943V126.062C250.93 124.862 252.446 124.244 254.433 124.244Z" fill="#263238"/>
<path d="M269.75 132.296H260.079C260.476 133.643 261.625 134.43 263.347 134.43C263.908 134.45 264.468 134.358 264.993 134.159C265.519 133.961 266 133.66 266.409 133.275L268.867 135.829C267.586 137.249 265.724 137.993 263.2 137.993C258.46 137.993 255.391 135.049 255.391 131.096C255.391 127.144 258.511 124.244 262.706 124.244C266.629 124.244 269.824 126.754 269.824 131.14C269.824 131.486 269.772 131.928 269.75 132.296ZM260.005 129.845H265.452C265.336 129.207 265 128.63 264.503 128.214C264.005 127.798 263.377 127.57 262.729 127.57C262.08 127.57 261.452 127.798 260.954 128.214C260.457 128.63 260.121 129.207 260.005 129.845Z" fill="#263238"/>
<path d="M225.435 124.465L220.695 137.764H216.184L213.681 130.529L211.076 137.764H206.564L201.824 124.465H206.24L208.963 132.517L211.79 124.465H215.764L218.509 132.561L221.336 124.465H225.435Z" fill="#263238"/>
<path d="M240.01 132.296H230.368C230.766 133.643 231.914 134.43 233.636 134.43C234.199 134.45 234.76 134.358 235.286 134.16C235.813 133.961 236.295 133.661 236.705 133.275L239.156 135.829C237.883 137.249 236.014 137.993 233.489 137.993C228.749 137.993 225.688 135.049 225.688 131.096C225.688 127.144 228.801 124.244 232.996 124.244C236.926 124.244 240.113 126.754 240.113 131.14C240.084 131.486 240.032 131.928 240.01 132.296ZM230.265 129.845H235.719C235.608 129.202 235.273 128.62 234.775 128.2C234.276 127.78 233.644 127.549 232.992 127.549C232.34 127.549 231.709 127.78 231.21 128.2C230.711 128.62 230.377 129.202 230.265 129.845Z" fill="#263238"/>
<path d="M205.277 99.8454L204.541 84.2054C204.512 83.5876 204.258 83.0017 203.827 82.5583C203.396 82.115 202.817 81.8447 202.201 81.7987C201.552 81.7482 200.909 81.9494 200.404 82.3605C199.9 82.7716 199.573 83.3611 199.492 84.0067L197.512 99.6835C197.481 99.9611 197.509 100.242 197.594 100.508C197.679 100.775 197.819 101.02 198.005 101.228C198.191 101.437 198.419 101.603 198.674 101.718C198.929 101.832 199.205 101.891 199.485 101.891H203.297C203.562 101.89 203.824 101.835 204.068 101.731C204.312 101.626 204.532 101.474 204.717 101.284C204.901 101.093 205.045 100.868 205.142 100.621C205.238 100.374 205.284 100.11 205.277 99.8454Z" fill="#E0E0E0"/>
<path d="M198.19 72.9444C198.439 72.2326 198.894 71.6107 199.496 71.1572C200.098 70.7037 200.822 70.4391 201.575 70.3967C202.327 70.3543 203.076 70.536 203.725 70.919C204.375 71.302 204.896 71.869 205.224 72.5483C205.551 73.2275 205.669 73.9886 205.564 74.7352C205.459 75.4819 205.135 76.1805 204.632 76.7429C204.13 77.3052 203.472 77.706 202.742 77.8945C202.012 78.083 201.243 78.0508 200.531 77.802C200.058 77.6367 199.623 77.38 199.249 77.0464C198.876 76.7129 198.572 76.309 198.354 75.858C198.137 75.4069 198.011 74.9174 197.983 74.4175C197.954 73.9176 198.025 73.417 198.19 72.9444Z" fill="#E0E0E0"/>
<path d="M164.34 119.606L155.229 111.871C154.867 111.568 154.408 111.408 153.937 111.418C153.466 111.429 153.015 111.611 152.668 111.93C152.303 112.266 152.082 112.73 152.051 113.224C152.019 113.719 152.18 114.207 152.498 114.587L160.212 123.846C160.35 124.01 160.521 124.144 160.715 124.237C160.908 124.331 161.119 124.382 161.334 124.389C161.549 124.395 161.762 124.356 161.961 124.274C162.159 124.191 162.338 124.068 162.486 123.912L164.466 121.785C164.605 121.636 164.712 121.46 164.782 121.268C164.851 121.076 164.881 120.872 164.869 120.669C164.857 120.465 164.804 120.266 164.714 120.083C164.623 119.901 164.496 119.739 164.34 119.606Z" fill="#F5F5F5"/>
<path d="M145.647 109.576C145.369 109.061 145.25 108.475 145.307 107.893C145.363 107.31 145.592 106.758 145.963 106.306C146.335 105.854 146.833 105.523 147.394 105.356C147.954 105.188 148.552 105.191 149.111 105.365C149.67 105.539 150.164 105.875 150.531 106.331C150.898 106.787 151.12 107.342 151.17 107.925C151.22 108.508 151.095 109.092 150.812 109.604C150.528 110.116 150.098 110.531 149.577 110.798C148.892 111.148 148.098 111.216 147.363 110.988C146.629 110.759 146.013 110.253 145.647 109.576Z" fill="#F5F5F5"/>
<path d="M156.611 83.2343L170.595 106.963C171.148 107.901 172.025 108.605 173.06 108.941C174.096 109.277 175.219 109.223 176.218 108.788C177.268 108.331 178.102 107.488 178.549 106.434C178.995 105.379 179.02 104.193 178.617 103.121L168.821 77.0961C168.645 76.6327 168.374 76.2118 168.023 75.8612C167.673 75.5106 167.252 75.2383 166.789 75.0623C166.326 74.8863 165.83 74.8106 165.336 74.8402C164.841 74.8698 164.358 75.004 163.919 75.234L157.98 78.3546C157.561 78.5771 157.193 78.882 156.896 79.251C156.598 79.62 156.379 80.0455 156.251 80.5016C156.123 80.9578 156.089 81.4351 156.151 81.9048C156.213 82.3745 156.369 82.8268 156.611 83.2343Z" fill="#E0E0E0"/>
<path d="M189.748 119.276C189.946 120.589 189.75 121.932 189.185 123.133C188.62 124.335 187.711 125.342 186.574 126.027C185.436 126.712 184.121 127.044 182.795 126.982C181.469 126.919 180.191 126.465 179.123 125.676C178.055 124.887 177.245 123.799 176.795 122.55C176.345 121.3 176.276 119.946 176.597 118.657C176.917 117.368 177.613 116.204 178.595 115.311C179.577 114.417 180.803 113.835 182.116 113.639C183.875 113.375 185.668 113.821 187.099 114.878C188.53 115.935 189.483 117.517 189.748 119.276Z" fill="#E0E0E0"/>
<path d="M440.694 343.439C440.694 342.056 440.628 219.284 440.532 31.9863L440.694 32.1482L100.095 32.1776L100.286 31.9863C100.286 145.448 100.286 252.139 100.286 343.439L100.124 343.27L440.723 343.439L100.095 343.609H99.9258V343.439C99.9258 252.175 99.9258 145.455 99.9258 31.9863V31.7949H100.147H440.716H440.863V31.9568C440.76 219.284 440.694 342.056 440.694 343.439Z" fill="#263238"/>
<path d="M109.561 45.0206C111.118 45.0206 112.38 43.7585 112.38 42.2017C112.38 40.6449 111.118 39.3828 109.561 39.3828C108.004 39.3828 106.742 40.6449 106.742 42.2017C106.742 43.7585 108.004 45.0206 109.561 45.0206Z" fill="white"/>
<path d="M119.245 45.0206C120.801 45.0206 122.064 43.7585 122.064 42.2017C122.064 40.6449 120.801 39.3828 119.245 39.3828C117.688 39.3828 116.426 40.6449 116.426 42.2017C116.426 43.7585 117.688 45.0206 119.245 45.0206Z" fill="white"/>
<path d="M128.932 45.0206C130.489 45.0206 131.751 43.7585 131.751 42.2017C131.751 40.6449 130.489 39.3828 128.932 39.3828C127.375 39.3828 126.113 40.6449 126.113 42.2017C126.113 43.7585 127.375 45.0206 128.932 45.0206Z" fill="white"/>
<path d="M310.269 100.832C307.883 100.232 305.576 99.3551 303.395 98.2188C304.606 98.4489 305.787 98.8194 306.913 99.3227C308.087 99.6924 309.213 100.199 310.269 100.832Z" fill="#455A64"/>
<path d="M300.857 115.656C300.121 115.575 298.134 116.561 296.478 118.527L296.397 118.615C295.227 119.932 294.498 115.884 294.424 114.39C294.404 114.158 294.332 113.934 294.214 113.733C294.095 113.533 293.933 113.362 293.74 113.232C293.546 113.103 293.326 113.019 293.095 112.986C292.865 112.953 292.63 112.973 292.408 113.043L287.256 115.016L285.784 114.964C285.425 115.06 285.116 115.288 284.918 115.601C284.72 115.915 284.648 116.292 284.716 116.657L286.542 124.672L286.446 126.821L296.308 128.867L296.838 123.509C297.03 122.898 297.28 122.177 297.574 121.36C297.871 120.622 298.292 119.94 298.818 119.344C299.396 118.665 300.042 118.048 300.747 117.504L300.916 117.408C301.031 117.353 301.133 117.275 301.218 117.18C301.345 117.077 301.44 116.94 301.493 116.785C301.546 116.63 301.554 116.464 301.516 116.304C301.479 116.145 301.397 116 301.28 115.885C301.164 115.771 301.017 115.691 300.857 115.656Z" fill="#FFBE9D"/>
<path d="M298.692 93.0606C298.692 93.0606 292.804 92.3246 283.972 85.2884C275.14 78.2522 270.334 68.2426 269.348 68.3604C268.361 68.4782 263.828 66.8884 257.27 85.627C250.712 104.366 254.326 108.207 255.989 108.023C257.653 107.839 268.501 103.674 275.523 103.814C282.544 103.953 291.847 106.758 291.847 106.758L298.692 93.0606Z" fill="#C13B44"/>
<path d="M311.867 101.686L310.248 105.609L309.512 107.368C309.034 108.53 308.129 109.464 306.983 109.977C305.836 110.491 304.537 110.545 303.352 110.128L290.582 106.985L296.235 89.873L309.203 95.29C310.403 95.7869 311.357 96.739 311.856 97.9377C312.355 99.1364 312.359 100.484 311.867 101.686Z" fill="#263238"/>
<path d="M306.831 107.456L302.555 115.037L300.604 114.411L287.261 124.384L283.941 117.171C283.941 117.171 291.706 114.227 293.237 111.541C294.768 108.854 293.156 108.199 293.156 108.199L296.91 104.262L306.831 107.456Z" fill="#263238"/>
<path d="M257.947 85.9137C254.473 96.0485 253.457 104.88 255.687 105.646C257.917 106.411 262.532 98.8085 265.991 88.6737C269.45 78.539 270.481 69.707 268.251 68.9416C266.021 68.1761 261.421 75.8085 257.947 85.9137Z" fill="#263238"/>
<path d="M313.432 106.993L309.98 106.257L311.688 102.113L314.345 103.438L313.432 106.993Z" fill="#455A64"/>
<path d="M309.466 103.238C309.422 103.356 307.692 102.863 305.595 102.142C304.3 101.774 303.049 101.268 301.863 100.633C303.188 100.864 304.485 101.232 305.735 101.729C307.028 102.101 308.278 102.606 309.466 103.238Z" fill="#455A64"/>
<path d="M308.387 105.831C308.387 105.89 307.975 105.831 307.319 105.699L306.171 105.434C305.744 105.323 305.295 105.147 304.817 104.985C303.639 104.642 302.511 104.147 301.461 103.513C301.505 103.395 303.065 103.918 304.964 104.587C305.435 104.757 305.877 104.941 306.296 105.073C306.716 105.206 307.084 105.309 307.393 105.419C308.026 105.61 308.387 105.772 308.387 105.831Z" fill="#455A64"/>
<path d="M266.689 82.9039C266.689 82.9039 261.382 80.269 259.277 87.3199C257.173 94.3708 262.553 94.9449 262.553 94.9449C264.496 91.1477 265.888 87.0934 266.689 82.9039Z" fill="#FAFAFA"/>
<path d="M271.261 74.3359C271.273 74.7764 271.249 75.217 271.188 75.6534C271.107 76.4924 270.996 77.7142 270.812 79.223C270.673 79.959 270.511 80.7833 270.349 81.6591C270.26 82.0934 270.172 82.5497 270.084 83.0134C270.032 83.2489 269.988 83.4844 269.944 83.7494C269.9 84.0143 269.811 84.2278 269.745 84.4854L268.891 87.5103C268.818 87.7753 268.737 88.0403 268.663 88.3052C268.59 88.5702 268.472 88.8278 268.384 89.1001L267.78 90.7046C267.581 91.2419 267.375 91.7791 267.177 92.3091C267.073 92.574 266.993 92.839 266.875 93.0892L266.521 93.8252L265.175 96.6735C265.072 96.8943 264.969 97.1225 264.851 97.3359C264.733 97.5494 264.615 97.7628 264.49 97.9689L263.798 99.1686C263.349 99.9046 262.937 100.641 262.554 101.31C261.701 102.562 260.987 103.555 260.494 104.254C260.255 104.622 259.987 104.969 259.691 105.292C259.878 104.895 260.1 104.516 260.354 104.159L262.297 101.148L263.489 98.9919L264.159 97.7923L264.505 97.1667C264.623 96.9532 264.718 96.7251 264.821 96.4969C265.241 95.5916 265.682 94.6422 266.131 93.6633L266.477 92.9273C266.595 92.6771 266.676 92.4047 266.779 92.1471C266.978 91.6246 267.177 91.0873 267.375 90.55L267.979 88.9603C268.067 88.6953 268.185 88.4377 268.258 88.1727C268.332 87.9078 268.413 87.6428 268.487 87.3852L269.362 84.3823C269.429 84.1468 269.51 83.9113 269.561 83.6463C269.613 83.3814 269.664 83.1753 269.708 82.9103C269.811 82.454 269.9 82.0051 269.995 81.5708C270.179 80.7023 270.356 79.9001 270.511 79.1567C270.724 77.6847 270.901 76.4777 271.018 75.6166C271.067 75.1842 271.148 74.7561 271.261 74.3359Z" fill="#263238"/>
<path d="M290.772 111.417C290.504 111.518 290.284 111.717 290.156 111.973C290.027 112.23 290 112.525 290.08 112.8C290.382 113.912 290.882 115.649 291.272 116.716C291.381 117.064 291.553 117.388 291.78 117.673C291.892 117.811 292.04 117.915 292.208 117.973C292.376 118.032 292.556 118.042 292.73 118.004C292.905 117.929 293.058 117.808 293.17 117.654C293.283 117.5 293.352 117.318 293.37 117.128C293.399 116.74 293.354 116.351 293.237 115.98C292.987 114.95 292.501 113.397 292.133 112.131C292.097 111.99 292.031 111.859 291.942 111.745C291.852 111.631 291.74 111.536 291.612 111.467C291.485 111.398 291.344 111.356 291.2 111.344C291.055 111.331 290.909 111.349 290.772 111.395V111.417Z" fill="#FFBE9D"/>
<path d="M289.122 113.344C288.853 113.444 288.631 113.642 288.502 113.899C288.372 114.155 288.344 114.451 288.423 114.728C288.732 115.839 289.233 117.576 289.623 118.636C289.727 118.986 289.897 119.313 290.123 119.6C290.235 119.738 290.383 119.842 290.551 119.9C290.719 119.959 290.899 119.97 291.073 119.931C291.25 119.859 291.404 119.739 291.517 119.584C291.631 119.43 291.698 119.246 291.713 119.055C291.748 118.668 291.705 118.278 291.588 117.907C291.33 116.877 290.852 115.317 290.484 114.051C290.447 113.91 290.382 113.779 290.292 113.665C290.202 113.551 290.09 113.456 289.963 113.387C289.835 113.318 289.695 113.276 289.55 113.264C289.405 113.251 289.26 113.269 289.122 113.315V113.344Z" fill="#FFBE9D"/>
<path d="M287.58 114.471C287.34 114.55 287.141 114.72 287.024 114.944C286.907 115.168 286.882 115.428 286.955 115.671C287.234 116.627 287.691 118.144 288.044 119.064C288.144 119.364 288.299 119.643 288.5 119.888C288.604 120.01 288.739 120.102 288.89 120.153C289.042 120.205 289.204 120.215 289.361 120.182C289.516 120.124 289.652 120.025 289.755 119.895C289.857 119.766 289.922 119.61 289.943 119.446C289.965 119.111 289.926 118.774 289.825 118.453C289.589 117.555 289.17 116.245 288.809 115.111C288.727 114.867 288.552 114.665 288.322 114.55C288.092 114.434 287.825 114.414 287.58 114.493V114.471Z" fill="#FFBE9D"/>
<path d="M285.628 114.765C285.388 114.844 285.188 115.013 285.07 115.237C284.952 115.461 284.925 115.721 284.995 115.964C285.282 116.929 285.731 118.452 286.099 119.372C286.193 119.68 286.348 119.965 286.555 120.211C286.655 120.352 286.796 120.458 286.96 120.513C287.123 120.568 287.3 120.569 287.465 120.517C287.629 120.464 287.772 120.36 287.873 120.221C287.975 120.081 288.029 119.913 288.027 119.74C288.052 119.404 288.009 119.066 287.902 118.746C287.667 117.841 287.247 116.487 286.887 115.383C286.847 115.261 286.783 115.148 286.699 115.05C286.615 114.953 286.513 114.873 286.398 114.815C286.283 114.758 286.157 114.724 286.029 114.715C285.901 114.706 285.772 114.723 285.65 114.765H285.628Z" fill="#FFBE9D"/>
<path d="M291.67 117.709C291.263 117.108 290.967 116.44 290.794 115.736C290.5 115.074 290.333 114.363 290.301 113.639C290.712 114.237 291.009 114.905 291.177 115.611C291.475 116.272 291.642 116.984 291.67 117.709Z" fill="#EB996E"/>
<path d="M289.906 119.234C289.475 118.534 289.162 117.768 288.978 116.967C288.666 116.207 288.482 115.402 288.434 114.582C288.864 115.282 289.177 116.048 289.361 116.849C289.676 117.607 289.86 118.414 289.906 119.234Z" fill="#EB996E"/>
<path d="M288.168 119.351C287.711 118.773 287.384 118.103 287.211 117.386C286.91 116.713 286.767 115.981 286.792 115.244C287.153 115.875 287.423 116.554 287.594 117.261C287.89 117.924 288.084 118.629 288.168 119.351Z" fill="#EB996E"/>
<path d="M349.535 92.5815C346.731 87.8416 341.667 84.7652 336.353 83.3005C334.145 82.6896 332.6 82.8589 330.296 83.1165C328.001 83.3104 325.848 84.3088 324.217 85.9354C322.218 87.846 320.734 90.2309 319.904 92.8685C319.09 95.5782 318.528 98.3574 318.226 101.171C317.928 104.001 318.417 106.858 319.639 109.429L326.543 111.74C330.443 112.476 334.396 113.212 338.319 112.895C342.241 112.579 346.289 111.099 348.843 108.06C352.42 103.85 352.339 97.3213 349.535 92.5815Z" fill="#263238"/>
<path d="M353.282 113.345C353.337 112.531 353.204 111.714 352.894 110.959C352.584 110.204 352.105 109.53 351.494 108.988C350.866 108.464 350.088 108.153 349.271 108.1C348.455 108.047 347.643 108.255 346.953 108.694L345.635 109.849C344.71 110.119 343.892 110.67 343.295 111.425C342.697 112.181 342.35 113.104 342.301 114.067C342.287 115.031 342.548 115.98 343.054 116.801C343.56 117.622 344.289 118.282 345.157 118.703C346.035 119.101 347 119.267 347.96 119.185C348.92 119.102 349.843 118.774 350.64 118.232C351.426 117.675 352.072 116.944 352.531 116.097C352.989 115.249 353.246 114.308 353.282 113.345Z" fill="#263238"/>
<path d="M351.13 117.938C351.469 117.562 351.678 117.087 351.727 116.583C351.682 115.354 351.289 114.162 350.593 113.146C349.941 112.093 349.095 111.174 348.098 110.438C347.362 109.864 346.788 109.614 346.817 109.555C347.33 109.686 347.813 109.916 348.238 110.232C349.315 110.933 350.223 111.866 350.895 112.962C351.265 113.564 351.56 114.209 351.771 114.883C351.97 115.437 352.04 116.028 351.977 116.613C351.926 117.013 351.754 117.388 351.484 117.687C351.292 117.894 351.145 117.952 351.13 117.938Z" fill="#455A64"/>
<path d="M347.393 119.513C347.76 117.962 347.894 116.364 347.79 114.774C347.569 113.198 347.105 111.666 346.414 110.232C346.749 110.575 347.014 110.98 347.194 111.425C348.218 113.523 348.479 115.912 347.93 118.181C347.835 118.655 347.652 119.106 347.393 119.513Z" fill="#455A64"/>
<path d="M324.202 126.542C324.629 124.062 325.578 118.741 325.578 118.755C325.578 118.77 319.889 117.232 319.425 109.577C319.19 105.772 319.977 99.6413 320.779 94.6439C321.515 90.1469 326.27 84.5975 331.819 85.4292L334.329 85.5175L343.213 90.721C343.872 90.8534 344.457 91.2308 344.849 91.7771C345.241 92.3234 345.411 92.9981 345.325 93.665L340.46 125.821L326.689 152.766L323.576 133.63L324.202 126.542Z" fill="#FFBE9D"/>
<path d="M323.341 100.133C323.316 100.384 323.389 100.635 323.546 100.832C323.702 101.03 323.93 101.159 324.18 101.193C324.302 101.215 324.427 101.212 324.548 101.185C324.669 101.158 324.783 101.107 324.884 101.035C324.985 100.963 325.07 100.871 325.135 100.765C325.2 100.66 325.243 100.542 325.262 100.42C325.287 100.168 325.214 99.916 325.057 99.717C324.901 99.5181 324.673 99.3874 324.423 99.3525C324.3 99.3305 324.174 99.3334 324.053 99.3609C323.932 99.3885 323.817 99.4403 323.716 99.5131C323.615 99.5859 323.53 99.6782 323.465 99.7847C323.401 99.8911 323.359 100.009 323.341 100.133Z" fill="#263238"/>
<path d="M322.194 97.6965C322.305 97.8363 323.092 97.3653 324.13 97.4683C325.168 97.5713 325.882 98.1675 326.007 98.0497C326.132 97.932 325.97 97.7553 325.661 97.483C325.245 97.1305 324.731 96.9146 324.189 96.8648C323.648 96.8096 323.104 96.9282 322.636 97.2033C322.275 97.4168 322.143 97.6376 322.194 97.6965Z" fill="#263238"/>
<path d="M327.521 106.507C326.989 106.281 326.43 106.122 325.858 106.036C325.593 105.984 325.35 105.911 325.321 105.719C325.331 105.454 325.42 105.197 325.578 104.983C325.887 104.365 326.211 103.71 326.557 103.033C327.926 100.258 328.949 97.9618 328.831 97.8809C327.809 99.451 326.913 101.1 326.152 102.812L325.203 104.77C325.003 105.074 324.917 105.439 324.96 105.8C324.991 105.898 325.043 105.988 325.113 106.064C325.183 106.139 325.269 106.197 325.365 106.234C325.507 106.286 325.656 106.321 325.806 106.337C326.368 106.468 326.945 106.525 327.521 106.507Z" fill="#263238"/>
<path d="M325.578 118.755C329.126 119.148 332.713 118.549 335.941 117.025C335.941 117.025 332.747 121.986 325.262 120.551L325.578 118.755Z" fill="#EB996E"/>
<path d="M323.011 94.0239C323.173 94.2815 323.916 94.1049 324.777 94.1785C325.638 94.2521 326.352 94.4876 326.544 94.2594C326.632 94.149 326.544 93.8988 326.242 93.6412C325.838 93.3332 325.352 93.1514 324.846 93.1186C324.339 93.0859 323.834 93.2037 323.394 93.4572C323.107 93.6706 322.945 93.9062 323.011 94.0239Z" fill="#263238"/>
<path d="M335.243 100.891C335.211 101.143 335.083 101.372 334.885 101.53C334.687 101.688 334.435 101.763 334.183 101.738C334.06 101.73 333.939 101.698 333.828 101.644C333.717 101.589 333.617 101.513 333.536 101.42C333.454 101.327 333.392 101.219 333.353 101.101C333.314 100.984 333.298 100.86 333.307 100.737C333.337 100.484 333.465 100.254 333.663 100.096C333.862 99.9371 334.114 99.8633 334.367 99.8902C334.49 99.8977 334.611 99.9296 334.722 99.9841C334.833 100.039 334.933 100.115 335.014 100.208C335.096 100.301 335.158 100.409 335.197 100.526C335.236 100.644 335.252 100.768 335.243 100.891Z" fill="#263238"/>
<path d="M335.971 98.5665C335.831 98.6769 335.176 98.0366 334.138 97.8968C333.1 97.7569 332.276 98.1765 332.18 98.0366C332.084 97.8968 332.283 97.7643 332.644 97.5656C333.136 97.3147 333.694 97.2221 334.241 97.3006C334.779 97.3732 335.281 97.6126 335.676 97.9851C335.956 98.2721 336.037 98.515 335.971 98.5665Z" fill="#263238"/>
<path d="M335.817 95.0182C335.604 95.2243 334.919 94.8857 334.066 94.7606C333.212 94.6355 332.454 94.7017 332.321 94.4368C332.262 94.3043 332.41 94.0835 332.755 93.9069C333.213 93.6881 333.729 93.6211 334.227 93.7155C334.731 93.789 335.2 94.018 335.567 94.3705C335.839 94.6576 335.913 94.9446 335.817 95.0182Z" fill="#263238"/>
<path d="M343.712 104.203L342.24 105.344C337.464 99.1396 328.58 84.0736 329.066 84.9642C331.751 84.4045 334.534 84.5234 337.162 85.3101C341.21 86.657 348.783 89.9396 347.915 94.8266C347.046 99.7136 343.712 104.203 343.712 104.203Z" fill="#263238"/>
<path d="M346.832 109.01C346.855 108.611 346.899 108.213 346.965 107.818C347.08 106.74 347.1 105.654 347.024 104.572C346.723 100.997 345.556 97.5486 343.623 94.5258C341.659 91.5265 339.249 88.8437 336.477 86.5696C335.417 85.6864 334.541 85.002 333.923 84.5309C333.597 84.304 333.285 84.0582 332.988 83.7949C332.988 83.7949 333.091 83.7949 333.261 83.9421C333.43 84.0893 333.687 84.2144 333.997 84.4352C334.637 84.8695 335.542 85.5245 336.624 86.393C339.477 88.6283 341.941 91.319 343.918 94.3565C345.883 97.4224 347.035 100.938 347.267 104.572C347.324 105.669 347.267 106.769 347.097 107.855C347.046 108.237 346.958 108.525 346.921 108.731C346.906 108.828 346.876 108.922 346.832 109.01Z" fill="#455A64"/>
<path d="M336.25 83.9629C336.349 84.001 336.442 84.0504 336.53 84.1101C336.714 84.2131 336.971 84.3677 337.302 84.5811C337.958 85.008 338.9 85.6483 340.011 86.5168C341.307 87.5369 342.543 88.6304 343.713 89.792C345.199 91.1705 346.512 92.7251 347.621 94.4214C348.185 95.3192 348.623 96.2899 348.924 97.3066C349.197 98.2641 349.336 99.2549 349.336 100.251C349.328 101.909 349.08 103.557 348.6 105.145C348.195 106.499 347.783 107.559 347.489 108.288C347.342 108.648 347.216 108.928 347.135 109.119C347.094 109.217 347.045 109.31 346.988 109.399C347.091 108.987 347.227 108.583 347.393 108.192C347.643 107.456 348.019 106.381 348.387 105.035C348.834 103.467 349.062 101.844 349.064 100.214C349.048 99.2574 348.907 98.3073 348.644 97.3875C348.347 96.4023 347.919 95.4616 347.371 94.5907C346.273 92.9221 344.989 91.3838 343.544 90.0054C342.373 88.8498 341.145 87.7542 339.864 86.7229C338.782 85.8397 337.862 85.1699 337.229 84.7136C336.885 84.4874 336.558 84.2365 336.25 83.9629Z" fill="#455A64"/>
<path d="M343.825 104.342C343.612 104.116 343.422 103.869 343.258 103.606L341.786 101.501C340.586 99.7203 338.945 97.24 337.156 94.4874C335.368 91.7347 333.756 89.2397 332.608 87.4144L331.261 85.2506C331.087 84.9909 330.935 84.7177 330.805 84.4336C331.019 84.6585 331.209 84.9052 331.371 85.1696L332.843 87.2746C334.043 89.0557 335.684 91.536 337.48 94.2886C339.276 97.0413 340.881 99.5437 342.029 101.362L343.376 103.533C343.552 103.787 343.703 104.058 343.825 104.342Z" fill="#455A64"/>
<path d="M342.309 106.19C342.368 105.63 343.148 104.364 343.708 104.335C345.18 104.247 347.873 104.622 347.527 108.39C347.064 113.542 342 112.004 342 111.857C342 111.71 342.118 108.125 342.309 106.19Z" fill="#FFBE9D"/>
<path d="M343.418 109.923C343.418 109.923 343.499 109.996 343.647 110.077C343.748 110.133 343.859 110.168 343.974 110.181C344.089 110.193 344.205 110.183 344.316 110.151C344.668 109.972 344.966 109.702 345.178 109.37C345.39 109.037 345.51 108.654 345.523 108.259C345.573 107.817 345.525 107.37 345.383 106.949C345.349 106.786 345.276 106.634 345.169 106.505C345.063 106.377 344.927 106.277 344.773 106.213C344.672 106.179 344.562 106.18 344.462 106.216C344.362 106.252 344.277 106.321 344.221 106.412C344.14 106.552 344.162 106.655 344.14 106.662C344.118 106.669 344.037 106.566 344.095 106.36C344.133 106.236 344.214 106.129 344.324 106.059C344.398 106.011 344.481 105.978 344.569 105.963C344.656 105.948 344.745 105.95 344.831 105.97C345.04 106.029 345.23 106.142 345.383 106.297C345.535 106.452 345.644 106.643 345.7 106.853C345.883 107.321 345.944 107.828 345.877 108.325C345.751 109.363 345.141 110.283 344.405 110.43C344.263 110.459 344.116 110.455 343.976 110.42C343.836 110.384 343.706 110.317 343.595 110.224C343.418 110.048 343.404 109.93 343.418 109.923Z" fill="#EB996E"/>
<path d="M354.391 296.668C354.288 297.478 352.294 320.11 352.294 320.11H341.923L340.105 296.764L354.391 296.668Z" fill="#FFBE9D"/>
<path d="M341.896 316.738C341.896 316.738 349.182 321.89 352.7 317.437L353.628 319.601L357.764 335.057C357.906 335.541 357.866 336.061 357.652 336.518C357.438 336.974 357.064 337.337 356.601 337.538C356.246 337.679 355.858 337.716 355.483 337.644C355.107 337.572 354.76 337.395 354.482 337.133C351.486 334.277 340.498 323.745 340.63 322.317L340.667 318.527C340.673 318.142 340.793 317.767 341.012 317.45C341.231 317.133 341.538 316.888 341.896 316.746V316.738Z" fill="#C13B44"/>
<path d="M356.224 337.633L340.621 320.992V321.817C340.602 322.157 340.659 322.498 340.786 322.814C340.913 323.131 341.108 323.416 341.357 323.649C342.622 325.349 346.118 329.162 354.413 337.125C354.651 337.353 354.941 337.519 355.258 337.608C355.575 337.696 355.91 337.705 356.231 337.633H356.224Z" fill="#263238"/>
<path d="M342.911 318.521C343.152 318.697 343.319 318.955 343.382 319.247C343.444 319.539 343.397 319.844 343.249 320.103C343.082 320.351 342.827 320.526 342.536 320.591C342.244 320.657 341.938 320.609 341.681 320.456C341.427 320.269 341.25 319.993 341.187 319.684C341.123 319.374 341.176 319.051 341.336 318.778C341.535 318.538 341.82 318.385 342.13 318.351C342.44 318.317 342.752 318.404 342.999 318.594" fill="white"/>
<path d="M351.741 329.109C352.208 328.495 352.787 327.975 353.449 327.578C354.152 327.299 354.9 327.149 355.657 327.137C355.657 327.093 355.429 326.938 354.972 326.879C354.37 326.811 353.761 326.921 353.221 327.196C352.674 327.459 352.218 327.879 351.91 328.403C351.719 328.8 351.69 329.095 351.741 329.109Z" fill="#263238"/>
<path d="M353.141 331.723C353.699 331.403 354.277 331.118 354.871 330.869C355.501 330.749 356.137 330.665 356.777 330.619C356.836 330.516 355.894 330.111 354.745 330.464C353.597 330.817 353.038 331.671 353.141 331.723Z" fill="#263238"/>
<path d="M349.137 325.762C349.958 325.209 350.819 324.717 351.713 324.29C352.66 323.986 353.629 323.757 354.613 323.605C354.613 323.495 353.185 323.23 351.551 323.892C350.549 324.209 349.694 324.871 349.137 325.762Z" fill="#263238"/>
<path d="M348.785 321.058C348.844 321.176 349.919 320.72 351.324 320.668C352.73 320.617 353.841 320.94 353.886 320.823C353.094 320.396 352.201 320.192 351.303 320.234C350.404 320.275 349.534 320.56 348.785 321.058Z" fill="#263238"/>
<path d="M352.125 320.625C352.139 320.375 352.101 320.124 352.014 319.889C351.82 319.237 351.5 318.629 351.072 318.1C350.794 317.683 350.385 317.37 349.909 317.21C349.748 317.172 349.579 317.184 349.425 317.244C349.272 317.305 349.14 317.411 349.048 317.548C348.891 317.83 348.841 318.16 348.908 318.476C349.074 319.118 349.459 319.681 349.997 320.069C350.534 320.456 351.191 320.642 351.852 320.596C352.5 320.54 353.118 320.294 353.626 319.888C354.134 319.482 354.511 318.934 354.708 318.314C354.756 318.157 354.77 317.992 354.749 317.829C354.727 317.666 354.671 317.51 354.583 317.372C354.487 317.235 354.347 317.135 354.186 317.088C354.026 317.041 353.854 317.05 353.7 317.114C353.246 317.307 352.851 317.614 352.551 318.005C352.11 318.52 351.762 319.108 351.521 319.742C351.414 319.973 351.356 320.223 351.352 320.478C351.714 319.661 352.195 318.902 352.78 318.226C353.054 317.902 353.402 317.65 353.795 317.49C353.88 317.457 353.974 317.453 354.062 317.478C354.149 317.503 354.226 317.556 354.281 317.629C354.334 317.724 354.365 317.829 354.373 317.937C354.381 318.045 354.364 318.154 354.325 318.255C354.13 318.779 353.79 319.237 353.344 319.574C352.898 319.912 352.365 320.115 351.808 320.161C351.252 320.194 350.701 320.037 350.245 319.716C349.789 319.395 349.455 318.93 349.298 318.395C349.245 318.177 349.271 317.947 349.372 317.747C349.419 317.669 349.49 317.607 349.575 317.571C349.66 317.535 349.753 317.528 349.843 317.548C350.241 317.688 350.587 317.944 350.837 318.284C351.4 318.983 351.836 319.775 352.125 320.625Z" fill="#263238"/>
<path d="M297.449 289.3L299.238 318.196L311.794 318.107L313.914 288.086L297.449 289.3Z" fill="#FFBE9D"/>
<path d="M299.008 314.707V315.546C299.008 315.546 284.833 321.177 284.656 323.841H312.771L312.374 314.486C310.293 315.481 308.022 316.015 305.715 316.053C303.409 316.092 301.121 315.632 299.008 314.707Z" fill="#C13B44"/>
<path d="M309.534 317.467C309.804 317.549 310.035 317.728 310.182 317.97C310.328 318.212 310.381 318.499 310.329 318.777C310.257 319.05 310.084 319.285 309.844 319.434C309.605 319.583 309.317 319.635 309.041 319.579C308.754 319.492 308.509 319.301 308.354 319.044C308.199 318.788 308.145 318.483 308.202 318.188C308.306 317.911 308.514 317.685 308.781 317.557C309.049 317.43 309.355 317.41 309.637 317.504" fill="white"/>
<path d="M312.802 323.84L312.706 321.596L285.798 322.449C285.798 322.449 284.547 322.994 284.687 323.87L312.802 323.84Z" fill="#263238"/>
<path d="M298.899 315.626C298.899 315.759 299.591 315.818 300.268 316.259C300.945 316.701 301.306 317.282 301.431 317.223C301.556 317.165 301.35 316.377 300.526 315.862C299.701 315.347 298.87 315.494 298.899 315.626Z" fill="#263238"/>
<path d="M295.953 316.85C295.953 316.982 296.513 317.21 296.984 317.792C297.455 318.373 297.587 318.984 297.72 318.984C297.852 318.984 297.948 318.197 297.352 317.512C296.755 316.828 295.953 316.717 295.953 316.85Z" fill="#263238"/>
<path d="M294.284 320.373C294.409 320.373 294.601 319.718 294.284 318.967C293.968 318.217 293.283 317.915 293.225 318.033C293.166 318.15 293.57 318.548 293.85 319.166C294.13 319.784 294.145 320.366 294.284 320.373Z" fill="#263238"/>
<path d="M313.912 199.876C313.536 200.958 298.647 251.396 298.647 251.396L296.086 311.255L314.618 312.322L321.242 252.559L338.17 215.177L330.729 184.766H315.597L313.912 199.876Z" fill="#263238"/>
<path d="M327.102 184.782C327.367 185.518 336.868 219.742 336.868 219.742L338.186 270.776V313H355.077L362.945 219.882C362.945 219.882 364.336 202.954 361.959 197.264C359.581 191.575 349.954 181.58 349.954 181.58L327.102 184.782Z" fill="#263238"/>
<path d="M328.465 188.285C328.623 188.672 328.751 189.071 328.848 189.477C329.09 190.309 329.414 191.413 329.797 192.745C330.651 195.564 331.784 199.369 333.043 203.513C334.301 207.657 335.31 211.609 335.898 214.398C336.208 215.812 336.406 216.96 336.524 217.755C336.607 218.164 336.654 218.58 336.664 218.998C336.539 218.601 336.443 218.195 336.377 217.784C336.215 216.997 335.972 215.856 335.641 214.465C334.986 211.661 333.926 207.841 332.697 203.623C331.468 199.406 330.305 195.601 329.561 192.819C329.186 191.428 328.899 190.302 328.722 189.514C328.601 189.113 328.515 188.702 328.465 188.285Z" fill="#455A64"/>
<path d="M334.292 188.284C333.873 188.418 333.504 188.675 333.232 189.02C333.101 189.207 333.019 189.423 332.993 189.649C332.968 189.875 332.999 190.104 333.085 190.315C333.187 190.57 333.358 190.791 333.579 190.954C333.8 191.116 334.062 191.214 334.336 191.235C334.611 191.239 334.881 191.166 335.117 191.025C335.352 190.883 335.543 190.678 335.668 190.433C335.776 190.233 335.832 190.009 335.832 189.782C335.832 189.555 335.776 189.331 335.668 189.131C335.433 188.753 335.089 188.456 334.682 188.277C334.682 188.277 334.829 188.24 335.072 188.321C335.415 188.448 335.706 188.686 335.896 188.998C336.052 189.23 336.145 189.499 336.164 189.778C336.183 190.057 336.129 190.336 336.007 190.588C335.865 190.907 335.63 191.176 335.333 191.359C335.035 191.542 334.69 191.632 334.341 191.616C333.992 191.6 333.656 191.48 333.377 191.27C333.098 191.06 332.888 190.771 332.776 190.441C332.679 190.178 332.652 189.895 332.697 189.619C332.742 189.343 332.858 189.083 333.033 188.866C333.255 188.573 333.569 188.363 333.924 188.269C334.145 188.233 334.292 188.262 334.292 188.284Z" fill="#455A64"/>
<path d="M349.285 212.867C349.295 212.953 349.295 213.039 349.285 213.125C349.285 213.316 349.285 213.559 349.285 213.861C349.285 214.553 349.285 215.524 349.285 216.761C349.285 219.285 349.285 222.928 349.204 227.433C349.072 236.441 348.667 248.872 348.137 262.606C347.607 276.34 347.166 288.778 346.959 297.78C346.856 302.284 346.79 305.927 346.753 308.444C346.753 309.681 346.753 310.652 346.709 311.344C346.709 311.653 346.709 311.898 346.709 312.08C346.742 312.086 346.771 312.103 346.792 312.129C346.812 312.156 346.822 312.189 346.819 312.222C346.816 312.255 346.801 312.286 346.777 312.308C346.752 312.331 346.72 312.343 346.687 312.343C346.654 312.343 346.622 312.331 346.597 312.308C346.573 312.286 346.558 312.255 346.555 312.222C346.552 312.189 346.562 312.156 346.582 312.129C346.603 312.103 346.632 312.086 346.665 312.08C346.665 311.889 346.665 311.638 346.665 311.344C346.665 310.652 346.665 309.681 346.665 308.444C346.665 305.92 346.665 302.276 346.746 297.772C346.886 288.763 347.283 276.325 347.813 262.591C348.343 248.858 348.785 236.427 348.991 227.425C349.094 222.921 349.168 219.278 349.197 216.761C349.197 215.524 349.234 214.553 349.241 213.861C349.241 213.544 349.241 213.301 349.241 213.125C349.244 213.037 349.259 212.951 349.285 212.867Z" fill="#455A64"/>
<path d="M323.224 206.721C323.205 206.809 323.178 206.895 323.143 206.978L322.856 207.714C322.584 208.399 322.201 209.37 321.715 210.614C320.707 213.146 319.257 216.774 317.461 221.249C315.665 225.724 313.619 231.126 311.661 237.206C309.425 243.76 307.859 250.524 306.988 257.394C306.598 261.074 306.428 264.666 306.208 268.133C305.987 271.599 305.84 274.955 305.663 278.15C305.332 284.531 305.037 290.279 304.787 295.122C304.537 299.965 304.272 303.858 304.051 306.552C303.941 307.884 303.86 308.922 303.801 309.658C303.764 309.996 303.742 310.261 303.72 310.46C303.714 310.554 303.701 310.647 303.683 310.74C303.673 310.647 303.673 310.553 303.683 310.46C303.683 310.261 303.683 309.989 303.72 309.65C303.764 308.914 303.823 307.877 303.904 306.544C304.058 303.843 304.265 299.92 304.493 295.107C304.721 290.294 304.993 284.516 305.288 278.135C305.457 274.941 305.626 271.584 305.81 268.11C305.994 264.637 306.193 261.038 306.583 257.358C307.471 250.467 309.062 243.685 311.33 237.118C313.31 231.031 315.422 225.665 317.218 221.176C319.014 216.686 320.545 213.08 321.583 210.585C322.098 209.348 322.503 208.377 322.79 207.707L323.113 206.971C323.141 206.884 323.178 206.8 323.224 206.721Z" fill="#455A64"/>
<path d="M348.704 124.531C348.704 124.531 358.75 126.408 360.958 128.248C363.166 130.088 383.289 156.334 383.708 161.633C384.128 166.932 381.677 168.875 380.286 170.134C378.895 171.392 354.842 187.68 354.842 187.68L347.445 175.411L368.23 162.995L358.198 145.838L348.704 124.531Z" fill="#C13B44"/>
<path d="M374.942 158.33C373.536 158.542 372.181 159.011 370.945 159.713C369.777 160.521 368.765 161.534 367.957 162.702C368.05 162.277 368.239 161.879 368.509 161.539C369.096 160.673 369.858 159.94 370.745 159.386C371.632 158.832 372.626 158.47 373.661 158.322C374.083 158.226 374.521 158.229 374.942 158.33Z" fill="#C13B44"/>
<path d="M324.355 125.806L327.019 149.976L340.613 122.744L349.379 131.65C349.379 131.65 354.759 163.482 354.84 163.71C354.921 163.938 351.16 181.919 351.16 181.919L326.247 186.739L318.644 184.804L317.444 156.49L316.914 134.807L324.355 125.806Z" fill="white"/>
<path d="M321.126 126.836L314.656 128.308C313.792 128.508 312.989 128.914 312.316 129.493C306.796 134.218 294.858 144.213 294.858 144.213L297.066 126.475L285.57 125.408C285.57 125.408 282.125 147.768 282.479 153.649C282.898 160.479 289.022 162.157 297.935 158.484C303.443 156.274 308.775 153.646 313.884 150.624L321.126 126.836Z" fill="#C13B44"/>
<path d="M357.204 145.935L356.019 167.132L357.212 171.253C357.212 171.253 368.369 192.318 370.209 206.265L356.402 208.473C356.402 208.473 352.634 190.478 349.984 181.557C347.335 172.637 339.496 168.884 336.847 159.713C335.251 154.474 334.684 148.976 335.176 143.521C335.176 142.962 340.615 122.736 340.615 122.736L341.586 118.512L346.473 123.156L359.022 127.329L357.204 145.935Z" fill="#C13B44"/>
<g opacity="0.3">
<path d="M363.783 185.354C361.5 187.118 359.114 188.743 356.636 190.219C356.489 190.293 356.298 190.374 356.084 190.455C355.587 190.638 355.041 190.636 354.545 190.449C354.049 190.263 353.636 189.904 353.383 189.439C353.089 188.902 352.787 188.335 352.588 187.908C352.08 186.812 351.528 185.494 351.035 184.354L352.588 183.978L354.84 187.71L361.332 183.294L362.568 182.447L363.783 185.354Z" fill="black"/>
</g>
<path d="M324.473 123.42L321.455 126.577L314.221 129.117C314.221 129.117 312.454 150.461 313.411 155.009C314.338 159.381 316.105 164.695 316.252 170.973C316.399 177.251 309.23 210.43 309.23 210.43L317.901 213.72C317.901 213.72 322.317 175.308 321.455 166.932C320.594 158.557 322.832 141.673 322.832 141.673L324.473 123.42Z" fill="#C13B44"/>
<path d="M340.888 164.129C340.772 164.024 340.666 163.908 340.572 163.783C340.291 163.427 340.045 163.045 339.836 162.642C339.112 161.135 338.728 159.487 338.71 157.814C338.682 155.351 338.855 152.89 339.225 150.454C339.627 147.471 340.24 144.52 341.058 141.622C342.446 136.641 344.422 131.843 346.946 127.329L347.063 127.543L343.994 127.447H343.774L343.906 127.27L345.923 124.562L346.467 123.826C346.525 123.741 346.595 123.664 346.673 123.598C346.634 123.692 346.582 123.781 346.519 123.863L346.018 124.599L344.09 127.373L344.002 127.197L347.071 127.233H347.306L347.189 127.44C344.737 131.962 342.797 136.744 341.404 141.696C340.594 144.574 339.974 147.502 339.549 150.462C339.174 152.873 338.977 155.308 338.96 157.748C338.958 159.389 339.294 161.012 339.946 162.517C340.231 163.071 340.545 163.609 340.888 164.129Z" fill="#263238"/>
<path d="M349.38 144.559C348.231 144.945 347.035 145.173 345.825 145.236C344.628 145.417 343.412 145.432 342.211 145.28C343.392 145.055 344.587 144.912 345.788 144.853C346.976 144.666 348.177 144.568 349.38 144.559Z" fill="#263238"/>
<path d="M358.184 139.643C358.164 140.005 358.112 140.364 358.029 140.717C357.933 141.409 357.808 142.41 357.69 143.661C357.455 146.149 357.219 149.586 356.954 153.384L356.366 163.121C356.277 164.365 356.204 165.373 356.137 166.065C356.125 166.427 356.076 166.787 355.99 167.14C355.962 166.779 355.962 166.418 355.99 166.058C355.99 165.285 356.049 164.291 356.093 163.114C356.189 160.619 356.344 157.174 356.572 153.369C356.8 149.564 357.087 146.127 357.396 143.639C357.543 142.403 357.712 141.431 357.852 140.695C357.929 140.334 358.039 139.982 358.184 139.643Z" fill="#263238"/>
<path d="M374.25 163.702C374.213 163.812 372.859 163.378 371.122 163.253C369.385 163.128 367.987 163.349 367.965 163.253C368.982 162.875 370.076 162.752 371.152 162.892C372.235 162.909 373.298 163.187 374.25 163.702Z" fill="#263238"/>
<path d="M294.932 143.801C294.712 144.756 294.371 145.678 293.916 146.546C293.578 147.466 293.12 148.337 292.555 149.137C292.77 148.181 293.111 147.257 293.57 146.391C293.913 145.474 294.37 144.603 294.932 143.801Z" fill="#263238"/>
<path d="M312.979 136.727C313.083 136.727 313.252 140.892 313.347 146.037C313.443 151.182 313.443 155.355 313.347 155.355C313.252 155.355 313.075 151.189 312.972 146.044C312.869 140.9 312.876 136.734 312.979 136.727Z" fill="#263238"/>
<path d="M321.559 154.23C321.493 153.876 321.461 153.516 321.464 153.156C321.464 152.42 321.405 151.404 321.361 150.212C321.287 147.732 321.206 144.324 321.147 140.526C321.088 136.728 321.059 133.313 321.052 130.833C321.052 129.648 321.052 128.662 321.052 127.889C321.037 127.53 321.057 127.17 321.11 126.814C321.177 127.169 321.209 127.529 321.206 127.889C321.206 128.625 321.265 129.641 321.309 130.833C321.383 133.313 321.456 136.721 321.515 140.519C321.574 144.317 321.611 147.724 321.618 150.205C321.618 151.389 321.618 152.413 321.618 153.149C321.628 153.51 321.609 153.872 321.559 154.23Z" fill="#263238"/>
<path d="M376.047 173.182C375.924 173.296 375.791 173.399 375.65 173.491L374.472 174.337L370.056 177.436L354.953 187.865L354.791 187.983L354.688 187.813L351.376 182.323L347.299 175.537L347.203 175.375L347.358 175.279L362.269 166.447L366.641 163.901L367.818 163.231C367.952 163.148 368.092 163.077 368.238 163.018C368.118 163.121 367.987 163.213 367.848 163.29L366.707 164.026L362.394 166.661L347.542 175.603L347.608 175.346C348.896 177.487 350.28 179.762 351.7 182.124L355.005 187.615L354.732 187.556C360.782 183.449 366.089 179.843 369.909 177.252L374.398 174.249L375.613 173.454C375.75 173.352 375.896 173.261 376.047 173.182Z" fill="#263238"/>
<g opacity="0.3">
<path d="M339.88 162.554C339.654 159.389 339.955 156.208 340.77 153.141C342.672 144.537 345.8 136.251 350.058 128.536C349.563 128.264 348.996 128.151 348.435 128.214C347.873 128.278 347.345 128.514 346.923 128.89C346.097 129.663 345.458 130.615 345.054 131.672C341.805 138.61 339.752 146.048 338.982 153.671C338.791 155.135 338.754 156.615 338.871 158.087C339.018 159.632 339.018 161.252 339.975 162.466" fill="black"/>
</g>
<g opacity="0.3">
<path d="M312.955 138.273C310.666 142.248 310.968 147.032 313.154 151.065C313.154 146.649 313.154 142.785 312.889 138.332" fill="black"/>
</g>
<path d="M330.751 108.788C330.732 108.657 330.684 108.532 330.612 108.421C330.54 108.311 330.444 108.217 330.332 108.147C330.178 108.086 330.011 108.06 329.846 108.074C328.888 108.091 327.937 108.227 327.012 108.479L326.961 108.626C327.006 109.038 327.092 109.445 327.219 109.84C327.343 110.238 327.578 110.593 327.896 110.863C328.206 111.092 328.581 111.216 328.967 111.216C329.352 111.216 329.727 111.092 330.037 110.863C330.34 110.62 330.567 110.296 330.694 109.928C330.82 109.561 330.84 109.166 330.751 108.788Z" fill="#EB996E"/>
<path d="M327.909 111.042C328.308 111.077 328.71 111.052 329.102 110.968C329.508 110.844 329.859 110.584 330.095 110.232C330.236 110.026 330.333 109.792 330.379 109.546C330.424 109.3 330.418 109.048 330.36 108.804C330.316 108.575 330.184 108.371 329.992 108.238C329.777 108.167 329.545 108.167 329.33 108.238L328.005 108.488C327.597 108.597 327.176 108.644 326.754 108.628C327.128 108.433 327.531 108.297 327.946 108.223L329.256 107.892C329.549 107.786 329.869 107.786 330.162 107.892C330.306 107.979 330.432 108.095 330.529 108.233C330.627 108.372 330.694 108.528 330.728 108.694C330.801 108.99 330.807 109.298 330.747 109.597C330.688 109.896 330.563 110.178 330.382 110.424C330.08 110.808 329.648 111.069 329.168 111.16C328.963 111.235 328.743 111.263 328.525 111.243C328.308 111.222 328.097 111.154 327.909 111.042Z" fill="#263238"/>
<path d="M343.972 111.777C343.868 111.504 343.675 111.274 343.424 111.123C343.173 110.972 342.879 110.91 342.589 110.945C342.424 110.964 342.266 111.019 342.125 111.105C341.984 111.192 341.863 111.308 341.772 111.446C341.627 111.686 341.562 111.966 341.587 112.245C341.612 112.525 341.726 112.789 341.912 112.999C342.106 113.2 342.362 113.331 342.638 113.372C342.915 113.413 343.198 113.362 343.443 113.227C343.681 113.08 343.863 112.857 343.96 112.594C344.056 112.331 344.06 112.043 343.972 111.777Z" fill="#FAFAFA"/>
<path d="M347.767 176.169L339.252 168.625L332.061 169.243C332.061 169.243 332.311 170.421 333.305 170.605C334.298 170.789 337.89 170.855 337.89 170.855L339.576 172.526L335.285 172.099L329.831 175.315C329.831 175.315 329.706 176.309 331.134 176.051C332.551 175.706 333.939 175.251 335.285 174.69L338.457 174.874L334.998 175.374L330.515 178.532C330.813 178.841 331.19 179.064 331.605 179.174C332.021 179.284 332.458 179.278 332.871 179.157C334.298 178.723 336.028 178.038 336.028 178.038L339.936 177.663L336.028 178.657L333.121 182.256C333.396 182.448 333.724 182.55 334.059 182.55C334.395 182.55 334.722 182.448 334.998 182.256C335.573 181.852 336.126 181.417 336.654 180.953L340.989 180.762C340.989 180.762 345.78 184.236 347.443 184.611C349.107 184.986 352.595 183.971 352.595 183.971L347.767 176.169Z" fill="#FFBE9D"/>
<path d="M516.547 211.666H384.59V285.45H516.547V211.666Z" fill="#FAFAFA"/>
<path d="M516.545 285.45C516.545 285.45 516.545 284.994 516.545 284.126C516.545 283.257 516.545 281.962 516.545 280.276C516.545 276.891 516.545 271.915 516.545 265.52C516.545 252.75 516.501 234.32 516.464 211.666L516.612 211.814L384.661 211.858L384.853 211.666C384.853 237.758 384.853 262.715 384.853 285.45L384.676 285.274L479.62 285.362L506.852 285.406H514.124H516.001H516.641H516.023H514.161H506.933L479.701 285.458L384.676 285.546H384.492V285.362C384.492 262.627 384.492 237.669 384.492 211.578V211.387H384.691L516.641 211.431H516.788V211.578C516.788 234.269 516.729 252.728 516.707 265.527C516.707 271.901 516.707 276.869 516.707 280.247C516.707 281.925 516.707 283.191 516.707 284.074C516.707 284.957 516.545 285.45 516.545 285.45Z" fill="#263238"/>
<path d="M419.372 229.248H400.715V247.906H419.372V229.248Z" fill="#455A64"/>
<path d="M444.992 231.84C444.992 231.95 440.634 232.039 435.269 232.039C429.904 232.039 425.539 231.95 425.539 231.84C425.539 231.729 429.896 231.648 435.269 231.648C440.642 231.648 444.992 231.766 444.992 231.84Z" fill="#C13B44"/>
<path d="M507.102 238.582C507.102 238.685 488.834 238.773 466.313 238.773C443.791 238.773 425.523 238.685 425.523 238.582C425.523 238.479 443.784 238.391 466.313 238.391C488.842 238.391 507.102 238.464 507.102 238.582Z" fill="#263238"/>
<path d="M479.673 246.103C479.673 246.207 467.669 246.295 452.875 246.295C438.082 246.295 426.07 246.207 426.07 246.103C426.07 246 438.067 245.912 452.875 245.912C467.684 245.912 479.673 246 479.673 246.103Z" fill="#263238"/>
<path d="M497.012 258.379H406.875C402.098 258.379 398.227 262.251 398.227 267.027C398.227 271.803 402.098 275.675 406.875 275.675H497.012C501.789 275.675 505.66 271.803 505.66 267.027C505.66 262.251 501.789 258.379 497.012 258.379Z" fill="#C13B44"/>
<path d="M435.374 268.235H433.166L432.747 269.258H431.613L433.74 264.496H434.83L436.957 269.258H435.801L435.374 268.235ZM435.028 267.403L434.292 265.578L433.556 267.403H435.028Z" fill="white"/>
<path d="M441.598 266.226C441.598 267.286 440.803 267.948 439.53 267.948H438.573V269.258H437.469V264.496H439.53C440.781 264.496 441.598 265.151 441.598 266.226ZM440.486 266.226C440.486 265.703 440.14 265.394 439.471 265.394H438.573V267.05H439.471C440.126 267.05 440.464 266.741 440.464 266.226H440.486Z" fill="white"/>
<path d="M446.494 266.226C446.494 267.286 445.699 267.948 444.426 267.948H443.469V269.258H442.336V264.496H444.397C445.699 264.496 446.494 265.151 446.494 266.226ZM445.376 266.226C445.376 265.703 445.037 265.394 444.367 265.394H443.469V267.05H444.367C445.037 267.05 445.376 266.741 445.376 266.226Z" fill="white"/>
<path d="M447.281 264.496H448.378V268.36H450.77V269.258H447.281V264.496Z" fill="white"/>
<path d="M453.182 267.573V269.258H452.078V267.558L450.238 264.496H451.409L452.682 266.608L453.955 264.496H455.037L453.182 267.573Z" fill="white"/>
<path d="M461.795 264.496V269.258H460.889L458.527 266.366V269.258H457.438V264.496H458.35L460.735 267.389V264.496H461.795Z" fill="white"/>
<path d="M462.625 266.873C462.596 266.351 462.724 265.832 462.992 265.384C463.261 264.935 463.658 264.578 464.132 264.357C464.606 264.137 465.135 264.063 465.651 264.147C466.168 264.23 466.647 264.467 467.027 264.826C467.407 265.185 467.671 265.649 467.785 266.16C467.898 266.67 467.855 267.203 467.663 267.689C467.47 268.175 467.136 268.592 466.704 268.886C466.271 269.18 465.761 269.338 465.238 269.339C464.902 269.359 464.566 269.31 464.249 269.195C463.933 269.08 463.643 268.902 463.399 268.671C463.154 268.44 462.959 268.161 462.826 267.852C462.693 267.543 462.625 267.21 462.625 266.873ZM466.725 266.873C466.713 266.585 466.617 266.306 466.449 266.072C466.28 265.838 466.046 265.658 465.776 265.556C465.507 265.454 465.213 265.433 464.931 265.496C464.65 265.559 464.393 265.704 464.193 265.912C463.993 266.12 463.858 266.382 463.806 266.666C463.754 266.95 463.786 267.243 463.899 267.508C464.012 267.774 464.201 268 464.441 268.16C464.682 268.319 464.964 268.404 465.253 268.404C465.451 268.404 465.647 268.364 465.83 268.287C466.013 268.209 466.178 268.095 466.315 267.952C466.452 267.809 466.56 267.64 466.63 267.455C466.7 267.269 466.733 267.071 466.725 266.873Z" fill="white"/>
<path d="M475.719 264.496L474.158 269.258H472.973L471.928 266.034L470.846 269.258H469.669L468.094 264.496H469.235L470.316 267.845L471.435 264.496H472.458L473.547 267.867L474.651 264.496H475.719Z" fill="white"/>
<path d="M137.741 160.396H40.0664V215.008H137.741V160.396Z" fill="#FAFAFA"/>
<path d="M137.742 215.015C137.742 215.015 137.742 214.677 137.742 214.029C137.742 213.381 137.742 212.425 137.742 211.174C137.742 208.664 137.742 204.984 137.705 200.251C137.705 190.794 137.654 177.163 137.624 160.397L137.771 160.544L40.1041 160.588L40.2954 160.397C40.2954 179.709 40.2954 198.183 40.2954 215.015L40.1188 214.839L110.348 214.92L130.536 214.971H135.924H137.315H137.793H137.337H135.961H130.617L110.473 215.015L40.1188 215.104H39.8906V214.927C39.8906 198.095 39.8906 179.599 39.8906 160.309V160.117H40.0893L137.757 160.169H137.904V160.309C137.904 177.111 137.845 190.779 137.823 200.251C137.823 204.969 137.823 208.642 137.786 211.144C137.786 212.381 137.786 213.352 137.786 213.97C137.786 214.589 137.742 215.015 137.742 215.015Z" fill="#263238"/>
<path d="M65.8113 173.416H52.0039V187.223H65.8113V173.416Z" fill="#455A64"/>
<path d="M84.779 175.359C82.3846 175.549 79.982 175.613 77.5809 175.551C75.1798 175.613 72.7772 175.549 70.3828 175.359C72.7769 175.165 75.1798 175.102 77.5809 175.168C79.982 175.102 82.3848 175.165 84.779 175.359Z" fill="#C13B44"/>
<path d="M130.758 180.32C130.758 180.431 117.245 180.512 100.582 180.512C83.9192 180.512 70.4062 180.431 70.4062 180.32C70.4062 180.21 83.9192 180.129 100.582 180.129C117.245 180.129 130.758 180.217 130.758 180.32Z" fill="#263238"/>
<path d="M110.444 185.891C110.444 185.994 101.568 186.082 90.6086 186.082C79.6496 186.082 70.7734 185.994 70.7734 185.891C70.7734 185.788 79.6496 185.699 90.6454 185.699C101.641 185.699 110.444 185.78 110.444 185.891Z" fill="#263238"/>
<path d="M123.278 194.973H56.5673C53.0309 194.973 50.1641 197.838 50.1641 201.372C50.1641 204.907 53.0309 207.772 56.5673 207.772H123.278C126.815 207.772 129.681 204.907 129.681 201.372C129.681 197.838 126.815 194.973 123.278 194.973Z" fill="#C13B44"/>
<path d="M77.6605 202.273H76.0193L75.7028 203.009H74.8711L76.4388 199.477H77.2778L78.8602 203.009H77.9991L77.6605 202.273ZM77.4029 201.655L76.8436 200.301L76.2842 201.655H77.4029Z" fill="white"/>
<path d="M82.2532 200.781C82.2532 201.568 81.6644 202.054 80.7223 202.054H79.9863V203.033H79.1914V199.5H80.7223C81.6938 199.5 82.2532 199.986 82.2532 200.781ZM81.4288 200.781C81.4288 200.391 81.1712 200.162 80.6928 200.162H80.0231V201.392H80.6928C81.1712 201.392 81.4288 201.163 81.4288 200.781Z" fill="white"/>
<path d="M85.8924 200.781C85.8924 201.568 85.3036 202.054 84.3616 202.054H83.6256V203.033H82.8086V199.5H84.3321C85.3036 199.5 85.8924 199.986 85.8924 200.781ZM85.0681 200.781C85.0681 200.391 84.8179 200.162 84.3321 200.162H83.6697V201.392H84.3321C84.8179 201.392 85.0681 201.163 85.0681 200.781Z" fill="white"/>
<path d="M86.4727 199.5H87.2896V202.4H89.056V203.07H86.4727V199.5Z" fill="white"/>
<path d="M90.8426 201.782V203.033H90.0257V201.767L88.6641 199.5H89.5252L90.4746 201.068L91.4167 199.5H92.2189L90.8426 201.782Z" fill="white"/>
<path d="M97.2193 199.5V203.033H96.5496L94.7905 200.884V203.033H93.9883V199.5H94.658L96.4171 201.664V199.522L97.2193 199.5Z" fill="white"/>
<path d="M97.8348 201.266C97.8142 200.881 97.9095 200.498 98.1085 200.168C98.3075 199.837 98.6009 199.574 98.951 199.412C99.301 199.251 99.6916 199.197 100.072 199.26C100.453 199.322 100.806 199.497 101.086 199.762C101.366 200.027 101.56 200.37 101.643 200.747C101.726 201.124 101.695 201.516 101.552 201.875C101.41 202.233 101.163 202.541 100.844 202.758C100.525 202.974 100.149 203.09 99.7631 203.091C99.5149 203.105 99.2664 203.068 99.0329 202.983C98.7994 202.897 98.5859 202.765 98.4053 202.594C98.2247 202.423 98.081 202.217 97.9829 201.989C97.8848 201.76 97.8344 201.514 97.8348 201.266ZM100.867 201.266C100.863 201.048 100.794 200.837 100.67 200.659C100.546 200.48 100.373 200.342 100.171 200.262C99.9684 200.181 99.7472 200.163 99.5345 200.208C99.3218 200.253 99.1272 200.36 98.975 200.515C98.8228 200.67 98.7198 200.867 98.679 201.08C98.6382 201.294 98.6613 201.515 98.7454 201.715C98.8296 201.916 98.9711 202.087 99.1521 202.207C99.3332 202.328 99.5457 202.392 99.7631 202.392C99.9108 202.395 100.058 202.368 100.194 202.312C100.331 202.256 100.455 202.173 100.559 202.068C100.662 201.962 100.743 201.836 100.796 201.699C100.849 201.561 100.873 201.413 100.867 201.266Z" fill="white"/>
<path d="M107.527 199.5L106.372 203.033H105.496L104.716 200.641L103.914 203.033H103.038L101.875 199.5H102.721L103.516 201.98L104.348 199.5H105.084L105.894 202.002L106.718 199.5H107.527Z" fill="white"/>
<path d="M493.208 64.9883H386.047V124.906H493.208V64.9883Z" fill="#FAFAFA"/>
<path d="M493.209 124.906C493.209 124.906 493.209 124.538 493.209 123.824C493.209 123.11 493.209 122.065 493.209 120.696C493.209 117.944 493.209 113.903 493.173 108.714C493.173 98.3439 493.128 83.381 493.099 64.9884L493.246 65.1356L386.092 65.1797L386.283 64.9884C386.283 86.1778 386.283 106.44 386.283 124.906L386.107 124.729L463.166 124.81L485.312 124.862H491.2H492.724H491.252H485.364L463.284 124.913L386.048 125.12H385.871V124.943C385.871 106.477 385.871 86.2146 385.871 65.0252V64.7676H386.07L493.224 64.8117H493.371V64.9589C493.334 83.3589 493.312 98.3807 493.29 108.773C493.29 113.925 493.29 117.98 493.253 120.726C493.253 122.08 493.253 123.118 493.253 123.832C493.253 124.545 493.209 124.906 493.209 124.906Z" fill="#263238"/>
<path d="M414.288 79.2656H399.141V94.4125H414.288V79.2656Z" fill="#455A64"/>
<path d="M435.099 81.4018C435.099 81.5049 431.559 81.5932 427.202 81.5932C422.845 81.5932 419.305 81.5049 419.305 81.4018C424.566 81.1369 429.838 81.1369 435.099 81.4018Z" fill="#C13B44"/>
<path d="M485.545 86.8476C485.545 86.958 470.714 87.0463 452.425 87.0463C434.135 87.0463 419.305 86.958 419.305 86.8476C419.305 86.7372 434.128 86.6562 452.425 86.6562C470.722 86.6562 485.545 86.7372 485.545 86.8476Z" fill="#263238"/>
<path d="M463.261 92.957C463.261 93.06 453.517 93.1483 441.498 93.1483C429.479 93.1483 419.734 93.06 419.734 92.957C419.734 92.8539 429.479 92.7656 441.498 92.7656C453.517 92.7656 463.261 92.8466 463.261 92.957Z" fill="#263238"/>
<path d="M477.338 116.965H404.143C402.28 116.965 400.494 116.225 399.178 114.908C397.861 113.591 397.121 111.806 397.121 109.943C397.121 108.081 397.861 106.295 399.178 104.978C400.494 103.662 402.28 102.922 404.143 102.922H477.338C479.2 102.922 480.986 103.662 482.303 104.978C483.619 106.295 484.359 108.081 484.359 109.943C484.359 111.806 483.619 113.591 482.303 114.908C480.986 116.225 479.2 116.965 477.338 116.965Z" fill="#C13B44"/>
<path d="M427.285 110.93H425.489L425.15 111.755H424.23L425.953 107.891H426.836L428.565 111.755H427.616L427.285 110.93ZM427.005 110.246L426.394 108.774L425.776 110.246H427.005Z" fill="white"/>
<path d="M432.325 109.296C432.325 110.158 431.677 110.687 430.647 110.687H429.867V111.755H428.969V107.891H430.647C431.677 107.891 432.325 108.428 432.325 109.296ZM431.42 109.296C431.42 108.87 431.14 108.619 430.595 108.619H429.859V109.959H430.595C431.14 109.959 431.42 109.716 431.42 109.296Z" fill="white"/>
<path d="M436.314 109.296C436.314 110.158 435.673 110.687 434.636 110.687H433.855V111.755H432.965V107.891H434.636C435.71 107.891 436.314 108.428 436.314 109.296ZM435.408 109.296C435.408 108.87 435.136 108.619 434.584 108.619H433.848V109.959H434.584C435.136 109.959 435.408 109.716 435.408 109.296Z" fill="white"/>
<path d="M436.957 107.891H437.855V111.026H439.791V111.762H436.957V107.891Z" fill="white"/>
<path d="M441.753 110.4V111.769H440.863V110.4L439.391 107.912H440.34L441.37 109.627L442.408 107.912H443.284L441.753 110.4Z" fill="white"/>
<path d="M448.747 107.891V111.755H448.011L446.082 109.407V111.755H445.199V107.891H445.935L447.856 110.238V107.891H448.747Z" fill="white"/>
<path d="M449.422 109.825C449.397 109.401 449.499 108.979 449.717 108.614C449.934 108.25 450.256 107.958 450.641 107.779C451.026 107.599 451.456 107.539 451.876 107.607C452.295 107.675 452.684 107.867 452.993 108.159C453.302 108.45 453.516 108.828 453.607 109.243C453.699 109.657 453.664 110.09 453.507 110.484C453.349 110.879 453.077 111.217 452.726 111.455C452.374 111.693 451.959 111.82 451.534 111.819C451.262 111.835 450.99 111.796 450.735 111.703C450.479 111.61 450.245 111.465 450.047 111.279C449.849 111.092 449.691 110.866 449.584 110.616C449.476 110.366 449.421 110.097 449.422 109.825ZM452.748 109.825C452.744 109.586 452.669 109.353 452.533 109.156C452.397 108.96 452.206 108.807 451.984 108.719C451.761 108.63 451.518 108.609 451.284 108.659C451.05 108.708 450.835 108.825 450.668 108.996C450.5 109.167 450.387 109.383 450.342 109.618C450.296 109.853 450.322 110.096 450.414 110.317C450.507 110.537 450.662 110.726 450.862 110.858C451.061 110.991 451.295 111.061 451.534 111.061C451.696 111.066 451.858 111.036 452.009 110.975C452.16 110.914 452.296 110.823 452.41 110.707C452.524 110.591 452.613 110.453 452.671 110.301C452.729 110.149 452.756 109.987 452.748 109.825Z" fill="white"/>
<path d="M460.052 107.891L458.786 111.755H457.792L456.946 109.134L456.063 111.755H455.106L453.84 107.891H454.767L455.636 110.606L456.548 107.891H457.38L458.263 110.629L459.161 107.891H460.052Z" fill="white"/>
</svg>
