<?xml version="1.0" ?>

<!-- Uploaded to: SVG Repo, www.svgrepo.com, Generator: SVG Repo Mixer Tools -->
<svg fill="#000000" width="40px" height="40px" viewBox="0 0 64 64" id="Layer_1" version="1.1" xml:space="preserve" xmlns="http://www.w3.org/2000/svg" xmlns:xlink="http://www.w3.org/1999/xlink">

<g>

<path d="M3,61h58V3H3V61z M5,59V20h54v39H5z M59,5v13H5V5H59z"/>

<path d="M32,23c-9.4,0-17,7.6-17,17s7.6,17,17,17s17-7.6,17-17S41.4,23,32,23z M32,55c-7.8,0-14.2-6-14.9-13.6   c3.2-0.3,4.9,0.4,6.7,1.2c1.5,0.7,3.1,1.4,5.4,1.4c0.7,0,1.6-0.1,2.5-0.2c4.1-0.7,6,0.1,8.1,1c1.5,0.7,3.1,1.4,5.4,1.4   c0.2,0,0.4,0,0.6,0C43.3,51.3,38.1,55,32,55z M46.4,44c-2.6,0.3-4.2-0.3-5.9-1.1c-2.1-1-4.6-2-9.3-1.2c-3.2,0.6-4.8-0.1-6.7-1   c-1.9-0.8-4-1.8-7.6-1.4c0.3-8,6.9-14.4,15-14.4c8.3,0,15,6.7,15,15C47,41.4,46.8,42.8,46.4,44z"/>

<path d="M37,14c1.7,0,3-1.3,3-3s-1.3-3-3-3s-3,1.3-3,3S35.3,14,37,14z M37,10c0.6,0,1,0.4,1,1s-0.4,1-1,1s-1-0.4-1-1S36.4,10,37,10   z"/>

<path d="M45,14c1.7,0,3-1.3,3-3s-1.3-3-3-3s-3,1.3-3,3S43.3,14,45,14z M45,10c0.6,0,1,0.4,1,1s-0.4,1-1,1s-1-0.4-1-1S44.4,10,45,10   z"/>

<path d="M53,14c1.7,0,3-1.3,3-3s-1.3-3-3-3s-3,1.3-3,3S51.3,14,53,14z M53,10c0.6,0,1,0.4,1,1s-0.4,1-1,1s-1-0.4-1-1S52.4,10,53,10   z"/>

</g>

</svg>