<svg width="136" height="136" viewBox="0 0 136 136" fill="none" xmlns="http://www.w3.org/2000/svg">
<path d="M28.0537 2.60938H107.946L108.078 2.74121V6.69629L107.683 6.82812H100.168L102.673 19.3525L103.728 24.7578L103.859 25.8125V27.6582L103.464 30.4268L102.805 32.5361L101.882 34.6455L100.563 36.7549L99.1133 38.3369L97.7949 39.6553L95.8174 41.1055L95.6855 41.3691L96.7402 41.501L106.232 44.665L109.001 45.0605L111.374 45.8516L113.22 46.9062L114.934 48.2246L115.856 49.1475L117.043 50.7295L118.098 52.707L119.021 55.4756L121.657 65.0996L124.821 76.5693L127.326 85.666L130.49 97.1357L132.995 106.232L133.391 108.474V110.056L132.995 112.165L132.468 113.615L131.677 115.065L130.622 116.516L129.172 118.361L127.458 120.471L126.008 122.316L125.217 123.239L123.371 124.426L122.053 124.821L120.866 124.953H113.352L114.538 131.545L114.802 133.259L114.274 133.391H21.3301L21.1982 132.731L22.5166 125.48L22.3848 124.953H14.7383L12.8926 124.558L11.5742 123.898L10.5195 122.976L9.33301 121.525L7.61914 119.416L6.16895 117.57L4.45508 115.329L3.66406 114.011L2.87305 111.901L2.60938 110.319V108.078L3.26855 105.046L6.30078 94.1035L8.14648 87.3799L16.584 56.7939L17.6387 53.2344L18.6934 51.125L20.0117 49.2793L21.4619 47.8291L23.1758 46.6426L25.2852 45.5879L26.999 45.0605L30.0312 44.5332L35.7002 42.6875L40.1826 41.2373L39.6553 40.71L38.2051 39.6553L35.832 37.2822L34.6455 35.5684L33.7227 33.9863L32.9316 32.0088L32.2725 29.2402L32.1406 28.1855V25.5488L33.0635 20.5391L35.832 6.69629L34.9092 6.82812H27.9219V2.74121L28.0537 2.60938ZM49.1475 6.82812L49.6748 12.7607L50.0703 16.7158L50.5977 18.957L51.6523 21.0664L52.707 22.3848L53.7617 23.4395L55.6074 24.626L57.1895 25.2852L58.6396 25.6807L59.6943 25.8125H76.042L77.8877 25.5488L79.4697 25.0215L81.0518 24.2305L82.7656 22.9121L83.8203 21.7256L84.7432 20.2754L85.4023 18.8252L85.9297 16.4521L86.8525 6.82812H49.1475ZM59.8262 30.0312L58.9033 33.3271L57.8486 37.1504L57.9805 37.8096L60.0898 39.1279L66.0225 43.083L67.7363 44.2695L68.3955 44.1377L77.0967 38.3369L78.1514 37.5459L77.624 35.4365L76.3057 30.6904L76.042 30.0312H59.8262ZM82.7656 41.3691L82.6338 53.8936L78.6787 52.5752H78.415L78.5469 53.2344L80.7881 57.9805L82.502 61.6719L84.6113 66.1543L86.0615 69.3184L86.5889 70.1094H99.5088L99.6406 69.9775L99.7725 65.7588L100.168 61.2764L100.827 57.0576L101.882 52.5752L102.805 49.6748L103.2 48.2246L101.882 47.6973L97.1357 46.1152L83.0293 41.3691H82.7656ZM53.1025 41.3691L44.7969 44.1377L39.1279 45.9834L33.7227 47.8291L32.7998 48.0928L33.0635 49.2793L33.9863 52.3115L34.9092 56.0029L35.5684 59.5625L35.9639 62.8584L36.3594 70.1094H49.4111L50.0703 69.0547L50.9932 66.9453L51.916 64.9678L53.8936 60.8809L55.6074 57.1895L57.1895 53.7617L57.585 52.9707V52.707L56.6621 52.8389L53.498 53.8936L53.2344 54.0254V41.3691H53.1025ZM57.4531 42.4238V48.0928L58.376 47.9609L62.9902 46.3789V45.9834L60.8809 44.665L58.7715 43.2148L57.585 42.4238H57.4531ZM78.1514 42.5557L76.042 44.0059L73.4053 45.7197L72.8779 45.9834V46.2471L75.251 47.1699L78.0195 48.0928L78.5469 48.2246V42.5557H78.1514ZM28.0537 49.1475L26.4717 49.6748L25.0215 50.4658L23.5713 51.6523V51.916H23.3076L22.1211 53.6299L21.4619 55.2119L19.8799 60.749L16.7158 72.2188L13.9473 82.2383L11.0469 92.7852L8.67383 101.354L7.0918 107.023L6.82812 108.342V110.319L7.35547 112.033L8.41016 113.615L10.124 115.725L11.7061 117.702L13.1562 119.548L14.0791 120.471L14.7383 120.734H23.3076L23.7031 119.548L25.8125 107.683L31.7451 74.46L32.1406 71.9551V67.0771L31.877 62.9902L31.3496 59.167L30.4268 54.8164L29.2402 50.7295L28.7129 49.2793L28.0537 49.1475ZM107.419 49.1475L106.892 50.2021L105.31 55.7393L104.65 58.9033L104.123 62.4629L103.859 65.7588V72.3506L104.914 78.5469L106.76 88.8301L109.265 102.805L112.033 118.361L112.429 120.471L112.561 120.734H121.13L122.053 120.339L123.107 119.284L124.426 117.57L126.14 115.461L127.854 113.22L128.645 111.901L129.172 109.924V108.605L128.513 105.837L126.14 97.1357L124.426 90.9395L122.316 83.293L119.548 73.2734L115.329 57.9805L114.406 54.8164L113.352 52.8389L112.165 51.3887L110.715 50.334L109.133 49.543L107.946 49.1475H107.419ZM70.7686 50.0703L70.6367 50.334L71.2959 53.6299L73.4053 65.3633L76.833 84.2158L77.8877 89.8848L78.2832 90.8076L79.2061 91.2031L79.9971 90.9395L81.0518 90.0166L85.7979 85.2705L86.5889 84.084L86.9844 82.6338V81.5791L86.457 79.8652L84.084 74.8555L82.502 71.4277L81.5791 69.3184L80.5244 67.209L78.8105 63.5176L76.7012 59.0352L74.7236 54.6846L73.4053 51.916L72.8779 50.8613L72.3506 50.4658L70.7686 50.0703ZM64.9678 50.0703L63.2539 50.5977L62.1992 52.707L59.6943 58.1123L58.1123 61.4082L56.5303 64.8359L54.4209 69.3184L52.4434 73.6689L50.7295 77.2285L49.4111 80.1289L49.0156 81.4473V82.8975L49.543 84.3477L50.4658 85.5342L55.6074 90.6758L56.3984 91.2031L57.3213 91.0713L57.9805 90.2803L59.6943 81.0518L65.2314 50.5977V50.0703H64.9678ZM67.8682 59.0352L66.8135 64.7041L65.0996 74.1963L63.2539 84.2158L62.1992 90.0166L61.6719 92.126L60.749 93.5762L59.8262 94.3672L58.7715 94.8945L57.4531 95.29V129.172H78.415L78.5469 129.04V95.4219L77.2285 94.8945L76.1738 94.3672L74.9873 93.3125L74.0645 91.4668L73.0098 86.0615L69.9775 69.3184L68.1318 59.167L67.8682 59.0352ZM35.9639 74.3281L35.1729 78.5469L33.8545 86.0615L32.668 92.5215L30.9541 102.146L28.4492 116.12L26.4717 127.326L26.208 128.645V129.172H32.2725L32.5361 128.513L36.3594 101.882L40.1826 75.1191V74.3281H35.9639ZM44.4014 74.3281L42.6875 86.457L37.6777 121.525L36.7549 127.854L36.623 129.172H42.8193L43.3467 123.239L44.7969 105.441L45.8516 92.2578L46.2471 86.9844L45.3242 84.875L44.9287 83.293V81.0518L45.4561 78.9424L47.0381 75.5146L47.4336 74.3281H44.4014ZM88.4346 74.3281L89.6211 76.9648L90.5439 79.0742L91.0713 81.1836V82.7656L90.6758 84.875L89.7529 86.7207L89.8848 89.4893L91.7305 112.561L93.0488 128.908L93.1807 129.172H99.2451L99.1133 127.326L95.1582 99.7725L91.7305 75.7783L91.5986 74.5918L91.4668 74.3281H88.4346ZM95.6855 74.3281L96.0811 77.2285L100.168 105.969L103.464 128.908L103.596 129.172H109.66L109.792 128.908L108.21 120.075L103.596 94.1035L100.827 78.6787L100.168 74.5918L100.036 74.3281H95.6855ZM50.0703 91.2031L49.543 97.1357L48.0928 115.461L47.3018 125.085L47.0381 128.249V129.172H53.1025L53.2344 129.04V94.1035L50.334 91.2031H50.0703ZM85.5342 91.2031V91.4668L85.1387 91.5986L84.2158 92.6533L82.8975 93.8398L82.7656 94.1035V129.172H88.8301L88.9619 128.908L87.5117 110.979L86.1934 94.6309L85.9297 91.2031H85.5342Z" fill="#414141"/>
<path d="M35.832 6.82812H44.9287L45.0605 7.0918L45.4561 11.8379L45.9834 17.375L46.5107 19.748L47.4336 21.9893L48.752 24.0986L50.2021 25.6807L51.125 26.6035L52.4434 27.5264L54.2891 28.5811L55.7393 29.2402L55.2119 31.3496L53.7617 36.4912L53.3662 36.8867L53.2344 36.7549V30.0312H49.1475L49.0156 30.2949V37.8096L48.752 38.4688L45.1924 39.6553H44.7969V25.8125H40.5781V38.7324L40.4463 41.1055L39.7871 40.8418L38.0732 39.5234L35.832 37.2822L34.6455 35.5684L33.7227 33.9863L32.9316 32.0088L32.2725 29.2402L32.1406 28.1855V25.5488L33.0635 20.5391L35.832 6.82812Z" fill="#C13B44"/>
<path d="M91.0723 6.82812H100.169L102.674 19.3525L103.729 24.7578L103.86 25.8125V27.6582L103.465 30.4268L102.806 32.5361L101.883 34.6455L100.564 36.7549L99.1143 38.3369L97.7959 39.6553L95.8184 41.1055L95.5547 41.2373L95.4229 40.9736L95.291 25.8125H91.3359L91.2041 27.2627V39.5234L90.8086 39.6553L87.6445 38.6006L86.9854 38.3369V30.0312L82.7666 30.1631V36.7549H82.3711L81.1846 32.7998L80.2617 29.5039V29.1084L81.9756 28.4492L83.9531 27.2627L85.667 25.8125L86.7217 24.7578L87.9082 23.0439L88.9629 20.9346L89.7539 18.5615L90.1494 15.793L90.9404 7.61914L91.0723 6.82812Z" fill="#C13B44"/>
<path d="M67.0771 112.297H68.791L70.373 112.692L71.5596 113.352L72.8779 114.538L73.8008 115.988L74.1963 117.175L74.3281 117.966V119.284L73.9326 120.866L73.4053 121.921L72.3506 123.239L71.2959 124.03L70.2412 124.558L69.3184 124.821H66.5498L64.8359 124.162L63.6494 123.239L62.7266 122.185L62.0674 120.866L61.6719 119.548V117.702L62.1992 115.988L62.9902 114.67L64.1768 113.483L65.8906 112.561L67.0771 112.297Z" fill="#C13B44"/>
<path d="M67.209 95.4219H68.6592L69.9775 95.6855L71.8232 96.6084L73.0098 97.7949L73.8008 99.2451L74.1963 100.3L74.3281 101.091V102.409L73.9326 103.991L73.1416 105.441L72.0869 106.628L70.2412 107.683L69.3184 107.946L67.8682 108.078L66.1543 107.814L64.9678 107.287L63.7812 106.496L62.7266 105.31L62.0674 103.991L61.6719 102.541V100.959L62.0674 99.377L62.9902 97.7949L64.0449 96.7402L65.3633 95.9492L66.418 95.5537L67.209 95.4219Z" fill="#C13B44"/>
<path d="M72.2188 11.0469H76.3057L76.4375 11.7061L76.042 13.6836L74.9873 15.793L73.8008 17.1113L72.7461 18.0342L70.6367 19.0889L69.582 19.3525L68 19.4844H59.5625V15.2656L68.3955 15.1338L70.1094 14.6064L71.1641 13.6836L71.6914 12.8926L72.2188 11.0469Z" fill="#414141"/>
</svg>
