<?xml version="1.0" encoding="utf-8"?><!-- Uploaded to: SVG Repo, www.svgrepo.com, Generator: SVG Repo Mixer Tools -->
<svg width="40px" height="40px" viewBox="0 0 64 64" xmlns="http://www.w3.org/2000/svg" xmlns:xlink="http://www.w3.org/1999/xlink" aria-hidden="true" role="img" class="iconify iconify--medical-icon" preserveAspectRatio="xMidYMid meet"><path d="M48.596 33.421l-16.702-2.748l2.396-1.706l4.011.555l4.006-.555z" fill="#000000"></path><path d="M38.301 1.858a6.062 6.062 0 0 1 6.062 6.064c0 3.35-2.135 6.064-6.062 6.064a6.065 6.065 0 1 1 0-12.128z" fill="#000000"></path><path d="M39.81 45.684v14.655a3.31 3.31 0 0 0 6.622 0V45.684a3.312 3.312 0 0 0-6.622 0z" fill="#000000"></path><path d="M60.092 54.051a1.923 1.923 0 0 1-1.919 1.922H48.021v-9.596h4.391v-9.59c0-1.056.861-1.918 1.918-1.918h3.843c1.056 0 1.919.861 1.919 1.918v17.264z" fill="#000000"></path><path d="M38.226 55.972H18.517a1.92 1.92 0 0 1-1.92-1.922V36.786a1.92 1.92 0 0 1 1.92-1.918h3.841c1.059 0 1.92.861 1.92 1.918v9.59h13.948v9.596z" fill="#000000"></path><path d="M27.848 35.267a3.313 3.313 0 0 0 2.728 3.806l14.459 2.383a3.314 3.314 0 0 0 3.804-2.73a3.307 3.307 0 0 0-2.728-3.803l-14.459-2.385a3.314 3.314 0 0 0-3.804 2.729z" fill="#000000"></path><path d="M11.541 17.117c-4.718 0-8.555-3.837-8.555-8.558S6.823 0 11.541 0s8.56 3.839 8.56 8.559c0 4.721-3.842 8.558-8.56 8.558zm0-2.118a6.45 6.45 0 0 0 6.442-6.441c0-3.549-2.893-6.441-6.442-6.441c-3.552 0-6.438 2.892-6.438 6.441a6.445 6.445 0 0 0 6.438 6.441z" fill="#000000"></path><path d="M11.585 9.689a.637.637 0 0 1-.615-.046a.641.641 0 0 1-.288-.444l-.009-4.974a.644.644 0 0 1 1.287 0v3.859l3.299-1.554a.642.642 0 0 1 .857.305a.645.645 0 0 1-.307.857l-4.224 1.996z" fill="#000000"></path><path d="M38.301 18.81l7.861-1.28v5.526l3.881 2.919c.373.376.222.804.134.925a.664.664 0 0 1-.927.134l-4.898-3.702a2.25 2.25 0 0 0-2.594 3.676l8.369 5.878c.389.274.942.461 1.493.461c.47 0 1.023-.195 1.435-.487c.878-.624 1.201-1.731.903-2.751l-3.108-9.184c-.83-2.282-2.923-4.968-6.067-4.968H31.818c-3.143 0-5.236 2.686-6.067 4.968l-3.108 9.184c-.299 1.02.026 2.128.904 2.751c.409.292.964.487 1.432.487c.554 0 1.108-.186 1.496-.461l8.369-5.878a2.25 2.25 0 0 0-2.594-3.676l-4.901 3.702a.663.663 0 0 1-.925-.134a.734.734 0 0 1 .132-.925s2.632-1.977 3.883-2.919V17.53l7.862 1.281z" fill="#000000"></path></svg>