<svg width="18" height="18" viewBox="0 0 25 25" fill="none" xmlns="http://www.w3.org/2000/svg">
<path d="M10.4951 17.0134C9.29602 17.198 8.29359 17.539 7.58013 17.9897C6.83887 18.458 6.39353 19.0563 6.39353 19.7315C6.39353 20.5695 7.10246 21.2867 8.19186 21.7888C9.28867 22.2943 10.8053 22.6 12.4999 22.6C14.1945 22.6 15.7112 22.2943 16.808 21.7887C17.8974 21.2866 18.6063 20.5694 18.6063 19.7315C18.6064 19.0519 18.14 18.4465 17.377 17.9745C16.6424 17.5201 15.6158 17.1774 14.403 16.9993L17.6782 11.733C17.6783 11.733 17.6783 11.7329 17.6783 11.7328C17.6909 11.7128 17.7018 11.6917 17.7107 11.6697C18.2969 10.7107 18.6065 9.61567 18.6065 8.49765C18.6065 5.13532 15.8712 2.4 12.5089 2.4C9.14654 2.4 6.41099 5.13531 6.41099 8.49765C6.41099 9.61626 6.72123 10.712 7.30821 11.6719C7.3159 11.69 7.32491 11.708 7.33566 11.726L10.4951 17.0134ZM10.4951 17.0134L7.33575 11.7261L10.4951 17.0134ZM8.08513 11.2707L8.08512 11.2707C7.55998 10.4348 7.28262 9.47603 7.28262 8.49765C7.28262 5.61607 9.62706 3.27163 12.5089 3.27163C15.3904 3.27163 17.7349 5.61607 17.7349 8.49765C17.7349 9.47649 17.4575 10.4353 16.9326 11.2707L16.9325 11.2709C16.9197 11.2914 16.9089 11.3126 16.8999 11.3344L13.359 17.0274C13.3144 17.0957 13.2988 17.1214 13.2581 17.1884C13.2497 17.2023 13.2402 17.2179 13.2292 17.2359C13.2291 17.2361 13.229 17.2362 13.229 17.2364L12.4206 18.5363L8.12057 11.3402C8.11094 11.3162 8.09906 11.2929 8.08513 11.2707ZM12.0391 19.597L12.0391 19.5971C12.1172 19.7274 12.2572 19.808 12.4094 19.8092H12.4101H12.4102H12.4102H12.4102H12.4102H12.4102H12.4102H12.4102H12.4103H12.4103H12.4103H12.4103H12.4103H12.4103H12.4104H12.4104H12.4104H12.4104H12.4104H12.4104H12.4105H12.4105H12.4105H12.4105H12.4105H12.4105H12.4106H12.4106H12.4106H12.4106H12.4106H12.4106H12.4107H12.4107H12.4107H12.4107H12.4107H12.4107H12.4108H12.4108H12.4108H12.4108H12.4108H12.4108H12.4109H12.4109H12.4109H12.4109H12.4109H12.411H12.411H12.411H12.411H12.411H12.411H12.4111H12.4111H12.4111H12.4111H12.4111H12.4111H12.4112H12.4112H12.4112H12.4112H12.4112H12.4112H12.4113H12.4113H12.4113H12.4113H12.4113H12.4114H12.4114H12.4114H12.4114H12.4114H12.4114H12.4115H12.4115H12.4115H12.4115H12.4115H12.4116H12.4116H12.4116H12.4116H12.4116H12.4116H12.4117H12.4117H12.4117H12.4117H12.4117H12.4117H12.4118H12.4118H12.4118H12.4118H12.4118H12.4119H12.4119H12.4119H12.4119H12.4119H12.4119H12.412H12.412H12.412H12.412H12.412H12.412H12.4121H12.4121H12.4121H12.4121H12.4121H12.4121H12.4122H12.4122H12.4122H12.4122H12.4122H12.4123H12.4123H12.4123H12.4123H12.4123H12.4123H12.4124H12.4124H12.4124H12.4124H12.4124H12.4124H12.4125H12.4125H12.4125H12.4125H12.4125H12.4125H12.4126H12.4126H12.4126H12.4126H12.4126H12.4126H12.4127H12.4127H12.4127H12.4127H12.4127H12.4127H12.4128H12.4128H12.4128H12.4128H12.4128H12.4128H12.4129H12.4129H12.4129H12.4129H12.4129H12.4129H12.413H12.413H12.413H12.413H12.413H12.413C12.5636 19.8092 12.7036 19.7313 12.7832 19.6035L12.7832 19.6035L13.8961 17.8141C14.989 17.9386 15.9507 18.2109 16.64 18.5592C16.9913 18.7367 17.2677 18.932 17.455 19.1338C17.6422 19.3356 17.7347 19.5374 17.7347 19.7315C17.7347 19.9415 17.6183 20.1721 17.3743 20.4053C17.1312 20.6374 16.7706 20.8627 16.3073 21.0599C15.3813 21.4538 14.0614 21.7284 12.5001 21.7284C10.9389 21.7284 9.61898 21.4538 8.69295 21.0598C8.22963 20.8626 7.86901 20.6373 7.62589 20.4052C7.38178 20.172 7.26538 19.9414 7.26538 19.7315C7.26538 19.5387 7.35357 19.3398 7.53216 19.1416C7.71091 18.9432 7.97545 18.7512 8.31377 18.576C8.97697 18.2325 9.90794 17.9613 10.9821 17.828L12.0391 19.597Z" fill="white" stroke="white" stroke-width="0.2"/>
<path d="M14.781 8.49792C14.781 7.24025 13.7579 6.21714 12.5002 6.21714C11.2426 6.21714 10.2195 7.24025 10.2195 8.49792C10.2195 9.75559 11.2426 10.7787 12.5002 10.7787C13.7579 10.7787 14.781 9.75559 14.781 8.49792ZM11.0911 8.49792C11.0911 7.721 11.7233 7.08877 12.5002 7.08877C13.2772 7.08877 13.9094 7.721 13.9094 8.49792C13.9094 9.27485 13.2774 9.90707 12.5002 9.90707C11.7231 9.90707 11.0911 9.27485 11.0911 8.49792Z" fill="white" stroke="white" stroke-width="0.2"/>
</svg>
