<svg width="54" height="50" viewBox="0 0 75 70" fill="none" xmlns="http://www.w3.org/2000/svg">
<g filter="url(#filter0_d_648_65857)">
<rect x="4.18262" y="2" width="65.9901" height="62" rx="8" fill="white"/>
<path d="M28.0742 7.8125H60.2695L60.9805 7.96484L61.4883 8.26953L61.9961 8.72656L62.3008 9.23438L62.4531 9.74219L62.5039 10.1484V18.1211L62.4531 18.8828L62.25 19.4414L61.8945 20L61.4375 20.4062L60.8789 20.6602L60.5234 20.7617L60.0156 20.8125H33.5078L33.4062 21.0156L31.9336 22.4883L33.6602 22.793L35.082 23.1484L36.4531 23.6055L37.7227 24.1641L38.7383 24.6719L39.6523 25.2305L40.5156 25.8398L41.1758 26.3477L41.8867 26.957L42.3945 27.4141L43.207 28.2266L43.5625 28.6328L44.2227 29.4453L44.8828 30.3594L45.4922 31.375L46 32.2891L46.5586 33.5078L47.0664 34.9297L47.4727 36.4531L47.6758 37.5703L47.8281 38.8398L47.8789 39.6523V40.8711L47.7773 42.293L47.5234 43.918L47.2188 45.1875L46.7109 46.7109L46.2539 47.7773L45.8477 48.5898L45.1875 49.7578L44.7812 50.3672L44.2734 51.0781L43.7148 51.7891L43.207 52.3477L42.8516 52.7539L42.293 53.3125L41.8867 53.668L41.1758 54.2773L40.3633 54.8867L39.1953 55.6484L38.0781 56.2578L36.9102 56.8164L35.3867 57.375L34.0664 57.7305L32.6445 57.9844L31.375 58.1367L30.4609 58.1875H29.5469L28.0234 58.0859L26.6523 57.8828L25.332 57.5781L23.8594 57.1211L22.6406 56.6133L21.8281 56.207L20.8633 55.6992L20 55.1406L19.0859 54.4805L18.4258 53.9219L17.8672 53.4648L16.8008 52.3984L16.3438 51.8398L15.7852 51.1797L15.1758 50.3164L14.5664 49.3516L13.957 48.2344L13.4492 47.1172L12.9414 45.7461L12.6367 44.6797L12.332 43.207L12.1797 41.9883L12.1289 41.4297V39.0938L12.2812 37.8242L12.4844 36.6562L12.7891 35.3867L13.2461 34.0156L13.6523 33L14.0586 32.1875L14.6172 31.1719L15.2773 30.1562L15.6836 29.5977L16.2422 28.8867L16.8516 28.1758L18.1211 26.9062L18.6797 26.4492L19.5938 25.7383L20.3555 25.2305L21.1172 24.7734L21.8281 24.3672L23.1484 23.7578L24.5703 23.25L25.8398 22.8945L25.8906 22.8438L25.9414 9.94531L26.043 9.48828L26.3477 8.87891L26.8047 8.37109L27.3633 8.01562L27.8203 7.86328L28.0742 7.8125ZM32.6953 24.2656L32.7969 24.4688L33.7617 25.4336L34.1172 25.8398L34.7773 26.6016L35.4375 27.4648L36.0977 28.3789L36.7578 29.4453L37.3672 30.5625L37.9258 31.6797L38.1797 31.6289L39.0938 31.2227L40.0586 30.6641L40.7695 30.1562L41.4297 29.5977L41.7852 29.293L41.7344 29.0898L40.9219 28.2773L40.3633 27.8203L39.7539 27.3125L38.7891 26.6523L38.0273 26.1953L36.8594 25.5859L35.9453 25.1797L34.4219 24.6719L32.7461 24.2656H32.6953ZM25.8398 24.5703L24.0117 25.1797L22.8438 25.6875L21.7266 26.2969L21.0156 26.7539L20.1523 27.3633L19.4414 27.9727L18.9336 28.4297L18.5781 28.7344L18.375 28.9375V29.0391L18.2227 29.0898V29.293L18.6289 29.6484L19.1367 30.1055L19.8477 30.6133L20.8125 31.1719L21.8281 31.6289L22.0312 31.7305L22.3359 31.1719L22.793 30.3086L23.0977 29.75L23.5547 28.9375L24.1133 28.125L24.6211 27.4141L25.0273 26.9062L25.9414 25.7891V24.5703H25.8398ZM30.8164 24.9258V33L32.4414 32.8984L34.2188 32.6953L35.793 32.3906L36.3516 32.2383L36.25 31.9336L35.6914 30.8164L35.1836 29.9531L34.4727 28.8867L33.7617 27.9219L33.1523 27.2109L32.2383 26.1953L31.5273 25.4844L31.1211 25.1289L30.918 24.9258H30.8164ZM29.0391 25.2812L28.6836 25.6875L26.043 28.3281L25.7891 28.4805L25.1797 29.3438L24.418 30.6133L24.0625 31.2227L23.6562 32.0352V32.2383L24.6211 32.4922L26.1445 32.7461L28.1758 32.9492H29.1914V25.2812H29.0391ZM17.0547 30.4609L16.2422 31.6797L15.7344 32.543L15.3281 33.3047L14.7188 34.7773L14.3125 36.0469L14.0586 37.1133L13.8555 38.3828L13.7539 39.5H20.2031L20.2539 39.4492L20.457 37.5703L20.6602 36.25L21.0664 34.5234L21.4219 33.4062V33.2031L20.1523 32.6445L19.2383 32.1367L18.4258 31.5781L17.918 31.1719L17.4102 30.7148L17.1562 30.4609H17.0547ZM42.8516 30.4609L42.5977 30.7148L42.0898 31.1719L41.2266 31.832L40.4648 32.2891L39.2969 32.8984L38.5859 33.2031L38.5352 33.3047L38.8398 34.2188L39.2461 35.8438L39.4492 36.9102L39.6016 38.1289L39.7031 39.5H46.2031L46.1523 38.5859L45.8984 36.9609L45.543 35.5898L45.0859 34.2695L44.6289 33.2539L44.0195 32.0859L43.3594 31.0703L42.9531 30.5117L42.8516 30.4609ZM22.9453 33.7617L22.4375 35.5391L22.2344 36.4023L22.0312 37.6211L21.8789 39.1953V39.5H29.1406L29.1914 39.4492V34.625L29.1406 34.5742L27.4141 34.4727L25.5859 34.2695L24.0117 33.9648L23.1484 33.7617H22.9453ZM36.8594 33.7617L35.2852 34.1172L33.5586 34.3711L31.7305 34.5234L30.8672 34.5742L30.8164 34.625V39.5H38.0273L38.0781 39.4492V38.8398L37.875 37.1641L37.6211 35.8438L37.2148 34.3203L37.0625 33.8125L36.8594 33.7617ZM20.1016 41.0742L13.8047 41.125V41.6836L14.0078 43.207L14.3125 44.5781L14.8711 46.2539L15.4297 47.5234L15.9883 48.5391L16.5469 49.4023L17.0547 50.1133L17.2578 50.0625L17.8164 49.5039L18.5273 48.9453L19.2383 48.4883L20.0508 48.0312L20.7617 47.6758L21.4219 47.4219L21.3711 47.0664L21.0156 45.8984L20.6602 44.375L20.457 43.1055L20.3047 41.4297L20.2031 41.0742H20.1016ZM21.8789 41.125L21.9805 42.5469L22.2344 44.1719L22.6914 46L22.9453 46.8125L23.0977 46.8633L24.5703 46.5078L26.1953 46.2539L27.9219 46.1016L28.8867 46.0508L29.1914 46V41.125H21.8789ZM37.9766 41.0742L30.8164 41.125V46L31.1719 46.0508L33.3047 46.2031L35.082 46.457L36.5547 46.7617L37.0117 46.8633L37.418 45.543L37.7227 44.3242L37.9766 42.75L38.0781 41.7852V41.0742H37.9766ZM39.7031 41.125L39.5508 42.8516L39.3477 44.2734L39.043 45.6445L38.6875 46.8633L38.5859 47.168L38.6367 47.4219L39.8555 47.9805L40.6172 48.3867L41.3789 48.8945L42.0391 49.4023L42.5469 49.8594L42.9023 50.1641L43.4609 49.4023L44.0703 48.4375L44.7812 47.0664L45.3398 45.6445L45.6953 44.4766L45.9492 43.3594L46.1523 41.9883L46.2031 41.125H39.7031ZM30.8164 47.625V55.6484L31.0195 55.5977L31.8828 54.7344L32.1875 54.4805L32.543 54.0742L32.9492 53.668L33.8633 52.5508L34.5742 51.5859L35.2344 50.5703L35.6914 49.8086L36.0977 48.9961L36.3516 48.4375L36.3008 48.3359L34.9297 48.0312L33.6094 47.8281L31.9844 47.6758L30.8164 47.625ZM28.9375 47.625L26.7539 47.7773L25.0273 48.0312L23.707 48.3359L23.6562 48.4883L24.1133 49.4531L24.8242 50.6719L25.5352 51.7383L26.1445 52.5508L26.8047 53.3633L27.3633 53.9727L27.7188 54.3789L28.2266 54.8867L28.6328 55.2422L29.0391 55.6484L29.1914 55.6992V47.625H28.9375ZM37.9766 48.8945L37.8242 49.1484L37.1133 50.5703L36.6055 51.4336L35.793 52.6523L35.2852 53.3633L34.5742 54.2266L34.1172 54.7344L33.7617 55.1406L32.6445 56.2578L32.8477 56.3086L34.3711 55.9531L35.8945 55.4453L37.1641 54.8867L38.1289 54.3789L39.1445 53.7188L40.0586 53.0586L40.8203 52.3984L41.4297 51.8398L41.7852 51.4844L41.7344 51.2812L41.2266 50.8242L40.6172 50.3164L39.8555 49.8086L39.043 49.3516L37.9766 48.8945ZM21.9805 48.8945L20.6602 49.5039L19.7969 50.0117L19.1875 50.4688L18.5781 50.9766V51.0781L18.375 51.1797L18.2227 51.332L18.2734 51.5352L19.0859 52.3477L20.2031 53.2617L21.2188 53.9727L22.4375 54.6836L23.6055 55.2422L24.7734 55.6992L26.1953 56.1055L27.1094 56.3086L27.3125 56.2578L26.3477 55.293L25.9922 54.8867L25.4336 54.2773L24.875 53.5664L24.418 52.957L23.7578 51.9922L23.25 51.1797L22.7422 50.2656L22.082 48.9453L21.9805 48.8945Z" fill="#C13B44"/>
<path d="M31.9336 22.5391L32.5938 22.5898L34.1172 22.8945L35.4375 23.25L36.707 23.707L37.9258 24.2656L38.9922 24.8242L39.8047 25.332L40.5156 25.8398L41.1758 26.3477L41.8867 26.957L42.3945 27.4141L43.207 28.2266L43.5625 28.6328L44.2227 29.4453L44.8828 30.3594L45.4922 31.375L46 32.2891L46.5586 33.5078L47.0664 34.9297L47.4727 36.4531L47.6758 37.5703L47.8281 38.8398L47.8789 39.6523V40.8711L47.7773 42.293L47.5234 43.918L47.2188 45.1875L46.7109 46.7109L46.2539 47.7773L45.8477 48.5898L45.1875 49.7578L44.7812 50.3672L44.2734 51.0781L43.7148 51.7891L43.207 52.3477L42.8516 52.7539L42.293 53.3125L41.8867 53.668L41.1758 54.2773L40.3633 54.8867L39.1953 55.6484L38.0781 56.2578L36.9102 56.8164L35.3867 57.375L34.0664 57.7305L32.6445 57.9844L31.375 58.1367L30.4609 58.1875H29.5469L28.0234 58.0859L26.6523 57.8828L25.332 57.5781L23.8594 57.1211L22.6406 56.6133L21.8281 56.207L20.8633 55.6992L20 55.1406L19.0859 54.4805L18.4258 53.9219L17.8672 53.4648L16.8008 52.3984L16.3438 51.8398L15.7852 51.1797L15.1758 50.3164L14.5664 49.3516L13.957 48.2344L13.4492 47.1172L12.9414 45.7461L12.6367 44.6797L12.332 43.207L12.1797 41.9883L12.1289 41.4297V39.0938L12.2812 37.8242L12.4844 36.6562L12.7891 35.3867L13.2461 34.0156L13.6523 33L14.0586 32.1875L14.6172 31.1719L15.2773 30.1562L15.6836 29.5977L16.2422 28.8867L16.8516 28.1758L18.1211 26.9062L18.6797 26.4492L19.5938 25.7383L20.3555 25.2305L21.1172 24.7734L21.8281 24.3672L23.1484 23.7578L24.5703 23.25L25.8398 22.8945H25.9414V24.5703L24.0117 25.2305L22.8438 25.7383L21.7266 26.3477L21.0156 26.8047L20.1523 27.4141L19.4414 28.0234L18.9336 28.4805L18.6289 28.7344L18.4766 28.9375H18.375V29.0391L18.2734 29.0898L18.2227 29.293L18.4258 29.3945L18.8828 29.8516L19.543 30.3594L20.6094 31.0195L21.6758 31.5273L22.0312 31.6797L22.4375 30.8672L22.9961 29.8008L23.6055 28.7852L24.418 27.6172L24.9258 26.957L25.4844 26.2969L25.8398 25.8398H25.9414V28.4297L25.7383 28.6328L25.2305 29.3438L24.4688 30.6133L24.1133 31.2227L23.707 32.0352L23.6562 32.2383L24.2148 32.3398L25.4844 32.5938L27.0078 32.7969L28.1758 32.8984L29.1914 32.9492V25.2305L29.5469 24.8242L31.5781 22.793H31.6797V22.6914L31.9336 22.5391ZM32.6953 24.2656L32.7969 24.4688L33.7617 25.4336L34.1172 25.8398L34.7773 26.6016L35.4375 27.4648L36.0977 28.3789L36.7578 29.4453L37.3672 30.5625L37.9258 31.6797L38.1797 31.6289L39.0938 31.2227L40.0586 30.6641L40.7695 30.1562L41.4297 29.5977L41.7852 29.293L41.7344 29.0898L40.9219 28.2773L40.3633 27.8203L39.7539 27.3125L38.7891 26.6523L38.0273 26.1953L36.8594 25.5859L35.9453 25.1797L34.4219 24.6719L32.7461 24.2656H32.6953ZM30.8164 24.9258V33L32.4414 32.8984L34.2188 32.6953L35.793 32.3906L36.3516 32.2383L36.25 31.9336L35.6914 30.8164L35.1836 29.9531L34.4727 28.8867L33.7617 27.9219L33.1523 27.2109L32.2383 26.1953L31.5273 25.4844L31.1211 25.1289L30.918 24.9258H30.8164ZM17.0547 30.4609L16.2422 31.6797L15.7344 32.543L15.3281 33.3047L14.7188 34.7773L14.3125 36.0469L14.0586 37.1133L13.8555 38.3828L13.7539 39.5H20.2031L20.2539 39.4492L20.457 37.5703L20.6602 36.25L21.0664 34.5234L21.4219 33.4062V33.2031L20.1523 32.6445L19.2383 32.1367L18.4258 31.5781L17.918 31.1719L17.4102 30.7148L17.1562 30.4609H17.0547ZM42.8516 30.4609L42.5977 30.7148L42.0898 31.1719L41.2266 31.832L40.4648 32.2891L39.2969 32.8984L38.5859 33.2031L38.5352 33.3047L38.8398 34.2188L39.2461 35.8438L39.4492 36.9102L39.6016 38.1289L39.7031 39.5H46.2031L46.1523 38.5859L45.8984 36.9609L45.543 35.5898L45.0859 34.2695L44.6289 33.2539L44.0195 32.0859L43.3594 31.0703L42.9531 30.5117L42.8516 30.4609ZM22.9453 33.7617L22.4375 35.5391L22.2344 36.4023L22.0312 37.6211L21.8789 39.1953V39.5H29.1406L29.1914 39.4492V34.625L29.1406 34.5742L27.4141 34.4727L25.5859 34.2695L24.0117 33.9648L23.1484 33.7617H22.9453ZM36.8594 33.7617L35.2852 34.1172L33.5586 34.3711L31.7305 34.5234L30.8672 34.5742L30.8164 34.625V39.5H38.0273L38.0781 39.4492V38.8398L37.875 37.1641L37.6211 35.8438L37.2148 34.3203L37.0625 33.8125L36.8594 33.7617ZM20.1016 41.0742L13.8047 41.125V41.6836L14.0078 43.207L14.3125 44.5781L14.8711 46.2539L15.4297 47.5234L15.9883 48.5391L16.5469 49.4023L17.0547 50.1133L17.2578 50.0625L17.8164 49.5039L18.5273 48.9453L19.2383 48.4883L20.0508 48.0312L20.7617 47.6758L21.4219 47.4219L21.3711 47.0664L21.0156 45.8984L20.6602 44.375L20.457 43.1055L20.3047 41.4297L20.2031 41.0742H20.1016ZM21.8789 41.125L21.9805 42.5469L22.2344 44.1719L22.6914 46L22.9453 46.8125L23.0977 46.8633L24.5703 46.5078L26.1953 46.2539L27.9219 46.1016L28.8867 46.0508L29.1914 46V41.125H21.8789ZM37.9766 41.0742L30.8164 41.125V46L31.1719 46.0508L33.3047 46.2031L35.082 46.457L36.5547 46.7617L37.0117 46.8633L37.418 45.543L37.7227 44.3242L37.9766 42.75L38.0781 41.7852V41.0742H37.9766ZM39.7031 41.125L39.5508 42.8516L39.3477 44.2734L39.043 45.6445L38.6875 46.8633L38.5859 47.168L38.6367 47.4219L39.8555 47.9805L40.6172 48.3867L41.3789 48.8945L42.0391 49.4023L42.5469 49.8594L42.9023 50.1641L43.4609 49.4023L44.0703 48.4375L44.7812 47.0664L45.3398 45.6445L45.6953 44.4766L45.9492 43.3594L46.1523 41.9883L46.2031 41.125H39.7031ZM30.8164 47.625V55.6484L31.0195 55.5977L31.8828 54.7344L32.1875 54.4805L32.543 54.0742L32.9492 53.668L33.8633 52.5508L34.5742 51.5859L35.2344 50.5703L35.6914 49.8086L36.0977 48.9961L36.3516 48.4375L36.3008 48.3359L34.9297 48.0312L33.6094 47.8281L31.9844 47.6758L30.8164 47.625ZM28.9375 47.625L26.7539 47.7773L25.0273 48.0312L23.707 48.3359L23.6562 48.4883L24.1133 49.4531L24.8242 50.6719L25.5352 51.7383L26.1445 52.5508L26.8047 53.3633L27.3633 53.9727L27.7188 54.3789L28.2266 54.8867L28.6328 55.2422L29.0391 55.6484L29.1914 55.6992V47.625H28.9375ZM37.9766 48.8945L37.8242 49.1484L37.1133 50.5703L36.6055 51.4336L35.793 52.6523L35.2852 53.3633L34.5742 54.2266L34.1172 54.7344L33.7617 55.1406L32.6445 56.2578L32.8477 56.3086L34.3711 55.9531L35.8945 55.4453L37.1641 54.8867L38.1289 54.3789L39.1445 53.7188L40.0586 53.0586L40.8203 52.3984L41.4297 51.8398L41.7852 51.4844L41.7344 51.2812L41.2266 50.8242L40.6172 50.3164L39.8555 49.8086L39.043 49.3516L37.9766 48.8945ZM21.9805 48.8945L20.6602 49.5039L19.7969 50.0117L19.1875 50.4688L18.5781 50.9766V51.0781L18.375 51.1797L18.2227 51.332L18.2734 51.5352L19.0859 52.3477L20.2031 53.2617L21.2188 53.9727L22.4375 54.6836L23.6055 55.2422L24.7734 55.6992L26.1953 56.1055L27.1094 56.3086L27.3125 56.2578L26.3477 55.293L25.9922 54.8867L25.4336 54.2773L24.875 53.5664L24.418 52.957L23.7578 51.9922L23.25 51.1797L22.7422 50.2656L22.082 48.9453L21.9805 48.8945Z" fill="#323233"/>
<path d="M29.2422 11.0625H30.7656L30.8164 11.1133L30.918 11.9258L31.6289 14.1094L31.9336 14.9219L32.1875 13.6523L32.543 11.9766L32.6445 11.875H34.7266L34.8281 12.1797L35.2852 14.5156L35.3867 14.9727L36.0977 12.8906L36.4023 11.9258L36.5039 11.1133L36.5547 11.0625H38.1289V11.9258L37.875 12.8906L37.1641 14.9727L36.4023 17.2578L36.3008 17.5117L36.1992 17.5625H34.2188L34.0664 17.0547L33.7109 15.2266L33.6602 15.0742L33.1523 17.4102L33.0508 17.5625H31.0703L30.918 17.3086L30.207 15.125L29.4961 13.043L29.1914 12.0273V11.1133L29.2422 11.0625Z" fill="#323233"/>
<path d="M50.3164 11.0625H51.8906L51.9414 11.1133L52.043 11.9258L52.7539 14.1094L53.0586 14.9219L53.1094 14.8711L53.4141 13.1445L53.668 11.9766L53.8203 11.875H55.8516L55.9531 12.2305L56.3086 14.0078L56.4609 14.7188V14.9727H56.5625L56.7148 14.3633L57.4258 12.2812L57.5781 11.6719L57.6289 11.1133L57.6797 11.0625H59.2539V11.9258L59.0508 12.6875L57.4766 17.4102L57.3242 17.5625H55.3438L55.2422 17.3086L54.8359 15.2266L54.7852 15.0742L54.3281 17.207L54.2266 17.5117L54.1758 17.5625H52.1953L52.043 17.3086L51.4336 15.4805L50.7227 13.2969L50.3672 12.2305L50.3164 12.0273V11.0625Z" fill="#323233"/>
<path d="M39.7539 11.0625H41.3281L41.3789 11.1133L41.4805 11.9258L42.1914 14.1094L42.4961 14.9219L42.5469 14.8711L42.8008 13.4492L43.1055 11.9766L43.207 11.875H45.2891L45.3906 12.2305L45.7461 14.0078L45.9492 14.9727L46.6602 12.8906L46.9648 11.9258L47.0664 11.1133L47.1172 11.0625H48.6914V11.9766L48.3867 12.9922L46.9648 17.2578L46.8633 17.5117L46.7617 17.5625H44.7812L44.6797 17.3086L44.2734 15.2266L44.2227 15.0742L43.7656 17.207L43.6641 17.5117L43.6133 17.5625H41.582L40.9727 15.7344L40.2617 13.6523L39.8047 12.2305L39.7539 12.0273V11.0625Z" fill="#323233"/>
<path d="M32.4922 36.25H34.0664V37.8242L33.9648 37.875H32.4414V36.3008L32.4922 36.25Z" fill="#323233"/>
<path d="M25.9922 42.75H27.5156L27.5664 42.8008V44.3242L27.4648 44.375H25.9414V42.8008L25.9922 42.75Z" fill="#323233"/>
</g>
<defs>
<filter id="filter0_d_648_65857" x="0.182617" y="0" width="73.9902" height="70" filterUnits="userSpaceOnUse" color-interpolation-filters="sRGB">
<feFlood flood-opacity="0" result="BackgroundImageFix"/>
<feColorMatrix in="SourceAlpha" type="matrix" values="0 0 0 0 0 0 0 0 0 0 0 0 0 0 0 0 0 0 127 0" result="hardAlpha"/>
<feOffset dy="2"/>
<feGaussianBlur stdDeviation="2"/>
<feComposite in2="hardAlpha" operator="out"/>
<feColorMatrix type="matrix" values="0 0 0 0 0 0 0 0 0 0 0 0 0 0 0 0 0 0 0.15 0"/>
<feBlend mode="normal" in2="BackgroundImageFix" result="effect1_dropShadow_648_65857"/>
<feBlend mode="normal" in="SourceGraphic" in2="effect1_dropShadow_648_65857" result="shape"/>
</filter>
</defs>
</svg>
