<svg width="56" height="56" viewBox="0 0 56 56" fill="none" xmlns="http://www.w3.org/2000/svg">
<g clip-path="url(#clip0_911_102)">
<path d="M27.1797 7.65625H28.0547L28.3281 7.76562L28.6016 8.03906L28.6562 8.47656L28.4375 8.85938L28.2734 8.96875L27.8359 9.02344L26.0312 9.13281L24.7188 9.29688L23.3516 9.57031L21.9844 9.95312L21 10.2812L19.5781 10.8828L18.7031 11.3203L17.8828 11.7578L16.8438 12.4141L15.8594 13.125L14.9297 13.8906L14.2734 14.4922L14.0547 14.7109H13.9453V14.8203H13.8359V14.9297H13.7266L13.6172 15.1484L13.0156 15.75L12.5234 16.3516L11.9219 17.1172L11.3203 17.9922L10.7188 18.9766L10.0078 20.2891L9.35156 21.8203L8.75 23.625L8.36719 25.2656L8.09375 27.2344L8.03906 28.1641V29.9141L8.14844 31.2812L8.42188 33.0312L8.75 34.3984L9.35156 36.2031L9.84375 37.3516L10.3359 38.3906L11.0469 39.5938L11.5938 40.4141L12.1953 41.2344L12.6875 41.8359L13.1797 42.3828L13.5625 42.8203L14.4922 43.75L15.0938 44.2422L15.8047 44.8438L16.7891 45.5547L17.9375 46.2656L19.4688 47.0859L20.7812 47.6328L22.75 48.2891L24.1719 48.6172L25.6484 48.8359L27.0156 48.9453H29.0938L30.7891 48.7812L32.2656 48.5078L33.5781 48.1797L35.0547 47.6875L36.3672 47.1406L37.2422 46.7031L38.0625 46.2656L39.1016 45.6094L40.0312 44.9531L40.9062 44.2422L41.4531 43.75L42.2734 42.9844L43.0391 42.1641L43.8047 41.2344L44.5156 40.25L45.1719 39.2109L45.8281 38.0078L46.3203 36.9688L46.8672 35.5469L47.3047 34.125L47.6328 32.6484L47.8516 31.0625L47.9609 29.2031L48.0703 28.6562L48.3984 28.3828L48.7812 28.3281L49.1641 28.5469L49.3281 28.875L49.2734 30.7344L49.0547 32.4297L48.7266 34.0703L48.3438 35.4375L47.7969 36.9688L47.3047 38.0625L46.8672 38.9375L46.2656 40.0312L45.3906 41.3438L44.8984 42L44.4609 42.5469L43.8047 43.3125L43.1484 44.0234L42.5469 44.625L42.1094 45.0078L41.3984 45.6094L40.6875 46.1562L39.4844 46.9766L38.1172 47.7969L36.9141 48.3984L35.8203 48.8359L35.5469 48.8906V49H50.4766L50.9141 49.3828L51.0234 49.5469L50.9688 49.9297L50.6406 50.3125L26.5781 50.3672L5.41406 50.3125L5.14062 50.0938L4.97656 49.7656L5.03125 49.4375L5.35938 49.0547L5.52344 49H20.3984V48.8906L19.7969 48.7266L18.375 48.0703L17.3359 47.5234L16.1875 46.8125L15.2031 46.1016L14.4375 45.5L13.6172 44.7891L13.0703 44.2422L12.6328 43.8594V43.75L12.4688 43.6953L12.0859 43.2578L11.375 42.4375L10.5547 41.3438L9.84375 40.25L9.29688 39.3203L8.64062 38.0625L8.09375 36.75L7.65625 35.5469L7.27344 34.1797L6.94531 32.5938L6.72656 31.0078L6.67188 30.2422V27.7266L6.83594 26.0859L7.16406 24.2812L7.54688 22.8047L8.09375 21.2188L8.75 19.7422L9.46094 18.375L10.2812 17.0625L10.9375 16.1875L11.4844 15.4766L12.1406 14.7109L12.7969 14L13.5078 13.2891L14.1094 12.7969L14.6016 12.3594L15.6953 11.5391L16.5156 10.9922L17.3359 10.5L18.3203 9.95312L19.5781 9.35156L21.1641 8.75L22.8594 8.25781L24.4453 7.92969L26.25 7.71094L27.1797 7.65625Z" fill="#374455"/>
<path d="M27.9453 10.6641H28.7656L30.5703 10.8281L32.0469 11.1016L33.5234 11.4844L34.8906 11.9766L36.3125 12.6328L37.4062 13.2344L38.7188 14.1094L39.7031 14.875L40.3047 15.4219L40.7422 15.8047L41.5078 16.5703L41.8906 17.0078L42.6562 17.9375L43.5312 19.25L44.0234 20.0703L44.6797 21.3281L45.2266 22.6953L45.6094 23.8438L45.9375 25.1562L46.2109 26.7969L46.3203 28V29.9688L46.2109 31.2266L45.9375 32.8672L45.5547 34.3438L45.1719 35.4922L44.5703 36.9141L44.0234 37.9531L43.3672 39.0469L42.8203 39.8125L42.2734 40.5234L41.6172 41.2891L40.9609 42L40.5781 42.3828L40.1406 42.7656L39.4844 43.3125L38.6094 43.9688L37.625 44.625L36.3672 45.3359L35.2188 45.8828L33.7422 46.4297L32.2109 46.8672L30.7344 47.1406L29.3672 47.3047H26.5781L24.8281 47.0859L23.2969 46.7578L21.7109 46.2656L20.3984 45.7188L19.5234 45.2812L18.5938 44.7891L17.2812 43.9141L16.2969 43.1484L15.75 42.6562L15.3125 42.2734L14.4922 41.4531L14.1094 41.0156L13.3984 40.1406L12.6875 39.1562L12.1953 38.3359L11.6484 37.3516L11.1016 36.2031L10.6094 34.8906L10.2266 33.6328L9.89844 32.1016L9.73438 30.9531L9.67969 30.3516V28.7656L9.95312 28.4375L10.2266 28.3281L10.7188 28.4375L10.9375 28.7109L10.9922 28.9297L11.1016 30.6797L11.3203 32.2109L11.6484 33.6328L12.1406 35.1094L12.6875 36.3672L13.3438 37.625L14.2188 38.9375L14.7656 39.6484L15.4219 40.4141L15.9688 40.9609V41.0703L16.1875 41.1797V41.2891L16.4062 41.3984L17.1719 42.1094L18.2109 42.875L19.0312 43.4219L20.1797 44.0781L21.2188 44.5703L22.4766 45.0625L23.9531 45.5L25.375 45.7734L26.7422 45.9375H29.1484L30.5703 45.7734L31.9922 45.5L33.3047 45.1172L34.5078 44.6797L35.8203 44.0781L37.1328 43.3125L38.0078 42.7109L38.7734 42.1094L39.5391 41.4531L40.6875 40.3047L41.1797 39.7031L41.6172 39.1562L42.3281 38.1172L43.0391 36.9141L43.6953 35.4922L44.1875 34.0703L44.5703 32.6484L44.7891 31.5L44.8984 30.4609L44.9531 29.5859V28.3281L44.8438 27.0156L44.625 25.6484L44.2969 24.2812L43.8047 22.8047L43.2031 21.4922L42.5469 20.2344L41.8906 19.25L41.3984 18.5938L40.9062 17.9922L40.4141 17.4453L40.0312 17.0078L39.2109 16.2422L38.4453 15.6406L37.7344 15.0938L36.6953 14.4375L35.7109 13.8906L34.6719 13.3984L33.5234 12.9609L32.4844 12.6328L31.3359 12.3594L29.8594 12.1406L27.7266 11.9766L27.4531 11.7578L27.3438 11.5391V11.1562L27.5625 10.8281L27.9453 10.6641Z" fill="#374455"/>
<path d="M27.3984 17.0078H28.5469L29.6953 17.1172L31.1172 17.3906L32.4297 17.8281L33.7969 18.4844L34.9453 19.1953L35.8203 19.9062L36.5312 20.5625L37.2422 21.3281L37.8984 22.2031L38.3359 22.9141L38.9922 24.1719L39.4844 25.4844L39.7578 26.5781L39.9219 27.5625L39.9766 28.1641V29.9141L39.8672 30.8438L39.6484 31.8828L39.3203 33.0312L38.8828 34.0703L38.3359 35.1094L37.9531 35.7109L37.3516 36.5312L36.8594 37.0781L36.4766 37.5156L35.7109 38.2266L34.6719 38.9922L33.3594 39.7578L32.375 40.1953L31.0625 40.6328L29.9688 40.8516L29.2031 40.9609L28.3281 41.0156H27.7266L26.7969 40.9609L25.4297 40.7422L24.0625 40.3594L23.2422 40.0312L22.0938 39.4844L21.1641 38.8828L20.5078 38.3906L19.7422 37.7344L19.0859 37.0781L18.5938 36.4766L17.9922 35.6562L17.3906 34.6719L16.8438 33.5234L16.4062 32.2109L16.1328 30.9531L16.0234 30.1328L15.9688 28.875L16.0234 27.8359L16.2422 26.4688L16.625 25.1016L17.0625 24.0078L17.6094 22.9688L18.2109 22.0391L18.7578 21.3281L19.4141 20.6172L20.0703 19.9609L20.8359 19.3594L21.5469 18.8672L22.5859 18.2656L23.5703 17.8281L24.8828 17.3906L26.1953 17.1172L27.3984 17.0078ZM27.5625 18.3203L26.4141 18.4297L25.5391 18.5938L24.1172 19.0312L23.1328 19.4688L22.2031 20.0156L21.3828 20.6172L20.6172 21.2734L19.9609 21.9297L19.25 22.8594L18.7031 23.7344L18.2656 24.6094L17.9375 25.375L17.6094 26.5234L17.3906 27.6172L17.3359 28.2734V29.8047L17.5 31.1172L17.8281 32.3203L18.2109 33.3047L18.6484 34.1797L19.1406 35L19.6875 35.7109L20.1797 36.2578L20.5625 36.6953L21 37.0781L21.8203 37.7344L22.8047 38.3359L23.6797 38.7734L24.6641 39.1562L25.8672 39.4844L26.9609 39.6484H28.9297L30.0781 39.4844L31.1172 39.2109L32.2109 38.8281L33.3047 38.2812L34.2891 37.625L34.8359 37.1875L35.3828 36.6953L36.0938 35.9844L36.8047 35.0547L37.3516 34.1797L37.8984 33.0312L38.2812 31.8828L38.5547 30.625L38.6641 29.5312V28.3828L38.5 27.0703L38.2266 25.9219L37.7891 24.7188L37.1328 23.4609L36.6953 22.8047L36.1484 22.0938L35.3828 21.2734L34.8359 20.7812L33.8516 20.0703L32.9219 19.5234L31.9922 19.0859L30.8438 18.7031L29.9141 18.4844L29.1484 18.375L28.4375 18.3203H27.5625Z" fill="#374455"/>
<path d="M27.2344 13.6719H28.6562L29.9688 13.7812L31.0078 13.9453L32.5391 14.3281L33.9062 14.8203L35.3828 15.5312L36.3672 16.1328L37.2969 16.7891L38.0078 17.3906L38.4453 17.7734L38.9375 18.2109L39.3203 18.6484L39.8672 19.25L40.6328 20.2891L41.2891 21.3281L42 22.6953L42.4922 23.9531L42.875 25.2656L43.1484 26.5234L43.3125 27.9453V29.2031L42.9844 29.5859L42.875 29.6406H42.3828L42.1094 29.3672L42 29.1484L41.8359 27.125L41.5625 25.7031L41.2344 24.5547L40.7969 23.4062L40.3047 22.3672L39.7031 21.3828L39.0469 20.4531L38.4453 19.7422L37.625 18.8672L37.1875 18.4844L36.4766 17.8828L35.3281 17.1172L34.1797 16.4609L32.8672 15.9141L31.7188 15.5312L30.5156 15.2578L29.4219 15.0938L28.5469 15.0391H27.3984L26.1406 15.1484L24.8828 15.3672L23.7344 15.6953L22.6406 16.0781L21.1641 16.7891L20.2891 17.3359L19.5234 17.8828L18.9219 18.375L18.1016 19.1406L17.6094 19.6328L17.2266 20.0703L16.6797 20.7812L16.1328 21.6016L15.5312 22.6406L14.9844 23.8984L14.4922 25.375L14.2188 26.6328L14.0547 28.0547V30.0234L14.2188 31.3906L14.5469 32.8125L15.0391 34.2891L15.6953 35.6562L16.1328 36.4219L16.7344 37.2969L17.4453 38.1719L18.3203 39.1016L18.9219 39.6484L19.8516 40.3594L20.6172 40.8516L21.3281 41.2891L22.6953 41.9453L24.3359 42.4922L25.5391 42.7656L26.25 42.875L27.8906 42.9844L28.3281 43.0938L28.6016 43.3672L28.6562 43.8047L28.4922 44.1328L28.1094 44.3516H27.2344L25.7578 44.1875L24.5547 43.9688L23.5156 43.6953L22.2578 43.2578L20.8359 42.6016L19.7969 42L19.0859 41.5078L18.4297 41.0156L17.6641 40.3594L16.4062 39.1016L15.8047 38.3359L15.0938 37.3516L14.4922 36.3125L14.0547 35.4375L13.5078 34.125L13.125 32.8672L12.8516 31.5547L12.6875 30.2969L12.6328 29.0391L12.6875 27.7266L12.8516 26.4141L13.1797 24.9375L13.6719 23.4609L14.2734 22.0938L14.7656 21.2188L15.4219 20.1797L15.9688 19.4688L16.4609 18.8672L16.8438 18.4844L17.2266 18.0469L18.0469 17.2812L18.9766 16.5703L19.9609 15.9141L20.8359 15.4219L21.7109 14.9844L22.8047 14.5469L23.7891 14.2188L25.2109 13.8906L26.4688 13.7266L27.2344 13.6719Z" fill="#C13B44"/>
<path d="M24.2266 22.9688L24.6641 23.0781L25.7578 23.6797L27.0703 24.4453L28.5469 25.2656L29.4766 25.8125L30.7344 26.5234L32.1562 27.3438L33.6875 28.2188L34.125 28.5469L34.3438 28.875L34.2891 29.2578L34.0156 29.5859L32.7031 30.3516L31.3359 31.1172L30.0234 31.8828L28.6562 32.6484L27.3438 33.4141L25.9766 34.1797L24.8281 34.8359L24.4453 35L24.0078 34.9453L23.6797 34.5625L23.625 33.4141V24.9922L23.6797 23.4062L23.8984 23.1328L24.2266 22.9688ZM24.9922 24.8281V33.1406L25.2109 33.0859L26.3047 32.4844L27.6172 31.7188L28.9844 30.9531L30.2969 30.1875L31.7188 29.3672L32.2656 29.0391L32.0469 28.8203L30.6797 28.0547L29.3672 27.2891L28 26.5234L26.6875 25.7578L25.3203 24.9922L25.1016 24.8281H24.9922Z" fill="#C13B44"/>
<path d="M21.1094 51.6797H34.8359L35.1094 51.8438L35.3281 52.1719V52.5L35.1094 52.8281L34.8359 52.9922L29.4219 53.0469L29.3672 53.6484L32.5938 53.7031L32.8672 53.9766L32.9766 54.1406V54.5781L32.7031 54.9062L32.5938 54.9609L31.3359 55.0156H23.8984L23.625 54.9062L23.3516 54.5781L23.2969 54.25L23.5156 53.8672L23.7344 53.7031H26.6328V52.9922H21.1094L20.7266 52.6641L20.6172 52.2812L20.7812 51.9531L21.1094 51.6797Z" fill="#C13B44"/>
<path d="M36.4219 51.6797H39.4844L39.7578 51.8438L39.9766 52.1172V52.5547L39.7578 52.8828L39.5391 52.9922H36.4219L36.0938 52.7188L35.9844 52.5L36.0391 52.0625L36.3125 51.7344L36.4219 51.6797Z" fill="#C13B44"/>
<path d="M16.4609 51.6797H19.5234L19.9062 52.0078L20.0156 52.2812L19.9609 52.5547L19.7422 52.8828L19.5234 52.9922H16.4609L16.2422 52.8828L16.0234 52.5547L15.9688 52.2812L16.1875 51.8438L16.4609 51.6797Z" fill="#C13B44"/>
<path d="M52.2266 49H53.375L53.7578 49.1641L53.9766 49.4375V49.875L53.7031 50.2578L53.5391 50.3125H52.1172L51.7891 50.0938L51.6797 49.875V49.4922L51.8984 49.1641L52.2266 49Z" fill="#374455"/>
<path d="M2.57031 49H3.71875L4.04688 49.1641L4.32031 49.4375V49.875L3.99219 50.2578L3.88281 50.3125H2.46094L2.13281 50.0938L1.96875 49.6016L2.24219 49.1641L2.57031 49Z" fill="#374455"/>
<path d="M3.39062 3.33594L3.9375 3.44531L4.26562 3.66406L4.48438 4.10156V4.48438L4.32031 4.86719L4.10156 5.14062L3.77344 5.30469H3.17188L2.78906 5.08594L2.51562 4.64844L2.46094 4.15625L2.67969 3.71875L3.00781 3.44531L3.39062 3.33594ZM3.33594 3.82812L3.0625 3.99219L2.95312 4.375L3.0625 4.64844L3.33594 4.86719L3.71875 4.8125L3.9375 4.59375L3.99219 4.21094L3.82812 3.9375L3.66406 3.82812H3.33594Z" fill="#374455"/>
<path d="M0.546875 49L0.984375 49.1094L1.25781 49.3281L1.3125 49.4375V49.875L0.984375 50.2578L0.875 50.3125H0.4375L0 49.9297V49.3828H0.109375L0.21875 49.1641L0.546875 49Z" fill="#374455"/>
<path d="M2.95312 21.875L3.22656 21.9844L3.44531 22.4219L3.88281 21.875L4.10156 21.9297L3.9375 22.2578L3.71875 22.6406L4.375 22.5859L4.42969 22.8594L4.32031 22.9141H3.77344L3.88281 23.1328L4.04688 23.4062V23.625L3.77344 23.5703L3.44531 23.0781L3.22656 23.5156L3.11719 23.625H2.89844L2.95312 23.3516L3.22656 22.8594L3.00781 22.9141H2.625L2.51562 22.8594L2.57031 22.6406H3.22656L2.89844 22.1484L2.95312 21.875Z" fill="#C13B44"/>
<path d="M55.0703 49.0547H55.5625L56 49.4375V49.9297L55.5625 50.3125H55.125L54.7969 50.0938L54.6875 49.9297V49.4375L54.9609 49.1094L55.0703 49.0547Z" fill="#374455"/>
<path d="M50.5312 19.7422L50.6953 19.7969L50.9688 20.2344L51.0781 20.2891L51.1875 19.9062L51.3516 19.7422H51.5703L51.5156 20.0156L51.2422 20.4531H51.8984V20.6719L51.7891 20.7266L51.2422 20.7812L51.5156 21.1094L51.5703 21.3828H51.2969L51.1328 21.1641L51.0781 20.9453H50.9688L50.6406 21.4375H50.4219L50.4766 21.1641L50.6953 20.8359L50.75 20.6719L50.6406 20.7266H50.1484L50.0938 20.4531L50.75 20.5078L50.4219 20.0156V19.7969L50.5312 19.7422Z" fill="#C13B44"/>
<path d="M53.8125 5.6875H54.1953L54.5781 5.96094L54.6875 6.17969L54.6328 6.5625L54.3047 6.94531L54.1406 7H53.7578L53.4297 6.72656L53.3203 6.45312L53.375 6.07031L53.5938 5.79688L53.8125 5.6875ZM53.8672 6.01562L53.6484 6.23438L53.7031 6.5625L53.8125 6.67188H54.1406L54.3047 6.50781V6.17969L54.1406 6.01562H53.8672Z" fill="#374455"/>
<path d="M35.1094 5.35938H35.4922L35.7656 5.52344L35.9844 5.79688V6.23438L35.7656 6.50781L35.4922 6.67188H35.1094L34.7266 6.34375L34.6719 6.23438V5.74219L34.9453 5.46875L35.1094 5.35938ZM35.1641 5.6875L35 5.85156V6.17969L35.1641 6.34375H35.4922L35.6562 6.17969L35.6016 5.79688L35.4922 5.6875H35.1641Z" fill="#374455"/>
<path d="M45.4453 1.20312H45.8828L46.1562 1.36719L46.3203 1.58594V2.02344L46.1016 2.35156L45.7734 2.51562L45.3359 2.46094L45.0078 2.07812V1.58594L45.2266 1.3125L45.4453 1.20312ZM45.6094 1.47656L45.3359 1.69531L45.2812 1.91406L45.5 2.1875L45.8828 2.13281L45.9922 1.75L45.7734 1.47656H45.6094Z" fill="#374455"/>
<path d="M10.9375 10.0625H11.4844L11.7578 10.2266L11.8672 10.4453V10.8828L11.5391 11.2656L11.4297 11.3203H10.9375L10.6641 11.1016L10.5547 10.8828V10.4453L10.8281 10.1172L10.9375 10.0625ZM11.1016 10.3359L10.8828 10.5V10.8281L10.9922 10.9922H11.375L11.5391 10.8281L11.4844 10.4453L11.3203 10.3359H11.1016Z" fill="#374455"/>
<path d="M42.9297 12.9062L43.0391 12.9609L42.9844 13.1797L42.7656 13.5625H43.3125V13.7812H42.7656L42.8203 14.0547L42.9844 14.1094L43.0391 14.3828H42.7656L42.6016 14V13.8906H42.4922L42.3828 14.2734L42.2734 14.3828H42.0547L42.1094 14.1641L42.3281 13.7812H41.7812V13.5625L42.2734 13.5078L42.0547 13.1797V12.9609L42.3281 13.0156L42.5469 13.3984L42.6562 13.1797L42.9297 12.9062Z" fill="#C13B44"/>
<path d="M21.9297 0.984375L22.0938 1.20312L22.2031 1.36719L22.0938 1.91406H21.875L21.8203 1.69531H21.7109L21.6562 1.96875L21.4375 1.91406L21.3281 1.58594V1.3125L21.4375 1.09375L21.6016 1.03906L21.7109 1.3125L21.8203 1.25781L21.9297 0.984375ZM21.4375 1.36719L21.4922 1.64062H21.6016L21.5469 1.36719H21.4375ZM21.875 1.42188L21.9297 1.64062H22.0391L21.9844 1.42188H21.875Z" fill="#C13B44"/>
</g>
<defs>
<clipPath id="clip0_911_102">
<rect width="56" height="56" fill="white"/>
</clipPath>
</defs>
</svg>
