<svg width="54" height="50" viewBox="0 0 75 70" fill="none" xmlns="http://www.w3.org/2000/svg">
<g filter="url(#filter0_d_648_65844)">
<rect x="4.6582" y="2" width="65.9901" height="62" rx="8" fill="white"/>
<g clip-path="url(#clip0_648_65844)">
<path d="M41.873 7H63.6582V59H31.8184L31.7676 58.7461V43.8672L25.1152 43.918L25.0645 47.2695H28.416V59H11.6582V40.5664L18.3613 40.5156L18.3105 37.2148L11.6582 37.1641V12.0273H31.7676V17.0547H41.8223V7.10156L41.873 7ZM43.5488 8.67578L43.498 8.77734V17.0547L51.7246 17.1055L51.9277 17.0547V12.0273H45.2246L45.1738 8.67578H43.5488ZM46.9004 8.67578L46.8496 8.82812V10.3008L46.9004 10.3516H51.877L51.9277 9.48828V8.72656L51.877 8.67578H46.9004ZM53.6035 8.67578L53.5527 17.0547H61.9316L61.9824 15.0742V12.0273H55.2793V8.72656L55.2285 8.67578H53.6035ZM56.9551 8.67578V10.3516H61.9316L61.9824 10.25V8.72656L61.9316 8.67578H56.9551ZM13.334 13.7031V17.0547H20.8496L20.9004 14.0586L20.8496 13.7031H13.334ZM22.5254 13.7031V16.9531L22.5762 17.0547H30.0918V13.7031H22.5254ZM13.334 18.7305V22.082L18.3105 22.1328V32.0859L13.334 32.1367V35.5391H20.0371V42.1914H15.2129L13.334 42.2422L13.2832 57.2734L13.334 57.3242H26.7402V48.9453L24.8105 48.8945H23.4395V42.293L33.4434 42.2422V48.9453H61.9316V45.543H35.1699V22.1836L61.8809 22.1328L61.9316 22.082L61.9824 18.7812L61.9316 18.7305H13.334ZM13.334 23.7578V30.4609H16.6855V23.7578H13.334ZM36.8457 23.7578L36.7949 23.8086V43.8672L36.8457 43.918H50.2012L50.252 35.4883V33.8633H61.1191L61.9316 33.8125L61.9824 23.8594L61.9316 23.7578H36.8457ZM52.8418 35.4883L51.9277 35.5391L51.877 38.6367V43.8672L51.9277 43.918H61.8809L61.9316 43.8672V35.4883H52.8418ZM33.4941 50.5703L33.4434 50.6211V57.3242H35.1191V52.2969H40.1465V57.3242H41.8223L41.873 50.6211L41.8223 50.5703H33.4941ZM43.5996 50.5703L43.498 50.6211V57.3242H45.1738L45.2246 52.2969H50.2012V57.2734L50.252 57.3242H51.877L51.9277 57.2227V50.6211L51.877 50.5703H43.5996ZM61.8809 50.5703L53.6035 50.6211L53.5527 57.2734L53.6035 57.3242H55.2285L55.2793 57.2227V52.3477L60.2559 52.2969L60.3066 57.3242H61.9316L61.9824 57.2734V50.6211L61.8809 50.5703ZM36.7949 53.9727V57.3242H38.4707V53.9727H36.7949ZM46.8496 53.9727V57.2734L46.9004 57.3242H48.5254L48.5762 57.2227V53.9727H46.8496ZM56.9551 53.9727V57.3242H58.5801L58.6309 57.2734V53.9727H56.9551Z" fill="#323233"/>
<path d="M38.5215 25.4336H48.5254L48.5762 25.5352V35.4375L48.5254 35.4883H38.5215L38.4707 35.3867V25.7891L38.5215 25.4336Z" fill="#C13B44"/>
<path d="M16.6855 50.6211H25.0645V55.5977L25.0137 55.6484H16.6855L16.6348 55.293V50.6719L16.6855 50.6211Z" fill="#C13B44"/>
<path d="M15.0098 43.918H21.6621L21.7129 43.9688V48.8945L21.4082 48.9453H15.1113L14.959 48.8945V44.0195L15.0098 43.918Z" fill="#C13B44"/>
</g>
</g>
<defs>
<filter id="filter0_d_648_65844" x="0.658203" y="0" width="73.9902" height="70" filterUnits="userSpaceOnUse" color-interpolation-filters="sRGB">
<feFlood flood-opacity="0" result="BackgroundImageFix"/>
<feColorMatrix in="SourceAlpha" type="matrix" values="0 0 0 0 0 0 0 0 0 0 0 0 0 0 0 0 0 0 127 0" result="hardAlpha"/>
<feOffset dy="2"/>
<feGaussianBlur stdDeviation="2"/>
<feComposite in2="hardAlpha" operator="out"/>
<feColorMatrix type="matrix" values="0 0 0 0 0 0 0 0 0 0 0 0 0 0 0 0 0 0 0.15 0"/>
<feBlend mode="normal" in2="BackgroundImageFix" result="effect1_dropShadow_648_65844"/>
<feBlend mode="normal" in="SourceGraphic" in2="effect1_dropShadow_648_65844" result="shape"/>
</filter>
<clipPath id="clip0_648_65844">
<rect width="52" height="52" fill="white" transform="translate(11.6582 7)"/>
</clipPath>
</defs>
</svg>
