<svg width="136" height="136" viewBox="0 0 136 136" fill="none" xmlns="http://www.w3.org/2000/svg">
<path d="M67.7363 40.0508L68.3955 40.1826L70.1094 41.6328L71.9551 43.083L74.0645 44.7969L75.9102 46.2471L78.0195 47.9609L79.8652 49.4111L81.9746 51.125L83.8203 52.5752L85.9297 54.2891L87.7754 55.7393L90.4121 57.8486L91.0713 57.7168L93.1807 56.0029L95.0264 54.5527L97.1357 52.8389L97.6631 52.707L99.5088 54.1572L101.618 55.8711L103.464 57.3213L105.573 59.0352L107.419 60.4854L109.528 62.1992L111.374 63.6494L113.483 65.3633L114.802 66.418L116.647 67.8682L118.757 69.582L119.68 70.2412L119.812 70.6367L117.966 73.1416L117.438 73.8008L116.779 73.5371V73.2734L116.12 73.0098L114.538 71.6914V79.8652L117.307 80.9199L120.075 82.3701L122.185 83.8203L124.294 85.5342L126.799 88.0391L128.513 90.2803L129.831 92.3896L130.886 94.499L131.677 96.3447L132.6 99.2451L133.127 102.014L133.391 104.782V106.628L133.127 109.924L132.468 113.088L131.413 116.252L129.831 119.548L128.645 121.394L127.458 122.976L125.876 124.821L124.294 126.403L122.844 127.59L120.998 128.908L119.021 130.095L116.252 131.413L113.483 132.336L110.583 132.995L108.605 133.259L106.364 133.391H104.914L101.882 133.127L99.2451 132.6L96.7402 131.809L94.7627 131.018L92.6533 129.963L90.6758 128.776L89.0938 127.59L87.6436 126.403L85.1387 123.898L83.4248 121.657L81.9746 119.284L80.9199 117.307L80.6562 116.647L56.6621 116.516L55.6074 115.593L51.2568 111.242L50.7295 111.506L44.9287 117.307L44.4014 117.043L38.6006 111.242L38.0732 111.506L32.2725 117.307L31.7451 117.043L25.9443 111.242L24.8896 111.77L24.626 112.297L20.5391 116.384L20.2754 116.516H14.8701L13.0244 115.593L9.33301 113.352L6.43262 111.638L3.40039 109.792L2.60938 109.133V102.673L3.7959 101.882L7.4873 99.6406L11.0469 97.5312L13.0244 96.3447L13.1562 73.8008L12.4971 74.1963L10.915 75.5146L10.3877 75.9102L9.86035 75.6465L8.67383 74.0645L7.75098 72.8779L7.88281 72.3506L9.72852 70.9004L11.8379 69.1865L13.6836 67.7363L15.793 66.0225L17.1113 64.9678L18.957 63.5176L21.0664 61.8037L22.9121 60.3535L24.3623 59.167L26.4717 57.4531L27.6582 56.5303L28.9766 55.4756L29.7676 54.8164L30.4268 54.9482L31.4814 55.8711L33.3271 57.3213L35.4365 59.0352L37.2822 60.4854L39.3916 62.1992L41.2373 63.6494L43.3467 65.3633L45.1924 66.8135L47.3018 68.5273L49.1475 69.9775L50.8613 71.4277L51.125 71.5596V59.0352L50.4658 59.4307L48.3564 61.1445L47.8291 60.8809L46.6426 59.2988L45.7197 58.1123L45.8516 57.585L47.6973 56.1348L49.1475 54.9482L50.9932 53.498L53.1025 51.7842L54.9482 50.334L59.167 46.9062L62.8584 44.0059L64.9678 42.292L66.8135 40.8418L67.7363 40.0508ZM67.8682 45.4561L66.1543 46.7744L64.7041 47.9609L62.8584 49.4111L60.749 51.125L58.9033 52.5752L57.4531 53.7617L55.3438 55.3438V95.4219H59.4307L59.5625 95.29V78.5469L76.3057 78.6787L76.4375 95.4219H80.5244L80.6562 95.29V71.6914L80.1289 71.8232L78.5469 73.1416L77.8877 73.6689L77.4922 73.5371L76.3057 71.9551L75.3828 70.7686L75.5146 70.2412L77.2285 68.9229L79.3379 67.209L80.5244 66.2861L80.6562 66.1543V55.4756L78.8105 53.8936L77.0967 52.5752L74.9873 50.8613L73.6689 49.8066L69.9775 46.9062L68.2637 45.4561H67.8682ZM97.3994 58.1123L95.6855 59.4307L94.2354 60.6172L92.3896 62.0674L90.2803 63.7812L88.4346 65.2314L86.9844 66.418L85.2705 67.7363L84.875 68V88.3027L85.5342 87.9072L86.457 86.8525L87.9072 85.4023L88.9619 84.6113L89.0938 84.3477L89.2256 70.2412H105.837L105.969 78.5469L110.056 78.9424L110.188 78.8105V68.1318L108.342 66.5498L106.628 65.2314L104.519 63.5176L103.2 62.4629L99.5088 59.5625L97.7949 58.1123H97.3994ZM84.875 58.9033V62.7266L85.5342 62.3311L87.248 60.8809L86.5889 60.2217L85.5342 59.2988H85.2705V59.0352L84.875 58.9033ZM29.8994 60.2217L28.1855 61.54L26.7354 62.7266L24.8896 64.1768L22.7803 65.8906L20.9346 67.3408L19.4844 68.5273L17.7705 69.8457L17.375 70.1094V95.4219H21.4619L21.5938 95.29L21.7256 78.6787L38.4688 78.5469V95.4219H42.5557L42.6875 95.29V70.2412L40.8418 68.6592L39.6553 67.7363L36.3594 65.0996L34.5137 63.6494L32.4043 61.9355L30.5586 60.4854L30.2949 60.2217H29.8994ZM46.9062 73.6689V95.4219H50.9932L51.125 95.29V74.7236H50.5977L50.0703 75.6465L49.2793 75.5146L47.5654 74.0645L46.9062 73.6689ZM103.991 82.7656L101.223 83.1611L98.7178 83.8203L96.0811 84.875L94.1035 85.9297L91.9941 87.3799L90.5439 88.5664L89.7529 89.2256L88.8301 90.2803L87.6436 91.5986L86.457 93.3125L85.2705 95.4219L84.2158 97.6631L83.293 100.695L82.8975 102.937L82.7656 104.255V107.683L83.0293 109.924L83.6885 112.692L84.7432 115.461L85.7979 117.57L87.1162 119.548L88.1709 120.866L89.6211 122.448L91.335 124.03L93.5762 125.612L95.9492 126.931L98.5859 127.985L100.827 128.645L103.2 129.04L105.178 129.172H107.023L109.528 128.908L112.033 128.381L114.802 127.458L116.911 126.403L118.757 125.349L120.339 124.162L122.185 122.58L123.107 121.657L124.294 120.207L125.612 118.361L126.931 115.988L127.985 113.352L128.645 111.11L129.04 108.605L129.172 107.023V105.178L128.908 102.277L128.117 98.8496L127.062 96.2129L125.876 93.9717L124.821 92.3896L123.371 90.5439L121.13 88.3027L119.021 86.7207L117.043 85.5342L114.274 84.2158L111.77 83.4248L109.001 82.8975L107.683 82.7656H103.991ZM15.6611 99.6406L12.3652 101.618L8.67383 103.859L6.95996 104.914L6.82812 105.046V106.76L7.88281 107.551L12.1016 110.056L15.5293 112.165L15.793 112.297H18.4297L19.2207 111.77L25.6807 105.31L26.208 105.573L32.0088 111.374L32.5361 111.11L38.0732 105.573V105.31L38.7324 105.441L44.665 111.374L45.1924 111.11L50.7295 105.573V105.31L51.3887 105.441L58.1123 112.165L58.376 112.297H79.2061L79.0742 111.11L78.6787 107.814V104.123L78.9424 101.75L79.3379 99.6406H15.6611Z" fill="#414141"/>
<path d="M132.337 2.21484H133.128L132.864 4.32422L129.7 23.3086L128.118 32.9326L127.854 34.251L127.327 33.9873L115.857 22.5176L115.594 22.3857L115.462 22.9131L88.6992 49.6758L87.7764 49.1484L86.1943 47.8301L84.3486 46.3799L82.2393 44.666L80.9209 43.6113L79.0752 42.1611L76.9658 40.4473L75.6475 39.3926L73.8018 37.9424L71.6924 36.2285L69.8467 34.7783L68.3965 33.5918L67.6055 32.9326L67.0781 33.0645L65.1006 34.7783L63.6504 35.9648L61.6729 37.6787L60.2227 38.8652L58.2451 40.5791L56.7949 41.7656L54.8174 43.4795L53.3672 44.666L51.3896 46.3799L49.9395 47.5664L47.9619 49.2803L46.5117 50.4668L44.5342 52.1807L43.084 53.3672L41.1064 55.0811L40.1836 55.8721L39.5244 55.7402L38.2061 54.5537L36.4922 53.2354L34.3828 51.5215L32.5371 50.0713L31.2188 49.0166L29.6367 47.6982L29.1094 47.8301L27.3955 49.2803L25.9453 50.4668L24.2314 51.917L22.7812 53.1035L21.0674 54.5537L19.6172 55.7402L17.7715 57.3223L15.9258 58.7725L14.6074 59.959L12.7617 61.4092L11.5752 62.4639L10.125 63.6504L8.41113 65.1006L6.96094 66.2871L5.90625 67.0781L5.51074 67.4736H5.24707L4.32422 66.2871L2.87402 64.5732L2.74219 64.1777L3.92871 63.123L5.24707 62.0684L7.09277 60.4863L8.54297 59.2998L10.2568 57.8496L11.707 56.6631L13.4209 55.2129L14.8711 54.0264L16.585 52.5762L18.0352 51.3896L19.749 49.9395L21.1992 48.7529L22.9131 47.3027L24.3633 46.1162L26.0771 44.666L27.5273 43.4795L29.1094 42.1611L29.7686 42.293L31.4824 43.7432L33.3281 45.1934L35.4375 46.9072L37.2832 48.3574L39.3926 50.0713L40.0518 50.335L41.6338 48.8848L43.084 47.6982L44.9297 46.1162L46.6436 44.666L48.0938 43.4795L49.4121 42.293L50.8623 41.1064L52.708 39.5244L54.1582 38.3379L56.1357 36.624L57.5859 35.4375L59.5635 33.7236L61.0137 32.5371L62.9912 30.8232L64.7051 29.373L66.1553 28.1865L67.0781 27.3955L67.7373 27.5273L68.792 28.4502L70.6377 29.9004L72.7471 31.6143L74.5928 33.0645L76.7021 34.7783L78.9434 36.4922L80.6572 37.9424L82.5029 39.3926L84.6123 41.1064L86.458 42.5566L87.7764 43.6113L88.04 43.875H88.4355L112.693 19.6172L112.43 19.0898L101.092 7.75195V7.48828L102.41 7.22461L122.845 3.79688L132.337 2.21484Z" fill="#414141"/>
<path d="M132.335 2.21484H133.126L132.862 4.32422L129.698 23.3086L128.116 32.9326L127.853 34.251L127.325 33.9873L114.669 21.3311L114.142 20.6719L113.087 19.749L101.09 7.75195V7.48828L102.408 7.22461L122.843 3.79688L132.335 2.21484Z" fill="#C13B44"/>
<path d="M59.5615 78.5469H76.3047L76.4365 78.6787V95.29L76.1729 95.4219H59.4297L59.5615 78.5469Z" fill="#C13B44"/>
<path d="M21.7246 78.5469H38.4678V95.29L38.2041 95.4219H21.4609L21.5928 78.6787L21.7246 78.5469Z" fill="#C13B44"/>
<path d="M89.2256 70.1094H105.837L105.969 70.2412V78.415L105.705 78.5469L102.541 78.8105L100.168 79.2061L97.6631 79.8652L95.1582 80.7881L92.917 81.8428L90.4121 83.4248L89.3574 84.2158H89.0938V70.2412L89.2256 70.1094Z" fill="#C13B44"/>
<path d="M115.329 97.5312H117.307L118.889 97.7949L120.471 98.4541L121.789 99.377L122.844 100.3L123.767 101.618L124.426 102.937L124.821 104.255L124.953 105.178V106.892L124.426 109.001L123.767 110.319L122.844 111.506L121.657 112.692L120.339 113.483L118.757 114.143L117.175 114.406H115.725L113.879 114.011L112.297 113.352L110.583 112.033L109.396 110.583L108.474 108.737L108.078 107.023V104.782L108.605 102.805L109.66 100.959L110.847 99.6406L112.297 98.5859L114.011 97.7949L115.329 97.5312ZM115.725 101.75L114.274 102.277L113.088 103.332L112.561 104.387L112.297 105.31V106.628L112.824 108.078L113.747 109.133L114.406 109.66L115.856 110.188H117.043L118.625 109.66L119.943 108.474L120.471 107.551L120.734 106.364V105.31L120.207 103.859L119.284 102.673L117.702 101.882L117.307 101.75H115.725Z" fill="#414141"/>
</svg>
