<svg width="54" height="50" viewBox="0 0 75 70" fill="none" xmlns="http://www.w3.org/2000/svg">
<g filter="url(#filter0_d_648_65671)">
<rect x="4.31641" y="2" width="65.9901" height="62" rx="8" fill="white"/>
<path d="M34.8027 8.21875L34.8789 8.24414V14.0078L34.6758 14.1348L33.5332 14.6172L33.2793 14.7188L33.2539 25.6875L34.8535 25.6621L34.8789 19.2129L34.9043 19.1875H45.4414V25.6875L47.041 25.6621L47.0664 19.2129L47.0918 19.1875H57.6035L57.6289 19.2129V25.6875H62.5039V30.5371L62.377 30.5625H60.8789L60.9043 30.6641L60.8789 53.3125H62.5039V58.1621L62.377 58.1875H12.1543L12.1289 58.1621V53.3379L12.1543 53.3125L13.7285 53.2871L13.7539 22.9961L13.373 23.1484L12.5859 23.4785L12.1797 23.6562L12.1289 23.6309V17.8418L12.3828 17.7148L13.1445 17.3848L14.2363 16.9277L16.8008 15.8359L17.5371 15.5312L18.6035 15.0742L19.2637 14.7949L20.3555 14.3379L21.2441 13.957L22.3359 13.5L23.707 12.916L24.7988 12.459L27.1855 11.4434L28.0996 11.0625L29.166 10.6055L30.2578 10.1484L31.0957 9.79297L32.7715 9.08203L34.7012 8.26953L34.8027 8.21875ZM33.1777 10.6816L30.8418 11.6719L29.75 12.1289L28.5566 12.6367L27.541 13.0684L26.8047 13.373L25.7383 13.8301L23.9355 14.5918L23.1484 14.9219L21.9551 15.4297L19.7969 16.3438L17.8164 17.1816L16.6738 17.6641L15.8867 17.9941L14.5156 18.5781L13.9062 18.832L13.7539 18.9082V21.1934L13.8809 21.168L15.252 20.584L16.9277 19.873L17.7148 19.543L19.0859 18.959L20.1777 18.502L22.209 17.6387L24.3672 16.7246L25.459 16.2676L26.1699 15.9629L27.1855 15.5312L28.0996 15.1504L29.166 14.6934L30.2578 14.2363L31.0957 13.8809L31.7559 13.6016L32.8984 13.1191L33.2031 12.9922L33.2539 12.9414V10.6816H33.1777ZM31.5527 15.4297L30.8418 15.7344L29.75 16.1914L28.3789 16.7754L27.2363 17.2578L26.4492 17.5879L25.0781 18.1719L21.9551 19.4922L19.7969 20.4062L16.6738 21.7266L15.4043 22.2598L15.3789 22.2852V53.3125H18.6035L18.6289 53.2871L18.6543 37.9258L18.6797 37.9004H31.6035L31.6289 53.3125H59.2285L59.2539 53.2871V30.5625L30.0293 30.5371V25.7129L31.6035 25.6875L31.6289 25.6621V15.4297H31.5527ZM36.5039 20.8125V22.4375H42.1914V24.0371L36.5039 24.0625V25.6875H43.791L43.8164 25.6621V20.8125H36.5039ZM48.6914 20.8125V22.4375H54.3789V24.0371L48.6914 24.0625V25.6875H55.9785L56.0039 25.6621V20.8125H48.6914ZM31.6289 27.3125V28.9375H60.8535L60.8789 28.9121V27.3125H31.6289ZM20.2539 39.5V56.5625H29.9785L30.0039 56.5371V39.5H20.2539ZM13.7539 54.9375V56.5625H18.6035L18.6289 56.5371V54.9375H13.7539ZM31.6289 54.9375V56.5625H60.8535L60.8789 56.5371V54.9375H31.6289Z" fill="#323232"/>
<path d="M34.9043 35.4375H44.6035L44.6289 35.4629V45.1875H46.2539V35.4883L46.3047 35.4375H56.0039V45.1875H57.6289V46.7871L57.5781 46.8125H33.2793L33.2539 46.7871V45.2129L33.2793 45.1875L34.8535 45.1621L34.8789 35.4629L34.9043 35.4375Z" fill="#323232"/>
<path d="M18.6797 24.0625H28.3789V33.8125H30.0039V35.4121L29.9531 35.4375H17.0293L17.0039 35.4121V33.8125H18.6289V24.0879L18.6797 24.0625Z" fill="#323232"/>
<path d="M21.9043 41.125H28.3789V48.4121L28.3281 48.4375H21.8789V41.1504L21.9043 41.125ZM23.5039 42.75V46.8125H26.7285L26.7539 46.7871V42.75H23.5039Z" fill="#323232"/>
<path d="M51.9414 37.0625H54.3789V40.2871L54.2773 40.3125H51.9414V37.0625Z" fill="#C13B44"/>
<path d="M24.3164 25.6875H26.7539V28.9121L26.6523 28.9375H24.3164V25.6875Z" fill="#C13B44"/>
<path d="M40.5664 41.9375H43.0039V45.1621L42.877 45.1875H40.5664V41.9375Z" fill="#C13B44"/>
<path d="M24.3164 30.5625H26.7539V33.7871L26.627 33.8125H24.3164V30.5625Z" fill="#C13B44"/>
<path d="M51.9414 41.9375H54.3789V45.1621L54.2266 45.1875H51.9414V41.9375Z" fill="#C13B44"/>
<path d="M47.8789 41.9375H50.3164V45.1621L50.1641 45.1875H47.8789V41.9375Z" fill="#C13B44"/>
<path d="M36.5039 41.9375H38.9414V45.1621L38.7891 45.1875H36.5039V41.9375Z" fill="#C13B44"/>
<path d="M47.8789 37.0625H50.3164V40.2871L50.1641 40.3125H47.8789V37.0625Z" fill="#C13B44"/>
<path d="M40.5664 37.0625H43.0039V40.2871L42.8516 40.3125H40.5664V37.0625Z" fill="#C13B44"/>
<path d="M36.5039 37.0625H38.9414V40.2871L38.7891 40.3125H36.5039V37.0625Z" fill="#C13B44"/>
<path d="M20.2539 25.6875H22.6914V28.9121L22.5391 28.9375H20.2539V25.6875Z" fill="#C13B44"/>
<path d="M20.2793 30.5625H22.6914V33.7871L22.5391 33.8125H20.2539V30.5879L20.2793 30.5625Z" fill="#C13B44"/>
</g>
<defs>
<filter id="filter0_d_648_65671" x="0.316406" y="0" width="73.9902" height="70" filterUnits="userSpaceOnUse" color-interpolation-filters="sRGB">
<feFlood flood-opacity="0" result="BackgroundImageFix"/>
<feColorMatrix in="SourceAlpha" type="matrix" values="0 0 0 0 0 0 0 0 0 0 0 0 0 0 0 0 0 0 127 0" result="hardAlpha"/>
<feOffset dy="2"/>
<feGaussianBlur stdDeviation="2"/>
<feComposite in2="hardAlpha" operator="out"/>
<feColorMatrix type="matrix" values="0 0 0 0 0 0 0 0 0 0 0 0 0 0 0 0 0 0 0.15 0"/>
<feBlend mode="normal" in2="BackgroundImageFix" result="effect1_dropShadow_648_65671"/>
<feBlend mode="normal" in="SourceGraphic" in2="effect1_dropShadow_648_65671" result="shape"/>
</filter>
</defs>
</svg>
