<svg width="45" height="42" viewBox="0 0 39 36" fill="none" xmlns="http://www.w3.org/2000/svg">
<rect x="1.02734" y="0.25" width="36.8333" height="35.5" rx="7.75" fill="white" fill-opacity="0.5"/>
<rect x="1.02734" y="0.25" width="36.8333" height="35.5" rx="7.75" stroke="#8B8B8B" stroke-width="0.5"/>
<path d="M25.444 20.3021V23C25.444 23.8264 25.1506 24.533 24.5638 25.1198C23.977 25.7066 23.2704 26 22.444 26H13.7773C12.951 26 12.2444 25.7066 11.6576 25.1198C11.0707 24.533 10.7773 23.8264 10.7773 23V14.3333C10.7773 13.5069 11.0707 12.8003 11.6576 12.2135C12.2444 11.6267 12.951 11.3333 13.7773 11.3333H16.4336C16.5239 11.3333 16.602 11.3663 16.668 11.4323C16.7339 11.4983 16.7669 11.5764 16.7669 11.6667C16.7669 11.8542 16.6766 11.9653 16.4961 12C15.9614 12.1806 15.4996 12.3889 15.1107 12.625C15.0412 12.6528 14.9857 12.6667 14.944 12.6667H13.7773C13.319 12.6667 12.9266 12.8299 12.6003 13.1562C12.2739 13.4826 12.1107 13.875 12.1107 14.3333V23C12.1107 23.4583 12.2739 23.8507 12.6003 24.1771C12.9266 24.5035 13.319 24.6667 13.7773 24.6667H22.444C22.9023 24.6667 23.2947 24.5035 23.6211 24.1771C23.9475 23.8507 24.1107 23.4583 24.1107 23V20.7708C24.1107 20.6389 24.1732 20.5382 24.2982 20.4688C24.4926 20.3785 24.6801 20.25 24.8607 20.0833C24.9718 19.9722 25.0933 19.9444 25.2253 20C25.3711 20.0625 25.444 20.1632 25.444 20.3021ZM27.9128 15.1354L23.9128 19.1354C23.7878 19.2674 23.6315 19.3333 23.444 19.3333C23.3607 19.3333 23.2739 19.316 23.1836 19.2812C22.9128 19.1632 22.7773 18.9583 22.7773 18.6667V16.6667H21.1107C18.8676 16.6667 17.3468 17.1215 16.5482 18.0312C15.7218 18.9826 15.4648 20.625 15.7773 22.9583C15.7982 23.1181 15.7287 23.2361 15.569 23.3125C15.5135 23.3264 15.4718 23.3333 15.444 23.3333C15.3329 23.3333 15.2426 23.2882 15.1732 23.1979C15.1037 23.1007 15.0308 22.9931 14.9544 22.875C14.878 22.7569 14.7409 22.5191 14.543 22.1615C14.3451 21.8038 14.1732 21.4583 14.0273 21.125C13.8815 20.7917 13.7478 20.3958 13.6263 19.9375C13.5048 19.4792 13.444 19.0556 13.444 18.6667C13.444 18.3264 13.4562 18.0104 13.4805 17.7188C13.5048 17.4271 13.5534 17.1146 13.6263 16.7812C13.6992 16.4479 13.7964 16.1424 13.918 15.8646C14.0395 15.5868 14.2027 15.3038 14.4076 15.0156C14.6124 14.7274 14.8503 14.4705 15.1211 14.2448C15.3919 14.0191 15.7201 13.8056 16.1055 13.6042C16.4909 13.4028 16.9232 13.2344 17.4023 13.099C17.8815 12.9635 18.4353 12.8576 19.0638 12.7812C19.6923 12.7049 20.3746 12.6667 21.1107 12.6667H22.7773V10.6667C22.7773 10.375 22.9128 10.1701 23.1836 10.0521C23.2739 10.0174 23.3607 10 23.444 10C23.6246 10 23.7808 10.066 23.9128 10.1979L27.9128 14.1979C28.0447 14.3299 28.1107 14.4861 28.1107 14.6667C28.1107 14.8472 28.0447 15.0035 27.9128 15.1354Z" fill="#8B8B8B"/>
</svg>
