<?xml version="1.0" encoding="utf-8"?>
<!-- Uploaded to: SVG Repo, www.svgrepo.com, Generator: SVG Repo Mixer Tools -->
<svg width="40px" height="40px" viewBox="0 -14 1052 1052" fill="#000000" class="icon"  version="1.1" xmlns="http://www.w3.org/2000/svg"><path d="M882.575004 214.120064a39.716473 39.716473 0 0 0-42.142881 3.57576l-146.223029 108.16673v-74.963247a42.78141 42.78141 0 0 0-67.556317-33.203483l-147.116969 108.16673v-75.090953a41.376648 41.376648 0 0 0-41.376647-41.121236 41.504353 41.504353 0 0 0-24.519495 8.045459l-147.755498 108.549847V38.397018a38.311711 38.311711 0 0 0-40.610413-38.311711H40.866721a38.311711 38.311711 0 0 0-40.865825 38.311711v907.987543a42.142882 42.142882 0 0 0 40.865825 42.398293h507.119344a113.530369 113.530369 0 0 1-1.404763-17.112564 168.18841 168.18841 0 0 1 16.474035-61.937266h-2.937231a12.77057 12.77057 0 0 1-9.577927-4.469699H310.070341v-118.766303h243.917892a274.311848 274.311848 0 0 1 32.948071-82.242473h-317.987199a41.248942 41.248942 0 0 0-41.121236 41.121237v161.803124H83.903543V81.944663h100.504387v323.350838a40.738119 40.738119 0 0 0 7.790048 26.307374 40.227296 40.227296 0 0 0 2.937231 3.064937l2.298703 2.426408 3.448054 2.937232a40.482708 40.482708 0 0 0 4.086582 2.681819l2.937232 1.660174a40.09959 40.09959 0 0 0 6.257579 2.298703l2.043291 0.638529a40.09959 40.09959 0 0 0 9.067105 1.149351 40.738119 40.738119 0 0 0 7.662342-0.766234h1.277057a40.227296 40.227296 0 0 0 6.25758-2.043292h0.766234a41.376648 41.376648 0 0 0 8.173165-4.597405l147.244675-108.16673v73.941602a41.504353 41.504353 0 0 0 66.023848 33.203483l147.627791-108.294436v75.090953a40.482708 40.482708 0 0 0 40.355002 41.121236 39.588768 39.588768 0 0 0 8.683988-1.021646v-65.64073a12.77057 12.77057 0 0 1 12.77057-12.770571h99.482742l49.93293-36.779242v36.779242h82.753295v-118.127774a40.610413 40.610413 0 0 0-21.70997-36.26842z m-651.299081 419.640938h85.818232v-85.818232h-85.818232v85.818232z m344.805396 0v-85.818232h-85.818232v85.818232h85.818232zM723.325994 432.752226H966.733062v76.623422H723.325994zM973.62917 563.012043v71.387487h-91.054166v-103.441619h-76.623421v104.335559a211.480643 211.480643 0 0 0-194.878901 210.586703h96.162393a114.935132 114.935132 0 0 1 114.935132-114.935132h151.203552v85.945938h76.623421V563.012043h-76.623421zM610.306447 971.542584a49.93293 49.93293 0 1 0 99.738154 0c0-27.584432-49.93293-109.06067-49.93293-109.06067s-49.805224 81.603944-49.805224 109.06067z" /></svg>